%TF.GenerationSoftware,KiCad,Pcbnew,9.0.1*%
%TF.CreationDate,2025-11-16T17:30:07-08:00*%
%TF.ProjectId,Si-LTC7800-Alternate,53692d4c-5443-4373-9830-302d416c7465,rev?*%
%TF.SameCoordinates,Original*%
%TF.FileFunction,Legend,Top*%
%TF.FilePolarity,Positive*%
%FSLAX46Y46*%
G04 Gerber Fmt 4.6, Leading zero omitted, Abs format (unit mm)*
G04 Created by KiCad (PCBNEW 9.0.1) date 2025-11-16 17:30:07*
%MOMM*%
%LPD*%
G01*
G04 APERTURE LIST*
%ADD10C,0.062500*%
%ADD11C,0.120000*%
%ADD12C,0.127000*%
%ADD13C,0.200000*%
%ADD14C,0.100000*%
%ADD15C,0.300000*%
G04 APERTURE END LIST*
D10*
X134558997Y-124627137D02*
X134535188Y-124650947D01*
X134535188Y-124650947D02*
X134463759Y-124674756D01*
X134463759Y-124674756D02*
X134416140Y-124674756D01*
X134416140Y-124674756D02*
X134344712Y-124650947D01*
X134344712Y-124650947D02*
X134297093Y-124603327D01*
X134297093Y-124603327D02*
X134273283Y-124555708D01*
X134273283Y-124555708D02*
X134249474Y-124460470D01*
X134249474Y-124460470D02*
X134249474Y-124389042D01*
X134249474Y-124389042D02*
X134273283Y-124293804D01*
X134273283Y-124293804D02*
X134297093Y-124246185D01*
X134297093Y-124246185D02*
X134344712Y-124198566D01*
X134344712Y-124198566D02*
X134416140Y-124174756D01*
X134416140Y-124174756D02*
X134463759Y-124174756D01*
X134463759Y-124174756D02*
X134535188Y-124198566D01*
X134535188Y-124198566D02*
X134558997Y-124222375D01*
X134725664Y-124174756D02*
X135035188Y-124174756D01*
X135035188Y-124174756D02*
X134868521Y-124365232D01*
X134868521Y-124365232D02*
X134939950Y-124365232D01*
X134939950Y-124365232D02*
X134987569Y-124389042D01*
X134987569Y-124389042D02*
X135011378Y-124412851D01*
X135011378Y-124412851D02*
X135035188Y-124460470D01*
X135035188Y-124460470D02*
X135035188Y-124579518D01*
X135035188Y-124579518D02*
X135011378Y-124627137D01*
X135011378Y-124627137D02*
X134987569Y-124650947D01*
X134987569Y-124650947D02*
X134939950Y-124674756D01*
X134939950Y-124674756D02*
X134797093Y-124674756D01*
X134797093Y-124674756D02*
X134749474Y-124650947D01*
X134749474Y-124650947D02*
X134725664Y-124627137D01*
X146354324Y-125466894D02*
X146116229Y-125466894D01*
X146116229Y-125466894D02*
X146116229Y-124966894D01*
X146782896Y-125466894D02*
X146497182Y-125466894D01*
X146640039Y-125466894D02*
X146640039Y-124966894D01*
X146640039Y-124966894D02*
X146592420Y-125038323D01*
X146592420Y-125038323D02*
X146544801Y-125085942D01*
X146544801Y-125085942D02*
X146497182Y-125109751D01*
X160233323Y-129709926D02*
X160209514Y-129733736D01*
X160209514Y-129733736D02*
X160138085Y-129757545D01*
X160138085Y-129757545D02*
X160090466Y-129757545D01*
X160090466Y-129757545D02*
X160019038Y-129733736D01*
X160019038Y-129733736D02*
X159971419Y-129686116D01*
X159971419Y-129686116D02*
X159947609Y-129638497D01*
X159947609Y-129638497D02*
X159923800Y-129543259D01*
X159923800Y-129543259D02*
X159923800Y-129471831D01*
X159923800Y-129471831D02*
X159947609Y-129376593D01*
X159947609Y-129376593D02*
X159971419Y-129328974D01*
X159971419Y-129328974D02*
X160019038Y-129281355D01*
X160019038Y-129281355D02*
X160090466Y-129257545D01*
X160090466Y-129257545D02*
X160138085Y-129257545D01*
X160138085Y-129257545D02*
X160209514Y-129281355D01*
X160209514Y-129281355D02*
X160233323Y-129305164D01*
X160542847Y-129257545D02*
X160638085Y-129257545D01*
X160638085Y-129257545D02*
X160685704Y-129281355D01*
X160685704Y-129281355D02*
X160733323Y-129328974D01*
X160733323Y-129328974D02*
X160757133Y-129424212D01*
X160757133Y-129424212D02*
X160757133Y-129590878D01*
X160757133Y-129590878D02*
X160733323Y-129686116D01*
X160733323Y-129686116D02*
X160685704Y-129733736D01*
X160685704Y-129733736D02*
X160638085Y-129757545D01*
X160638085Y-129757545D02*
X160542847Y-129757545D01*
X160542847Y-129757545D02*
X160495228Y-129733736D01*
X160495228Y-129733736D02*
X160447609Y-129686116D01*
X160447609Y-129686116D02*
X160423800Y-129590878D01*
X160423800Y-129590878D02*
X160423800Y-129424212D01*
X160423800Y-129424212D02*
X160447609Y-129328974D01*
X160447609Y-129328974D02*
X160495228Y-129281355D01*
X160495228Y-129281355D02*
X160542847Y-129257545D01*
X160971419Y-129257545D02*
X160971419Y-129662307D01*
X160971419Y-129662307D02*
X160995229Y-129709926D01*
X160995229Y-129709926D02*
X161019038Y-129733736D01*
X161019038Y-129733736D02*
X161066657Y-129757545D01*
X161066657Y-129757545D02*
X161161895Y-129757545D01*
X161161895Y-129757545D02*
X161209514Y-129733736D01*
X161209514Y-129733736D02*
X161233324Y-129709926D01*
X161233324Y-129709926D02*
X161257133Y-129662307D01*
X161257133Y-129662307D02*
X161257133Y-129257545D01*
X161423801Y-129257545D02*
X161709515Y-129257545D01*
X161566658Y-129757545D02*
X161566658Y-129257545D01*
X162138086Y-129757545D02*
X161852372Y-129757545D01*
X161995229Y-129757545D02*
X161995229Y-129257545D01*
X161995229Y-129257545D02*
X161947610Y-129328974D01*
X161947610Y-129328974D02*
X161899991Y-129376593D01*
X161899991Y-129376593D02*
X161852372Y-129400402D01*
X124679675Y-144697511D02*
X124655866Y-144721321D01*
X124655866Y-144721321D02*
X124584437Y-144745130D01*
X124584437Y-144745130D02*
X124536818Y-144745130D01*
X124536818Y-144745130D02*
X124465390Y-144721321D01*
X124465390Y-144721321D02*
X124417771Y-144673701D01*
X124417771Y-144673701D02*
X124393961Y-144626082D01*
X124393961Y-144626082D02*
X124370152Y-144530844D01*
X124370152Y-144530844D02*
X124370152Y-144459416D01*
X124370152Y-144459416D02*
X124393961Y-144364178D01*
X124393961Y-144364178D02*
X124417771Y-144316559D01*
X124417771Y-144316559D02*
X124465390Y-144268940D01*
X124465390Y-144268940D02*
X124536818Y-144245130D01*
X124536818Y-144245130D02*
X124584437Y-144245130D01*
X124584437Y-144245130D02*
X124655866Y-144268940D01*
X124655866Y-144268940D02*
X124679675Y-144292749D01*
X125132056Y-144245130D02*
X124893961Y-144245130D01*
X124893961Y-144245130D02*
X124870152Y-144483225D01*
X124870152Y-144483225D02*
X124893961Y-144459416D01*
X124893961Y-144459416D02*
X124941580Y-144435606D01*
X124941580Y-144435606D02*
X125060628Y-144435606D01*
X125060628Y-144435606D02*
X125108247Y-144459416D01*
X125108247Y-144459416D02*
X125132056Y-144483225D01*
X125132056Y-144483225D02*
X125155866Y-144530844D01*
X125155866Y-144530844D02*
X125155866Y-144649892D01*
X125155866Y-144649892D02*
X125132056Y-144697511D01*
X125132056Y-144697511D02*
X125108247Y-144721321D01*
X125108247Y-144721321D02*
X125060628Y-144745130D01*
X125060628Y-144745130D02*
X124941580Y-144745130D01*
X124941580Y-144745130D02*
X124893961Y-144721321D01*
X124893961Y-144721321D02*
X124870152Y-144697511D01*
X152658374Y-135064660D02*
X152708881Y-134778450D01*
X152456343Y-134862629D02*
X152809897Y-134509076D01*
X152809897Y-134509076D02*
X152944584Y-134643763D01*
X152944584Y-134643763D02*
X152961419Y-134694270D01*
X152961419Y-134694270D02*
X152961419Y-134727942D01*
X152961419Y-134727942D02*
X152944584Y-134778450D01*
X152944584Y-134778450D02*
X152894076Y-134828957D01*
X152894076Y-134828957D02*
X152843568Y-134845793D01*
X152843568Y-134845793D02*
X152809897Y-134845793D01*
X152809897Y-134845793D02*
X152759389Y-134828957D01*
X152759389Y-134828957D02*
X152624702Y-134694270D01*
X153197122Y-135132003D02*
X152961419Y-135367705D01*
X153247629Y-134913137D02*
X152910912Y-135081495D01*
X152910912Y-135081495D02*
X153129778Y-135300362D01*
X122933780Y-146750652D02*
X122909971Y-146774462D01*
X122909971Y-146774462D02*
X122838542Y-146798271D01*
X122838542Y-146798271D02*
X122790923Y-146798271D01*
X122790923Y-146798271D02*
X122719495Y-146774462D01*
X122719495Y-146774462D02*
X122671876Y-146726842D01*
X122671876Y-146726842D02*
X122648066Y-146679223D01*
X122648066Y-146679223D02*
X122624257Y-146583985D01*
X122624257Y-146583985D02*
X122624257Y-146512557D01*
X122624257Y-146512557D02*
X122648066Y-146417319D01*
X122648066Y-146417319D02*
X122671876Y-146369700D01*
X122671876Y-146369700D02*
X122719495Y-146322081D01*
X122719495Y-146322081D02*
X122790923Y-146298271D01*
X122790923Y-146298271D02*
X122838542Y-146298271D01*
X122838542Y-146298271D02*
X122909971Y-146322081D01*
X122909971Y-146322081D02*
X122933780Y-146345890D01*
X123386161Y-146298271D02*
X123148066Y-146298271D01*
X123148066Y-146298271D02*
X123124257Y-146536366D01*
X123124257Y-146536366D02*
X123148066Y-146512557D01*
X123148066Y-146512557D02*
X123195685Y-146488747D01*
X123195685Y-146488747D02*
X123314733Y-146488747D01*
X123314733Y-146488747D02*
X123362352Y-146512557D01*
X123362352Y-146512557D02*
X123386161Y-146536366D01*
X123386161Y-146536366D02*
X123409971Y-146583985D01*
X123409971Y-146583985D02*
X123409971Y-146703033D01*
X123409971Y-146703033D02*
X123386161Y-146750652D01*
X123386161Y-146750652D02*
X123362352Y-146774462D01*
X123362352Y-146774462D02*
X123314733Y-146798271D01*
X123314733Y-146798271D02*
X123195685Y-146798271D01*
X123195685Y-146798271D02*
X123148066Y-146774462D01*
X123148066Y-146774462D02*
X123124257Y-146750652D01*
X123505209Y-146845890D02*
X123886161Y-146845890D01*
X124005208Y-146536366D02*
X124171875Y-146536366D01*
X124243303Y-146798271D02*
X124005208Y-146798271D01*
X124005208Y-146798271D02*
X124005208Y-146298271D01*
X124005208Y-146298271D02*
X124243303Y-146298271D01*
X124409970Y-146298271D02*
X124743303Y-146798271D01*
X124743303Y-146298271D02*
X124409970Y-146798271D01*
X125195684Y-146798271D02*
X124909970Y-146798271D01*
X125052827Y-146798271D02*
X125052827Y-146298271D01*
X125052827Y-146298271D02*
X125005208Y-146369700D01*
X125005208Y-146369700D02*
X124957589Y-146417319D01*
X124957589Y-146417319D02*
X124909970Y-146441128D01*
X160412137Y-136161915D02*
X160388328Y-136185725D01*
X160388328Y-136185725D02*
X160316899Y-136209534D01*
X160316899Y-136209534D02*
X160269280Y-136209534D01*
X160269280Y-136209534D02*
X160197852Y-136185725D01*
X160197852Y-136185725D02*
X160150233Y-136138105D01*
X160150233Y-136138105D02*
X160126423Y-136090486D01*
X160126423Y-136090486D02*
X160102614Y-135995248D01*
X160102614Y-135995248D02*
X160102614Y-135923820D01*
X160102614Y-135923820D02*
X160126423Y-135828582D01*
X160126423Y-135828582D02*
X160150233Y-135780963D01*
X160150233Y-135780963D02*
X160197852Y-135733344D01*
X160197852Y-135733344D02*
X160269280Y-135709534D01*
X160269280Y-135709534D02*
X160316899Y-135709534D01*
X160316899Y-135709534D02*
X160388328Y-135733344D01*
X160388328Y-135733344D02*
X160412137Y-135757153D01*
X160721661Y-135709534D02*
X160816899Y-135709534D01*
X160816899Y-135709534D02*
X160864518Y-135733344D01*
X160864518Y-135733344D02*
X160912137Y-135780963D01*
X160912137Y-135780963D02*
X160935947Y-135876201D01*
X160935947Y-135876201D02*
X160935947Y-136042867D01*
X160935947Y-136042867D02*
X160912137Y-136138105D01*
X160912137Y-136138105D02*
X160864518Y-136185725D01*
X160864518Y-136185725D02*
X160816899Y-136209534D01*
X160816899Y-136209534D02*
X160721661Y-136209534D01*
X160721661Y-136209534D02*
X160674042Y-136185725D01*
X160674042Y-136185725D02*
X160626423Y-136138105D01*
X160626423Y-136138105D02*
X160602614Y-136042867D01*
X160602614Y-136042867D02*
X160602614Y-135876201D01*
X160602614Y-135876201D02*
X160626423Y-135780963D01*
X160626423Y-135780963D02*
X160674042Y-135733344D01*
X160674042Y-135733344D02*
X160721661Y-135709534D01*
X161150233Y-135709534D02*
X161150233Y-136114296D01*
X161150233Y-136114296D02*
X161174043Y-136161915D01*
X161174043Y-136161915D02*
X161197852Y-136185725D01*
X161197852Y-136185725D02*
X161245471Y-136209534D01*
X161245471Y-136209534D02*
X161340709Y-136209534D01*
X161340709Y-136209534D02*
X161388328Y-136185725D01*
X161388328Y-136185725D02*
X161412138Y-136161915D01*
X161412138Y-136161915D02*
X161435947Y-136114296D01*
X161435947Y-136114296D02*
X161435947Y-135709534D01*
X161602615Y-135709534D02*
X161888329Y-135709534D01*
X161745472Y-136209534D02*
X161745472Y-135709534D01*
X161935948Y-136257153D02*
X162316900Y-136257153D01*
X162435947Y-135947629D02*
X162602614Y-135947629D01*
X162674042Y-136209534D02*
X162435947Y-136209534D01*
X162435947Y-136209534D02*
X162435947Y-135709534D01*
X162435947Y-135709534D02*
X162674042Y-135709534D01*
X162840709Y-135709534D02*
X163174042Y-136209534D01*
X163174042Y-135709534D02*
X162840709Y-136209534D01*
X163340709Y-135757153D02*
X163364518Y-135733344D01*
X163364518Y-135733344D02*
X163412137Y-135709534D01*
X163412137Y-135709534D02*
X163531185Y-135709534D01*
X163531185Y-135709534D02*
X163578804Y-135733344D01*
X163578804Y-135733344D02*
X163602613Y-135757153D01*
X163602613Y-135757153D02*
X163626423Y-135804772D01*
X163626423Y-135804772D02*
X163626423Y-135852391D01*
X163626423Y-135852391D02*
X163602613Y-135923820D01*
X163602613Y-135923820D02*
X163316899Y-136209534D01*
X163316899Y-136209534D02*
X163626423Y-136209534D01*
X157936107Y-143531286D02*
X157698012Y-143697952D01*
X157936107Y-143817000D02*
X157436107Y-143817000D01*
X157436107Y-143817000D02*
X157436107Y-143626524D01*
X157436107Y-143626524D02*
X157459917Y-143578905D01*
X157459917Y-143578905D02*
X157483726Y-143555095D01*
X157483726Y-143555095D02*
X157531345Y-143531286D01*
X157531345Y-143531286D02*
X157602774Y-143531286D01*
X157602774Y-143531286D02*
X157650393Y-143555095D01*
X157650393Y-143555095D02*
X157674202Y-143578905D01*
X157674202Y-143578905D02*
X157698012Y-143626524D01*
X157698012Y-143626524D02*
X157698012Y-143817000D01*
X157436107Y-143078905D02*
X157436107Y-143317000D01*
X157436107Y-143317000D02*
X157674202Y-143340809D01*
X157674202Y-143340809D02*
X157650393Y-143317000D01*
X157650393Y-143317000D02*
X157626583Y-143269381D01*
X157626583Y-143269381D02*
X157626583Y-143150333D01*
X157626583Y-143150333D02*
X157650393Y-143102714D01*
X157650393Y-143102714D02*
X157674202Y-143078905D01*
X157674202Y-143078905D02*
X157721821Y-143055095D01*
X157721821Y-143055095D02*
X157840869Y-143055095D01*
X157840869Y-143055095D02*
X157888488Y-143078905D01*
X157888488Y-143078905D02*
X157912298Y-143102714D01*
X157912298Y-143102714D02*
X157936107Y-143150333D01*
X157936107Y-143150333D02*
X157936107Y-143269381D01*
X157936107Y-143269381D02*
X157912298Y-143317000D01*
X157912298Y-143317000D02*
X157888488Y-143340809D01*
X152900993Y-137110459D02*
X152877184Y-137134269D01*
X152877184Y-137134269D02*
X152805755Y-137158078D01*
X152805755Y-137158078D02*
X152758136Y-137158078D01*
X152758136Y-137158078D02*
X152686708Y-137134269D01*
X152686708Y-137134269D02*
X152639089Y-137086649D01*
X152639089Y-137086649D02*
X152615279Y-137039030D01*
X152615279Y-137039030D02*
X152591470Y-136943792D01*
X152591470Y-136943792D02*
X152591470Y-136872364D01*
X152591470Y-136872364D02*
X152615279Y-136777126D01*
X152615279Y-136777126D02*
X152639089Y-136729507D01*
X152639089Y-136729507D02*
X152686708Y-136681888D01*
X152686708Y-136681888D02*
X152758136Y-136658078D01*
X152758136Y-136658078D02*
X152805755Y-136658078D01*
X152805755Y-136658078D02*
X152877184Y-136681888D01*
X152877184Y-136681888D02*
X152900993Y-136705697D01*
X153091470Y-137134269D02*
X153162898Y-137158078D01*
X153162898Y-137158078D02*
X153281946Y-137158078D01*
X153281946Y-137158078D02*
X153329565Y-137134269D01*
X153329565Y-137134269D02*
X153353374Y-137110459D01*
X153353374Y-137110459D02*
X153377184Y-137062840D01*
X153377184Y-137062840D02*
X153377184Y-137015221D01*
X153377184Y-137015221D02*
X153353374Y-136967602D01*
X153353374Y-136967602D02*
X153329565Y-136943792D01*
X153329565Y-136943792D02*
X153281946Y-136919983D01*
X153281946Y-136919983D02*
X153186708Y-136896173D01*
X153186708Y-136896173D02*
X153139089Y-136872364D01*
X153139089Y-136872364D02*
X153115279Y-136848554D01*
X153115279Y-136848554D02*
X153091470Y-136800935D01*
X153091470Y-136800935D02*
X153091470Y-136753316D01*
X153091470Y-136753316D02*
X153115279Y-136705697D01*
X153115279Y-136705697D02*
X153139089Y-136681888D01*
X153139089Y-136681888D02*
X153186708Y-136658078D01*
X153186708Y-136658078D02*
X153305755Y-136658078D01*
X153305755Y-136658078D02*
X153377184Y-136681888D01*
X153591469Y-136896173D02*
X153758136Y-136896173D01*
X153829564Y-137158078D02*
X153591469Y-137158078D01*
X153591469Y-137158078D02*
X153591469Y-136658078D01*
X153591469Y-136658078D02*
X153829564Y-136658078D01*
X154043850Y-137158078D02*
X154043850Y-136658078D01*
X154043850Y-136658078D02*
X154329564Y-137158078D01*
X154329564Y-137158078D02*
X154329564Y-136658078D01*
X154543851Y-137134269D02*
X154615279Y-137158078D01*
X154615279Y-137158078D02*
X154734327Y-137158078D01*
X154734327Y-137158078D02*
X154781946Y-137134269D01*
X154781946Y-137134269D02*
X154805755Y-137110459D01*
X154805755Y-137110459D02*
X154829565Y-137062840D01*
X154829565Y-137062840D02*
X154829565Y-137015221D01*
X154829565Y-137015221D02*
X154805755Y-136967602D01*
X154805755Y-136967602D02*
X154781946Y-136943792D01*
X154781946Y-136943792D02*
X154734327Y-136919983D01*
X154734327Y-136919983D02*
X154639089Y-136896173D01*
X154639089Y-136896173D02*
X154591470Y-136872364D01*
X154591470Y-136872364D02*
X154567660Y-136848554D01*
X154567660Y-136848554D02*
X154543851Y-136800935D01*
X154543851Y-136800935D02*
X154543851Y-136753316D01*
X154543851Y-136753316D02*
X154567660Y-136705697D01*
X154567660Y-136705697D02*
X154591470Y-136681888D01*
X154591470Y-136681888D02*
X154639089Y-136658078D01*
X154639089Y-136658078D02*
X154758136Y-136658078D01*
X154758136Y-136658078D02*
X154829565Y-136681888D01*
X155043850Y-136896173D02*
X155210517Y-136896173D01*
X155281945Y-137158078D02*
X155043850Y-137158078D01*
X155043850Y-137158078D02*
X155043850Y-136658078D01*
X155043850Y-136658078D02*
X155281945Y-136658078D01*
X155758136Y-137158078D02*
X155472422Y-137158078D01*
X155615279Y-137158078D02*
X155615279Y-136658078D01*
X155615279Y-136658078D02*
X155567660Y-136729507D01*
X155567660Y-136729507D02*
X155520041Y-136777126D01*
X155520041Y-136777126D02*
X155472422Y-136800935D01*
X179489880Y-119640678D02*
X179442261Y-119616869D01*
X179442261Y-119616869D02*
X179394642Y-119569250D01*
X179394642Y-119569250D02*
X179323214Y-119497821D01*
X179323214Y-119497821D02*
X179275595Y-119474011D01*
X179275595Y-119474011D02*
X179227976Y-119474011D01*
X179251785Y-119593059D02*
X179204166Y-119569250D01*
X179204166Y-119569250D02*
X179156547Y-119521630D01*
X179156547Y-119521630D02*
X179132738Y-119426392D01*
X179132738Y-119426392D02*
X179132738Y-119259726D01*
X179132738Y-119259726D02*
X179156547Y-119164488D01*
X179156547Y-119164488D02*
X179204166Y-119116869D01*
X179204166Y-119116869D02*
X179251785Y-119093059D01*
X179251785Y-119093059D02*
X179347023Y-119093059D01*
X179347023Y-119093059D02*
X179394642Y-119116869D01*
X179394642Y-119116869D02*
X179442261Y-119164488D01*
X179442261Y-119164488D02*
X179466071Y-119259726D01*
X179466071Y-119259726D02*
X179466071Y-119426392D01*
X179466071Y-119426392D02*
X179442261Y-119521630D01*
X179442261Y-119521630D02*
X179394642Y-119569250D01*
X179394642Y-119569250D02*
X179347023Y-119593059D01*
X179347023Y-119593059D02*
X179251785Y-119593059D01*
X179656548Y-119140678D02*
X179680357Y-119116869D01*
X179680357Y-119116869D02*
X179727976Y-119093059D01*
X179727976Y-119093059D02*
X179847024Y-119093059D01*
X179847024Y-119093059D02*
X179894643Y-119116869D01*
X179894643Y-119116869D02*
X179918452Y-119140678D01*
X179918452Y-119140678D02*
X179942262Y-119188297D01*
X179942262Y-119188297D02*
X179942262Y-119235916D01*
X179942262Y-119235916D02*
X179918452Y-119307345D01*
X179918452Y-119307345D02*
X179632738Y-119593059D01*
X179632738Y-119593059D02*
X179942262Y-119593059D01*
X152383464Y-131223498D02*
X152216798Y-130985403D01*
X152097750Y-131223498D02*
X152097750Y-130723498D01*
X152097750Y-130723498D02*
X152288226Y-130723498D01*
X152288226Y-130723498D02*
X152335845Y-130747308D01*
X152335845Y-130747308D02*
X152359655Y-130771117D01*
X152359655Y-130771117D02*
X152383464Y-130818736D01*
X152383464Y-130818736D02*
X152383464Y-130890165D01*
X152383464Y-130890165D02*
X152359655Y-130937784D01*
X152359655Y-130937784D02*
X152335845Y-130961593D01*
X152335845Y-130961593D02*
X152288226Y-130985403D01*
X152288226Y-130985403D02*
X152097750Y-130985403D01*
X152573941Y-131199689D02*
X152645369Y-131223498D01*
X152645369Y-131223498D02*
X152764417Y-131223498D01*
X152764417Y-131223498D02*
X152812036Y-131199689D01*
X152812036Y-131199689D02*
X152835845Y-131175879D01*
X152835845Y-131175879D02*
X152859655Y-131128260D01*
X152859655Y-131128260D02*
X152859655Y-131080641D01*
X152859655Y-131080641D02*
X152835845Y-131033022D01*
X152835845Y-131033022D02*
X152812036Y-131009212D01*
X152812036Y-131009212D02*
X152764417Y-130985403D01*
X152764417Y-130985403D02*
X152669179Y-130961593D01*
X152669179Y-130961593D02*
X152621560Y-130937784D01*
X152621560Y-130937784D02*
X152597750Y-130913974D01*
X152597750Y-130913974D02*
X152573941Y-130866355D01*
X152573941Y-130866355D02*
X152573941Y-130818736D01*
X152573941Y-130818736D02*
X152597750Y-130771117D01*
X152597750Y-130771117D02*
X152621560Y-130747308D01*
X152621560Y-130747308D02*
X152669179Y-130723498D01*
X152669179Y-130723498D02*
X152788226Y-130723498D01*
X152788226Y-130723498D02*
X152859655Y-130747308D01*
X153073940Y-130961593D02*
X153240607Y-130961593D01*
X153312035Y-131223498D02*
X153073940Y-131223498D01*
X153073940Y-131223498D02*
X153073940Y-130723498D01*
X153073940Y-130723498D02*
X153312035Y-130723498D01*
X153526321Y-131223498D02*
X153526321Y-130723498D01*
X153526321Y-130723498D02*
X153812035Y-131223498D01*
X153812035Y-131223498D02*
X153812035Y-130723498D01*
X154026322Y-131199689D02*
X154097750Y-131223498D01*
X154097750Y-131223498D02*
X154216798Y-131223498D01*
X154216798Y-131223498D02*
X154264417Y-131199689D01*
X154264417Y-131199689D02*
X154288226Y-131175879D01*
X154288226Y-131175879D02*
X154312036Y-131128260D01*
X154312036Y-131128260D02*
X154312036Y-131080641D01*
X154312036Y-131080641D02*
X154288226Y-131033022D01*
X154288226Y-131033022D02*
X154264417Y-131009212D01*
X154264417Y-131009212D02*
X154216798Y-130985403D01*
X154216798Y-130985403D02*
X154121560Y-130961593D01*
X154121560Y-130961593D02*
X154073941Y-130937784D01*
X154073941Y-130937784D02*
X154050131Y-130913974D01*
X154050131Y-130913974D02*
X154026322Y-130866355D01*
X154026322Y-130866355D02*
X154026322Y-130818736D01*
X154026322Y-130818736D02*
X154050131Y-130771117D01*
X154050131Y-130771117D02*
X154073941Y-130747308D01*
X154073941Y-130747308D02*
X154121560Y-130723498D01*
X154121560Y-130723498D02*
X154240607Y-130723498D01*
X154240607Y-130723498D02*
X154312036Y-130747308D01*
X154526321Y-130961593D02*
X154692988Y-130961593D01*
X154764416Y-131223498D02*
X154526321Y-131223498D01*
X154526321Y-131223498D02*
X154526321Y-130723498D01*
X154526321Y-130723498D02*
X154764416Y-130723498D01*
X155240607Y-131223498D02*
X154954893Y-131223498D01*
X155097750Y-131223498D02*
X155097750Y-130723498D01*
X155097750Y-130723498D02*
X155050131Y-130794927D01*
X155050131Y-130794927D02*
X155002512Y-130842546D01*
X155002512Y-130842546D02*
X154954893Y-130866355D01*
X130745118Y-149430693D02*
X131245118Y-149264027D01*
X131245118Y-149264027D02*
X130745118Y-149097360D01*
X131221309Y-148954503D02*
X131245118Y-148883075D01*
X131245118Y-148883075D02*
X131245118Y-148764027D01*
X131245118Y-148764027D02*
X131221309Y-148716408D01*
X131221309Y-148716408D02*
X131197499Y-148692599D01*
X131197499Y-148692599D02*
X131149880Y-148668789D01*
X131149880Y-148668789D02*
X131102261Y-148668789D01*
X131102261Y-148668789D02*
X131054642Y-148692599D01*
X131054642Y-148692599D02*
X131030832Y-148716408D01*
X131030832Y-148716408D02*
X131007023Y-148764027D01*
X131007023Y-148764027D02*
X130983213Y-148859265D01*
X130983213Y-148859265D02*
X130959404Y-148906884D01*
X130959404Y-148906884D02*
X130935594Y-148930694D01*
X130935594Y-148930694D02*
X130887975Y-148954503D01*
X130887975Y-148954503D02*
X130840356Y-148954503D01*
X130840356Y-148954503D02*
X130792737Y-148930694D01*
X130792737Y-148930694D02*
X130768928Y-148906884D01*
X130768928Y-148906884D02*
X130745118Y-148859265D01*
X130745118Y-148859265D02*
X130745118Y-148740218D01*
X130745118Y-148740218D02*
X130768928Y-148668789D01*
X131245118Y-148383075D02*
X131221309Y-148430694D01*
X131221309Y-148430694D02*
X131197499Y-148454504D01*
X131197499Y-148454504D02*
X131149880Y-148478313D01*
X131149880Y-148478313D02*
X131007023Y-148478313D01*
X131007023Y-148478313D02*
X130959404Y-148454504D01*
X130959404Y-148454504D02*
X130935594Y-148430694D01*
X130935594Y-148430694D02*
X130911785Y-148383075D01*
X130911785Y-148383075D02*
X130911785Y-148311647D01*
X130911785Y-148311647D02*
X130935594Y-148264028D01*
X130935594Y-148264028D02*
X130959404Y-148240218D01*
X130959404Y-148240218D02*
X131007023Y-148216409D01*
X131007023Y-148216409D02*
X131149880Y-148216409D01*
X131149880Y-148216409D02*
X131197499Y-148240218D01*
X131197499Y-148240218D02*
X131221309Y-148264028D01*
X131221309Y-148264028D02*
X131245118Y-148311647D01*
X131245118Y-148311647D02*
X131245118Y-148383075D01*
X130911785Y-147787837D02*
X131245118Y-147787837D01*
X130911785Y-148002123D02*
X131173689Y-148002123D01*
X131173689Y-148002123D02*
X131221309Y-147978313D01*
X131221309Y-147978313D02*
X131245118Y-147930694D01*
X131245118Y-147930694D02*
X131245118Y-147859266D01*
X131245118Y-147859266D02*
X131221309Y-147811647D01*
X131221309Y-147811647D02*
X131197499Y-147787837D01*
X131245118Y-147549742D02*
X130911785Y-147549742D01*
X131007023Y-147549742D02*
X130959404Y-147525932D01*
X130959404Y-147525932D02*
X130935594Y-147502123D01*
X130935594Y-147502123D02*
X130911785Y-147454504D01*
X130911785Y-147454504D02*
X130911785Y-147406885D01*
X131221309Y-147025932D02*
X131245118Y-147073551D01*
X131245118Y-147073551D02*
X131245118Y-147168789D01*
X131245118Y-147168789D02*
X131221309Y-147216408D01*
X131221309Y-147216408D02*
X131197499Y-147240218D01*
X131197499Y-147240218D02*
X131149880Y-147264027D01*
X131149880Y-147264027D02*
X131007023Y-147264027D01*
X131007023Y-147264027D02*
X130959404Y-147240218D01*
X130959404Y-147240218D02*
X130935594Y-147216408D01*
X130935594Y-147216408D02*
X130911785Y-147168789D01*
X130911785Y-147168789D02*
X130911785Y-147073551D01*
X130911785Y-147073551D02*
X130935594Y-147025932D01*
X131221309Y-146621171D02*
X131245118Y-146668790D01*
X131245118Y-146668790D02*
X131245118Y-146764028D01*
X131245118Y-146764028D02*
X131221309Y-146811647D01*
X131221309Y-146811647D02*
X131173689Y-146835456D01*
X131173689Y-146835456D02*
X130983213Y-146835456D01*
X130983213Y-146835456D02*
X130935594Y-146811647D01*
X130935594Y-146811647D02*
X130911785Y-146764028D01*
X130911785Y-146764028D02*
X130911785Y-146668790D01*
X130911785Y-146668790D02*
X130935594Y-146621171D01*
X130935594Y-146621171D02*
X130983213Y-146597361D01*
X130983213Y-146597361D02*
X131030832Y-146597361D01*
X131030832Y-146597361D02*
X131078451Y-146835456D01*
X131292737Y-146502124D02*
X131292737Y-146121171D01*
X131245118Y-146002124D02*
X130745118Y-146002124D01*
X131245118Y-145764029D02*
X130745118Y-145764029D01*
X130745118Y-145764029D02*
X131245118Y-145478315D01*
X131245118Y-145478315D02*
X130745118Y-145478315D01*
X131245118Y-144978314D02*
X131245118Y-145264028D01*
X131245118Y-145121171D02*
X130745118Y-145121171D01*
X130745118Y-145121171D02*
X130816547Y-145168790D01*
X130816547Y-145168790D02*
X130864166Y-145216409D01*
X130864166Y-145216409D02*
X130887975Y-145264028D01*
X117197825Y-132993596D02*
X117174016Y-133017406D01*
X117174016Y-133017406D02*
X117102587Y-133041215D01*
X117102587Y-133041215D02*
X117054968Y-133041215D01*
X117054968Y-133041215D02*
X116983540Y-133017406D01*
X116983540Y-133017406D02*
X116935921Y-132969786D01*
X116935921Y-132969786D02*
X116912111Y-132922167D01*
X116912111Y-132922167D02*
X116888302Y-132826929D01*
X116888302Y-132826929D02*
X116888302Y-132755501D01*
X116888302Y-132755501D02*
X116912111Y-132660263D01*
X116912111Y-132660263D02*
X116935921Y-132612644D01*
X116935921Y-132612644D02*
X116983540Y-132565025D01*
X116983540Y-132565025D02*
X117054968Y-132541215D01*
X117054968Y-132541215D02*
X117102587Y-132541215D01*
X117102587Y-132541215D02*
X117174016Y-132565025D01*
X117174016Y-132565025D02*
X117197825Y-132588834D01*
X117674016Y-133041215D02*
X117388302Y-133041215D01*
X117531159Y-133041215D02*
X117531159Y-132541215D01*
X117531159Y-132541215D02*
X117483540Y-132612644D01*
X117483540Y-132612644D02*
X117435921Y-132660263D01*
X117435921Y-132660263D02*
X117388302Y-132684072D01*
X117769254Y-133088834D02*
X118150206Y-133088834D01*
X118269253Y-132779310D02*
X118435920Y-132779310D01*
X118507348Y-133041215D02*
X118269253Y-133041215D01*
X118269253Y-133041215D02*
X118269253Y-132541215D01*
X118269253Y-132541215D02*
X118507348Y-132541215D01*
X118674015Y-132541215D02*
X119007348Y-133041215D01*
X119007348Y-132541215D02*
X118674015Y-133041215D01*
X119459729Y-133041215D02*
X119174015Y-133041215D01*
X119316872Y-133041215D02*
X119316872Y-132541215D01*
X119316872Y-132541215D02*
X119269253Y-132612644D01*
X119269253Y-132612644D02*
X119221634Y-132660263D01*
X119221634Y-132660263D02*
X119174015Y-132684072D01*
X134313953Y-122683703D02*
X134290144Y-122707513D01*
X134290144Y-122707513D02*
X134218715Y-122731322D01*
X134218715Y-122731322D02*
X134171096Y-122731322D01*
X134171096Y-122731322D02*
X134099668Y-122707513D01*
X134099668Y-122707513D02*
X134052049Y-122659893D01*
X134052049Y-122659893D02*
X134028239Y-122612274D01*
X134028239Y-122612274D02*
X134004430Y-122517036D01*
X134004430Y-122517036D02*
X134004430Y-122445608D01*
X134004430Y-122445608D02*
X134028239Y-122350370D01*
X134028239Y-122350370D02*
X134052049Y-122302751D01*
X134052049Y-122302751D02*
X134099668Y-122255132D01*
X134099668Y-122255132D02*
X134171096Y-122231322D01*
X134171096Y-122231322D02*
X134218715Y-122231322D01*
X134218715Y-122231322D02*
X134290144Y-122255132D01*
X134290144Y-122255132D02*
X134313953Y-122278941D01*
X134480620Y-122231322D02*
X134790144Y-122231322D01*
X134790144Y-122231322D02*
X134623477Y-122421798D01*
X134623477Y-122421798D02*
X134694906Y-122421798D01*
X134694906Y-122421798D02*
X134742525Y-122445608D01*
X134742525Y-122445608D02*
X134766334Y-122469417D01*
X134766334Y-122469417D02*
X134790144Y-122517036D01*
X134790144Y-122517036D02*
X134790144Y-122636084D01*
X134790144Y-122636084D02*
X134766334Y-122683703D01*
X134766334Y-122683703D02*
X134742525Y-122707513D01*
X134742525Y-122707513D02*
X134694906Y-122731322D01*
X134694906Y-122731322D02*
X134552049Y-122731322D01*
X134552049Y-122731322D02*
X134504430Y-122707513D01*
X134504430Y-122707513D02*
X134480620Y-122683703D01*
X134885382Y-122778941D02*
X135266334Y-122778941D01*
X135385381Y-122469417D02*
X135552048Y-122469417D01*
X135623476Y-122731322D02*
X135385381Y-122731322D01*
X135385381Y-122731322D02*
X135385381Y-122231322D01*
X135385381Y-122231322D02*
X135623476Y-122231322D01*
X135790143Y-122231322D02*
X136123476Y-122731322D01*
X136123476Y-122231322D02*
X135790143Y-122731322D01*
X136575857Y-122731322D02*
X136290143Y-122731322D01*
X136433000Y-122731322D02*
X136433000Y-122231322D01*
X136433000Y-122231322D02*
X136385381Y-122302751D01*
X136385381Y-122302751D02*
X136337762Y-122350370D01*
X136337762Y-122350370D02*
X136290143Y-122374179D01*
X157952466Y-141433344D02*
X158002973Y-141147134D01*
X157750435Y-141231313D02*
X158103989Y-140877760D01*
X158103989Y-140877760D02*
X158238676Y-141012447D01*
X158238676Y-141012447D02*
X158255511Y-141062954D01*
X158255511Y-141062954D02*
X158255511Y-141096626D01*
X158255511Y-141096626D02*
X158238676Y-141147134D01*
X158238676Y-141147134D02*
X158188168Y-141197641D01*
X158188168Y-141197641D02*
X158137660Y-141214477D01*
X158137660Y-141214477D02*
X158103989Y-141214477D01*
X158103989Y-141214477D02*
X158053481Y-141197641D01*
X158053481Y-141197641D02*
X157918794Y-141062954D01*
X158609065Y-141382836D02*
X158541721Y-141315492D01*
X158541721Y-141315492D02*
X158491214Y-141298657D01*
X158491214Y-141298657D02*
X158457542Y-141298657D01*
X158457542Y-141298657D02*
X158373363Y-141315492D01*
X158373363Y-141315492D02*
X158289183Y-141366000D01*
X158289183Y-141366000D02*
X158154496Y-141500687D01*
X158154496Y-141500687D02*
X158137660Y-141551195D01*
X158137660Y-141551195D02*
X158137660Y-141584866D01*
X158137660Y-141584866D02*
X158154496Y-141635374D01*
X158154496Y-141635374D02*
X158221840Y-141702718D01*
X158221840Y-141702718D02*
X158272347Y-141719553D01*
X158272347Y-141719553D02*
X158306019Y-141719553D01*
X158306019Y-141719553D02*
X158356527Y-141702718D01*
X158356527Y-141702718D02*
X158440706Y-141618538D01*
X158440706Y-141618538D02*
X158457542Y-141568031D01*
X158457542Y-141568031D02*
X158457542Y-141534359D01*
X158457542Y-141534359D02*
X158440706Y-141483851D01*
X158440706Y-141483851D02*
X158373363Y-141416508D01*
X158373363Y-141416508D02*
X158322855Y-141399672D01*
X158322855Y-141399672D02*
X158289183Y-141399672D01*
X158289183Y-141399672D02*
X158238676Y-141416508D01*
X155723845Y-123538378D02*
X155890511Y-124038378D01*
X155890511Y-124038378D02*
X156057178Y-123538378D01*
X156319082Y-123538378D02*
X156414320Y-123538378D01*
X156414320Y-123538378D02*
X156461939Y-123562188D01*
X156461939Y-123562188D02*
X156509558Y-123609807D01*
X156509558Y-123609807D02*
X156533368Y-123705045D01*
X156533368Y-123705045D02*
X156533368Y-123871711D01*
X156533368Y-123871711D02*
X156509558Y-123966949D01*
X156509558Y-123966949D02*
X156461939Y-124014569D01*
X156461939Y-124014569D02*
X156414320Y-124038378D01*
X156414320Y-124038378D02*
X156319082Y-124038378D01*
X156319082Y-124038378D02*
X156271463Y-124014569D01*
X156271463Y-124014569D02*
X156223844Y-123966949D01*
X156223844Y-123966949D02*
X156200035Y-123871711D01*
X156200035Y-123871711D02*
X156200035Y-123705045D01*
X156200035Y-123705045D02*
X156223844Y-123609807D01*
X156223844Y-123609807D02*
X156271463Y-123562188D01*
X156271463Y-123562188D02*
X156319082Y-123538378D01*
X156747654Y-123538378D02*
X156747654Y-123943140D01*
X156747654Y-123943140D02*
X156771464Y-123990759D01*
X156771464Y-123990759D02*
X156795273Y-124014569D01*
X156795273Y-124014569D02*
X156842892Y-124038378D01*
X156842892Y-124038378D02*
X156938130Y-124038378D01*
X156938130Y-124038378D02*
X156985749Y-124014569D01*
X156985749Y-124014569D02*
X157009559Y-123990759D01*
X157009559Y-123990759D02*
X157033368Y-123943140D01*
X157033368Y-123943140D02*
X157033368Y-123538378D01*
X157200036Y-123538378D02*
X157485750Y-123538378D01*
X157342893Y-124038378D02*
X157342893Y-123538378D01*
X157914321Y-124038378D02*
X157628607Y-124038378D01*
X157771464Y-124038378D02*
X157771464Y-123538378D01*
X157771464Y-123538378D02*
X157723845Y-123609807D01*
X157723845Y-123609807D02*
X157676226Y-123657426D01*
X157676226Y-123657426D02*
X157628607Y-123681235D01*
X126066053Y-135592807D02*
X126470815Y-135592807D01*
X126470815Y-135592807D02*
X126518434Y-135568997D01*
X126518434Y-135568997D02*
X126542244Y-135545188D01*
X126542244Y-135545188D02*
X126566053Y-135497569D01*
X126566053Y-135497569D02*
X126566053Y-135402331D01*
X126566053Y-135402331D02*
X126542244Y-135354712D01*
X126542244Y-135354712D02*
X126518434Y-135330902D01*
X126518434Y-135330902D02*
X126470815Y-135307093D01*
X126470815Y-135307093D02*
X126066053Y-135307093D01*
X126566053Y-134807092D02*
X126566053Y-135092806D01*
X126566053Y-134949949D02*
X126066053Y-134949949D01*
X126066053Y-134949949D02*
X126137482Y-134997568D01*
X126137482Y-134997568D02*
X126185101Y-135045187D01*
X126185101Y-135045187D02*
X126208910Y-135092806D01*
X160161082Y-143689585D02*
X159922987Y-143856251D01*
X160161082Y-143975299D02*
X159661082Y-143975299D01*
X159661082Y-143975299D02*
X159661082Y-143784823D01*
X159661082Y-143784823D02*
X159684892Y-143737204D01*
X159684892Y-143737204D02*
X159708701Y-143713394D01*
X159708701Y-143713394D02*
X159756320Y-143689585D01*
X159756320Y-143689585D02*
X159827749Y-143689585D01*
X159827749Y-143689585D02*
X159875368Y-143713394D01*
X159875368Y-143713394D02*
X159899177Y-143737204D01*
X159899177Y-143737204D02*
X159922987Y-143784823D01*
X159922987Y-143784823D02*
X159922987Y-143975299D01*
X159661082Y-143522918D02*
X159661082Y-143189585D01*
X159661082Y-143189585D02*
X160161082Y-143403870D01*
X121104792Y-137177101D02*
X120938126Y-136939006D01*
X120819078Y-137177101D02*
X120819078Y-136677101D01*
X120819078Y-136677101D02*
X121009554Y-136677101D01*
X121009554Y-136677101D02*
X121057173Y-136700911D01*
X121057173Y-136700911D02*
X121080983Y-136724720D01*
X121080983Y-136724720D02*
X121104792Y-136772339D01*
X121104792Y-136772339D02*
X121104792Y-136843768D01*
X121104792Y-136843768D02*
X121080983Y-136891387D01*
X121080983Y-136891387D02*
X121057173Y-136915196D01*
X121057173Y-136915196D02*
X121009554Y-136939006D01*
X121009554Y-136939006D02*
X120819078Y-136939006D01*
X121295269Y-136724720D02*
X121319078Y-136700911D01*
X121319078Y-136700911D02*
X121366697Y-136677101D01*
X121366697Y-136677101D02*
X121485745Y-136677101D01*
X121485745Y-136677101D02*
X121533364Y-136700911D01*
X121533364Y-136700911D02*
X121557173Y-136724720D01*
X121557173Y-136724720D02*
X121580983Y-136772339D01*
X121580983Y-136772339D02*
X121580983Y-136819958D01*
X121580983Y-136819958D02*
X121557173Y-136891387D01*
X121557173Y-136891387D02*
X121271459Y-137177101D01*
X121271459Y-137177101D02*
X121580983Y-137177101D01*
X129930440Y-159892856D02*
X129954250Y-159916665D01*
X129954250Y-159916665D02*
X129978059Y-159988094D01*
X129978059Y-159988094D02*
X129978059Y-160035713D01*
X129978059Y-160035713D02*
X129954250Y-160107141D01*
X129954250Y-160107141D02*
X129906630Y-160154760D01*
X129906630Y-160154760D02*
X129859011Y-160178570D01*
X129859011Y-160178570D02*
X129763773Y-160202379D01*
X129763773Y-160202379D02*
X129692345Y-160202379D01*
X129692345Y-160202379D02*
X129597107Y-160178570D01*
X129597107Y-160178570D02*
X129549488Y-160154760D01*
X129549488Y-160154760D02*
X129501869Y-160107141D01*
X129501869Y-160107141D02*
X129478059Y-160035713D01*
X129478059Y-160035713D02*
X129478059Y-159988094D01*
X129478059Y-159988094D02*
X129501869Y-159916665D01*
X129501869Y-159916665D02*
X129525678Y-159892856D01*
X129978059Y-159678570D02*
X129644726Y-159678570D01*
X129478059Y-159678570D02*
X129501869Y-159702379D01*
X129501869Y-159702379D02*
X129525678Y-159678570D01*
X129525678Y-159678570D02*
X129501869Y-159654760D01*
X129501869Y-159654760D02*
X129478059Y-159678570D01*
X129478059Y-159678570D02*
X129525678Y-159678570D01*
X129644726Y-159440475D02*
X129978059Y-159440475D01*
X129692345Y-159440475D02*
X129668535Y-159416665D01*
X129668535Y-159416665D02*
X129644726Y-159369046D01*
X129644726Y-159369046D02*
X129644726Y-159297618D01*
X129644726Y-159297618D02*
X129668535Y-159249999D01*
X129668535Y-159249999D02*
X129716154Y-159226189D01*
X129716154Y-159226189D02*
X129978059Y-159226189D01*
X129835202Y-159011903D02*
X129835202Y-158773808D01*
X129978059Y-159059522D02*
X129478059Y-158892856D01*
X129478059Y-158892856D02*
X129978059Y-158726189D01*
X129525678Y-158583332D02*
X129501869Y-158559523D01*
X129501869Y-158559523D02*
X129478059Y-158511904D01*
X129478059Y-158511904D02*
X129478059Y-158392856D01*
X129478059Y-158392856D02*
X129501869Y-158345237D01*
X129501869Y-158345237D02*
X129525678Y-158321428D01*
X129525678Y-158321428D02*
X129573297Y-158297618D01*
X129573297Y-158297618D02*
X129620916Y-158297618D01*
X129620916Y-158297618D02*
X129692345Y-158321428D01*
X129692345Y-158321428D02*
X129978059Y-158607142D01*
X129978059Y-158607142D02*
X129978059Y-158297618D01*
X134838810Y-141767643D02*
X134838810Y-141481929D01*
X135338810Y-141624786D02*
X134838810Y-141624786D01*
X135338810Y-141315263D02*
X134838810Y-141315263D01*
X134838810Y-141315263D02*
X134838810Y-141124787D01*
X134838810Y-141124787D02*
X134862620Y-141077168D01*
X134862620Y-141077168D02*
X134886429Y-141053358D01*
X134886429Y-141053358D02*
X134934048Y-141029549D01*
X134934048Y-141029549D02*
X135005477Y-141029549D01*
X135005477Y-141029549D02*
X135053096Y-141053358D01*
X135053096Y-141053358D02*
X135076905Y-141077168D01*
X135076905Y-141077168D02*
X135100715Y-141124787D01*
X135100715Y-141124787D02*
X135100715Y-141315263D01*
X135386429Y-140934311D02*
X135386429Y-140553358D01*
X134838810Y-140505739D02*
X135338810Y-140339073D01*
X135338810Y-140339073D02*
X134838810Y-140172406D01*
X135338810Y-140005740D02*
X134838810Y-140005740D01*
X135338810Y-139767645D02*
X134838810Y-139767645D01*
X134838810Y-139767645D02*
X135338810Y-139481931D01*
X135338810Y-139481931D02*
X134838810Y-139481931D01*
X135338810Y-138981930D02*
X135338810Y-139267644D01*
X135338810Y-139124787D02*
X134838810Y-139124787D01*
X134838810Y-139124787D02*
X134910239Y-139172406D01*
X134910239Y-139172406D02*
X134957858Y-139220025D01*
X134957858Y-139220025D02*
X134981667Y-139267644D01*
X125728180Y-143287276D02*
X125561514Y-143049181D01*
X125442466Y-143287276D02*
X125442466Y-142787276D01*
X125442466Y-142787276D02*
X125632942Y-142787276D01*
X125632942Y-142787276D02*
X125680561Y-142811086D01*
X125680561Y-142811086D02*
X125704371Y-142834895D01*
X125704371Y-142834895D02*
X125728180Y-142882514D01*
X125728180Y-142882514D02*
X125728180Y-142953943D01*
X125728180Y-142953943D02*
X125704371Y-143001562D01*
X125704371Y-143001562D02*
X125680561Y-143025371D01*
X125680561Y-143025371D02*
X125632942Y-143049181D01*
X125632942Y-143049181D02*
X125442466Y-143049181D01*
X125966276Y-143287276D02*
X126061514Y-143287276D01*
X126061514Y-143287276D02*
X126109133Y-143263467D01*
X126109133Y-143263467D02*
X126132942Y-143239657D01*
X126132942Y-143239657D02*
X126180561Y-143168228D01*
X126180561Y-143168228D02*
X126204371Y-143072990D01*
X126204371Y-143072990D02*
X126204371Y-142882514D01*
X126204371Y-142882514D02*
X126180561Y-142834895D01*
X126180561Y-142834895D02*
X126156752Y-142811086D01*
X126156752Y-142811086D02*
X126109133Y-142787276D01*
X126109133Y-142787276D02*
X126013895Y-142787276D01*
X126013895Y-142787276D02*
X125966276Y-142811086D01*
X125966276Y-142811086D02*
X125942466Y-142834895D01*
X125942466Y-142834895D02*
X125918657Y-142882514D01*
X125918657Y-142882514D02*
X125918657Y-143001562D01*
X125918657Y-143001562D02*
X125942466Y-143049181D01*
X125942466Y-143049181D02*
X125966276Y-143072990D01*
X125966276Y-143072990D02*
X126013895Y-143096800D01*
X126013895Y-143096800D02*
X126109133Y-143096800D01*
X126109133Y-143096800D02*
X126156752Y-143072990D01*
X126156752Y-143072990D02*
X126180561Y-143049181D01*
X126180561Y-143049181D02*
X126204371Y-143001562D01*
X145470140Y-141960490D02*
X145636806Y-142460490D01*
X145636806Y-142460490D02*
X145803473Y-141960490D01*
X145946330Y-142436681D02*
X146017758Y-142460490D01*
X146017758Y-142460490D02*
X146136806Y-142460490D01*
X146136806Y-142460490D02*
X146184425Y-142436681D01*
X146184425Y-142436681D02*
X146208234Y-142412871D01*
X146208234Y-142412871D02*
X146232044Y-142365252D01*
X146232044Y-142365252D02*
X146232044Y-142317633D01*
X146232044Y-142317633D02*
X146208234Y-142270014D01*
X146208234Y-142270014D02*
X146184425Y-142246204D01*
X146184425Y-142246204D02*
X146136806Y-142222395D01*
X146136806Y-142222395D02*
X146041568Y-142198585D01*
X146041568Y-142198585D02*
X145993949Y-142174776D01*
X145993949Y-142174776D02*
X145970139Y-142150966D01*
X145970139Y-142150966D02*
X145946330Y-142103347D01*
X145946330Y-142103347D02*
X145946330Y-142055728D01*
X145946330Y-142055728D02*
X145970139Y-142008109D01*
X145970139Y-142008109D02*
X145993949Y-141984300D01*
X145993949Y-141984300D02*
X146041568Y-141960490D01*
X146041568Y-141960490D02*
X146160615Y-141960490D01*
X146160615Y-141960490D02*
X146232044Y-141984300D01*
X146517758Y-142460490D02*
X146470139Y-142436681D01*
X146470139Y-142436681D02*
X146446329Y-142412871D01*
X146446329Y-142412871D02*
X146422520Y-142365252D01*
X146422520Y-142365252D02*
X146422520Y-142222395D01*
X146422520Y-142222395D02*
X146446329Y-142174776D01*
X146446329Y-142174776D02*
X146470139Y-142150966D01*
X146470139Y-142150966D02*
X146517758Y-142127157D01*
X146517758Y-142127157D02*
X146589186Y-142127157D01*
X146589186Y-142127157D02*
X146636805Y-142150966D01*
X146636805Y-142150966D02*
X146660615Y-142174776D01*
X146660615Y-142174776D02*
X146684424Y-142222395D01*
X146684424Y-142222395D02*
X146684424Y-142365252D01*
X146684424Y-142365252D02*
X146660615Y-142412871D01*
X146660615Y-142412871D02*
X146636805Y-142436681D01*
X146636805Y-142436681D02*
X146589186Y-142460490D01*
X146589186Y-142460490D02*
X146517758Y-142460490D01*
X147112996Y-142127157D02*
X147112996Y-142460490D01*
X146898710Y-142127157D02*
X146898710Y-142389061D01*
X146898710Y-142389061D02*
X146922520Y-142436681D01*
X146922520Y-142436681D02*
X146970139Y-142460490D01*
X146970139Y-142460490D02*
X147041567Y-142460490D01*
X147041567Y-142460490D02*
X147089186Y-142436681D01*
X147089186Y-142436681D02*
X147112996Y-142412871D01*
X147351091Y-142460490D02*
X147351091Y-142127157D01*
X147351091Y-142222395D02*
X147374901Y-142174776D01*
X147374901Y-142174776D02*
X147398710Y-142150966D01*
X147398710Y-142150966D02*
X147446329Y-142127157D01*
X147446329Y-142127157D02*
X147493948Y-142127157D01*
X147874901Y-142436681D02*
X147827282Y-142460490D01*
X147827282Y-142460490D02*
X147732044Y-142460490D01*
X147732044Y-142460490D02*
X147684425Y-142436681D01*
X147684425Y-142436681D02*
X147660615Y-142412871D01*
X147660615Y-142412871D02*
X147636806Y-142365252D01*
X147636806Y-142365252D02*
X147636806Y-142222395D01*
X147636806Y-142222395D02*
X147660615Y-142174776D01*
X147660615Y-142174776D02*
X147684425Y-142150966D01*
X147684425Y-142150966D02*
X147732044Y-142127157D01*
X147732044Y-142127157D02*
X147827282Y-142127157D01*
X147827282Y-142127157D02*
X147874901Y-142150966D01*
X148279662Y-142436681D02*
X148232043Y-142460490D01*
X148232043Y-142460490D02*
X148136805Y-142460490D01*
X148136805Y-142460490D02*
X148089186Y-142436681D01*
X148089186Y-142436681D02*
X148065377Y-142389061D01*
X148065377Y-142389061D02*
X148065377Y-142198585D01*
X148065377Y-142198585D02*
X148089186Y-142150966D01*
X148089186Y-142150966D02*
X148136805Y-142127157D01*
X148136805Y-142127157D02*
X148232043Y-142127157D01*
X148232043Y-142127157D02*
X148279662Y-142150966D01*
X148279662Y-142150966D02*
X148303472Y-142198585D01*
X148303472Y-142198585D02*
X148303472Y-142246204D01*
X148303472Y-142246204D02*
X148065377Y-142293823D01*
X148398710Y-142508109D02*
X148779662Y-142508109D01*
X149160614Y-141984300D02*
X149112995Y-141960490D01*
X149112995Y-141960490D02*
X149041566Y-141960490D01*
X149041566Y-141960490D02*
X148970138Y-141984300D01*
X148970138Y-141984300D02*
X148922519Y-142031919D01*
X148922519Y-142031919D02*
X148898709Y-142079538D01*
X148898709Y-142079538D02*
X148874900Y-142174776D01*
X148874900Y-142174776D02*
X148874900Y-142246204D01*
X148874900Y-142246204D02*
X148898709Y-142341442D01*
X148898709Y-142341442D02*
X148922519Y-142389061D01*
X148922519Y-142389061D02*
X148970138Y-142436681D01*
X148970138Y-142436681D02*
X149041566Y-142460490D01*
X149041566Y-142460490D02*
X149089185Y-142460490D01*
X149089185Y-142460490D02*
X149160614Y-142436681D01*
X149160614Y-142436681D02*
X149184423Y-142412871D01*
X149184423Y-142412871D02*
X149184423Y-142246204D01*
X149184423Y-142246204D02*
X149089185Y-142246204D01*
X149398709Y-142460490D02*
X149398709Y-141960490D01*
X149398709Y-141960490D02*
X149684423Y-142460490D01*
X149684423Y-142460490D02*
X149684423Y-141960490D01*
X149922519Y-142460490D02*
X149922519Y-141960490D01*
X149922519Y-141960490D02*
X150041567Y-141960490D01*
X150041567Y-141960490D02*
X150112995Y-141984300D01*
X150112995Y-141984300D02*
X150160614Y-142031919D01*
X150160614Y-142031919D02*
X150184424Y-142079538D01*
X150184424Y-142079538D02*
X150208233Y-142174776D01*
X150208233Y-142174776D02*
X150208233Y-142246204D01*
X150208233Y-142246204D02*
X150184424Y-142341442D01*
X150184424Y-142341442D02*
X150160614Y-142389061D01*
X150160614Y-142389061D02*
X150112995Y-142436681D01*
X150112995Y-142436681D02*
X150041567Y-142460490D01*
X150041567Y-142460490D02*
X149922519Y-142460490D01*
X150684424Y-142460490D02*
X150398710Y-142460490D01*
X150541567Y-142460490D02*
X150541567Y-141960490D01*
X150541567Y-141960490D02*
X150493948Y-142031919D01*
X150493948Y-142031919D02*
X150446329Y-142079538D01*
X150446329Y-142079538D02*
X150398710Y-142103347D01*
X118921815Y-134893331D02*
X118898006Y-134917141D01*
X118898006Y-134917141D02*
X118826577Y-134940950D01*
X118826577Y-134940950D02*
X118778958Y-134940950D01*
X118778958Y-134940950D02*
X118707530Y-134917141D01*
X118707530Y-134917141D02*
X118659911Y-134869521D01*
X118659911Y-134869521D02*
X118636101Y-134821902D01*
X118636101Y-134821902D02*
X118612292Y-134726664D01*
X118612292Y-134726664D02*
X118612292Y-134655236D01*
X118612292Y-134655236D02*
X118636101Y-134559998D01*
X118636101Y-134559998D02*
X118659911Y-134512379D01*
X118659911Y-134512379D02*
X118707530Y-134464760D01*
X118707530Y-134464760D02*
X118778958Y-134440950D01*
X118778958Y-134440950D02*
X118826577Y-134440950D01*
X118826577Y-134440950D02*
X118898006Y-134464760D01*
X118898006Y-134464760D02*
X118921815Y-134488569D01*
X119398006Y-134940950D02*
X119112292Y-134940950D01*
X119255149Y-134940950D02*
X119255149Y-134440950D01*
X119255149Y-134440950D02*
X119207530Y-134512379D01*
X119207530Y-134512379D02*
X119159911Y-134559998D01*
X119159911Y-134559998D02*
X119112292Y-134583807D01*
X123204617Y-141661874D02*
X123180808Y-141685684D01*
X123180808Y-141685684D02*
X123109379Y-141709493D01*
X123109379Y-141709493D02*
X123061760Y-141709493D01*
X123061760Y-141709493D02*
X122990332Y-141685684D01*
X122990332Y-141685684D02*
X122942713Y-141638064D01*
X122942713Y-141638064D02*
X122918903Y-141590445D01*
X122918903Y-141590445D02*
X122895094Y-141495207D01*
X122895094Y-141495207D02*
X122895094Y-141423779D01*
X122895094Y-141423779D02*
X122918903Y-141328541D01*
X122918903Y-141328541D02*
X122942713Y-141280922D01*
X122942713Y-141280922D02*
X122990332Y-141233303D01*
X122990332Y-141233303D02*
X123061760Y-141209493D01*
X123061760Y-141209493D02*
X123109379Y-141209493D01*
X123109379Y-141209493D02*
X123180808Y-141233303D01*
X123180808Y-141233303D02*
X123204617Y-141257112D01*
X123633189Y-141209493D02*
X123537951Y-141209493D01*
X123537951Y-141209493D02*
X123490332Y-141233303D01*
X123490332Y-141233303D02*
X123466522Y-141257112D01*
X123466522Y-141257112D02*
X123418903Y-141328541D01*
X123418903Y-141328541D02*
X123395094Y-141423779D01*
X123395094Y-141423779D02*
X123395094Y-141614255D01*
X123395094Y-141614255D02*
X123418903Y-141661874D01*
X123418903Y-141661874D02*
X123442713Y-141685684D01*
X123442713Y-141685684D02*
X123490332Y-141709493D01*
X123490332Y-141709493D02*
X123585570Y-141709493D01*
X123585570Y-141709493D02*
X123633189Y-141685684D01*
X123633189Y-141685684D02*
X123656998Y-141661874D01*
X123656998Y-141661874D02*
X123680808Y-141614255D01*
X123680808Y-141614255D02*
X123680808Y-141495207D01*
X123680808Y-141495207D02*
X123656998Y-141447588D01*
X123656998Y-141447588D02*
X123633189Y-141423779D01*
X123633189Y-141423779D02*
X123585570Y-141399969D01*
X123585570Y-141399969D02*
X123490332Y-141399969D01*
X123490332Y-141399969D02*
X123442713Y-141423779D01*
X123442713Y-141423779D02*
X123418903Y-141447588D01*
X123418903Y-141447588D02*
X123395094Y-141495207D01*
X123776046Y-141757112D02*
X124156998Y-141757112D01*
X124276045Y-141447588D02*
X124442712Y-141447588D01*
X124514140Y-141709493D02*
X124276045Y-141709493D01*
X124276045Y-141709493D02*
X124276045Y-141209493D01*
X124276045Y-141209493D02*
X124514140Y-141209493D01*
X124680807Y-141209493D02*
X125014140Y-141709493D01*
X125014140Y-141209493D02*
X124680807Y-141709493D01*
X125466521Y-141709493D02*
X125180807Y-141709493D01*
X125323664Y-141709493D02*
X125323664Y-141209493D01*
X125323664Y-141209493D02*
X125276045Y-141280922D01*
X125276045Y-141280922D02*
X125228426Y-141328541D01*
X125228426Y-141328541D02*
X125180807Y-141352350D01*
X152719819Y-142076225D02*
X152696010Y-142100035D01*
X152696010Y-142100035D02*
X152624581Y-142123844D01*
X152624581Y-142123844D02*
X152576962Y-142123844D01*
X152576962Y-142123844D02*
X152505534Y-142100035D01*
X152505534Y-142100035D02*
X152457915Y-142052415D01*
X152457915Y-142052415D02*
X152434105Y-142004796D01*
X152434105Y-142004796D02*
X152410296Y-141909558D01*
X152410296Y-141909558D02*
X152410296Y-141838130D01*
X152410296Y-141838130D02*
X152434105Y-141742892D01*
X152434105Y-141742892D02*
X152457915Y-141695273D01*
X152457915Y-141695273D02*
X152505534Y-141647654D01*
X152505534Y-141647654D02*
X152576962Y-141623844D01*
X152576962Y-141623844D02*
X152624581Y-141623844D01*
X152624581Y-141623844D02*
X152696010Y-141647654D01*
X152696010Y-141647654D02*
X152719819Y-141671463D01*
X152910296Y-142100035D02*
X152981724Y-142123844D01*
X152981724Y-142123844D02*
X153100772Y-142123844D01*
X153100772Y-142123844D02*
X153148391Y-142100035D01*
X153148391Y-142100035D02*
X153172200Y-142076225D01*
X153172200Y-142076225D02*
X153196010Y-142028606D01*
X153196010Y-142028606D02*
X153196010Y-141980987D01*
X153196010Y-141980987D02*
X153172200Y-141933368D01*
X153172200Y-141933368D02*
X153148391Y-141909558D01*
X153148391Y-141909558D02*
X153100772Y-141885749D01*
X153100772Y-141885749D02*
X153005534Y-141861939D01*
X153005534Y-141861939D02*
X152957915Y-141838130D01*
X152957915Y-141838130D02*
X152934105Y-141814320D01*
X152934105Y-141814320D02*
X152910296Y-141766701D01*
X152910296Y-141766701D02*
X152910296Y-141719082D01*
X152910296Y-141719082D02*
X152934105Y-141671463D01*
X152934105Y-141671463D02*
X152957915Y-141647654D01*
X152957915Y-141647654D02*
X153005534Y-141623844D01*
X153005534Y-141623844D02*
X153124581Y-141623844D01*
X153124581Y-141623844D02*
X153196010Y-141647654D01*
X153410295Y-141861939D02*
X153576962Y-141861939D01*
X153648390Y-142123844D02*
X153410295Y-142123844D01*
X153410295Y-142123844D02*
X153410295Y-141623844D01*
X153410295Y-141623844D02*
X153648390Y-141623844D01*
X153862676Y-142123844D02*
X153862676Y-141623844D01*
X153862676Y-141623844D02*
X154148390Y-142123844D01*
X154148390Y-142123844D02*
X154148390Y-141623844D01*
X154362677Y-142100035D02*
X154434105Y-142123844D01*
X154434105Y-142123844D02*
X154553153Y-142123844D01*
X154553153Y-142123844D02*
X154600772Y-142100035D01*
X154600772Y-142100035D02*
X154624581Y-142076225D01*
X154624581Y-142076225D02*
X154648391Y-142028606D01*
X154648391Y-142028606D02*
X154648391Y-141980987D01*
X154648391Y-141980987D02*
X154624581Y-141933368D01*
X154624581Y-141933368D02*
X154600772Y-141909558D01*
X154600772Y-141909558D02*
X154553153Y-141885749D01*
X154553153Y-141885749D02*
X154457915Y-141861939D01*
X154457915Y-141861939D02*
X154410296Y-141838130D01*
X154410296Y-141838130D02*
X154386486Y-141814320D01*
X154386486Y-141814320D02*
X154362677Y-141766701D01*
X154362677Y-141766701D02*
X154362677Y-141719082D01*
X154362677Y-141719082D02*
X154386486Y-141671463D01*
X154386486Y-141671463D02*
X154410296Y-141647654D01*
X154410296Y-141647654D02*
X154457915Y-141623844D01*
X154457915Y-141623844D02*
X154576962Y-141623844D01*
X154576962Y-141623844D02*
X154648391Y-141647654D01*
X154862676Y-141861939D02*
X155029343Y-141861939D01*
X155100771Y-142123844D02*
X154862676Y-142123844D01*
X154862676Y-142123844D02*
X154862676Y-141623844D01*
X154862676Y-141623844D02*
X155100771Y-141623844D01*
X155196010Y-142171463D02*
X155576962Y-142171463D01*
X155696009Y-141861939D02*
X155862676Y-141861939D01*
X155934104Y-142123844D02*
X155696009Y-142123844D01*
X155696009Y-142123844D02*
X155696009Y-141623844D01*
X155696009Y-141623844D02*
X155934104Y-141623844D01*
X156100771Y-141623844D02*
X156434104Y-142123844D01*
X156434104Y-141623844D02*
X156100771Y-142123844D01*
X156886485Y-142123844D02*
X156600771Y-142123844D01*
X156743628Y-142123844D02*
X156743628Y-141623844D01*
X156743628Y-141623844D02*
X156696009Y-141695273D01*
X156696009Y-141695273D02*
X156648390Y-141742892D01*
X156648390Y-141742892D02*
X156600771Y-141766701D01*
X124698535Y-139756614D02*
X124674726Y-139780424D01*
X124674726Y-139780424D02*
X124603297Y-139804233D01*
X124603297Y-139804233D02*
X124555678Y-139804233D01*
X124555678Y-139804233D02*
X124484250Y-139780424D01*
X124484250Y-139780424D02*
X124436631Y-139732804D01*
X124436631Y-139732804D02*
X124412821Y-139685185D01*
X124412821Y-139685185D02*
X124389012Y-139589947D01*
X124389012Y-139589947D02*
X124389012Y-139518519D01*
X124389012Y-139518519D02*
X124412821Y-139423281D01*
X124412821Y-139423281D02*
X124436631Y-139375662D01*
X124436631Y-139375662D02*
X124484250Y-139328043D01*
X124484250Y-139328043D02*
X124555678Y-139304233D01*
X124555678Y-139304233D02*
X124603297Y-139304233D01*
X124603297Y-139304233D02*
X124674726Y-139328043D01*
X124674726Y-139328043D02*
X124698535Y-139351852D01*
X125127107Y-139304233D02*
X125031869Y-139304233D01*
X125031869Y-139304233D02*
X124984250Y-139328043D01*
X124984250Y-139328043D02*
X124960440Y-139351852D01*
X124960440Y-139351852D02*
X124912821Y-139423281D01*
X124912821Y-139423281D02*
X124889012Y-139518519D01*
X124889012Y-139518519D02*
X124889012Y-139708995D01*
X124889012Y-139708995D02*
X124912821Y-139756614D01*
X124912821Y-139756614D02*
X124936631Y-139780424D01*
X124936631Y-139780424D02*
X124984250Y-139804233D01*
X124984250Y-139804233D02*
X125079488Y-139804233D01*
X125079488Y-139804233D02*
X125127107Y-139780424D01*
X125127107Y-139780424D02*
X125150916Y-139756614D01*
X125150916Y-139756614D02*
X125174726Y-139708995D01*
X125174726Y-139708995D02*
X125174726Y-139589947D01*
X125174726Y-139589947D02*
X125150916Y-139542328D01*
X125150916Y-139542328D02*
X125127107Y-139518519D01*
X125127107Y-139518519D02*
X125079488Y-139494709D01*
X125079488Y-139494709D02*
X124984250Y-139494709D01*
X124984250Y-139494709D02*
X124936631Y-139518519D01*
X124936631Y-139518519D02*
X124912821Y-139542328D01*
X124912821Y-139542328D02*
X124889012Y-139589947D01*
X121112889Y-157819243D02*
X121089080Y-157843053D01*
X121089080Y-157843053D02*
X121017651Y-157866862D01*
X121017651Y-157866862D02*
X120970032Y-157866862D01*
X120970032Y-157866862D02*
X120898604Y-157843053D01*
X120898604Y-157843053D02*
X120850985Y-157795433D01*
X120850985Y-157795433D02*
X120827175Y-157747814D01*
X120827175Y-157747814D02*
X120803366Y-157652576D01*
X120803366Y-157652576D02*
X120803366Y-157581148D01*
X120803366Y-157581148D02*
X120827175Y-157485910D01*
X120827175Y-157485910D02*
X120850985Y-157438291D01*
X120850985Y-157438291D02*
X120898604Y-157390672D01*
X120898604Y-157390672D02*
X120970032Y-157366862D01*
X120970032Y-157366862D02*
X121017651Y-157366862D01*
X121017651Y-157366862D02*
X121089080Y-157390672D01*
X121089080Y-157390672D02*
X121112889Y-157414481D01*
X121327175Y-157866862D02*
X121327175Y-157533529D01*
X121327175Y-157366862D02*
X121303366Y-157390672D01*
X121303366Y-157390672D02*
X121327175Y-157414481D01*
X121327175Y-157414481D02*
X121350985Y-157390672D01*
X121350985Y-157390672D02*
X121327175Y-157366862D01*
X121327175Y-157366862D02*
X121327175Y-157414481D01*
X121565270Y-157533529D02*
X121565270Y-157866862D01*
X121565270Y-157581148D02*
X121589080Y-157557338D01*
X121589080Y-157557338D02*
X121636699Y-157533529D01*
X121636699Y-157533529D02*
X121708127Y-157533529D01*
X121708127Y-157533529D02*
X121755746Y-157557338D01*
X121755746Y-157557338D02*
X121779556Y-157604957D01*
X121779556Y-157604957D02*
X121779556Y-157866862D01*
X122184318Y-157604957D02*
X122255746Y-157628767D01*
X122255746Y-157628767D02*
X122279556Y-157652576D01*
X122279556Y-157652576D02*
X122303365Y-157700195D01*
X122303365Y-157700195D02*
X122303365Y-157771624D01*
X122303365Y-157771624D02*
X122279556Y-157819243D01*
X122279556Y-157819243D02*
X122255746Y-157843053D01*
X122255746Y-157843053D02*
X122208127Y-157866862D01*
X122208127Y-157866862D02*
X122017651Y-157866862D01*
X122017651Y-157866862D02*
X122017651Y-157366862D01*
X122017651Y-157366862D02*
X122184318Y-157366862D01*
X122184318Y-157366862D02*
X122231937Y-157390672D01*
X122231937Y-157390672D02*
X122255746Y-157414481D01*
X122255746Y-157414481D02*
X122279556Y-157462100D01*
X122279556Y-157462100D02*
X122279556Y-157509719D01*
X122279556Y-157509719D02*
X122255746Y-157557338D01*
X122255746Y-157557338D02*
X122231937Y-157581148D01*
X122231937Y-157581148D02*
X122184318Y-157604957D01*
X122184318Y-157604957D02*
X122017651Y-157604957D01*
X122779556Y-157866862D02*
X122493842Y-157866862D01*
X122636699Y-157866862D02*
X122636699Y-157366862D01*
X122636699Y-157366862D02*
X122589080Y-157438291D01*
X122589080Y-157438291D02*
X122541461Y-157485910D01*
X122541461Y-157485910D02*
X122493842Y-157509719D01*
X122874794Y-157914481D02*
X123255746Y-157914481D01*
X123374793Y-157604957D02*
X123541460Y-157604957D01*
X123612888Y-157866862D02*
X123374793Y-157866862D01*
X123374793Y-157866862D02*
X123374793Y-157366862D01*
X123374793Y-157366862D02*
X123612888Y-157366862D01*
X123779555Y-157366862D02*
X124112888Y-157866862D01*
X124112888Y-157366862D02*
X123779555Y-157866862D01*
X124565269Y-157866862D02*
X124279555Y-157866862D01*
X124422412Y-157866862D02*
X124422412Y-157366862D01*
X124422412Y-157366862D02*
X124374793Y-157438291D01*
X124374793Y-157438291D02*
X124327174Y-157485910D01*
X124327174Y-157485910D02*
X124279555Y-157509719D01*
X133930440Y-159928571D02*
X133954250Y-159952380D01*
X133954250Y-159952380D02*
X133978059Y-160023809D01*
X133978059Y-160023809D02*
X133978059Y-160071428D01*
X133978059Y-160071428D02*
X133954250Y-160142856D01*
X133954250Y-160142856D02*
X133906630Y-160190475D01*
X133906630Y-160190475D02*
X133859011Y-160214285D01*
X133859011Y-160214285D02*
X133763773Y-160238094D01*
X133763773Y-160238094D02*
X133692345Y-160238094D01*
X133692345Y-160238094D02*
X133597107Y-160214285D01*
X133597107Y-160214285D02*
X133549488Y-160190475D01*
X133549488Y-160190475D02*
X133501869Y-160142856D01*
X133501869Y-160142856D02*
X133478059Y-160071428D01*
X133478059Y-160071428D02*
X133478059Y-160023809D01*
X133478059Y-160023809D02*
X133501869Y-159952380D01*
X133501869Y-159952380D02*
X133525678Y-159928571D01*
X133978059Y-159714285D02*
X133644726Y-159714285D01*
X133478059Y-159714285D02*
X133501869Y-159738094D01*
X133501869Y-159738094D02*
X133525678Y-159714285D01*
X133525678Y-159714285D02*
X133501869Y-159690475D01*
X133501869Y-159690475D02*
X133478059Y-159714285D01*
X133478059Y-159714285D02*
X133525678Y-159714285D01*
X133644726Y-159476190D02*
X133978059Y-159476190D01*
X133692345Y-159476190D02*
X133668535Y-159452380D01*
X133668535Y-159452380D02*
X133644726Y-159404761D01*
X133644726Y-159404761D02*
X133644726Y-159333333D01*
X133644726Y-159333333D02*
X133668535Y-159285714D01*
X133668535Y-159285714D02*
X133716154Y-159261904D01*
X133716154Y-159261904D02*
X133978059Y-159261904D01*
X133716154Y-158857142D02*
X133739964Y-158785714D01*
X133739964Y-158785714D02*
X133763773Y-158761904D01*
X133763773Y-158761904D02*
X133811392Y-158738095D01*
X133811392Y-158738095D02*
X133882821Y-158738095D01*
X133882821Y-158738095D02*
X133930440Y-158761904D01*
X133930440Y-158761904D02*
X133954250Y-158785714D01*
X133954250Y-158785714D02*
X133978059Y-158833333D01*
X133978059Y-158833333D02*
X133978059Y-159023809D01*
X133978059Y-159023809D02*
X133478059Y-159023809D01*
X133478059Y-159023809D02*
X133478059Y-158857142D01*
X133478059Y-158857142D02*
X133501869Y-158809523D01*
X133501869Y-158809523D02*
X133525678Y-158785714D01*
X133525678Y-158785714D02*
X133573297Y-158761904D01*
X133573297Y-158761904D02*
X133620916Y-158761904D01*
X133620916Y-158761904D02*
X133668535Y-158785714D01*
X133668535Y-158785714D02*
X133692345Y-158809523D01*
X133692345Y-158809523D02*
X133716154Y-158857142D01*
X133716154Y-158857142D02*
X133716154Y-159023809D01*
X133978059Y-158261904D02*
X133978059Y-158547618D01*
X133978059Y-158404761D02*
X133478059Y-158404761D01*
X133478059Y-158404761D02*
X133549488Y-158452380D01*
X133549488Y-158452380D02*
X133597107Y-158499999D01*
X133597107Y-158499999D02*
X133620916Y-158547618D01*
X162515039Y-139747236D02*
X162467420Y-139723426D01*
X162467420Y-139723426D02*
X162395991Y-139723426D01*
X162395991Y-139723426D02*
X162324563Y-139747236D01*
X162324563Y-139747236D02*
X162276944Y-139794855D01*
X162276944Y-139794855D02*
X162253134Y-139842474D01*
X162253134Y-139842474D02*
X162229325Y-139937712D01*
X162229325Y-139937712D02*
X162229325Y-140009140D01*
X162229325Y-140009140D02*
X162253134Y-140104378D01*
X162253134Y-140104378D02*
X162276944Y-140151997D01*
X162276944Y-140151997D02*
X162324563Y-140199617D01*
X162324563Y-140199617D02*
X162395991Y-140223426D01*
X162395991Y-140223426D02*
X162443610Y-140223426D01*
X162443610Y-140223426D02*
X162515039Y-140199617D01*
X162515039Y-140199617D02*
X162538848Y-140175807D01*
X162538848Y-140175807D02*
X162538848Y-140009140D01*
X162538848Y-140009140D02*
X162443610Y-140009140D01*
X162753134Y-140223426D02*
X162753134Y-139723426D01*
X162753134Y-139723426D02*
X163038848Y-140223426D01*
X163038848Y-140223426D02*
X163038848Y-139723426D01*
X163276944Y-140223426D02*
X163276944Y-139723426D01*
X163276944Y-139723426D02*
X163395992Y-139723426D01*
X163395992Y-139723426D02*
X163467420Y-139747236D01*
X163467420Y-139747236D02*
X163515039Y-139794855D01*
X163515039Y-139794855D02*
X163538849Y-139842474D01*
X163538849Y-139842474D02*
X163562658Y-139937712D01*
X163562658Y-139937712D02*
X163562658Y-140009140D01*
X163562658Y-140009140D02*
X163538849Y-140104378D01*
X163538849Y-140104378D02*
X163515039Y-140151997D01*
X163515039Y-140151997D02*
X163467420Y-140199617D01*
X163467420Y-140199617D02*
X163395992Y-140223426D01*
X163395992Y-140223426D02*
X163276944Y-140223426D01*
X164038849Y-140223426D02*
X163753135Y-140223426D01*
X163895992Y-140223426D02*
X163895992Y-139723426D01*
X163895992Y-139723426D02*
X163848373Y-139794855D01*
X163848373Y-139794855D02*
X163800754Y-139842474D01*
X163800754Y-139842474D02*
X163753135Y-139866283D01*
X185452380Y-135775678D02*
X185404761Y-135751869D01*
X185404761Y-135751869D02*
X185357142Y-135704250D01*
X185357142Y-135704250D02*
X185285714Y-135632821D01*
X185285714Y-135632821D02*
X185238095Y-135609011D01*
X185238095Y-135609011D02*
X185190476Y-135609011D01*
X185214285Y-135728059D02*
X185166666Y-135704250D01*
X185166666Y-135704250D02*
X185119047Y-135656630D01*
X185119047Y-135656630D02*
X185095238Y-135561392D01*
X185095238Y-135561392D02*
X185095238Y-135394726D01*
X185095238Y-135394726D02*
X185119047Y-135299488D01*
X185119047Y-135299488D02*
X185166666Y-135251869D01*
X185166666Y-135251869D02*
X185214285Y-135228059D01*
X185214285Y-135228059D02*
X185309523Y-135228059D01*
X185309523Y-135228059D02*
X185357142Y-135251869D01*
X185357142Y-135251869D02*
X185404761Y-135299488D01*
X185404761Y-135299488D02*
X185428571Y-135394726D01*
X185428571Y-135394726D02*
X185428571Y-135561392D01*
X185428571Y-135561392D02*
X185404761Y-135656630D01*
X185404761Y-135656630D02*
X185357142Y-135704250D01*
X185357142Y-135704250D02*
X185309523Y-135728059D01*
X185309523Y-135728059D02*
X185214285Y-135728059D01*
X185904762Y-135728059D02*
X185619048Y-135728059D01*
X185761905Y-135728059D02*
X185761905Y-135228059D01*
X185761905Y-135228059D02*
X185714286Y-135299488D01*
X185714286Y-135299488D02*
X185666667Y-135347107D01*
X185666667Y-135347107D02*
X185619048Y-135370916D01*
X160355501Y-134028658D02*
X160331692Y-134052468D01*
X160331692Y-134052468D02*
X160260263Y-134076277D01*
X160260263Y-134076277D02*
X160212644Y-134076277D01*
X160212644Y-134076277D02*
X160141216Y-134052468D01*
X160141216Y-134052468D02*
X160093597Y-134004848D01*
X160093597Y-134004848D02*
X160069787Y-133957229D01*
X160069787Y-133957229D02*
X160045978Y-133861991D01*
X160045978Y-133861991D02*
X160045978Y-133790563D01*
X160045978Y-133790563D02*
X160069787Y-133695325D01*
X160069787Y-133695325D02*
X160093597Y-133647706D01*
X160093597Y-133647706D02*
X160141216Y-133600087D01*
X160141216Y-133600087D02*
X160212644Y-133576277D01*
X160212644Y-133576277D02*
X160260263Y-133576277D01*
X160260263Y-133576277D02*
X160331692Y-133600087D01*
X160331692Y-133600087D02*
X160355501Y-133623896D01*
X160665025Y-133576277D02*
X160760263Y-133576277D01*
X160760263Y-133576277D02*
X160807882Y-133600087D01*
X160807882Y-133600087D02*
X160855501Y-133647706D01*
X160855501Y-133647706D02*
X160879311Y-133742944D01*
X160879311Y-133742944D02*
X160879311Y-133909610D01*
X160879311Y-133909610D02*
X160855501Y-134004848D01*
X160855501Y-134004848D02*
X160807882Y-134052468D01*
X160807882Y-134052468D02*
X160760263Y-134076277D01*
X160760263Y-134076277D02*
X160665025Y-134076277D01*
X160665025Y-134076277D02*
X160617406Y-134052468D01*
X160617406Y-134052468D02*
X160569787Y-134004848D01*
X160569787Y-134004848D02*
X160545978Y-133909610D01*
X160545978Y-133909610D02*
X160545978Y-133742944D01*
X160545978Y-133742944D02*
X160569787Y-133647706D01*
X160569787Y-133647706D02*
X160617406Y-133600087D01*
X160617406Y-133600087D02*
X160665025Y-133576277D01*
X161093597Y-133576277D02*
X161093597Y-133981039D01*
X161093597Y-133981039D02*
X161117407Y-134028658D01*
X161117407Y-134028658D02*
X161141216Y-134052468D01*
X161141216Y-134052468D02*
X161188835Y-134076277D01*
X161188835Y-134076277D02*
X161284073Y-134076277D01*
X161284073Y-134076277D02*
X161331692Y-134052468D01*
X161331692Y-134052468D02*
X161355502Y-134028658D01*
X161355502Y-134028658D02*
X161379311Y-133981039D01*
X161379311Y-133981039D02*
X161379311Y-133576277D01*
X161545979Y-133576277D02*
X161831693Y-133576277D01*
X161688836Y-134076277D02*
X161688836Y-133576277D01*
X161879312Y-134123896D02*
X162260264Y-134123896D01*
X162379311Y-133814372D02*
X162545978Y-133814372D01*
X162617406Y-134076277D02*
X162379311Y-134076277D01*
X162379311Y-134076277D02*
X162379311Y-133576277D01*
X162379311Y-133576277D02*
X162617406Y-133576277D01*
X162784073Y-133576277D02*
X163117406Y-134076277D01*
X163117406Y-133576277D02*
X162784073Y-134076277D01*
X163569787Y-134076277D02*
X163284073Y-134076277D01*
X163426930Y-134076277D02*
X163426930Y-133576277D01*
X163426930Y-133576277D02*
X163379311Y-133647706D01*
X163379311Y-133647706D02*
X163331692Y-133695325D01*
X163331692Y-133695325D02*
X163284073Y-133719134D01*
X125356670Y-158880737D02*
X125332861Y-158904547D01*
X125332861Y-158904547D02*
X125261432Y-158928356D01*
X125261432Y-158928356D02*
X125213813Y-158928356D01*
X125213813Y-158928356D02*
X125142385Y-158904547D01*
X125142385Y-158904547D02*
X125094766Y-158856927D01*
X125094766Y-158856927D02*
X125070956Y-158809308D01*
X125070956Y-158809308D02*
X125047147Y-158714070D01*
X125047147Y-158714070D02*
X125047147Y-158642642D01*
X125047147Y-158642642D02*
X125070956Y-158547404D01*
X125070956Y-158547404D02*
X125094766Y-158499785D01*
X125094766Y-158499785D02*
X125142385Y-158452166D01*
X125142385Y-158452166D02*
X125213813Y-158428356D01*
X125213813Y-158428356D02*
X125261432Y-158428356D01*
X125261432Y-158428356D02*
X125332861Y-158452166D01*
X125332861Y-158452166D02*
X125356670Y-158475975D01*
X125570956Y-158928356D02*
X125570956Y-158595023D01*
X125570956Y-158428356D02*
X125547147Y-158452166D01*
X125547147Y-158452166D02*
X125570956Y-158475975D01*
X125570956Y-158475975D02*
X125594766Y-158452166D01*
X125594766Y-158452166D02*
X125570956Y-158428356D01*
X125570956Y-158428356D02*
X125570956Y-158475975D01*
X125809051Y-158595023D02*
X125809051Y-158928356D01*
X125809051Y-158642642D02*
X125832861Y-158618832D01*
X125832861Y-158618832D02*
X125880480Y-158595023D01*
X125880480Y-158595023D02*
X125951908Y-158595023D01*
X125951908Y-158595023D02*
X125999527Y-158618832D01*
X125999527Y-158618832D02*
X126023337Y-158666451D01*
X126023337Y-158666451D02*
X126023337Y-158928356D01*
X126237623Y-158785499D02*
X126475718Y-158785499D01*
X126190004Y-158928356D02*
X126356670Y-158428356D01*
X126356670Y-158428356D02*
X126523337Y-158928356D01*
X126951908Y-158928356D02*
X126666194Y-158928356D01*
X126809051Y-158928356D02*
X126809051Y-158428356D01*
X126809051Y-158428356D02*
X126761432Y-158499785D01*
X126761432Y-158499785D02*
X126713813Y-158547404D01*
X126713813Y-158547404D02*
X126666194Y-158571213D01*
X127047146Y-158975975D02*
X127428098Y-158975975D01*
X127547145Y-158666451D02*
X127713812Y-158666451D01*
X127785240Y-158928356D02*
X127547145Y-158928356D01*
X127547145Y-158928356D02*
X127547145Y-158428356D01*
X127547145Y-158428356D02*
X127785240Y-158428356D01*
X127951907Y-158428356D02*
X128285240Y-158928356D01*
X128285240Y-158428356D02*
X127951907Y-158928356D01*
X128737621Y-158928356D02*
X128451907Y-158928356D01*
X128594764Y-158928356D02*
X128594764Y-158428356D01*
X128594764Y-158428356D02*
X128547145Y-158499785D01*
X128547145Y-158499785D02*
X128499526Y-158547404D01*
X128499526Y-158547404D02*
X128451907Y-158571213D01*
X131930440Y-159892856D02*
X131954250Y-159916665D01*
X131954250Y-159916665D02*
X131978059Y-159988094D01*
X131978059Y-159988094D02*
X131978059Y-160035713D01*
X131978059Y-160035713D02*
X131954250Y-160107141D01*
X131954250Y-160107141D02*
X131906630Y-160154760D01*
X131906630Y-160154760D02*
X131859011Y-160178570D01*
X131859011Y-160178570D02*
X131763773Y-160202379D01*
X131763773Y-160202379D02*
X131692345Y-160202379D01*
X131692345Y-160202379D02*
X131597107Y-160178570D01*
X131597107Y-160178570D02*
X131549488Y-160154760D01*
X131549488Y-160154760D02*
X131501869Y-160107141D01*
X131501869Y-160107141D02*
X131478059Y-160035713D01*
X131478059Y-160035713D02*
X131478059Y-159988094D01*
X131478059Y-159988094D02*
X131501869Y-159916665D01*
X131501869Y-159916665D02*
X131525678Y-159892856D01*
X131978059Y-159678570D02*
X131644726Y-159678570D01*
X131478059Y-159678570D02*
X131501869Y-159702379D01*
X131501869Y-159702379D02*
X131525678Y-159678570D01*
X131525678Y-159678570D02*
X131501869Y-159654760D01*
X131501869Y-159654760D02*
X131478059Y-159678570D01*
X131478059Y-159678570D02*
X131525678Y-159678570D01*
X131644726Y-159440475D02*
X131978059Y-159440475D01*
X131692345Y-159440475D02*
X131668535Y-159416665D01*
X131668535Y-159416665D02*
X131644726Y-159369046D01*
X131644726Y-159369046D02*
X131644726Y-159297618D01*
X131644726Y-159297618D02*
X131668535Y-159249999D01*
X131668535Y-159249999D02*
X131716154Y-159226189D01*
X131716154Y-159226189D02*
X131978059Y-159226189D01*
X131835202Y-159011903D02*
X131835202Y-158773808D01*
X131978059Y-159059522D02*
X131478059Y-158892856D01*
X131478059Y-158892856D02*
X131978059Y-158726189D01*
X131978059Y-158297618D02*
X131978059Y-158583332D01*
X131978059Y-158440475D02*
X131478059Y-158440475D01*
X131478059Y-158440475D02*
X131549488Y-158488094D01*
X131549488Y-158488094D02*
X131597107Y-158535713D01*
X131597107Y-158535713D02*
X131620916Y-158583332D01*
X154192461Y-153528531D02*
X154478175Y-153528531D01*
X154335318Y-154028531D02*
X154335318Y-153528531D01*
X154644841Y-154028531D02*
X154644841Y-153528531D01*
X154644841Y-153528531D02*
X154835317Y-153528531D01*
X154835317Y-153528531D02*
X154882936Y-153552341D01*
X154882936Y-153552341D02*
X154906746Y-153576150D01*
X154906746Y-153576150D02*
X154930555Y-153623769D01*
X154930555Y-153623769D02*
X154930555Y-153695198D01*
X154930555Y-153695198D02*
X154906746Y-153742817D01*
X154906746Y-153742817D02*
X154882936Y-153766626D01*
X154882936Y-153766626D02*
X154835317Y-153790436D01*
X154835317Y-153790436D02*
X154644841Y-153790436D01*
X155025794Y-154076150D02*
X155406746Y-154076150D01*
X155454365Y-153528531D02*
X155621031Y-154028531D01*
X155621031Y-154028531D02*
X155787698Y-153528531D01*
X155954364Y-154028531D02*
X155954364Y-153528531D01*
X156192459Y-154028531D02*
X156192459Y-153528531D01*
X156192459Y-153528531D02*
X156478173Y-154028531D01*
X156478173Y-154028531D02*
X156478173Y-153528531D01*
X156692460Y-153576150D02*
X156716269Y-153552341D01*
X156716269Y-153552341D02*
X156763888Y-153528531D01*
X156763888Y-153528531D02*
X156882936Y-153528531D01*
X156882936Y-153528531D02*
X156930555Y-153552341D01*
X156930555Y-153552341D02*
X156954364Y-153576150D01*
X156954364Y-153576150D02*
X156978174Y-153623769D01*
X156978174Y-153623769D02*
X156978174Y-153671388D01*
X156978174Y-153671388D02*
X156954364Y-153742817D01*
X156954364Y-153742817D02*
X156668650Y-154028531D01*
X156668650Y-154028531D02*
X156978174Y-154028531D01*
X159163415Y-131964152D02*
X158996749Y-131726057D01*
X158877701Y-131964152D02*
X158877701Y-131464152D01*
X158877701Y-131464152D02*
X159068177Y-131464152D01*
X159068177Y-131464152D02*
X159115796Y-131487962D01*
X159115796Y-131487962D02*
X159139606Y-131511771D01*
X159139606Y-131511771D02*
X159163415Y-131559390D01*
X159163415Y-131559390D02*
X159163415Y-131630819D01*
X159163415Y-131630819D02*
X159139606Y-131678438D01*
X159139606Y-131678438D02*
X159115796Y-131702247D01*
X159115796Y-131702247D02*
X159068177Y-131726057D01*
X159068177Y-131726057D02*
X158877701Y-131726057D01*
X159615796Y-131964152D02*
X159377701Y-131964152D01*
X159377701Y-131964152D02*
X159377701Y-131464152D01*
X159877701Y-131464152D02*
X159972939Y-131464152D01*
X159972939Y-131464152D02*
X160020558Y-131487962D01*
X160020558Y-131487962D02*
X160068177Y-131535581D01*
X160068177Y-131535581D02*
X160091987Y-131630819D01*
X160091987Y-131630819D02*
X160091987Y-131797485D01*
X160091987Y-131797485D02*
X160068177Y-131892723D01*
X160068177Y-131892723D02*
X160020558Y-131940343D01*
X160020558Y-131940343D02*
X159972939Y-131964152D01*
X159972939Y-131964152D02*
X159877701Y-131964152D01*
X159877701Y-131964152D02*
X159830082Y-131940343D01*
X159830082Y-131940343D02*
X159782463Y-131892723D01*
X159782463Y-131892723D02*
X159758654Y-131797485D01*
X159758654Y-131797485D02*
X159758654Y-131630819D01*
X159758654Y-131630819D02*
X159782463Y-131535581D01*
X159782463Y-131535581D02*
X159830082Y-131487962D01*
X159830082Y-131487962D02*
X159877701Y-131464152D01*
X160282464Y-131821295D02*
X160520559Y-131821295D01*
X160234845Y-131964152D02*
X160401511Y-131464152D01*
X160401511Y-131464152D02*
X160568178Y-131964152D01*
X160734844Y-131964152D02*
X160734844Y-131464152D01*
X160734844Y-131464152D02*
X160853892Y-131464152D01*
X160853892Y-131464152D02*
X160925320Y-131487962D01*
X160925320Y-131487962D02*
X160972939Y-131535581D01*
X160972939Y-131535581D02*
X160996749Y-131583200D01*
X160996749Y-131583200D02*
X161020558Y-131678438D01*
X161020558Y-131678438D02*
X161020558Y-131749866D01*
X161020558Y-131749866D02*
X160996749Y-131845104D01*
X160996749Y-131845104D02*
X160972939Y-131892723D01*
X160972939Y-131892723D02*
X160925320Y-131940343D01*
X160925320Y-131940343D02*
X160853892Y-131964152D01*
X160853892Y-131964152D02*
X160734844Y-131964152D01*
X161496749Y-131964152D02*
X161211035Y-131964152D01*
X161353892Y-131964152D02*
X161353892Y-131464152D01*
X161353892Y-131464152D02*
X161306273Y-131535581D01*
X161306273Y-131535581D02*
X161258654Y-131583200D01*
X161258654Y-131583200D02*
X161211035Y-131607009D01*
D11*
%TO.C,C3*%
X131843463Y-123708160D02*
X132365967Y-123708160D01*
X131843463Y-125178160D02*
X132365967Y-125178160D01*
D12*
%TO.C,L1*%
X141048346Y-125968655D02*
X151048346Y-125968655D01*
X141048346Y-137268655D02*
X141048346Y-125968655D01*
X151048346Y-125968655D02*
X151048346Y-137268655D01*
X151048346Y-137268655D02*
X141048346Y-137268655D01*
D13*
X140448346Y-131618655D02*
G75*
G02*
X140248346Y-131618655I-100000J0D01*
G01*
X140248346Y-131618655D02*
G75*
G02*
X140448346Y-131618655I100000J0D01*
G01*
D11*
%TO.C,COUT1*%
X157837028Y-128761750D02*
X158359532Y-128761750D01*
X157837028Y-130231750D02*
X158359532Y-130231750D01*
%TO.C,C5*%
X127525774Y-143791910D02*
X127003270Y-143791910D01*
X127525774Y-145261910D02*
X127003270Y-145261910D01*
%TO.C,C5_EX1*%
X127525774Y-145819275D02*
X127003270Y-145819275D01*
X127525774Y-147289275D02*
X127003270Y-147289275D01*
%TO.C,COUT_EX2*%
X158217945Y-135189840D02*
X157695441Y-135189840D01*
X158217945Y-136659840D02*
X157695441Y-136659840D01*
%TO.C,CSENSE1*%
X154387137Y-137597803D02*
X154909643Y-137597803D01*
X154387137Y-139067803D02*
X154909643Y-139067803D01*
D13*
%TO.C,Q2*%
X182050000Y-117040000D02*
X187950000Y-117040000D01*
X182050000Y-122190000D02*
X187950000Y-122190000D01*
X189000000Y-121515000D02*
X189000000Y-121515000D01*
X189200000Y-121515000D02*
X189200000Y-121515000D01*
X189000000Y-121515000D02*
G75*
G02*
X189200000Y-121515000I100000J0D01*
G01*
X189200000Y-121515000D02*
G75*
G02*
X189000000Y-121515000I-100000J0D01*
G01*
D14*
%TO.C,VSource_IN1*%
X137000000Y-143100000D02*
X137000000Y-143100000D01*
X137000000Y-143200000D02*
X137000000Y-143200000D01*
X137000000Y-143100000D02*
G75*
G02*
X137000000Y-143200000I0J-50000D01*
G01*
X137000000Y-143200000D02*
G75*
G02*
X137000000Y-143100000I0J50000D01*
G01*
D11*
%TO.C,C1_EX1*%
X121109024Y-132028151D02*
X121631528Y-132028151D01*
X121109024Y-133498151D02*
X121631528Y-133498151D01*
%TO.C,C3_EX1*%
X132365967Y-121708160D02*
X131843463Y-121708160D01*
X132365967Y-123178160D02*
X131843463Y-123178160D01*
%TO.C,VOUT1*%
X155602531Y-127522225D02*
X155602531Y-126142225D01*
X156982531Y-127522225D02*
X155602531Y-127522225D01*
X158252531Y-124762225D02*
X158362531Y-124762225D01*
X158252531Y-127522225D02*
X158252531Y-124762225D01*
X158252531Y-127522225D02*
X158362531Y-127522225D01*
X158362531Y-127522225D02*
X158362531Y-124762225D01*
D12*
%TO.C,U1*%
X128105134Y-134298045D02*
X128105134Y-134698045D01*
X128105134Y-136998045D02*
X128105134Y-137398045D01*
X128105134Y-137398045D02*
X128505134Y-137398045D01*
X128505134Y-134298045D02*
X128105134Y-134298045D01*
X131805134Y-134298045D02*
X132205134Y-134298045D01*
X132205134Y-134298045D02*
X132205134Y-134648045D01*
X132205134Y-136998045D02*
X132205134Y-137398045D01*
X132205134Y-137398045D02*
X131805134Y-137398045D01*
D15*
X128425843Y-137948045D02*
G75*
G02*
X128284425Y-137948045I-70709J0D01*
G01*
X128284425Y-137948045D02*
G75*
G02*
X128425843Y-137948045I70709J0D01*
G01*
D11*
%TO.C,CinA2*%
X129015000Y-155988748D02*
X129015000Y-156511252D01*
X130485000Y-155988748D02*
X130485000Y-156511252D01*
%TO.C,TP_VIN1*%
X136120000Y-139120000D02*
X137500000Y-139120000D01*
X136120000Y-140500000D02*
X136120000Y-139120000D01*
X136120000Y-141770000D02*
X136120000Y-141880000D01*
X136120000Y-141770000D02*
X138880000Y-141770000D01*
X136120000Y-141880000D02*
X138880000Y-141880000D01*
X138880000Y-141770000D02*
X138880000Y-141880000D01*
D14*
%TO.C,VSource_GND1*%
X148000000Y-143100000D02*
X148000000Y-143100000D01*
X148000000Y-143200000D02*
X148000000Y-143200000D01*
X148000000Y-143100000D02*
G75*
G02*
X148000000Y-143200000I0J-50000D01*
G01*
X148000000Y-143200000D02*
G75*
G02*
X148000000Y-143100000I0J50000D01*
G01*
D11*
%TO.C,C1*%
X121111936Y-134040784D02*
X121634440Y-134040784D01*
X121111936Y-135510784D02*
X121634440Y-135510784D01*
%TO.C,C6_EX1*%
X127003270Y-140783059D02*
X127525774Y-140783059D01*
X127003270Y-142253059D02*
X127525774Y-142253059D01*
%TO.C,CSENSE_EX1*%
X154909642Y-139726028D02*
X154387138Y-139726028D01*
X154909642Y-141196028D02*
X154387138Y-141196028D01*
%TO.C,C6*%
X127003270Y-138783059D02*
X127525774Y-138783059D01*
X127003270Y-140253059D02*
X127525774Y-140253059D01*
%TO.C,CinB1_EX1*%
X125015000Y-155951248D02*
X125015000Y-156473752D01*
X126485000Y-155951248D02*
X126485000Y-156473752D01*
%TO.C,CinB1*%
X133015000Y-155988748D02*
X133015000Y-156511252D01*
X134485000Y-155988748D02*
X134485000Y-156511252D01*
%TO.C,GND1*%
X159067591Y-141556070D02*
X159067591Y-140176070D01*
X160447591Y-141556070D02*
X159067591Y-141556070D01*
X161717591Y-138796070D02*
X161827591Y-138796070D01*
X161717591Y-141556070D02*
X161717591Y-138796070D01*
X161717591Y-141556070D02*
X161827591Y-141556070D01*
X161827591Y-141556070D02*
X161827591Y-138796070D01*
D13*
%TO.C,Q1*%
X182925000Y-133150000D02*
X182925000Y-127250000D01*
X187400000Y-126000000D02*
X187400000Y-126000000D01*
X187400000Y-126200000D02*
X187400000Y-126200000D01*
X188075000Y-133150000D02*
X188075000Y-127250000D01*
X187400000Y-126000000D02*
G75*
G02*
X187400000Y-126200000I0J-100000D01*
G01*
X187400000Y-126200000D02*
G75*
G02*
X187400000Y-126000000I0J100000D01*
G01*
D11*
%TO.C,COUT_EX1*%
X158217945Y-133075461D02*
X157695441Y-133075461D01*
X158217945Y-134545461D02*
X157695441Y-134545461D01*
%TO.C,CinA1_EX1*%
X127015000Y-156473752D02*
X127015000Y-155951248D01*
X128485000Y-156473752D02*
X128485000Y-155951248D01*
%TO.C,CinA1*%
X131015000Y-155988748D02*
X131015000Y-156511252D01*
X132485000Y-155988748D02*
X132485000Y-156511252D01*
%TO.C,TP_VIN2*%
X154120000Y-150120000D02*
X155500000Y-150120000D01*
X154120000Y-151500000D02*
X154120000Y-150120000D01*
X154120000Y-152770000D02*
X154120000Y-152880000D01*
X154120000Y-152770000D02*
X156880000Y-152770000D01*
X154120000Y-152880000D02*
X156880000Y-152880000D01*
X156880000Y-152770000D02*
X156880000Y-152880000D01*
%TD*%
M02*
