%TF.GenerationSoftware,KiCad,Pcbnew,9.0.1*%
%TF.CreationDate,2025-11-16T17:30:07-08:00*%
%TF.ProjectId,Si-LTC7800-Alternate,53692d4c-5443-4373-9830-302d416c7465,rev?*%
%TF.SameCoordinates,Original*%
%TF.FileFunction,Soldermask,Top*%
%TF.FilePolarity,Negative*%
%FSLAX46Y46*%
G04 Gerber Fmt 4.6, Leading zero omitted, Abs format (unit mm)*
G04 Created by KiCad (PCBNEW 9.0.1) date 2025-11-16 17:30:07*
%MOMM*%
%LPD*%
G01*
G04 APERTURE LIST*
G04 Aperture macros list*
%AMRoundRect*
0 Rectangle with rounded corners*
0 $1 Rounding radius*
0 $2 $3 $4 $5 $6 $7 $8 $9 X,Y pos of 4 corners*
0 Add a 4 corners polygon primitive as box body*
4,1,4,$2,$3,$4,$5,$6,$7,$8,$9,$2,$3,0*
0 Add four circle primitives for the rounded corners*
1,1,$1+$1,$2,$3*
1,1,$1+$1,$4,$5*
1,1,$1+$1,$6,$7*
1,1,$1+$1,$8,$9*
0 Add four rect primitives between the rounded corners*
20,1,$1+$1,$2,$3,$4,$5,0*
20,1,$1+$1,$4,$5,$6,$7,0*
20,1,$1+$1,$6,$7,$8,$9,0*
20,1,$1+$1,$8,$9,$2,$3,0*%
G04 Aperture macros list end*
%ADD10RoundRect,0.250000X-0.337500X-0.475000X0.337500X-0.475000X0.337500X0.475000X-0.337500X0.475000X0*%
%ADD11RoundRect,0.102000X-1.190000X-4.250000X1.190000X-4.250000X1.190000X4.250000X-1.190000X4.250000X0*%
%ADD12RoundRect,0.250000X0.337500X0.475000X-0.337500X0.475000X-0.337500X-0.475000X0.337500X-0.475000X0*%
%ADD13RoundRect,0.100000X-0.224506X0.083085X0.083085X-0.224506X0.224506X-0.083085X-0.083085X0.224506X0*%
%ADD14RoundRect,0.100000X0.100000X-0.217500X0.100000X0.217500X-0.100000X0.217500X-0.100000X-0.217500X0*%
%ADD15R,0.850000X0.500000*%
%ADD16R,0.800000X0.600000*%
%ADD17R,3.750000X4.410000*%
%ADD18RoundRect,0.100000X-0.217500X-0.100000X0.217500X-0.100000X0.217500X0.100000X-0.217500X0.100000X0*%
%ADD19C,8.115000*%
%ADD20R,1.700000X1.700000*%
%ADD21RoundRect,0.102000X0.135000X-0.420000X0.135000X0.420000X-0.135000X0.420000X-0.135000X-0.420000X0*%
%ADD22RoundRect,0.102000X0.420000X-0.135000X0.420000X0.135000X-0.420000X0.135000X-0.420000X-0.135000X0*%
%ADD23RoundRect,0.102000X1.325000X-0.825000X1.325000X0.825000X-1.325000X0.825000X-1.325000X-0.825000X0*%
%ADD24RoundRect,0.100000X-0.100000X0.217500X-0.100000X-0.217500X0.100000X-0.217500X0.100000X0.217500X0*%
%ADD25RoundRect,0.250000X-0.475000X0.337500X-0.475000X-0.337500X0.475000X-0.337500X0.475000X0.337500X0*%
%ADD26RoundRect,0.100000X0.217500X0.100000X-0.217500X0.100000X-0.217500X-0.100000X0.217500X-0.100000X0*%
%ADD27R,0.500000X0.850000*%
%ADD28R,0.600000X0.800000*%
%ADD29R,4.410000X3.750000*%
%ADD30RoundRect,0.250000X0.475000X-0.337500X0.475000X0.337500X-0.475000X0.337500X-0.475000X-0.337500X0*%
G04 APERTURE END LIST*
D10*
%TO.C,C3*%
X131067215Y-124443160D03*
X133142215Y-124443160D03*
%TD*%
D11*
%TO.C,L1*%
X142723346Y-131618655D03*
X149373346Y-131618655D03*
%TD*%
D10*
%TO.C,COUT1*%
X157060780Y-129496750D03*
X159135780Y-129496750D03*
%TD*%
D12*
%TO.C,C5*%
X128302022Y-144526910D03*
X126227022Y-144526910D03*
%TD*%
D13*
%TO.C,R4*%
X152063250Y-135201343D03*
X152639542Y-135777635D03*
%TD*%
D12*
%TO.C,C5_EX1*%
X128302022Y-146554275D03*
X126227022Y-146554275D03*
%TD*%
%TO.C,COUT_EX2*%
X158994193Y-135924840D03*
X156919193Y-135924840D03*
%TD*%
D14*
%TO.C,R5*%
X159143009Y-144095821D03*
X159143009Y-143280821D03*
%TD*%
D10*
%TO.C,CSENSE1*%
X153610890Y-138332803D03*
X155685890Y-138332803D03*
%TD*%
D15*
%TO.C,Q2*%
X188000000Y-121520000D03*
X188000000Y-120250000D03*
X188000000Y-118980000D03*
X188000000Y-117710000D03*
D16*
X182175000Y-117710000D03*
X182175000Y-118980000D03*
X182175000Y-120250000D03*
X182175000Y-121520000D03*
D17*
X184450000Y-119615000D03*
%TD*%
D18*
%TO.C,RSENSE1*%
X152223916Y-131747236D03*
X153038916Y-131747236D03*
%TD*%
D19*
%TO.C,VSource_IN1*%
X137000000Y-148000000D03*
%TD*%
D10*
%TO.C,C1_EX1*%
X120332776Y-132763151D03*
X122407776Y-132763151D03*
%TD*%
D12*
%TO.C,C3_EX1*%
X133142215Y-122443160D03*
X131067215Y-122443160D03*
%TD*%
D13*
%TO.C,R6*%
X157341651Y-141552969D03*
X157917943Y-142129261D03*
%TD*%
D20*
%TO.C,VOUT1*%
X156982531Y-126142225D03*
%TD*%
D21*
%TO.C,U1*%
X128905134Y-137293045D03*
X129405134Y-137293045D03*
X129905134Y-137293045D03*
X130405134Y-137293045D03*
X130905134Y-137293045D03*
X131405134Y-137293045D03*
D22*
X132100134Y-136598045D03*
X132100134Y-136098045D03*
X132100134Y-135598045D03*
X132100134Y-135098045D03*
D21*
X131405134Y-134403045D03*
X130905134Y-134403045D03*
X130405134Y-134403045D03*
X129905134Y-134403045D03*
X129405134Y-134403045D03*
X128905134Y-134403045D03*
D22*
X128210134Y-135098045D03*
X128210134Y-135598045D03*
X128210134Y-136098045D03*
X128210134Y-136598045D03*
D23*
X130155134Y-135848045D03*
%TD*%
D24*
%TO.C,R7*%
X158353713Y-143280821D03*
X158353713Y-144095821D03*
%TD*%
D18*
%TO.C,R2*%
X122156109Y-136967511D03*
X122971109Y-136967511D03*
%TD*%
D25*
%TO.C,CinA2*%
X129750000Y-155212500D03*
X129750000Y-157287500D03*
%TD*%
D20*
%TO.C,TP_VIN1*%
X137500000Y-140500000D03*
%TD*%
D26*
%TO.C,R9*%
X127672022Y-143038117D03*
X126857022Y-143038117D03*
%TD*%
D19*
%TO.C,VSource_GND1*%
X148000000Y-148000000D03*
%TD*%
D10*
%TO.C,C1*%
X120335688Y-134775784D03*
X122410688Y-134775784D03*
%TD*%
%TO.C,C6_EX1*%
X126227022Y-141518059D03*
X128302022Y-141518059D03*
%TD*%
D12*
%TO.C,CSENSE_EX1*%
X155685890Y-140461028D03*
X153610890Y-140461028D03*
%TD*%
D10*
%TO.C,C6*%
X126227022Y-139518059D03*
X128302022Y-139518059D03*
%TD*%
D25*
%TO.C,CinB1_EX1*%
X125750000Y-155175000D03*
X125750000Y-157250000D03*
%TD*%
%TO.C,CinB1*%
X133750000Y-155212500D03*
X133750000Y-157287500D03*
%TD*%
D20*
%TO.C,GND1*%
X160447591Y-140176070D03*
%TD*%
D27*
%TO.C,Q1*%
X187405000Y-127200000D03*
X186135000Y-127200000D03*
X184865000Y-127200000D03*
X183595000Y-127200000D03*
D28*
X183595000Y-133025000D03*
X184865000Y-133025000D03*
X186135000Y-133025000D03*
X187405000Y-133025000D03*
D29*
X185500000Y-130750000D03*
%TD*%
D12*
%TO.C,COUT_EX1*%
X158994193Y-133810461D03*
X156919193Y-133810461D03*
%TD*%
D30*
%TO.C,CinA1_EX1*%
X127750000Y-157250000D03*
X127750000Y-155175000D03*
%TD*%
D25*
%TO.C,CinA1*%
X131750000Y-155212500D03*
X131750000Y-157287500D03*
%TD*%
D20*
%TO.C,TP_VIN2*%
X155500000Y-151500000D03*
%TD*%
D18*
%TO.C,RLOAD1*%
X157549193Y-131745663D03*
X158364193Y-131745663D03*
%TD*%
M02*
