%TF.GenerationSoftware,KiCad,Pcbnew,9.0.1*%
%TF.CreationDate,2025-11-16T17:30:07-08:00*%
%TF.ProjectId,Si-LTC7800-Alternate,53692d4c-5443-4373-9830-302d416c7465,rev?*%
%TF.SameCoordinates,Original*%
%TF.FileFunction,Legend,Bot*%
%TF.FilePolarity,Positive*%
%FSLAX46Y46*%
G04 Gerber Fmt 4.6, Leading zero omitted, Abs format (unit mm)*
G04 Created by KiCad (PCBNEW 9.0.1) date 2025-11-16 17:30:07*
%MOMM*%
%LPD*%
G01*
G04 APERTURE LIST*
%ADD10C,0.062500*%
%ADD11C,0.150000*%
%ADD12C,0.120000*%
%ADD13C,0.200000*%
G04 APERTURE END LIST*
D10*
X126993999Y-128334578D02*
X127017809Y-128310769D01*
X127017809Y-128310769D02*
X127041618Y-128239340D01*
X127041618Y-128239340D02*
X127041618Y-128191721D01*
X127041618Y-128191721D02*
X127017809Y-128120293D01*
X127017809Y-128120293D02*
X126970189Y-128072674D01*
X126970189Y-128072674D02*
X126922570Y-128048864D01*
X126922570Y-128048864D02*
X126827332Y-128025055D01*
X126827332Y-128025055D02*
X126755904Y-128025055D01*
X126755904Y-128025055D02*
X126660666Y-128048864D01*
X126660666Y-128048864D02*
X126613047Y-128072674D01*
X126613047Y-128072674D02*
X126565428Y-128120293D01*
X126565428Y-128120293D02*
X126541618Y-128191721D01*
X126541618Y-128191721D02*
X126541618Y-128239340D01*
X126541618Y-128239340D02*
X126565428Y-128310769D01*
X126565428Y-128310769D02*
X126589237Y-128334578D01*
X126589237Y-128525055D02*
X126565428Y-128548864D01*
X126565428Y-128548864D02*
X126541618Y-128596483D01*
X126541618Y-128596483D02*
X126541618Y-128715531D01*
X126541618Y-128715531D02*
X126565428Y-128763150D01*
X126565428Y-128763150D02*
X126589237Y-128786959D01*
X126589237Y-128786959D02*
X126636856Y-128810769D01*
X126636856Y-128810769D02*
X126684475Y-128810769D01*
X126684475Y-128810769D02*
X126755904Y-128786959D01*
X126755904Y-128786959D02*
X127041618Y-128501245D01*
X127041618Y-128501245D02*
X127041618Y-128810769D01*
X125065485Y-126548021D02*
X125089295Y-126524212D01*
X125089295Y-126524212D02*
X125113104Y-126452783D01*
X125113104Y-126452783D02*
X125113104Y-126405164D01*
X125113104Y-126405164D02*
X125089295Y-126333736D01*
X125089295Y-126333736D02*
X125041675Y-126286117D01*
X125041675Y-126286117D02*
X124994056Y-126262307D01*
X124994056Y-126262307D02*
X124898818Y-126238498D01*
X124898818Y-126238498D02*
X124827390Y-126238498D01*
X124827390Y-126238498D02*
X124732152Y-126262307D01*
X124732152Y-126262307D02*
X124684533Y-126286117D01*
X124684533Y-126286117D02*
X124636914Y-126333736D01*
X124636914Y-126333736D02*
X124613104Y-126405164D01*
X124613104Y-126405164D02*
X124613104Y-126452783D01*
X124613104Y-126452783D02*
X124636914Y-126524212D01*
X124636914Y-126524212D02*
X124660723Y-126548021D01*
X124660723Y-126738498D02*
X124636914Y-126762307D01*
X124636914Y-126762307D02*
X124613104Y-126809926D01*
X124613104Y-126809926D02*
X124613104Y-126928974D01*
X124613104Y-126928974D02*
X124636914Y-126976593D01*
X124636914Y-126976593D02*
X124660723Y-127000402D01*
X124660723Y-127000402D02*
X124708342Y-127024212D01*
X124708342Y-127024212D02*
X124755961Y-127024212D01*
X124755961Y-127024212D02*
X124827390Y-127000402D01*
X124827390Y-127000402D02*
X125113104Y-126714688D01*
X125113104Y-126714688D02*
X125113104Y-127024212D01*
X125160723Y-127119450D02*
X125160723Y-127500402D01*
X124851199Y-127619449D02*
X124851199Y-127786116D01*
X125113104Y-127857544D02*
X125113104Y-127619449D01*
X125113104Y-127619449D02*
X124613104Y-127619449D01*
X124613104Y-127619449D02*
X124613104Y-127857544D01*
X124613104Y-128024211D02*
X125113104Y-128357544D01*
X124613104Y-128357544D02*
X125113104Y-128024211D01*
X125113104Y-128809925D02*
X125113104Y-128524211D01*
X125113104Y-128667068D02*
X124613104Y-128667068D01*
X124613104Y-128667068D02*
X124684533Y-128619449D01*
X124684533Y-128619449D02*
X124732152Y-128571830D01*
X124732152Y-128571830D02*
X124755961Y-128524211D01*
D11*
X133421676Y-133826614D02*
X132945485Y-133493281D01*
X133421676Y-133255186D02*
X132421676Y-133255186D01*
X132421676Y-133255186D02*
X132421676Y-133636138D01*
X132421676Y-133636138D02*
X132469295Y-133731376D01*
X132469295Y-133731376D02*
X132516914Y-133778995D01*
X132516914Y-133778995D02*
X132612152Y-133826614D01*
X132612152Y-133826614D02*
X132755009Y-133826614D01*
X132755009Y-133826614D02*
X132850247Y-133778995D01*
X132850247Y-133778995D02*
X132897866Y-133731376D01*
X132897866Y-133731376D02*
X132945485Y-133636138D01*
X132945485Y-133636138D02*
X132945485Y-133255186D01*
X133421676Y-134778995D02*
X133421676Y-134207567D01*
X133421676Y-134493281D02*
X132421676Y-134493281D01*
X132421676Y-134493281D02*
X132564533Y-134398043D01*
X132564533Y-134398043D02*
X132659771Y-134302805D01*
X132659771Y-134302805D02*
X132707390Y-134207567D01*
D12*
%TO.C,C2*%
X126112879Y-130655298D02*
X126112879Y-131177802D01*
X127582879Y-130655298D02*
X127582879Y-131177802D01*
%TO.C,C2_EX1*%
X124067858Y-131167790D02*
X124067858Y-130645286D01*
X125537858Y-131167790D02*
X125537858Y-130645286D01*
D13*
%TO.C,D1*%
X128425000Y-132500000D02*
X129275000Y-132500000D01*
X129625000Y-129538000D02*
X129625000Y-132462000D01*
X129625000Y-132462000D02*
X130375000Y-132462000D01*
X130375000Y-129538000D02*
X129625000Y-129538000D01*
X130375000Y-132462000D02*
X130375000Y-129538000D01*
%TD*%
M02*
