%TF.GenerationSoftware,KiCad,Pcbnew,9.0.1*%
%TF.CreationDate,2025-11-16T17:24:42-08:00*%
%TF.ProjectId,Si-LTC7800,53692d4c-5443-4373-9830-302e6b696361,rev?*%
%TF.SameCoordinates,Original*%
%TF.FileFunction,Copper,L2,Bot*%
%TF.FilePolarity,Positive*%
%FSLAX46Y46*%
G04 Gerber Fmt 4.6, Leading zero omitted, Abs format (unit mm)*
G04 Created by KiCad (PCBNEW 9.0.1) date 2025-11-16 17:24:42*
%MOMM*%
%LPD*%
G01*
G04 APERTURE LIST*
G04 Aperture macros list*
%AMRoundRect*
0 Rectangle with rounded corners*
0 $1 Rounding radius*
0 $2 $3 $4 $5 $6 $7 $8 $9 X,Y pos of 4 corners*
0 Add a 4 corners polygon primitive as box body*
4,1,4,$2,$3,$4,$5,$6,$7,$8,$9,$2,$3,0*
0 Add four circle primitives for the rounded corners*
1,1,$1+$1,$2,$3*
1,1,$1+$1,$4,$5*
1,1,$1+$1,$6,$7*
1,1,$1+$1,$8,$9*
0 Add four rect primitives between the rounded corners*
20,1,$1+$1,$2,$3,$4,$5,0*
20,1,$1+$1,$4,$5,$6,$7,0*
20,1,$1+$1,$6,$7,$8,$9,0*
20,1,$1+$1,$8,$9,$2,$3,0*%
G04 Aperture macros list end*
%TA.AperFunction,Conductor*%
%ADD10C,0.200000*%
%TD*%
%TA.AperFunction,ComponentPad*%
%ADD11C,8.115000*%
%TD*%
%TA.AperFunction,ComponentPad*%
%ADD12R,1.700000X1.700000*%
%TD*%
%TA.AperFunction,SMDPad,CuDef*%
%ADD13RoundRect,0.250000X-0.475000X0.337500X-0.475000X-0.337500X0.475000X-0.337500X0.475000X0.337500X0*%
%TD*%
%TA.AperFunction,SMDPad,CuDef*%
%ADD14RoundRect,0.250000X0.475000X-0.337500X0.475000X0.337500X-0.475000X0.337500X-0.475000X-0.337500X0*%
%TD*%
%TA.AperFunction,SMDPad,CuDef*%
%ADD15R,0.850000X0.600000*%
%TD*%
%TA.AperFunction,SMDPad,CuDef*%
%ADD16RoundRect,0.100000X0.100000X-0.217500X0.100000X0.217500X-0.100000X0.217500X-0.100000X-0.217500X0*%
%TD*%
%TA.AperFunction,ViaPad*%
%ADD17C,0.600000*%
%TD*%
%TA.AperFunction,Conductor*%
%ADD18C,1.200000*%
%TD*%
%TA.AperFunction,Conductor*%
%ADD19C,0.500000*%
%TD*%
%TA.AperFunction,Conductor*%
%ADD20C,0.600000*%
%TD*%
%TA.AperFunction,Conductor*%
%ADD21C,1.000000*%
%TD*%
G04 APERTURE END LIST*
D10*
%TO.N,/Vout*%
X160000000Y-128000000D02*
X155000000Y-128000000D01*
X143000000Y-115000000D01*
X160000000Y-115000000D01*
X160000000Y-128000000D01*
%TA.AperFunction,Conductor*%
G36*
X160000000Y-128000000D02*
G01*
X155000000Y-128000000D01*
X143000000Y-115000000D01*
X160000000Y-115000000D01*
X160000000Y-128000000D01*
G37*
%TD.AperFunction*%
X125730359Y-120000000D02*
X118000000Y-127000000D01*
X110730359Y-127000000D01*
X110730359Y-115000000D01*
X125730359Y-115000000D01*
X125730359Y-120000000D01*
%TA.AperFunction,Conductor*%
G36*
X125730359Y-120000000D02*
G01*
X118000000Y-127000000D01*
X110730359Y-127000000D01*
X110730359Y-115000000D01*
X125730359Y-115000000D01*
X125730359Y-120000000D01*
G37*
%TD.AperFunction*%
X158000000Y-120000000D02*
X118000000Y-120000000D01*
X118000000Y-115000000D01*
X158000000Y-115000000D01*
X158000000Y-120000000D01*
%TA.AperFunction,Conductor*%
G36*
X158000000Y-120000000D02*
G01*
X118000000Y-120000000D01*
X118000000Y-115000000D01*
X158000000Y-115000000D01*
X158000000Y-120000000D01*
G37*
%TD.AperFunction*%
%TO.N,/VFB*%
X156381177Y-142891065D02*
X156302880Y-142969362D01*
X147562724Y-142969362D01*
X142315321Y-137721959D01*
X151212071Y-137721959D01*
X156381177Y-142891065D01*
%TA.AperFunction,Conductor*%
G36*
X156381177Y-142891065D02*
G01*
X156302880Y-142969362D01*
X147562724Y-142969362D01*
X142315321Y-137721959D01*
X151212071Y-137721959D01*
X156381177Y-142891065D01*
G37*
%TD.AperFunction*%
%TD*%
D11*
%TO.P,VSource_IN1,1,1*%
%TO.N,/VIN*%
X137000000Y-148000000D03*
%TD*%
D12*
%TO.P,VOUT1,1,Pin_1*%
%TO.N,/Vout*%
X156982531Y-126142225D03*
%TD*%
%TO.P,TP_VIN1,1,Pin_1*%
%TO.N,/VIN*%
X129801819Y-153856766D03*
%TD*%
D11*
%TO.P,VSource_GND1,1,1*%
%TO.N,GND*%
X148000000Y-148000000D03*
%TD*%
D12*
%TO.P,GND1,1,Pin_1*%
%TO.N,GND*%
X160447591Y-140176070D03*
%TD*%
%TO.P,TP_VIN2,1,Pin_1*%
%TO.N,GND*%
X155365514Y-153989340D03*
%TD*%
D13*
%TO.P,C2,1*%
%TO.N,GND*%
X126847879Y-129879050D03*
%TO.P,C2,2*%
%TO.N,/INTVCC*%
X126847879Y-131954050D03*
%TD*%
D14*
%TO.P,C2_EX1,1*%
%TO.N,/INTVCC*%
X124802858Y-131944038D03*
%TO.P,C2_EX1,2*%
%TO.N,GND*%
X124802858Y-129869038D03*
%TD*%
D15*
%TO.P,D1,1,A*%
%TO.N,/INTVCC*%
X128850000Y-131950000D03*
%TO.P,D1,2,NC*%
%TO.N,unconnected-(D1-NC-Pad2)*%
X128850000Y-130050000D03*
%TO.P,D1,3,K*%
%TO.N,/BOOST*%
X131150000Y-131000000D03*
%TD*%
D16*
%TO.P,R1,1*%
%TO.N,Net-(U1-PGOOD)*%
X133966857Y-134400781D03*
%TO.P,R1,2*%
%TO.N,/INTVCC*%
X133966857Y-133585781D03*
%TD*%
D17*
%TO.N,GND*%
X129000000Y-124000000D03*
X122000000Y-126000000D03*
X128000000Y-122000000D03*
X126000000Y-134000000D03*
X121000000Y-131000000D03*
X127000000Y-133000000D03*
X125000000Y-128000000D03*
X123000000Y-129000000D03*
X123000000Y-131000000D03*
X123000000Y-127000000D03*
X126000000Y-125000000D03*
X119000000Y-131000000D03*
X123000000Y-125000000D03*
X126000000Y-123000000D03*
X124000000Y-127000000D03*
X127000000Y-134000000D03*
X126000000Y-122000000D03*
X128000000Y-126000000D03*
X122000000Y-127000000D03*
X125000000Y-124000000D03*
X128000000Y-128000000D03*
X129000000Y-122000000D03*
X127000000Y-126000000D03*
X125000000Y-133000000D03*
X129000000Y-127000000D03*
X121000000Y-130000000D03*
X124000000Y-124000000D03*
X127000000Y-125000000D03*
X128000000Y-127000000D03*
X127000000Y-127000000D03*
X128000000Y-133000000D03*
X129000000Y-128000000D03*
X123000000Y-126000000D03*
X127000000Y-128000000D03*
X127000000Y-121000000D03*
X128000000Y-123000000D03*
X127000000Y-124000000D03*
X124000000Y-125000000D03*
X124000000Y-126000000D03*
X121000000Y-129000000D03*
X128000000Y-121000000D03*
X129000000Y-125000000D03*
X126000000Y-124000000D03*
X125000000Y-125000000D03*
X124000000Y-128000000D03*
X127000000Y-123000000D03*
X122000000Y-129000000D03*
X122000000Y-131000000D03*
X123000000Y-128000000D03*
X125000000Y-127000000D03*
X126000000Y-127000000D03*
X127000000Y-122000000D03*
X124000000Y-133000000D03*
X121000000Y-128000000D03*
X126000000Y-128000000D03*
X122000000Y-130000000D03*
X124000000Y-134000000D03*
X120000000Y-131000000D03*
X129000000Y-123000000D03*
X119000000Y-130000000D03*
X126000000Y-133000000D03*
X129000000Y-126000000D03*
X122000000Y-128000000D03*
X121000000Y-127000000D03*
X132791643Y-134441604D03*
X119000000Y-129000000D03*
X125000000Y-126000000D03*
X123000000Y-130000000D03*
X128000000Y-124000000D03*
X129000000Y-121000000D03*
X125000000Y-134000000D03*
X120000000Y-130000000D03*
X126000000Y-126000000D03*
X120000000Y-128000000D03*
X125000000Y-123000000D03*
X128000000Y-125000000D03*
X120000000Y-129000000D03*
%TO.N,/INTVCC*%
X129541546Y-133293218D03*
%TO.N,/BOOST*%
X131055754Y-131981697D03*
X131055754Y-125740699D03*
%TO.N,/Vout*%
X116000000Y-120000000D03*
X117000000Y-115000000D03*
X114000000Y-122000000D03*
X123000000Y-117000000D03*
X126000000Y-118000000D03*
X114000000Y-120000000D03*
X111000000Y-117000000D03*
X116000000Y-116000000D03*
X112000000Y-126000000D03*
X122000000Y-120000000D03*
X117000000Y-119000000D03*
X122000000Y-118000000D03*
X116000000Y-122000000D03*
X113000000Y-117000000D03*
X119000000Y-121000000D03*
X115000000Y-115000000D03*
X112000000Y-116000000D03*
X113000000Y-115000000D03*
X124000000Y-118000000D03*
X115000000Y-123000000D03*
X111000000Y-121000000D03*
X111000000Y-115000000D03*
X123000000Y-119000000D03*
X118000000Y-124000000D03*
X113000000Y-119000000D03*
X114000000Y-116000000D03*
X111000000Y-123000000D03*
X116000000Y-118000000D03*
X124000000Y-116000000D03*
X126000000Y-116000000D03*
X118000000Y-118000000D03*
X120000000Y-118000000D03*
X121000000Y-123000000D03*
X121000000Y-119000000D03*
X111000000Y-125000000D03*
X119000000Y-115000000D03*
X118000000Y-122000000D03*
X117000000Y-125000000D03*
X122000000Y-116000000D03*
X116000000Y-116000000D03*
X115000000Y-121000000D03*
X114000000Y-126000000D03*
X112000000Y-118000000D03*
X113000000Y-125000000D03*
X120000000Y-124000000D03*
X113000000Y-121000000D03*
X121000000Y-115000000D03*
X112000000Y-124000000D03*
X112000000Y-120000000D03*
X125000000Y-115000000D03*
X117000000Y-117000000D03*
X119000000Y-117000000D03*
X115000000Y-125000000D03*
X118000000Y-116000000D03*
X121000000Y-121000000D03*
X124000000Y-120000000D03*
X121000000Y-117000000D03*
X114000000Y-118000000D03*
X112000000Y-122000000D03*
X125000000Y-119000000D03*
X119000000Y-125000000D03*
X118000000Y-120000000D03*
X117000000Y-127000000D03*
X125000000Y-117000000D03*
X111000000Y-119000000D03*
X115000000Y-119000000D03*
X122000000Y-122000000D03*
X120000000Y-116000000D03*
X113000000Y-123000000D03*
X123000000Y-121000000D03*
X114000000Y-124000000D03*
X119000000Y-123000000D03*
X116000000Y-126000000D03*
X115000000Y-127000000D03*
X123000000Y-115000000D03*
X117000000Y-121000000D03*
X117000000Y-123000000D03*
X120000000Y-120000000D03*
X120000000Y-122000000D03*
X111000000Y-127000000D03*
X118000000Y-126000000D03*
X115000000Y-117000000D03*
X113000000Y-127000000D03*
X119000000Y-119000000D03*
X116000000Y-124000000D03*
%TO.N,/SENSE+*%
X142334423Y-138576406D03*
X133023955Y-138580578D03*
%TO.N,/VFB*%
X156228933Y-142738933D03*
X133640768Y-137677682D03*
%TO.N,/VIN*%
X130000000Y-140000000D03*
X127000000Y-135518467D03*
%TO.N,Net-(U1-PGOOD)*%
X133205977Y-135727623D03*
%TO.N,/ITH*%
X133192265Y-136655934D03*
X130394280Y-138962381D03*
%TD*%
D18*
%TO.N,/INTVCC*%
X126789457Y-131954050D02*
X124871292Y-131954050D01*
D19*
X133674294Y-133293218D02*
X133966857Y-133585781D01*
D20*
X128850000Y-131950000D02*
X126851929Y-131950000D01*
D19*
X129541546Y-133293218D02*
X129541546Y-132641546D01*
X129541546Y-132641546D02*
X128850000Y-131950000D01*
X129541546Y-133293218D02*
X133674294Y-133293218D01*
D21*
X124842081Y-131983261D02*
X124802858Y-131944038D01*
D10*
X126851929Y-131950000D02*
X126818668Y-131983261D01*
%TO.N,/BOOST*%
X131100984Y-132075161D02*
X131100984Y-132076113D01*
D21*
X131055754Y-125740699D02*
X131055754Y-131981697D01*
D10*
X131125101Y-132051044D02*
X131100984Y-132075161D01*
%TO.N,/Vout*%
X125230359Y-116500000D02*
X148070665Y-116500000D01*
%TO.N,/SENSE+*%
X140683827Y-138576406D02*
X142334423Y-138576406D01*
X133023955Y-138580578D02*
X140679655Y-138580578D01*
X140679655Y-138580578D02*
X140683827Y-138576406D01*
D20*
%TO.N,/VFB*%
X133640768Y-137677682D02*
X151167794Y-137677682D01*
X151167794Y-137677682D02*
X156228933Y-142738821D01*
X156228933Y-142738821D02*
X156228933Y-142738933D01*
D10*
%TO.N,/VIN*%
X127000000Y-135518467D02*
X127000000Y-137000000D01*
X127000000Y-137000000D02*
X130000000Y-140000000D01*
D19*
%TO.N,Net-(U1-PGOOD)*%
X133966857Y-134966743D02*
X133966857Y-134400781D01*
X133205977Y-135727623D02*
X133966857Y-134966743D01*
D21*
%TO.N,/ITH*%
X130938085Y-138962381D02*
X133192265Y-136708201D01*
X130394280Y-138962381D02*
X130938085Y-138962381D01*
%TD*%
%TA.AperFunction,Conductor*%
%TO.N,GND*%
G36*
X164692539Y-114120185D02*
G01*
X164738294Y-114172989D01*
X164749500Y-114224500D01*
X164749500Y-161775500D01*
X164729815Y-161842539D01*
X164677011Y-161888294D01*
X164625500Y-161899500D01*
X110124500Y-161899500D01*
X110057461Y-161879815D01*
X110011706Y-161827011D01*
X110000500Y-161775500D01*
X110000500Y-152958901D01*
X128451319Y-152958901D01*
X128451319Y-154754636D01*
X128451320Y-154754642D01*
X128457727Y-154814249D01*
X128508021Y-154949094D01*
X128508025Y-154949101D01*
X128594271Y-155064310D01*
X128594274Y-155064313D01*
X128709483Y-155150559D01*
X128709490Y-155150563D01*
X128844336Y-155200857D01*
X128844335Y-155200857D01*
X128851263Y-155201601D01*
X128903946Y-155207266D01*
X130699691Y-155207265D01*
X130759302Y-155200857D01*
X130894150Y-155150562D01*
X131009365Y-155064312D01*
X131095615Y-154949097D01*
X131145910Y-154814249D01*
X131152319Y-154754639D01*
X131152318Y-153796347D01*
X131152318Y-153114318D01*
X154261514Y-153114318D01*
X154261514Y-153862340D01*
X154881906Y-153862340D01*
X154865514Y-153923514D01*
X154865514Y-154055166D01*
X154881906Y-154116340D01*
X154261515Y-154116340D01*
X154261515Y-154864354D01*
X154276251Y-154938446D01*
X154276252Y-154938449D01*
X154332390Y-155022463D01*
X154416409Y-155078603D01*
X154416410Y-155078604D01*
X154490494Y-155093339D01*
X155238513Y-155093339D01*
X155238514Y-155093338D01*
X155238514Y-154472948D01*
X155299688Y-154489340D01*
X155431340Y-154489340D01*
X155492514Y-154472948D01*
X155492514Y-155093339D01*
X156240529Y-155093339D01*
X156314620Y-155078602D01*
X156314623Y-155078601D01*
X156398637Y-155022463D01*
X156454777Y-154938444D01*
X156454778Y-154938443D01*
X156469513Y-154864361D01*
X156469514Y-154864358D01*
X156469514Y-154116340D01*
X155849122Y-154116340D01*
X155865514Y-154055166D01*
X155865514Y-153923514D01*
X155849122Y-153862340D01*
X156469513Y-153862340D01*
X156469513Y-153114325D01*
X156454776Y-153040233D01*
X156454775Y-153040230D01*
X156398637Y-152956216D01*
X156314618Y-152900076D01*
X156314617Y-152900075D01*
X156240535Y-152885340D01*
X155492514Y-152885340D01*
X155492514Y-153505731D01*
X155431340Y-153489340D01*
X155299688Y-153489340D01*
X155238514Y-153505731D01*
X155238514Y-152885340D01*
X154490499Y-152885340D01*
X154416407Y-152900077D01*
X154416404Y-152900078D01*
X154332390Y-152956216D01*
X154276250Y-153040235D01*
X154276249Y-153040236D01*
X154261514Y-153114318D01*
X131152318Y-153114318D01*
X131152318Y-153108231D01*
X131152318Y-152958895D01*
X131152317Y-152958889D01*
X131152316Y-152958882D01*
X131147118Y-152910523D01*
X131145910Y-152899282D01*
X131095616Y-152764437D01*
X131095612Y-152764430D01*
X131009366Y-152649221D01*
X131009363Y-152649218D01*
X130894154Y-152562972D01*
X130894147Y-152562968D01*
X130759301Y-152512674D01*
X130759302Y-152512674D01*
X130699702Y-152506267D01*
X130699700Y-152506266D01*
X130699692Y-152506266D01*
X130699683Y-152506266D01*
X128903948Y-152506266D01*
X128903942Y-152506267D01*
X128844335Y-152512674D01*
X128709490Y-152562968D01*
X128709483Y-152562972D01*
X128594274Y-152649218D01*
X128594271Y-152649221D01*
X128508025Y-152764430D01*
X128508021Y-152764437D01*
X128457727Y-152899283D01*
X128451607Y-152956216D01*
X128451320Y-152958889D01*
X128451319Y-152958901D01*
X110000500Y-152958901D01*
X110000500Y-147800989D01*
X132442000Y-147800989D01*
X132442000Y-148199010D01*
X132476689Y-148595507D01*
X132545803Y-148987466D01*
X132545806Y-148987479D01*
X132648813Y-149371912D01*
X132648816Y-149371922D01*
X132648817Y-149371923D01*
X132720100Y-149567772D01*
X132784951Y-149745946D01*
X132953143Y-150106637D01*
X132953156Y-150106661D01*
X133152155Y-150451336D01*
X133152164Y-150451351D01*
X133380455Y-150777384D01*
X133496420Y-150915585D01*
X133636289Y-151082274D01*
X133917726Y-151363711D01*
X134026225Y-151454752D01*
X134222615Y-151619544D01*
X134222621Y-151619548D01*
X134222622Y-151619549D01*
X134548655Y-151847840D01*
X134789850Y-151987094D01*
X134893338Y-152046843D01*
X134893362Y-152046856D01*
X135254053Y-152215048D01*
X135254058Y-152215049D01*
X135254067Y-152215054D01*
X135628077Y-152351183D01*
X135628083Y-152351184D01*
X135628087Y-152351186D01*
X135732780Y-152379238D01*
X136012528Y-152454196D01*
X136404495Y-152523311D01*
X136800991Y-152557999D01*
X136800992Y-152558000D01*
X136800993Y-152558000D01*
X137199008Y-152558000D01*
X137199008Y-152557999D01*
X137595505Y-152523311D01*
X137987472Y-152454196D01*
X138371923Y-152351183D01*
X138745933Y-152215054D01*
X138749677Y-152213308D01*
X139106637Y-152046856D01*
X139106645Y-152046851D01*
X139106655Y-152046847D01*
X139451345Y-151847840D01*
X139777378Y-151619549D01*
X140082274Y-151363711D01*
X140363711Y-151082274D01*
X140619549Y-150777378D01*
X140847840Y-150451345D01*
X141046847Y-150106655D01*
X141046851Y-150106645D01*
X141046856Y-150106637D01*
X141215048Y-149745946D01*
X141215048Y-149745945D01*
X141215054Y-149745933D01*
X141351183Y-149371923D01*
X141454196Y-148987472D01*
X141523311Y-148595505D01*
X141558000Y-148199007D01*
X141558000Y-147800993D01*
X141523311Y-147404495D01*
X141454196Y-147012528D01*
X141351183Y-146628077D01*
X141215054Y-146254067D01*
X141215049Y-146254058D01*
X141215048Y-146254053D01*
X141046856Y-145893362D01*
X141046843Y-145893338D01*
X140987430Y-145790432D01*
X140847840Y-145548655D01*
X140619549Y-145222622D01*
X140619548Y-145222621D01*
X140619544Y-145222615D01*
X140363708Y-144917723D01*
X140082276Y-144636291D01*
X139777384Y-144380455D01*
X139451351Y-144152164D01*
X139451348Y-144152162D01*
X139451345Y-144152160D01*
X139348936Y-144093034D01*
X139106661Y-143953156D01*
X139106637Y-143953143D01*
X138745946Y-143784951D01*
X138745935Y-143784947D01*
X138745933Y-143784946D01*
X138371923Y-143648817D01*
X138371922Y-143648816D01*
X138371912Y-143648813D01*
X137987479Y-143545806D01*
X137987482Y-143545806D01*
X137987472Y-143545804D01*
X137798127Y-143512417D01*
X137595507Y-143476689D01*
X137199010Y-143442000D01*
X137199007Y-143442000D01*
X136800993Y-143442000D01*
X136800989Y-143442000D01*
X136404492Y-143476689D01*
X136012533Y-143545803D01*
X136012530Y-143545803D01*
X136012528Y-143545804D01*
X136012523Y-143545805D01*
X136012520Y-143545806D01*
X135628087Y-143648813D01*
X135254053Y-143784951D01*
X134893362Y-143953143D01*
X134893338Y-143953156D01*
X134548663Y-144152155D01*
X134548648Y-144152164D01*
X134222615Y-144380455D01*
X133917723Y-144636291D01*
X133636291Y-144917723D01*
X133380455Y-145222615D01*
X133152164Y-145548648D01*
X133152155Y-145548663D01*
X132953156Y-145893338D01*
X132953143Y-145893362D01*
X132784951Y-146254053D01*
X132648813Y-146628087D01*
X132545806Y-147012520D01*
X132545803Y-147012533D01*
X132476689Y-147404492D01*
X132442000Y-147800989D01*
X110000500Y-147800989D01*
X110000500Y-131556521D01*
X123577358Y-131556521D01*
X123577358Y-132331539D01*
X123577359Y-132331557D01*
X123587858Y-132434334D01*
X123587859Y-132434337D01*
X123633330Y-132571558D01*
X123643044Y-132600872D01*
X123735146Y-132750194D01*
X123859202Y-132874250D01*
X124008524Y-132966352D01*
X124175061Y-133021537D01*
X124277849Y-133032038D01*
X124632786Y-133032037D01*
X124652183Y-133033563D01*
X124784681Y-133054550D01*
X124784682Y-133054550D01*
X126876067Y-133054550D01*
X126876068Y-133054550D01*
X126925099Y-133046784D01*
X126945353Y-133043576D01*
X126964751Y-133042049D01*
X127372881Y-133042049D01*
X127372887Y-133042049D01*
X127475676Y-133031549D01*
X127642213Y-132976364D01*
X127791535Y-132884262D01*
X127888979Y-132786818D01*
X127950302Y-132753334D01*
X127976660Y-132750500D01*
X128377127Y-132750500D01*
X128537770Y-132750500D01*
X128567210Y-132759144D01*
X128597197Y-132765668D01*
X128602212Y-132769422D01*
X128604809Y-132770185D01*
X128625450Y-132786818D01*
X128750286Y-132911654D01*
X128783771Y-132972977D01*
X128778787Y-133042669D01*
X128777167Y-133046784D01*
X128771810Y-133059715D01*
X128771806Y-133059729D01*
X128741046Y-133214371D01*
X128741046Y-133372064D01*
X128771807Y-133526707D01*
X128771810Y-133526719D01*
X128832148Y-133672390D01*
X128832155Y-133672403D01*
X128919756Y-133803506D01*
X128919759Y-133803510D01*
X129031253Y-133915004D01*
X129031257Y-133915007D01*
X129162360Y-134002608D01*
X129162373Y-134002615D01*
X129261606Y-134043718D01*
X129308049Y-134062955D01*
X129462699Y-134093717D01*
X129462702Y-134093718D01*
X129462704Y-134093718D01*
X129620390Y-134093718D01*
X129620391Y-134093717D01*
X129696698Y-134078538D01*
X129775034Y-134062957D01*
X129775035Y-134062956D01*
X129775043Y-134062955D01*
X129798701Y-134053155D01*
X129846150Y-134043718D01*
X133121584Y-134043718D01*
X133188623Y-134063403D01*
X133234378Y-134116207D01*
X133244322Y-134185365D01*
X133243201Y-134191910D01*
X133216357Y-134326860D01*
X133216357Y-134604512D01*
X133196672Y-134671551D01*
X133180038Y-134692193D01*
X132890680Y-134981550D01*
X132850457Y-135008428D01*
X132826796Y-135018229D01*
X132826795Y-135018230D01*
X132695692Y-135105830D01*
X132695684Y-135105836D01*
X132584190Y-135217330D01*
X132584187Y-135217334D01*
X132496586Y-135348437D01*
X132496579Y-135348450D01*
X132436241Y-135494121D01*
X132436238Y-135494133D01*
X132405477Y-135648776D01*
X132405477Y-135806469D01*
X132437428Y-135967095D01*
X132435277Y-135967522D01*
X132435813Y-136027526D01*
X132404210Y-136081334D01*
X130559984Y-137925562D01*
X130498661Y-137959047D01*
X130472303Y-137961881D01*
X130295737Y-137961881D01*
X130102450Y-138000328D01*
X130102440Y-138000331D01*
X129920372Y-138075745D01*
X129920359Y-138075752D01*
X129756498Y-138185241D01*
X129756494Y-138185244D01*
X129617143Y-138324595D01*
X129617140Y-138324599D01*
X129523520Y-138464711D01*
X129469908Y-138509516D01*
X129400583Y-138518223D01*
X129337555Y-138488068D01*
X129332737Y-138483501D01*
X127636819Y-136787583D01*
X127603334Y-136726260D01*
X127600500Y-136699902D01*
X127600500Y-136098232D01*
X127620185Y-136031193D01*
X127621398Y-136029341D01*
X127709390Y-135897652D01*
X127709390Y-135897651D01*
X127709394Y-135897646D01*
X127769737Y-135751964D01*
X127800500Y-135597309D01*
X127800500Y-135439625D01*
X127800500Y-135439622D01*
X127800499Y-135439620D01*
X127769737Y-135284970D01*
X127769735Y-135284965D01*
X127709397Y-135139294D01*
X127709390Y-135139281D01*
X127621789Y-135008178D01*
X127621786Y-135008174D01*
X127510292Y-134896680D01*
X127510288Y-134896677D01*
X127379185Y-134809076D01*
X127379172Y-134809069D01*
X127233501Y-134748731D01*
X127233489Y-134748728D01*
X127078845Y-134717967D01*
X127078842Y-134717967D01*
X126921158Y-134717967D01*
X126921155Y-134717967D01*
X126766510Y-134748728D01*
X126766498Y-134748731D01*
X126620827Y-134809069D01*
X126620814Y-134809076D01*
X126489711Y-134896677D01*
X126489707Y-134896680D01*
X126378213Y-135008174D01*
X126378210Y-135008178D01*
X126290609Y-135139281D01*
X126290602Y-135139294D01*
X126230264Y-135284965D01*
X126230261Y-135284977D01*
X126199500Y-135439620D01*
X126199500Y-135597313D01*
X126230261Y-135751956D01*
X126230264Y-135751968D01*
X126290602Y-135897639D01*
X126290609Y-135897652D01*
X126378602Y-136029341D01*
X126399480Y-136096018D01*
X126399500Y-136098232D01*
X126399500Y-136913330D01*
X126399499Y-136913348D01*
X126399499Y-137079054D01*
X126399498Y-137079054D01*
X126399499Y-137079057D01*
X126440423Y-137231785D01*
X126458452Y-137263012D01*
X126458453Y-137263014D01*
X126458454Y-137263014D01*
X126519479Y-137368714D01*
X126519481Y-137368717D01*
X126638349Y-137487585D01*
X126638355Y-137487590D01*
X129165425Y-140014660D01*
X129198910Y-140075983D01*
X129199361Y-140078149D01*
X129230261Y-140233491D01*
X129230264Y-140233501D01*
X129290602Y-140379172D01*
X129290609Y-140379185D01*
X129378210Y-140510288D01*
X129378213Y-140510292D01*
X129489707Y-140621786D01*
X129489711Y-140621789D01*
X129620814Y-140709390D01*
X129620827Y-140709397D01*
X129766498Y-140769735D01*
X129766503Y-140769737D01*
X129921153Y-140800499D01*
X129921156Y-140800500D01*
X129921158Y-140800500D01*
X130078844Y-140800500D01*
X130078845Y-140800499D01*
X130233497Y-140769737D01*
X130379179Y-140709394D01*
X130510289Y-140621789D01*
X130621789Y-140510289D01*
X130709394Y-140379179D01*
X130769737Y-140233497D01*
X130794254Y-140110244D01*
X130800500Y-140078845D01*
X130800905Y-140074732D01*
X130812915Y-140044985D01*
X130823501Y-140014673D01*
X130825916Y-140012784D01*
X130827063Y-140009944D01*
X130853254Y-139991408D01*
X130878542Y-139971636D01*
X130882176Y-139970940D01*
X130884095Y-139969583D01*
X130912865Y-139963410D01*
X130918573Y-139962881D01*
X131036625Y-139962881D01*
X131036626Y-139962881D01*
X131133273Y-139943656D01*
X131229921Y-139924432D01*
X131283250Y-139902342D01*
X131411999Y-139849013D01*
X131575867Y-139739520D01*
X131715224Y-139600163D01*
X131715225Y-139600160D01*
X131722291Y-139593095D01*
X131722294Y-139593091D01*
X132225662Y-139089722D01*
X132286983Y-139056239D01*
X132356675Y-139061223D01*
X132401022Y-139089724D01*
X132513662Y-139202364D01*
X132513666Y-139202367D01*
X132644769Y-139289968D01*
X132644782Y-139289975D01*
X132780381Y-139346141D01*
X132790458Y-139350315D01*
X132924134Y-139376905D01*
X132945108Y-139381077D01*
X132945111Y-139381078D01*
X132945113Y-139381078D01*
X133102799Y-139381078D01*
X133102800Y-139381077D01*
X133257452Y-139350315D01*
X133403134Y-139289972D01*
X133487070Y-139233888D01*
X133534830Y-139201976D01*
X133601508Y-139181098D01*
X133603721Y-139181078D01*
X140600594Y-139181078D01*
X140600598Y-139181079D01*
X140758712Y-139181079D01*
X140773000Y-139177250D01*
X140787993Y-139176934D01*
X140788779Y-139177147D01*
X140790610Y-139176906D01*
X141754657Y-139176906D01*
X141821696Y-139196591D01*
X141823548Y-139197804D01*
X141955237Y-139285796D01*
X141955250Y-139285803D01*
X142100921Y-139346141D01*
X142100926Y-139346143D01*
X142255576Y-139376905D01*
X142255579Y-139376906D01*
X142255581Y-139376906D01*
X142413267Y-139376906D01*
X142413268Y-139376905D01*
X142567920Y-139346143D01*
X142703530Y-139289972D01*
X142713595Y-139285803D01*
X142713595Y-139285802D01*
X142713602Y-139285800D01*
X142814374Y-139218465D01*
X142881049Y-139197589D01*
X142948429Y-139216073D01*
X142970944Y-139233888D01*
X147134565Y-143397510D01*
X147134571Y-143397515D01*
X147259974Y-143493740D01*
X147259976Y-143493740D01*
X147259978Y-143493742D01*
X147305063Y-143512417D01*
X147359467Y-143556258D01*
X147381532Y-143622552D01*
X147364253Y-143690251D01*
X147313116Y-143737862D01*
X147279143Y-143749094D01*
X147065940Y-143786687D01*
X147065923Y-143786691D01*
X146702282Y-143884127D01*
X146348478Y-144012902D01*
X146348470Y-144012905D01*
X146007283Y-144172004D01*
X146007267Y-144172012D01*
X145681234Y-144360248D01*
X145681208Y-144360264D01*
X145372829Y-144576193D01*
X145084420Y-144818197D01*
X145041111Y-144861505D01*
X146177079Y-145997473D01*
X145997473Y-146177079D01*
X144861505Y-145041111D01*
X144818197Y-145084420D01*
X144576193Y-145372829D01*
X144360264Y-145681208D01*
X144360248Y-145681234D01*
X144172012Y-146007267D01*
X144172004Y-146007283D01*
X144012905Y-146348470D01*
X144012902Y-146348478D01*
X143884127Y-146702282D01*
X143786691Y-147065923D01*
X143786687Y-147065940D01*
X143721313Y-147436693D01*
X143721313Y-147436697D01*
X143688500Y-147811752D01*
X143688500Y-148188247D01*
X143721313Y-148563302D01*
X143721313Y-148563306D01*
X143786687Y-148934059D01*
X143786691Y-148934076D01*
X143884127Y-149297717D01*
X144012902Y-149651521D01*
X144012905Y-149651529D01*
X144172004Y-149992716D01*
X144172012Y-149992732D01*
X144360248Y-150318765D01*
X144360264Y-150318791D01*
X144576198Y-150627177D01*
X144818202Y-150915585D01*
X144861505Y-150958888D01*
X145997472Y-149822919D01*
X146177079Y-150002526D01*
X145041111Y-151138494D01*
X145084414Y-151181797D01*
X145372822Y-151423801D01*
X145681208Y-151639735D01*
X145681234Y-151639751D01*
X146007267Y-151827987D01*
X146007283Y-151827995D01*
X146348470Y-151987094D01*
X146348478Y-151987097D01*
X146702282Y-152115872D01*
X147065923Y-152213308D01*
X147065940Y-152213312D01*
X147436695Y-152278686D01*
X147811752Y-152311499D01*
X147811755Y-152311500D01*
X148188245Y-152311500D01*
X148188247Y-152311499D01*
X148563302Y-152278686D01*
X148563306Y-152278686D01*
X148934059Y-152213312D01*
X148934076Y-152213308D01*
X149297717Y-152115872D01*
X149651521Y-151987097D01*
X149651529Y-151987094D01*
X149992716Y-151827995D01*
X149992732Y-151827987D01*
X150318765Y-151639751D01*
X150318791Y-151639735D01*
X150627170Y-151423806D01*
X150915585Y-151181796D01*
X150958888Y-151138493D01*
X149822921Y-150002526D01*
X150002526Y-149822921D01*
X151138493Y-150958888D01*
X151181796Y-150915585D01*
X151423806Y-150627170D01*
X151639735Y-150318791D01*
X151639751Y-150318765D01*
X151827987Y-149992732D01*
X151827995Y-149992716D01*
X151987094Y-149651529D01*
X151987097Y-149651521D01*
X152115872Y-149297717D01*
X152213308Y-148934076D01*
X152213312Y-148934059D01*
X152278686Y-148563306D01*
X152278686Y-148563302D01*
X152311499Y-148188247D01*
X152311500Y-148188245D01*
X152311500Y-147811755D01*
X152311499Y-147811752D01*
X152278686Y-147436697D01*
X152278686Y-147436693D01*
X152213312Y-147065940D01*
X152213308Y-147065923D01*
X152115872Y-146702282D01*
X151987097Y-146348478D01*
X151987094Y-146348470D01*
X151827995Y-146007283D01*
X151827987Y-146007267D01*
X151639751Y-145681234D01*
X151639735Y-145681208D01*
X151423801Y-145372822D01*
X151181797Y-145084414D01*
X151138494Y-145041111D01*
X150002525Y-146177078D01*
X149822920Y-145997473D01*
X150958888Y-144861506D01*
X150958888Y-144861505D01*
X150915579Y-144818197D01*
X150627177Y-144576198D01*
X150318791Y-144360264D01*
X150318765Y-144360248D01*
X149992732Y-144172012D01*
X149992716Y-144172004D01*
X149651529Y-144012905D01*
X149651521Y-144012902D01*
X149297717Y-143884127D01*
X149053301Y-143818637D01*
X148993640Y-143782272D01*
X148963111Y-143719425D01*
X148971406Y-143650050D01*
X149015891Y-143596172D01*
X149082443Y-143574897D01*
X149085394Y-143574862D01*
X156302873Y-143574862D01*
X156302880Y-143574862D01*
X156459595Y-143554230D01*
X156605630Y-143493740D01*
X156731033Y-143397515D01*
X156809330Y-143319218D01*
X156905555Y-143193815D01*
X156929931Y-143134965D01*
X156935937Y-143123739D01*
X156935456Y-143123482D01*
X156938320Y-143118121D01*
X156938327Y-143118112D01*
X156998670Y-142972430D01*
X157029433Y-142817775D01*
X157029433Y-142659979D01*
X157007396Y-142549189D01*
X157007396Y-142549188D01*
X156998672Y-142505329D01*
X156998670Y-142505324D01*
X156967804Y-142430806D01*
X156967804Y-142430805D01*
X156938330Y-142359648D01*
X156938323Y-142359635D01*
X156850723Y-142228533D01*
X156850722Y-142228532D01*
X156739222Y-142117032D01*
X155887521Y-141265331D01*
X154961580Y-140339389D01*
X153923239Y-139301048D01*
X159343591Y-139301048D01*
X159343591Y-140049070D01*
X159963983Y-140049070D01*
X159947591Y-140110244D01*
X159947591Y-140241896D01*
X159963983Y-140303070D01*
X159343592Y-140303070D01*
X159343592Y-141051084D01*
X159358328Y-141125176D01*
X159358329Y-141125179D01*
X159414467Y-141209193D01*
X159498486Y-141265333D01*
X159498487Y-141265334D01*
X159572571Y-141280069D01*
X160320590Y-141280069D01*
X160320591Y-141280068D01*
X160320591Y-140659678D01*
X160381765Y-140676070D01*
X160513417Y-140676070D01*
X160574591Y-140659678D01*
X160574591Y-141280069D01*
X161322606Y-141280069D01*
X161396697Y-141265332D01*
X161396700Y-141265331D01*
X161480714Y-141209193D01*
X161536854Y-141125174D01*
X161536855Y-141125173D01*
X161551590Y-141051091D01*
X161551591Y-141051088D01*
X161551591Y-140303070D01*
X160931199Y-140303070D01*
X160947591Y-140241896D01*
X160947591Y-140110244D01*
X160931199Y-140049070D01*
X161551590Y-140049070D01*
X161551590Y-139301055D01*
X161536853Y-139226963D01*
X161536852Y-139226960D01*
X161480714Y-139142946D01*
X161396695Y-139086806D01*
X161396694Y-139086805D01*
X161322612Y-139072070D01*
X160574591Y-139072070D01*
X160574591Y-139692461D01*
X160513417Y-139676070D01*
X160381765Y-139676070D01*
X160320591Y-139692461D01*
X160320591Y-139072070D01*
X159572576Y-139072070D01*
X159498484Y-139086807D01*
X159498481Y-139086808D01*
X159414467Y-139142946D01*
X159358327Y-139226965D01*
X159358326Y-139226966D01*
X159343591Y-139301048D01*
X153923239Y-139301048D01*
X151678086Y-137055895D01*
X151678082Y-137055892D01*
X151546979Y-136968291D01*
X151546966Y-136968284D01*
X151401295Y-136907946D01*
X151401283Y-136907943D01*
X151246639Y-136877182D01*
X151246636Y-136877182D01*
X134316765Y-136877182D01*
X134249726Y-136857497D01*
X134203971Y-136804693D01*
X134192765Y-136753182D01*
X134192765Y-136609658D01*
X134192764Y-136609656D01*
X134154317Y-136416372D01*
X134154316Y-136416365D01*
X134078896Y-136234287D01*
X134078894Y-136234284D01*
X134078892Y-136234280D01*
X134007974Y-136128144D01*
X133987096Y-136061466D01*
X134005581Y-135994086D01*
X134023391Y-135971576D01*
X134549809Y-135445159D01*
X134599043Y-135371472D01*
X134631941Y-135322238D01*
X134688515Y-135185656D01*
X134717357Y-135040661D01*
X134717357Y-134326863D01*
X134717357Y-134326860D01*
X134688516Y-134181873D01*
X134688515Y-134181872D01*
X134688515Y-134181868D01*
X134671067Y-134139746D01*
X134662895Y-134109971D01*
X134662796Y-134109289D01*
X134651901Y-134026519D01*
X134650330Y-134022726D01*
X134648635Y-134010956D01*
X134651594Y-133990339D01*
X134651594Y-133968201D01*
X134650840Y-133968102D01*
X134651594Y-133962374D01*
X134651594Y-133961186D01*
X134651897Y-133960052D01*
X134651901Y-133960043D01*
X134662691Y-133878078D01*
X134671068Y-133846815D01*
X134688516Y-133804694D01*
X134717357Y-133659699D01*
X134717357Y-133511864D01*
X134688516Y-133366869D01*
X134671067Y-133324745D01*
X134662690Y-133293484D01*
X134651901Y-133211519D01*
X134591393Y-133065440D01*
X134495139Y-132939999D01*
X134495137Y-132939998D01*
X134495137Y-132939997D01*
X134369698Y-132843745D01*
X134369695Y-132843743D01*
X134249924Y-132794132D01*
X134249677Y-132793985D01*
X134249532Y-132793969D01*
X134248592Y-132793338D01*
X134219241Y-132775856D01*
X134214248Y-132771804D01*
X134152710Y-132710266D01*
X134076573Y-132659394D01*
X134071792Y-132656199D01*
X134071789Y-132656197D01*
X134029795Y-132628137D01*
X134029782Y-132628130D01*
X133893211Y-132571561D01*
X133893201Y-132571558D01*
X133748214Y-132542718D01*
X133748212Y-132542718D01*
X132091884Y-132542718D01*
X132024845Y-132523033D01*
X131979090Y-132470229D01*
X131969146Y-132401071D01*
X131977323Y-132371266D01*
X132017803Y-132273536D01*
X132017805Y-132273532D01*
X132030386Y-132210279D01*
X132056254Y-132080240D01*
X132056254Y-131464272D01*
X132064072Y-131420940D01*
X132064904Y-131418707D01*
X132069091Y-131407483D01*
X132075500Y-131347873D01*
X132075499Y-130652128D01*
X132069091Y-130592517D01*
X132069021Y-130592328D01*
X132064072Y-130579058D01*
X132056254Y-130535726D01*
X132056254Y-125642155D01*
X132017806Y-125448869D01*
X132017805Y-125448868D01*
X132017805Y-125448864D01*
X132017803Y-125448859D01*
X131942389Y-125266791D01*
X131942382Y-125266778D01*
X131832893Y-125102917D01*
X131832890Y-125102913D01*
X131693539Y-124963562D01*
X131693535Y-124963559D01*
X131529674Y-124854070D01*
X131529661Y-124854063D01*
X131347593Y-124778649D01*
X131347583Y-124778646D01*
X131154297Y-124740199D01*
X131154295Y-124740199D01*
X130957213Y-124740199D01*
X130957211Y-124740199D01*
X130763924Y-124778646D01*
X130763914Y-124778649D01*
X130581846Y-124854063D01*
X130581833Y-124854070D01*
X130417972Y-124963559D01*
X130417968Y-124963562D01*
X130278617Y-125102913D01*
X130278614Y-125102917D01*
X130169125Y-125266778D01*
X130169118Y-125266791D01*
X130093704Y-125448859D01*
X130093701Y-125448869D01*
X130055254Y-125642155D01*
X130055254Y-131794524D01*
X130049015Y-131815769D01*
X130047436Y-131837858D01*
X130039363Y-131848641D01*
X130035569Y-131861563D01*
X130018835Y-131876062D01*
X130005564Y-131893791D01*
X129992943Y-131898498D01*
X129982765Y-131907318D01*
X129960847Y-131910469D01*
X129940100Y-131918208D01*
X129926939Y-131915345D01*
X129913607Y-131917262D01*
X129893463Y-131908062D01*
X129871827Y-131903356D01*
X129854101Y-131890087D01*
X129850051Y-131888237D01*
X129843573Y-131882205D01*
X129811818Y-131850450D01*
X129778333Y-131789127D01*
X129775499Y-131762769D01*
X129775499Y-131602129D01*
X129775498Y-131602123D01*
X129769091Y-131542516D01*
X129718797Y-131407671D01*
X129718793Y-131407664D01*
X129632547Y-131292455D01*
X129632544Y-131292452D01*
X129517335Y-131206206D01*
X129517328Y-131206202D01*
X129382482Y-131155908D01*
X129382483Y-131155908D01*
X129322883Y-131149501D01*
X129322881Y-131149500D01*
X129322873Y-131149500D01*
X129322865Y-131149500D01*
X127968559Y-131149500D01*
X127901520Y-131129815D01*
X127880878Y-131113181D01*
X127791536Y-131023839D01*
X127791535Y-131023838D01*
X127642213Y-130931736D01*
X127475676Y-130876551D01*
X127475674Y-130876550D01*
X127372895Y-130866050D01*
X127372888Y-130866050D01*
X126964748Y-130866050D01*
X126945352Y-130864523D01*
X126925168Y-130861326D01*
X126876072Y-130853550D01*
X126876068Y-130853550D01*
X124784681Y-130853550D01*
X124784680Y-130853550D01*
X124778605Y-130854512D01*
X124759211Y-130856038D01*
X124277856Y-130856038D01*
X124277838Y-130856039D01*
X124175061Y-130866538D01*
X124175058Y-130866539D01*
X124008526Y-130921723D01*
X124008521Y-130921725D01*
X123859200Y-131013827D01*
X123735147Y-131137880D01*
X123643045Y-131287201D01*
X123643044Y-131287204D01*
X123587859Y-131453741D01*
X123587859Y-131453742D01*
X123587858Y-131453742D01*
X123577358Y-131556521D01*
X110000500Y-131556521D01*
X110000500Y-129702127D01*
X127924500Y-129702127D01*
X127924500Y-129702134D01*
X127924500Y-129702135D01*
X127924500Y-130397870D01*
X127924501Y-130397876D01*
X127930908Y-130457483D01*
X127981202Y-130592328D01*
X127981206Y-130592335D01*
X128067452Y-130707544D01*
X128067455Y-130707547D01*
X128182664Y-130793793D01*
X128182671Y-130793797D01*
X128317517Y-130844091D01*
X128317516Y-130844091D01*
X128324444Y-130844835D01*
X128377127Y-130850500D01*
X129322872Y-130850499D01*
X129382483Y-130844091D01*
X129517331Y-130793796D01*
X129632546Y-130707546D01*
X129718796Y-130592331D01*
X129769091Y-130457483D01*
X129775500Y-130397873D01*
X129775499Y-129702128D01*
X129769091Y-129642517D01*
X129718796Y-129507669D01*
X129718795Y-129507668D01*
X129718793Y-129507664D01*
X129632547Y-129392455D01*
X129632544Y-129392452D01*
X129517335Y-129306206D01*
X129517328Y-129306202D01*
X129382482Y-129255908D01*
X129382483Y-129255908D01*
X129322883Y-129249501D01*
X129322881Y-129249500D01*
X129322873Y-129249500D01*
X129322864Y-129249500D01*
X128377129Y-129249500D01*
X128377123Y-129249501D01*
X128317516Y-129255908D01*
X128182671Y-129306202D01*
X128182664Y-129306206D01*
X128067455Y-129392452D01*
X128067452Y-129392455D01*
X127981206Y-129507664D01*
X127981202Y-129507671D01*
X127930910Y-129642513D01*
X127930909Y-129642517D01*
X127924500Y-129702127D01*
X110000500Y-129702127D01*
X110000500Y-127400253D01*
X110007822Y-127375316D01*
X110011334Y-127349563D01*
X110017507Y-127342333D01*
X110020185Y-127333214D01*
X110039824Y-127316195D01*
X110056704Y-127296428D01*
X110065805Y-127293683D01*
X110072989Y-127287459D01*
X110098712Y-127283760D01*
X110123598Y-127276256D01*
X110132738Y-127278867D01*
X110142147Y-127277515D01*
X110165790Y-127288312D01*
X110190779Y-127295453D01*
X110200133Y-127303996D01*
X110205703Y-127306540D01*
X110217620Y-127318371D01*
X110220347Y-127321472D01*
X110302206Y-127428153D01*
X110338936Y-127456337D01*
X110346946Y-127465446D01*
X110349105Y-127470084D01*
X110356927Y-127478436D01*
X110378211Y-127510289D01*
X110378214Y-127510292D01*
X110378217Y-127510296D01*
X110489707Y-127621786D01*
X110489711Y-127621789D01*
X110620814Y-127709390D01*
X110620827Y-127709397D01*
X110766498Y-127769735D01*
X110766503Y-127769737D01*
X110921153Y-127800499D01*
X110921156Y-127800500D01*
X110921158Y-127800500D01*
X111078844Y-127800500D01*
X111078845Y-127800499D01*
X111233497Y-127769737D01*
X111379179Y-127709394D01*
X111379185Y-127709390D01*
X111503392Y-127626398D01*
X111570070Y-127605520D01*
X111572283Y-127605500D01*
X112427717Y-127605500D01*
X112494756Y-127625185D01*
X112496608Y-127626398D01*
X112620814Y-127709390D01*
X112620827Y-127709397D01*
X112766498Y-127769735D01*
X112766503Y-127769737D01*
X112921153Y-127800499D01*
X112921156Y-127800500D01*
X112921158Y-127800500D01*
X113078844Y-127800500D01*
X113078845Y-127800499D01*
X113233497Y-127769737D01*
X113379179Y-127709394D01*
X113379185Y-127709390D01*
X113503392Y-127626398D01*
X113570070Y-127605520D01*
X113572283Y-127605500D01*
X114427717Y-127605500D01*
X114494756Y-127625185D01*
X114496608Y-127626398D01*
X114620814Y-127709390D01*
X114620827Y-127709397D01*
X114766498Y-127769735D01*
X114766503Y-127769737D01*
X114921153Y-127800499D01*
X114921156Y-127800500D01*
X114921158Y-127800500D01*
X115078844Y-127800500D01*
X115078845Y-127800499D01*
X115233497Y-127769737D01*
X115379179Y-127709394D01*
X115379185Y-127709390D01*
X115503392Y-127626398D01*
X115570070Y-127605520D01*
X115572283Y-127605500D01*
X116427717Y-127605500D01*
X116494756Y-127625185D01*
X116496608Y-127626398D01*
X116620814Y-127709390D01*
X116620827Y-127709397D01*
X116766498Y-127769735D01*
X116766503Y-127769737D01*
X116921153Y-127800499D01*
X116921156Y-127800500D01*
X116921158Y-127800500D01*
X117078844Y-127800500D01*
X117078845Y-127800499D01*
X117233497Y-127769737D01*
X117379179Y-127709394D01*
X117379185Y-127709390D01*
X117503392Y-127626398D01*
X117570070Y-127605520D01*
X117572283Y-127605500D01*
X117999992Y-127605500D01*
X118000000Y-127605500D01*
X118127559Y-127591911D01*
X118276411Y-127538728D01*
X118406425Y-127448830D01*
X125928336Y-120637583D01*
X125991243Y-120607177D01*
X126011568Y-120605500D01*
X147295986Y-120605500D01*
X147363025Y-120625185D01*
X147387102Y-120645393D01*
X154320629Y-128156714D01*
X154555104Y-128410728D01*
X154571839Y-128428145D01*
X154571849Y-128428155D01*
X154655449Y-128492303D01*
X154697250Y-128524378D01*
X154843285Y-128584868D01*
X155000000Y-128605500D01*
X155000007Y-128605500D01*
X159999993Y-128605500D01*
X160000000Y-128605500D01*
X160156715Y-128584868D01*
X160302750Y-128524378D01*
X160428153Y-128428153D01*
X160524378Y-128302750D01*
X160584868Y-128156715D01*
X160605500Y-128000000D01*
X160605500Y-115000000D01*
X160584868Y-114843285D01*
X160524378Y-114697250D01*
X160428153Y-114571847D01*
X160302750Y-114475622D01*
X160302749Y-114475621D01*
X160302747Y-114475620D01*
X160208344Y-114436517D01*
X160156715Y-114415132D01*
X160137125Y-114412553D01*
X160000007Y-114394500D01*
X160000000Y-114394500D01*
X158000000Y-114394500D01*
X125730359Y-114394500D01*
X125572283Y-114394500D01*
X125554139Y-114389172D01*
X125535230Y-114388835D01*
X125507012Y-114375334D01*
X125505244Y-114374815D01*
X125503392Y-114373602D01*
X125434548Y-114327602D01*
X125389743Y-114273990D01*
X125381036Y-114204665D01*
X125411190Y-114141638D01*
X125470633Y-114104918D01*
X125503439Y-114100500D01*
X164625500Y-114100500D01*
X164692539Y-114120185D01*
G37*
%TD.AperFunction*%
%TD*%
M02*
