M48
; DRILL file {KiCad 9.0.1} date 2025-11-16T17:24:39-0800
; FORMAT={-:-/ absolute / inch / decimal}
; #@! TF.CreationDate,2025-11-16T17:24:39-08:00
; #@! TF.GenerationSoftware,Kicad,Pcbnew,9.0.1
; #@! TF.FileFunction,Plated,1,2,PTH
FMAT,2
INCH
; #@! TA.AperFunction,Plated,PTH,ViaDrill
T1C0.0118
; #@! TA.AperFunction,Plated,PTH,ComponentDrill
T2C0.0394
; #@! TA.AperFunction,Plated,PTH,ComponentDrill
T3C0.2130
%
G90
G05
T1
X4.3701Y-4.5276
X4.3701Y-4.6063
X4.3701Y-4.685
X4.3701Y-4.7638
X4.3701Y-4.8425
X4.3701Y-4.9213
X4.3701Y-5.0
X4.4094Y-4.5669
X4.4094Y-4.6457
X4.4094Y-4.7244
X4.4094Y-4.8031
X4.4094Y-4.8819
X4.4094Y-4.9606
X4.4488Y-4.5276
X4.4488Y-4.6063
X4.4488Y-4.685
X4.4488Y-4.7638
X4.4488Y-4.8425
X4.4488Y-4.9213
X4.4488Y-5.0
X4.4882Y-4.5669
X4.4882Y-4.6457
X4.4882Y-4.7244
X4.4882Y-4.8031
X4.4882Y-4.8819
X4.4882Y-4.9606
X4.5276Y-4.5276
X4.5276Y-4.6063
X4.5276Y-4.685
X4.5276Y-4.7638
X4.5276Y-4.8425
X4.5276Y-4.9213
X4.5276Y-5.0
X4.5669Y-4.5669
X4.5669Y-4.5669
X4.5669Y-4.6457
X4.5669Y-4.7244
X4.5669Y-4.8031
X4.5669Y-4.8819
X4.5669Y-4.9606
X4.6063Y-4.5276
X4.6063Y-4.6063
X4.6063Y-4.685
X4.6063Y-4.7638
X4.6063Y-4.8425
X4.6063Y-4.9213
X4.6063Y-5.0
X4.6457Y-4.5669
X4.6457Y-4.6457
X4.6457Y-4.7244
X4.6457Y-4.8031
X4.6457Y-4.8819
X4.6457Y-4.9606
X4.685Y-4.5276
X4.685Y-4.6063
X4.685Y-4.685
X4.685Y-4.7638
X4.685Y-4.8425
X4.685Y-4.9213
X4.685Y-5.0787
X4.685Y-5.1181
X4.685Y-5.1575
X4.7244Y-4.5669
X4.7244Y-4.6457
X4.7244Y-4.7244
X4.7244Y-4.8031
X4.7244Y-4.8819
X4.7244Y-5.0394
X4.7244Y-5.0787
X4.7244Y-5.1181
X4.7244Y-5.1575
X4.7638Y-4.5276
X4.7638Y-4.6063
X4.7638Y-4.685
X4.7638Y-4.7638
X4.7638Y-4.8425
X4.7638Y-5.0
X4.7638Y-5.0394
X4.7638Y-5.0787
X4.7638Y-5.1181
X4.7638Y-5.1575
X4.8031Y-4.5669
X4.8031Y-4.6457
X4.8031Y-4.7244
X4.8031Y-4.8031
X4.8031Y-4.9606
X4.8031Y-5.0
X4.8031Y-5.0394
X4.8031Y-5.0787
X4.8031Y-5.1181
X4.8031Y-5.1575
X4.8425Y-4.5276
X4.8425Y-4.6063
X4.8425Y-4.685
X4.8425Y-4.7638
X4.8425Y-4.9213
X4.8425Y-4.9606
X4.8425Y-5.0
X4.8425Y-5.0394
X4.8425Y-5.0787
X4.8425Y-5.1181
X4.8425Y-5.1575
X4.8819Y-4.5669
X4.8819Y-4.6457
X4.8819Y-4.7244
X4.8819Y-4.8819
X4.8819Y-4.9213
X4.8819Y-4.9606
X4.8819Y-5.0
X4.8819Y-5.0394
X4.8819Y-5.2362
X4.8819Y-5.2756
X4.9213Y-4.5276
X4.9213Y-4.6063
X4.9213Y-4.685
X4.9213Y-4.8425
X4.9213Y-4.8819
X4.9213Y-4.9213
X4.9213Y-4.9606
X4.9213Y-5.0
X4.9213Y-5.0394
X4.9213Y-5.2362
X4.9213Y-5.2756
X4.9606Y-4.5669
X4.9606Y-4.6457
X4.9606Y-4.8031
X4.9606Y-4.8425
X4.9606Y-4.8819
X4.9606Y-4.9213
X4.9606Y-4.9606
X4.9606Y-5.0
X4.9606Y-5.0394
X4.9606Y-5.2362
X4.9606Y-5.2756
X5.0Y-4.7638
X5.0Y-4.8031
X5.0Y-4.8425
X5.0Y-4.8819
X5.0Y-4.9213
X5.0Y-4.9606
X5.0Y-5.0
X5.0Y-5.0394
X5.0Y-5.2362
X5.0Y-5.2756
X5.0Y-5.3354
X5.0394Y-4.7638
X5.0394Y-4.8031
X5.0394Y-4.8425
X5.0394Y-4.8819
X5.0394Y-4.9213
X5.0394Y-4.9606
X5.0394Y-5.0
X5.0394Y-5.0394
X5.0394Y-5.2362
X5.0787Y-4.7638
X5.0787Y-4.8031
X5.0787Y-4.8425
X5.0787Y-4.8819
X5.0787Y-4.9213
X5.0787Y-4.9606
X5.0787Y-5.0
X5.0787Y-5.0394
X5.1001Y-5.2478
X5.1181Y-5.5118
X5.1336Y-5.471
X5.1597Y-4.9504
X5.1597Y-5.1961
X5.228Y-5.293
X5.2372Y-5.4559
X5.2438Y-5.3802
X5.2443Y-5.3436
X5.2614Y-5.4204
X5.6037Y-5.4558
X6.1507Y-5.6196
T2
X5.1103Y-6.0574
X6.1168Y-6.0626
X6.1804Y-4.9662
X6.3168Y-5.5187
T3
X5.3937Y-5.8268
X5.8268Y-5.8268
M30
