%TF.GenerationSoftware,KiCad,Pcbnew,9.0.1*%
%TF.CreationDate,2025-11-16T17:21:23-08:00*%
%TF.ProjectId,GaN-LTC7800-Alternate,47614e2d-4c54-4433-9738-30302d416c74,rev?*%
%TF.SameCoordinates,Original*%
%TF.FileFunction,Copper,L1,Top*%
%TF.FilePolarity,Positive*%
%FSLAX46Y46*%
G04 Gerber Fmt 4.6, Leading zero omitted, Abs format (unit mm)*
G04 Created by KiCad (PCBNEW 9.0.1) date 2025-11-16 17:21:23*
%MOMM*%
%LPD*%
G01*
G04 APERTURE LIST*
G04 Aperture macros list*
%AMRoundRect*
0 Rectangle with rounded corners*
0 $1 Rounding radius*
0 $2 $3 $4 $5 $6 $7 $8 $9 X,Y pos of 4 corners*
0 Add a 4 corners polygon primitive as box body*
4,1,4,$2,$3,$4,$5,$6,$7,$8,$9,$2,$3,0*
0 Add four circle primitives for the rounded corners*
1,1,$1+$1,$2,$3*
1,1,$1+$1,$4,$5*
1,1,$1+$1,$6,$7*
1,1,$1+$1,$8,$9*
0 Add four rect primitives between the rounded corners*
20,1,$1+$1,$2,$3,$4,$5,0*
20,1,$1+$1,$4,$5,$6,$7,0*
20,1,$1+$1,$6,$7,$8,$9,0*
20,1,$1+$1,$8,$9,$2,$3,0*%
G04 Aperture macros list end*
%TA.AperFunction,Conductor*%
%ADD10C,0.200000*%
%TD*%
%TA.AperFunction,Conductor*%
%ADD11C,0.100000*%
%TD*%
%TA.AperFunction,SMDPad,CuDef*%
%ADD12RoundRect,0.250000X-0.337500X-0.475000X0.337500X-0.475000X0.337500X0.475000X-0.337500X0.475000X0*%
%TD*%
%TA.AperFunction,ComponentPad*%
%ADD13R,1.700000X1.700000*%
%TD*%
%TA.AperFunction,SMDPad,CuDef*%
%ADD14RoundRect,0.250000X0.337500X0.475000X-0.337500X0.475000X-0.337500X-0.475000X0.337500X-0.475000X0*%
%TD*%
%TA.AperFunction,SMDPad,CuDef*%
%ADD15RoundRect,0.100000X-0.217500X-0.100000X0.217500X-0.100000X0.217500X0.100000X-0.217500X0.100000X0*%
%TD*%
%TA.AperFunction,ComponentPad*%
%ADD16C,8.115000*%
%TD*%
%TA.AperFunction,SMDPad,CuDef*%
%ADD17R,0.270000X0.840000*%
%TD*%
%TA.AperFunction,SMDPad,CuDef*%
%ADD18R,0.840000X0.270000*%
%TD*%
%TA.AperFunction,SMDPad,CuDef*%
%ADD19R,2.650000X1.650000*%
%TD*%
%TA.AperFunction,SMDPad,CuDef*%
%ADD20O,0.180000X0.296000*%
%TD*%
%TA.AperFunction,SMDPad,CuDef*%
%ADD21O,0.180000X0.814000*%
%TD*%
%TA.AperFunction,SMDPad,CuDef*%
%ADD22RoundRect,0.100000X0.217500X0.100000X-0.217500X0.100000X-0.217500X-0.100000X0.217500X-0.100000X0*%
%TD*%
%TA.AperFunction,SMDPad,CuDef*%
%ADD23RoundRect,0.250000X-0.475000X0.337500X-0.475000X-0.337500X0.475000X-0.337500X0.475000X0.337500X0*%
%TD*%
%TA.AperFunction,SMDPad,CuDef*%
%ADD24RoundRect,0.250000X0.475000X-0.337500X0.475000X0.337500X-0.475000X0.337500X-0.475000X-0.337500X0*%
%TD*%
%TA.AperFunction,SMDPad,CuDef*%
%ADD25RoundRect,0.100000X-0.100000X0.217500X-0.100000X-0.217500X0.100000X-0.217500X0.100000X0.217500X0*%
%TD*%
%TA.AperFunction,SMDPad,CuDef*%
%ADD26R,2.380000X8.500000*%
%TD*%
%TA.AperFunction,ViaPad*%
%ADD27C,0.600000*%
%TD*%
%TA.AperFunction,Conductor*%
%ADD28C,1.500000*%
%TD*%
%TA.AperFunction,Conductor*%
%ADD29C,2.000000*%
%TD*%
%TA.AperFunction,Conductor*%
%ADD30C,0.500000*%
%TD*%
%TA.AperFunction,Conductor*%
%ADD31C,0.600000*%
%TD*%
%TA.AperFunction,Conductor*%
%ADD32C,1.000000*%
%TD*%
%TA.AperFunction,Conductor*%
%ADD33C,0.300000*%
%TD*%
G04 APERTURE END LIST*
D10*
%TO.N,/SW*%
X144750000Y-43500000D02*
X145000000Y-44250000D01*
X144500000Y-44750000D01*
X144000000Y-44500000D01*
X143250000Y-44000000D01*
X143250000Y-42500000D01*
X144000000Y-42500000D01*
X144750000Y-43500000D01*
%TA.AperFunction,Conductor*%
G36*
X144750000Y-43500000D02*
G01*
X145000000Y-44250000D01*
X144500000Y-44750000D01*
X144000000Y-44500000D01*
X143250000Y-44000000D01*
X143250000Y-42500000D01*
X144000000Y-42500000D01*
X144750000Y-43500000D01*
G37*
%TD.AperFunction*%
%TO.N,/Vout*%
X121000000Y-49250000D02*
X121000000Y-53500000D01*
X115750000Y-53500000D01*
X114500000Y-48500000D01*
X114500000Y-44750000D01*
X118750000Y-44750000D01*
X121000000Y-49250000D01*
%TA.AperFunction,Conductor*%
G36*
X121000000Y-49250000D02*
G01*
X121000000Y-53500000D01*
X115750000Y-53500000D01*
X114500000Y-48500000D01*
X114500000Y-44750000D01*
X118750000Y-44750000D01*
X121000000Y-49250000D01*
G37*
%TD.AperFunction*%
%TO.N,/BOOST*%
X96750000Y-47500000D02*
X96750000Y-50250000D01*
X96500000Y-50250000D01*
X95000000Y-48750000D01*
X96500000Y-47250000D01*
X96750000Y-47500000D01*
%TA.AperFunction,Conductor*%
G36*
X96750000Y-47500000D02*
G01*
X96750000Y-50250000D01*
X96500000Y-50250000D01*
X95000000Y-48750000D01*
X96500000Y-47250000D01*
X96750000Y-47500000D01*
G37*
%TD.AperFunction*%
%TO.N,/VIN*%
X145000000Y-50500000D02*
X144750000Y-50000000D01*
X145000000Y-49750000D01*
X145688096Y-49586213D01*
X145000000Y-50500000D01*
%TA.AperFunction,Conductor*%
G36*
X145000000Y-50500000D02*
G01*
X144750000Y-50000000D01*
X145000000Y-49750000D01*
X145688096Y-49586213D01*
X145000000Y-50500000D01*
G37*
%TD.AperFunction*%
%TO.N,/SW*%
X146000000Y-48250000D02*
X145500000Y-48250000D01*
X146000000Y-47750000D01*
X146000000Y-48250000D01*
%TA.AperFunction,Conductor*%
G36*
X146000000Y-48250000D02*
G01*
X145500000Y-48250000D01*
X146000000Y-47750000D01*
X146000000Y-48250000D01*
G37*
%TD.AperFunction*%
%TO.N,/VIN*%
X105500000Y-82250000D02*
X89500000Y-82250000D01*
X89500000Y-77750000D01*
X94500000Y-67750000D01*
X105500000Y-67750000D01*
X105500000Y-82250000D01*
%TA.AperFunction,Conductor*%
G36*
X105500000Y-82250000D02*
G01*
X89500000Y-82250000D01*
X89500000Y-77750000D01*
X94500000Y-67750000D01*
X105500000Y-67750000D01*
X105500000Y-82250000D01*
G37*
%TD.AperFunction*%
%TO.N,/SW*%
X107000000Y-63250000D02*
X101000000Y-63250000D01*
X100500000Y-52500000D01*
X98750000Y-52500000D01*
X98750000Y-46250000D01*
X107000000Y-46250000D01*
X107000000Y-63250000D01*
%TA.AperFunction,Conductor*%
G36*
X107000000Y-63250000D02*
G01*
X101000000Y-63250000D01*
X100500000Y-52500000D01*
X98750000Y-52500000D01*
X98750000Y-46250000D01*
X107000000Y-46250000D01*
X107000000Y-63250000D01*
G37*
%TD.AperFunction*%
%TO.N,GND*%
X123500000Y-60000000D02*
X124500000Y-60750000D01*
X127250000Y-60750000D01*
X127250000Y-65000000D01*
X124000000Y-65000000D01*
X121500000Y-59750000D01*
X121500000Y-53250000D01*
X121462500Y-49000000D01*
X123250000Y-49000000D01*
X123500000Y-60000000D01*
%TA.AperFunction,Conductor*%
G36*
X123500000Y-60000000D02*
G01*
X124500000Y-60750000D01*
X127250000Y-60750000D01*
X127250000Y-65000000D01*
X124000000Y-65000000D01*
X121500000Y-59750000D01*
X121500000Y-53250000D01*
X121462500Y-49000000D01*
X123250000Y-49000000D01*
X123500000Y-60000000D01*
G37*
%TD.AperFunction*%
%TO.N,Net-(L1-Pad2)*%
X115250000Y-53750000D02*
X115250000Y-57807547D01*
X113250000Y-61500000D01*
X110250000Y-61500000D01*
X110250000Y-52000000D01*
X113250000Y-52000000D01*
X115250000Y-53750000D01*
%TA.AperFunction,Conductor*%
G36*
X115250000Y-53750000D02*
G01*
X115250000Y-57807547D01*
X113250000Y-61500000D01*
X110250000Y-61500000D01*
X110250000Y-52000000D01*
X113250000Y-52000000D01*
X115250000Y-53750000D01*
G37*
%TD.AperFunction*%
%TO.N,/SENSE+*%
X117000000Y-64000000D02*
X113750000Y-64000000D01*
X113750000Y-62000000D01*
X115750000Y-58500000D01*
X115750000Y-56000000D01*
X117000000Y-56000000D01*
X117000000Y-64000000D01*
%TA.AperFunction,Conductor*%
G36*
X117000000Y-64000000D02*
G01*
X113750000Y-64000000D01*
X113750000Y-62000000D01*
X115750000Y-58500000D01*
X115750000Y-56000000D01*
X117000000Y-56000000D01*
X117000000Y-64000000D01*
G37*
%TD.AperFunction*%
%TO.N,/BG*%
X142000000Y-45750000D02*
X140750000Y-46000000D01*
X140750000Y-45500000D01*
X141000000Y-45500000D01*
X141250000Y-45500000D01*
X142250000Y-45500000D01*
X142000000Y-45750000D01*
%TA.AperFunction,Conductor*%
G36*
X142000000Y-45750000D02*
G01*
X140750000Y-46000000D01*
X140750000Y-45500000D01*
X141000000Y-45500000D01*
X141250000Y-45500000D01*
X142250000Y-45500000D01*
X142000000Y-45750000D01*
G37*
%TD.AperFunction*%
%TO.N,/TG*%
X146385570Y-49864430D02*
X146618403Y-50131597D01*
X146750000Y-51250000D01*
X145750000Y-51250000D01*
X145926198Y-50176198D01*
X146103555Y-49646445D01*
X146385570Y-49864430D01*
%TA.AperFunction,Conductor*%
G36*
X146385570Y-49864430D02*
G01*
X146618403Y-50131597D01*
X146750000Y-51250000D01*
X145750000Y-51250000D01*
X145926198Y-50176198D01*
X146103555Y-49646445D01*
X146385570Y-49864430D01*
G37*
%TD.AperFunction*%
%TO.N,/Vout*%
X121000000Y-62000000D02*
X120000000Y-64000000D01*
X118000000Y-64000000D01*
X118000000Y-55500000D01*
X116000000Y-55500000D01*
X115750000Y-55250000D01*
X115750000Y-53500000D01*
X121000000Y-53500000D01*
X121000000Y-62000000D01*
%TA.AperFunction,Conductor*%
G36*
X121000000Y-62000000D02*
G01*
X120000000Y-64000000D01*
X118000000Y-64000000D01*
X118000000Y-55500000D01*
X116000000Y-55500000D01*
X115750000Y-55250000D01*
X115750000Y-53500000D01*
X121000000Y-53500000D01*
X121000000Y-62000000D01*
G37*
%TD.AperFunction*%
%TO.N,/VIN*%
X137500000Y-59500000D02*
X126500000Y-70500000D01*
X125250000Y-70500000D01*
X125250000Y-70000000D01*
X137500000Y-57750000D01*
X137500000Y-59500000D01*
%TA.AperFunction,Conductor*%
G36*
X137500000Y-59500000D02*
G01*
X126500000Y-70500000D01*
X125250000Y-70500000D01*
X125250000Y-70000000D01*
X137500000Y-57750000D01*
X137500000Y-59500000D01*
G37*
%TD.AperFunction*%
%TO.N,/TG*%
X99432455Y-57130115D02*
X99250000Y-58250000D01*
X98250000Y-58000000D01*
X96750000Y-57000000D01*
X97500000Y-56537135D01*
X98750000Y-56500000D01*
X99432455Y-57130115D01*
%TA.AperFunction,Conductor*%
G36*
X99432455Y-57130115D02*
G01*
X99250000Y-58250000D01*
X98250000Y-58000000D01*
X96750000Y-57000000D01*
X97500000Y-56537135D01*
X98750000Y-56500000D01*
X99432455Y-57130115D01*
G37*
%TD.AperFunction*%
D11*
%TO.N,/Vout*%
X81250000Y-51750000D02*
X75000000Y-56750000D01*
X75250000Y-82000000D01*
X75250000Y-82250000D01*
X66500000Y-82250000D01*
X66250000Y-43250000D01*
X81250000Y-43250000D01*
X81250000Y-51750000D01*
%TA.AperFunction,Conductor*%
G36*
X81250000Y-51750000D02*
G01*
X75000000Y-56750000D01*
X75250000Y-82000000D01*
X75250000Y-82250000D01*
X66500000Y-82250000D01*
X66250000Y-43250000D01*
X81250000Y-43250000D01*
X81250000Y-51750000D01*
G37*
%TD.AperFunction*%
D10*
%TO.N,GND*%
X91750000Y-57250000D02*
X91250000Y-57250000D01*
X91250000Y-56000000D01*
X91750000Y-56000000D01*
X91750000Y-57250000D01*
%TA.AperFunction,Conductor*%
G36*
X91750000Y-57250000D02*
G01*
X91250000Y-57250000D01*
X91250000Y-56000000D01*
X91750000Y-56000000D01*
X91750000Y-57250000D01*
G37*
%TD.AperFunction*%
%TO.N,/SW*%
X146000000Y-45250000D02*
X145250000Y-45250000D01*
X143250000Y-43250000D01*
X143250000Y-43000000D01*
X143750000Y-43000000D01*
X146000000Y-45250000D01*
%TA.AperFunction,Conductor*%
G36*
X146000000Y-45250000D02*
G01*
X145250000Y-45250000D01*
X143250000Y-43250000D01*
X143250000Y-43000000D01*
X143750000Y-43000000D01*
X146000000Y-45250000D01*
G37*
%TD.AperFunction*%
%TO.N,GND*%
X92250000Y-59500000D02*
X91750000Y-59500000D01*
X91750000Y-58500000D01*
X92250000Y-58500000D01*
X92250000Y-59500000D01*
%TA.AperFunction,Conductor*%
G36*
X92250000Y-59500000D02*
G01*
X91750000Y-59500000D01*
X91750000Y-58500000D01*
X92250000Y-58500000D01*
X92250000Y-59500000D01*
G37*
%TD.AperFunction*%
X91000000Y-55500000D02*
X91500000Y-55500000D01*
X91750000Y-55750000D01*
X91750000Y-56500000D01*
X91250000Y-56500000D01*
X90500000Y-56000000D01*
X89500000Y-56000000D01*
X89250000Y-55750000D01*
X89250000Y-55250000D01*
X89500000Y-55000000D01*
X90500000Y-55000000D01*
X91000000Y-55500000D01*
%TA.AperFunction,Conductor*%
G36*
X91000000Y-55500000D02*
G01*
X91500000Y-55500000D01*
X91750000Y-55750000D01*
X91750000Y-56500000D01*
X91250000Y-56500000D01*
X90500000Y-56000000D01*
X89500000Y-56000000D01*
X89250000Y-55750000D01*
X89250000Y-55250000D01*
X89500000Y-55000000D01*
X90500000Y-55000000D01*
X91000000Y-55500000D01*
G37*
%TD.AperFunction*%
%TD*%
D12*
%TO.P,C1_EX1,1*%
%TO.N,GND*%
X80962500Y-56750000D03*
%TO.P,C1_EX1,2*%
%TO.N,Net-(U1-TRACK{slash}SS)*%
X83037500Y-56750000D03*
%TD*%
D13*
%TO.P,VOUT1,1,Pin_1*%
%TO.N,/Vout*%
X116500000Y-46750000D03*
%TD*%
D14*
%TO.P,COUT_EX2,1*%
%TO.N,GND*%
X122537500Y-58250000D03*
%TO.P,COUT_EX2,2*%
%TO.N,/Vout*%
X120462500Y-58250000D03*
%TD*%
D15*
%TO.P,R2,1*%
%TO.N,GND*%
X80500000Y-60750000D03*
%TO.P,R2,2*%
%TO.N,Net-(U1-FREQ)*%
X81315000Y-60750000D03*
%TD*%
D16*
%TO.P,VSource_GND1,1,1*%
%TO.N,GND*%
X111000000Y-78000000D03*
%TD*%
D14*
%TO.P,COUT_EX1,1*%
%TO.N,GND*%
X122537500Y-56250000D03*
%TO.P,COUT_EX1,2*%
%TO.N,/Vout*%
X120462500Y-56250000D03*
%TD*%
D12*
%TO.P,C6,1*%
%TO.N,GND*%
X87462500Y-62250000D03*
%TO.P,C6,2*%
%TO.N,/ITH*%
X89537500Y-62250000D03*
%TD*%
D16*
%TO.P,VSource_IN1,1,1*%
%TO.N,/VIN*%
X100000000Y-74250000D03*
%TD*%
D17*
%TO.P,U1,1,PLLIN/MODE*%
%TO.N,unconnected-(U1-PLLIN{slash}MODE-Pad1)*%
X91250000Y-59195000D03*
%TO.P,U1,2,SGND*%
%TO.N,GND*%
X91750000Y-59195000D03*
%TO.P,U1,3,SGND*%
X92250000Y-59195000D03*
%TO.P,U1,4,RUN*%
%TO.N,unconnected-(U1-RUN-Pad4)*%
X92750000Y-59195000D03*
%TO.P,U1,5,SENSE-*%
%TO.N,/Vout*%
X93250000Y-59195000D03*
%TO.P,U1,6,SENSE+*%
%TO.N,/SENSE+*%
X93750000Y-59195000D03*
D18*
%TO.P,U1,7,VFB*%
%TO.N,/VFB*%
X94445000Y-58500000D03*
%TO.P,U1,8,ITH*%
%TO.N,/ITH*%
X94445000Y-58000000D03*
%TO.P,U1,9,PGOOD*%
%TO.N,Net-(U1-PGOOD)*%
X94445000Y-57500000D03*
%TO.P,U1,10,TG*%
%TO.N,/TG*%
X94445000Y-57000000D03*
D17*
%TO.P,U1,11,SW*%
%TO.N,/SW*%
X93750000Y-56305000D03*
%TO.P,U1,12,BOOST*%
%TO.N,/BOOST*%
X93250000Y-56305000D03*
%TO.P,U1,13,BG*%
%TO.N,/BG*%
X92750000Y-56305000D03*
%TO.P,U1,14,INTVCC*%
%TO.N,/INTVCC*%
X92250000Y-56305000D03*
%TO.P,U1,15,EXTVCC*%
%TO.N,GND*%
X91750000Y-56305000D03*
%TO.P,U1,16,PGND*%
X91250000Y-56305000D03*
D18*
%TO.P,U1,17,VIN*%
%TO.N,/VIN*%
X90555000Y-57000000D03*
%TO.P,U1,18,ILIM*%
%TO.N,unconnected-(U1-ILIM-Pad18)*%
X90555000Y-57500000D03*
%TO.P,U1,19,TRACK/SS*%
%TO.N,Net-(U1-TRACK{slash}SS)*%
X90555000Y-58000000D03*
%TO.P,U1,20,FREQ*%
%TO.N,Net-(U1-FREQ)*%
X90555000Y-58500000D03*
D19*
%TO.P,U1,21,SGND*%
%TO.N,GND*%
X92500000Y-57750000D03*
%TD*%
D15*
%TO.P,R4,1*%
%TO.N,Net-(L1-Pad2)*%
X115092500Y-56750000D03*
%TO.P,R4,2*%
%TO.N,/SENSE+*%
X115907500Y-56750000D03*
%TD*%
D12*
%TO.P,CSENSE1,1*%
%TO.N,/SENSE+*%
X116462500Y-60750000D03*
%TO.P,CSENSE1,2*%
%TO.N,/Vout*%
X118537500Y-60750000D03*
%TD*%
D13*
%TO.P,TP_VIN2,1,Pin_1*%
%TO.N,GND*%
X118750000Y-80250000D03*
%TD*%
D20*
%TO.P,Q2,1*%
%TO.N,/BG*%
X144850500Y-45648500D03*
%TO.P,Q2,2*%
%TO.N,GND*%
X144850500Y-46166500D03*
D21*
%TO.P,Q2,3*%
%TO.N,/SW*%
X145250500Y-45907500D03*
%TO.P,Q2,4*%
%TO.N,GND*%
X145650500Y-45907500D03*
%TO.P,Q2,5*%
%TO.N,/SW*%
X146050500Y-45907500D03*
%TD*%
D14*
%TO.P,CSENSE_EX1,1*%
%TO.N,/Vout*%
X118537500Y-62750000D03*
%TO.P,CSENSE_EX1,2*%
%TO.N,/SENSE+*%
X116462500Y-62750000D03*
%TD*%
%TO.P,C5,1*%
%TO.N,GND*%
X89537500Y-71000000D03*
%TO.P,C5,2*%
%TO.N,Net-(C5-Pad2)*%
X87462500Y-71000000D03*
%TD*%
D12*
%TO.P,C1,1*%
%TO.N,GND*%
X80962500Y-58750000D03*
%TO.P,C1,2*%
%TO.N,Net-(U1-TRACK{slash}SS)*%
X83037500Y-58750000D03*
%TD*%
%TO.P,C3,1*%
%TO.N,/BOOST*%
X96962500Y-49750000D03*
%TO.P,C3,2*%
%TO.N,/SW*%
X99037500Y-49750000D03*
%TD*%
D22*
%TO.P,R7,1*%
%TO.N,Net-(R6-Pad2)*%
X123725000Y-66500000D03*
%TO.P,R7,2*%
%TO.N,/VFB*%
X122910000Y-66500000D03*
%TD*%
D12*
%TO.P,COUT1,1*%
%TO.N,/Vout*%
X120425000Y-50250000D03*
%TO.P,COUT1,2*%
%TO.N,GND*%
X122500000Y-50250000D03*
%TD*%
D22*
%TO.P,R9,1*%
%TO.N,/ITH*%
X88907500Y-66250000D03*
%TO.P,R9,2*%
%TO.N,Net-(C5-Pad2)*%
X88092500Y-66250000D03*
%TD*%
D23*
%TO.P,CinB1_EX1,1*%
%TO.N,/VIN*%
X96000000Y-81712500D03*
%TO.P,CinB1_EX1,2*%
%TO.N,GND*%
X96000000Y-83787500D03*
%TD*%
D14*
%TO.P,C3_EX1,1*%
%TO.N,/SW*%
X99037500Y-47750000D03*
%TO.P,C3_EX1,2*%
%TO.N,/BOOST*%
X96962500Y-47750000D03*
%TD*%
D13*
%TO.P,TP_VIN1,1,Pin_1*%
%TO.N,/VIN*%
X92500000Y-80250000D03*
%TD*%
D14*
%TO.P,C5_EX1,1*%
%TO.N,GND*%
X89537500Y-68500000D03*
%TO.P,C5_EX1,2*%
%TO.N,Net-(C5-Pad2)*%
X87462500Y-68500000D03*
%TD*%
D15*
%TO.P,RSENSE1,1*%
%TO.N,Net-(L1-Pad2)*%
X115092500Y-54250000D03*
%TO.P,RSENSE1,2*%
%TO.N,/Vout*%
X115907500Y-54250000D03*
%TD*%
D13*
%TO.P,GND1,1,Pin_1*%
%TO.N,GND*%
X126000000Y-62750000D03*
%TD*%
D23*
%TO.P,CinA1,1*%
%TO.N,/VIN*%
X102000000Y-81712500D03*
%TO.P,CinA1,2*%
%TO.N,GND*%
X102000000Y-83787500D03*
%TD*%
%TO.P,CinB1,1*%
%TO.N,/VIN*%
X104000000Y-81712500D03*
%TO.P,CinB1,2*%
%TO.N,GND*%
X104000000Y-83787500D03*
%TD*%
D15*
%TO.P,RLOAD1,1*%
%TO.N,/Vout*%
X120842500Y-53750000D03*
%TO.P,RLOAD1,2*%
%TO.N,GND*%
X121657500Y-53750000D03*
%TD*%
D12*
%TO.P,C6_EX1,1*%
%TO.N,GND*%
X87462500Y-64250000D03*
%TO.P,C6_EX1,2*%
%TO.N,/ITH*%
X89537500Y-64250000D03*
%TD*%
D24*
%TO.P,CinA1_EX1,1*%
%TO.N,GND*%
X98000000Y-83787500D03*
%TO.P,CinA1_EX1,2*%
%TO.N,/VIN*%
X98000000Y-81712500D03*
%TD*%
D25*
%TO.P,R5,1*%
%TO.N,/VFB*%
X121000000Y-65842500D03*
%TO.P,R5,2*%
%TO.N,GND*%
X121000000Y-66657500D03*
%TD*%
D26*
%TO.P,L1,1*%
%TO.N,/SW*%
X105175000Y-56750000D03*
%TO.P,L1,2*%
%TO.N,Net-(L1-Pad2)*%
X111825000Y-56750000D03*
%TD*%
D20*
%TO.P,Q1,1*%
%TO.N,/TG*%
X146100000Y-49259000D03*
%TO.P,Q1,2*%
%TO.N,/SW*%
X146100000Y-48741000D03*
D21*
%TO.P,Q1,3*%
%TO.N,/VIN*%
X145700000Y-49000000D03*
%TO.P,Q1,4*%
%TO.N,/SW*%
X145300000Y-49000000D03*
%TO.P,Q1,5*%
%TO.N,/VIN*%
X144900000Y-49000000D03*
%TD*%
D23*
%TO.P,CinA2,1*%
%TO.N,/VIN*%
X100000000Y-81712500D03*
%TO.P,CinA2,2*%
%TO.N,GND*%
X100000000Y-83787500D03*
%TD*%
D15*
%TO.P,R6,1*%
%TO.N,/Vout*%
X121092500Y-64250000D03*
%TO.P,R6,2*%
%TO.N,Net-(R6-Pad2)*%
X121907500Y-64250000D03*
%TD*%
D27*
%TO.N,GND*%
X77000000Y-66000000D03*
X77000000Y-69750000D03*
X128000000Y-48750000D03*
X80750000Y-68500000D03*
X79500000Y-71000000D03*
X80750000Y-72250000D03*
X79500000Y-72250000D03*
X83250000Y-71000000D03*
X79750000Y-54750000D03*
X77000000Y-67250000D03*
X83250000Y-69750000D03*
X126750000Y-48750000D03*
X80750000Y-66000000D03*
X77500000Y-58000000D03*
X83250000Y-72250000D03*
X83250000Y-66000000D03*
X79500000Y-68500000D03*
X126750000Y-47500000D03*
X79500000Y-69750000D03*
X83250000Y-67250000D03*
X76500000Y-61000000D03*
X78250000Y-66000000D03*
X77000000Y-68500000D03*
X80750000Y-67250000D03*
X129250000Y-50000000D03*
X82750000Y-54750000D03*
X78250000Y-67250000D03*
X83250000Y-68500000D03*
X79500000Y-66000000D03*
X83750000Y-54750000D03*
X78250000Y-72250000D03*
X82000000Y-68500000D03*
X129250000Y-47500000D03*
X82000000Y-72250000D03*
X129250000Y-48750000D03*
X80750000Y-69750000D03*
X80750000Y-71000000D03*
X78250000Y-71000000D03*
X77000000Y-71000000D03*
X78250000Y-68500000D03*
X128000000Y-50000000D03*
X78250000Y-69750000D03*
X80750000Y-54750000D03*
X76500000Y-58000000D03*
X81750000Y-54750000D03*
X77000000Y-72250000D03*
X76500000Y-60000000D03*
X126750000Y-50000000D03*
X82000000Y-69750000D03*
X82000000Y-66000000D03*
X79500000Y-67250000D03*
X82000000Y-67250000D03*
X128000000Y-47500000D03*
X82000000Y-71000000D03*
X77500000Y-61000000D03*
X76500000Y-59000000D03*
X77500000Y-60000000D03*
X77500000Y-59000000D03*
%TO.N,/INTVCC*%
X90000000Y-53250000D03*
%TO.N,/BOOST*%
X95000000Y-48750000D03*
X93250000Y-53750000D03*
%TO.N,/ITH*%
X91500000Y-62250000D03*
X95750000Y-58199997D03*
%TO.N,/VIN*%
X93500000Y-73000000D03*
X87500000Y-57000000D03*
%TO.N,/Vout*%
X68750000Y-47500000D03*
X67250000Y-45750000D03*
X66500000Y-44750000D03*
X76250000Y-47500000D03*
X73250000Y-45750000D03*
X67250000Y-47500000D03*
X80000000Y-48250000D03*
X77750000Y-47500000D03*
X75500000Y-46500000D03*
X75500000Y-44750000D03*
X74000000Y-43250000D03*
X80750000Y-47500000D03*
X77750000Y-44000000D03*
X74000000Y-49750000D03*
X80750000Y-49000000D03*
X68000000Y-44750000D03*
X75500000Y-43250000D03*
X71000000Y-43250000D03*
X68000000Y-49750000D03*
X68750000Y-49000000D03*
X70250000Y-49000000D03*
X71000000Y-46500000D03*
X68000000Y-48250000D03*
X80750000Y-44000000D03*
X72500000Y-48250000D03*
X68000000Y-43250000D03*
X80750000Y-45750000D03*
X71750000Y-45750000D03*
X75500000Y-49750000D03*
X78500000Y-49750000D03*
X67250000Y-49000000D03*
X68750000Y-44000000D03*
X77750000Y-45750000D03*
X79250000Y-47500000D03*
X78500000Y-44750000D03*
X68750000Y-45750000D03*
X70250000Y-45750000D03*
X69500000Y-48250000D03*
X73250000Y-49000000D03*
X77000000Y-46500000D03*
X74000000Y-46500000D03*
X80000000Y-44750000D03*
X71750000Y-47500000D03*
X73250000Y-44000000D03*
X71000000Y-48250000D03*
X78500000Y-43250000D03*
X72500000Y-43250000D03*
X67250000Y-44000000D03*
X69500000Y-46500000D03*
X78500000Y-48250000D03*
X71000000Y-49750000D03*
X70250000Y-44000000D03*
X68000000Y-46500000D03*
X79250000Y-49000000D03*
X77000000Y-48250000D03*
X71750000Y-44000000D03*
X66500000Y-49750000D03*
X71750000Y-49000000D03*
X76250000Y-44000000D03*
X74750000Y-47500000D03*
X72500000Y-46500000D03*
X77000000Y-49750000D03*
X66500000Y-46500000D03*
X73250000Y-47500000D03*
X69500000Y-44750000D03*
X70250000Y-47500000D03*
X75500000Y-48250000D03*
X74750000Y-44000000D03*
X72500000Y-49750000D03*
X80000000Y-49750000D03*
X80000000Y-46500000D03*
X66500000Y-43250000D03*
X66500000Y-48250000D03*
X69500000Y-43250000D03*
X77750000Y-49000000D03*
X69500000Y-49750000D03*
X74000000Y-48250000D03*
X76250000Y-45750000D03*
X71000000Y-44750000D03*
X72500000Y-44750000D03*
X76250000Y-49000000D03*
X77000000Y-44750000D03*
X80000000Y-43250000D03*
X79250000Y-45750000D03*
X78500000Y-46500000D03*
X74750000Y-45750000D03*
X74000000Y-44750000D03*
X74750000Y-49000000D03*
X77000000Y-43250000D03*
X79250000Y-44000000D03*
%TO.N,/SENSE+*%
X114250000Y-62500000D03*
X95500000Y-60500000D03*
%TO.N,/TG*%
X143250000Y-54750000D03*
X115000000Y-65750000D03*
%TO.N,/BG*%
X92500000Y-54500000D03*
X140000000Y-46500000D03*
%TO.N,Net-(U1-PGOOD)*%
X96500000Y-57750000D03*
%TO.N,/VFB*%
X95750000Y-59000000D03*
X119250000Y-65750000D03*
%TD*%
D28*
%TO.N,Net-(U1-TRACK{slash}SS)*%
X83037500Y-56750000D02*
X83037500Y-58750000D01*
D10*
X90555000Y-58000000D02*
X83787500Y-58000000D01*
X83787500Y-58000000D02*
X83037500Y-58750000D01*
%TO.N,GND*%
X145650500Y-47007500D02*
X145650500Y-45907500D01*
X145500500Y-47157500D02*
X145650500Y-47007500D01*
X126000000Y-65000000D02*
X126000000Y-62750000D01*
X145000500Y-47157500D02*
X145500500Y-47157500D01*
X144850500Y-47007500D02*
X145000500Y-47157500D01*
X144850500Y-46166500D02*
X144850500Y-47007500D01*
%TO.N,/INTVCC*%
X92250000Y-55250000D02*
X92250000Y-56305000D01*
X91500000Y-54500000D02*
X92250000Y-55250000D01*
X91250000Y-54500000D02*
X91500000Y-54500000D01*
X90000000Y-53250000D02*
X91250000Y-54500000D01*
%TO.N,/SW*%
X93750000Y-56305000D02*
X93750000Y-55000000D01*
X145949500Y-45199500D02*
X146001500Y-45251500D01*
X145999000Y-48292000D02*
X145784000Y-48292000D01*
X145250500Y-45300500D02*
X145351500Y-45199500D01*
X146001500Y-48289500D02*
X145999000Y-48292000D01*
X146050500Y-45300500D02*
X146050500Y-45907500D01*
X145949500Y-45199500D02*
X146050500Y-45300500D01*
X146100000Y-48393000D02*
X145999000Y-48292000D01*
X145538042Y-48292000D02*
X145300000Y-48530042D01*
X96250000Y-52500000D02*
X100250000Y-52500000D01*
X146001500Y-45251500D02*
X146001500Y-48289500D01*
X145250500Y-45907500D02*
X145250500Y-45300500D01*
X93750000Y-55000000D02*
X96250000Y-52500000D01*
X145351500Y-45199500D02*
X145949500Y-45199500D01*
X143402000Y-43250000D02*
X145351500Y-45199500D01*
X145300000Y-48530042D02*
X145300000Y-49000000D01*
D29*
X102875000Y-46125000D02*
X105750000Y-43250000D01*
X102875000Y-54750000D02*
X102875000Y-46125000D01*
X105750000Y-43250000D02*
X143402000Y-43250000D01*
D10*
X145784000Y-48292000D02*
X145538042Y-48292000D01*
X146100000Y-48741000D02*
X146100000Y-48393000D01*
D28*
%TO.N,/BOOST*%
X96962500Y-48750000D02*
X96962500Y-49750000D01*
X96962500Y-47750000D02*
X96962500Y-48750000D01*
D10*
X93250000Y-53750000D02*
X93250000Y-56305000D01*
D30*
X95000000Y-48750000D02*
X96962500Y-48750000D01*
D31*
%TO.N,Net-(C5-Pad2)*%
X87462500Y-71000000D02*
X87462500Y-68500000D01*
X87462500Y-68500000D02*
X87462500Y-66876500D01*
X87462500Y-66876500D02*
X88089000Y-66250000D01*
%TO.N,/ITH*%
X91500000Y-62250000D02*
X89537500Y-62250000D01*
X89537500Y-64250000D02*
X89537500Y-62250000D01*
X88911000Y-64914000D02*
X88911000Y-66250000D01*
X89537500Y-64287500D02*
X88911000Y-64914000D01*
D10*
X94445000Y-58000000D02*
X95550003Y-58000000D01*
D31*
X89537500Y-64250000D02*
X89537500Y-64287500D01*
D10*
X95550003Y-58000000D02*
X95750000Y-58199997D01*
%TO.N,/VIN*%
X144900000Y-49600000D02*
X144900000Y-49000000D01*
X145642000Y-49658000D02*
X145700000Y-49600000D01*
X144958000Y-49658000D02*
X145642000Y-49658000D01*
X145700000Y-49000000D02*
X145700000Y-49600000D01*
X99300000Y-73200000D02*
X102750000Y-69750000D01*
X144900000Y-49600000D02*
X144958000Y-49658000D01*
D32*
X144875000Y-50125000D02*
X125550000Y-69450000D01*
D10*
X145125000Y-50125000D02*
X144875000Y-50125000D01*
D29*
X102750000Y-69750000D02*
X125550000Y-69750000D01*
D10*
X90555000Y-57000000D02*
X87500000Y-57000000D01*
X125550000Y-69450000D02*
X125550000Y-69750000D01*
%TO.N,/Vout*%
X83750000Y-62750000D02*
X70625000Y-62750000D01*
X118375000Y-61532500D02*
X118375000Y-58750000D01*
X93250000Y-59195000D02*
X93250000Y-60500000D01*
X86000000Y-60500000D02*
X83750000Y-62750000D01*
X93250000Y-60500000D02*
X86000000Y-60500000D01*
D30*
X121092500Y-64250000D02*
X118375000Y-61532500D01*
D10*
%TO.N,/SENSE+*%
X94195000Y-59195000D02*
X95500000Y-60500000D01*
X93750000Y-59195000D02*
X94195000Y-59195000D01*
D29*
%TO.N,/TG*%
X98750000Y-57750000D02*
X98750000Y-63500000D01*
D10*
X146100000Y-49259000D02*
X146100000Y-51900000D01*
D29*
X101000000Y-65750000D02*
X115000000Y-65750000D01*
D10*
X94445000Y-57000000D02*
X98000000Y-57000000D01*
D29*
X146100000Y-51900000D02*
X143250000Y-54750000D01*
X98750000Y-63500000D02*
X101000000Y-65750000D01*
D32*
X98000000Y-57000000D02*
X98750000Y-57750000D01*
D10*
%TO.N,/BG*%
X92750000Y-55000000D02*
X92750000Y-56305000D01*
D31*
X140000000Y-46500000D02*
X140851500Y-45648500D01*
D10*
X92500000Y-54750000D02*
X92750000Y-55000000D01*
D33*
X140851500Y-45648500D02*
X144850500Y-45648500D01*
D10*
X92500000Y-54500000D02*
X92500000Y-54750000D01*
%TO.N,Net-(U1-PGOOD)*%
X96250000Y-57500000D02*
X96500000Y-57750000D01*
X94445000Y-57500000D02*
X96250000Y-57500000D01*
%TO.N,Net-(U1-FREQ)*%
X86000000Y-58500000D02*
X83750000Y-60750000D01*
X90555000Y-58500000D02*
X86000000Y-58500000D01*
X83750000Y-60750000D02*
X81315000Y-60750000D01*
D30*
%TO.N,/VFB*%
X121112630Y-65842500D02*
X121592500Y-65842500D01*
X121000000Y-65842500D02*
X119342500Y-65842500D01*
D10*
X119342500Y-65842500D02*
X119250000Y-65750000D01*
X94945000Y-59000000D02*
X95750000Y-59000000D01*
X94445000Y-58500000D02*
X94945000Y-59000000D01*
X121000000Y-65842500D02*
X121112630Y-65842500D01*
D30*
X122250000Y-66500000D02*
X122910000Y-66500000D01*
D10*
X120907500Y-65750000D02*
X121000000Y-65842500D01*
D30*
X121592500Y-65842500D02*
X122250000Y-66500000D01*
%TO.N,Net-(R6-Pad2)*%
X121907500Y-64250000D02*
X123725000Y-66067500D01*
X123725000Y-66067500D02*
X123725000Y-66500000D01*
%TD*%
%TA.AperFunction,Conductor*%
%TO.N,GND*%
G36*
X151235148Y-41764852D02*
G01*
X151249500Y-41799500D01*
X151249500Y-87200500D01*
X151235148Y-87235148D01*
X151200500Y-87249500D01*
X66049500Y-87249500D01*
X66014852Y-87235148D01*
X66000500Y-87200500D01*
X66000500Y-84174980D01*
X94775001Y-84174980D01*
X94785493Y-84277693D01*
X94840642Y-84444122D01*
X94932682Y-84593343D01*
X95056656Y-84717317D01*
X95205877Y-84809357D01*
X95372306Y-84864506D01*
X95475018Y-84874999D01*
X95749999Y-84874999D01*
X96250000Y-84874999D01*
X96524980Y-84874999D01*
X96627693Y-84864506D01*
X96794122Y-84809357D01*
X96943343Y-84717317D01*
X96965352Y-84695309D01*
X97000000Y-84680957D01*
X97034648Y-84695309D01*
X97056656Y-84717317D01*
X97205877Y-84809357D01*
X97372306Y-84864506D01*
X97475018Y-84874999D01*
X97749999Y-84874999D01*
X98250000Y-84874999D01*
X98524980Y-84874999D01*
X98627693Y-84864506D01*
X98794122Y-84809357D01*
X98943343Y-84717317D01*
X98965352Y-84695309D01*
X99000000Y-84680957D01*
X99034648Y-84695309D01*
X99056656Y-84717317D01*
X99205877Y-84809357D01*
X99372306Y-84864506D01*
X99475018Y-84874999D01*
X99749999Y-84874999D01*
X100250000Y-84874999D01*
X100524980Y-84874999D01*
X100627693Y-84864506D01*
X100794122Y-84809357D01*
X100943343Y-84717317D01*
X100965352Y-84695309D01*
X101000000Y-84680957D01*
X101034648Y-84695309D01*
X101056656Y-84717317D01*
X101205877Y-84809357D01*
X101372306Y-84864506D01*
X101475018Y-84874999D01*
X101749999Y-84874999D01*
X102250000Y-84874999D01*
X102524980Y-84874999D01*
X102627693Y-84864506D01*
X102794122Y-84809357D01*
X102943343Y-84717317D01*
X102965352Y-84695309D01*
X103000000Y-84680957D01*
X103034648Y-84695309D01*
X103056656Y-84717317D01*
X103205877Y-84809357D01*
X103372306Y-84864506D01*
X103475018Y-84874999D01*
X103749999Y-84874999D01*
X104250000Y-84874999D01*
X104524980Y-84874999D01*
X104627693Y-84864506D01*
X104794122Y-84809357D01*
X104943343Y-84717317D01*
X105067317Y-84593343D01*
X105159357Y-84444122D01*
X105214506Y-84277693D01*
X105225000Y-84174981D01*
X105225000Y-84037500D01*
X104250000Y-84037500D01*
X104250000Y-84874999D01*
X103749999Y-84874999D01*
X103750000Y-84874998D01*
X103750000Y-84037500D01*
X102250000Y-84037500D01*
X102250000Y-84874999D01*
X101749999Y-84874999D01*
X101750000Y-84874998D01*
X101750000Y-84037500D01*
X100250000Y-84037500D01*
X100250000Y-84874999D01*
X99749999Y-84874999D01*
X99750000Y-84874998D01*
X99750000Y-84037500D01*
X98250000Y-84037500D01*
X98250000Y-84874999D01*
X97749999Y-84874999D01*
X97750000Y-84874998D01*
X97750000Y-84037500D01*
X96250000Y-84037500D01*
X96250000Y-84874999D01*
X95749999Y-84874999D01*
X95750000Y-84874998D01*
X95750000Y-84037500D01*
X94775001Y-84037500D01*
X94775001Y-84174980D01*
X66000500Y-84174980D01*
X66000500Y-82651056D01*
X66014852Y-82616408D01*
X66049500Y-82602056D01*
X66084148Y-82616408D01*
X66089532Y-82622799D01*
X66094018Y-82629154D01*
X66094023Y-82629160D01*
X66126988Y-82655979D01*
X66211371Y-82724630D01*
X66350128Y-82784901D01*
X66479400Y-82802668D01*
X66499999Y-82805500D01*
X66500000Y-82805500D01*
X75249996Y-82805500D01*
X75250000Y-82805500D01*
X75363020Y-82793881D01*
X75505566Y-82743220D01*
X75629158Y-82655979D01*
X75724630Y-82538629D01*
X75784901Y-82399872D01*
X75805500Y-82250000D01*
X75805500Y-82000000D01*
X75805500Y-81999880D01*
X75805474Y-81994622D01*
X75801756Y-81619154D01*
X75634982Y-64774980D01*
X86375001Y-64774980D01*
X86385493Y-64877693D01*
X86440642Y-65044122D01*
X86532682Y-65193343D01*
X86656656Y-65317317D01*
X86805877Y-65409357D01*
X86972306Y-65464506D01*
X87075018Y-65474999D01*
X87212499Y-65474999D01*
X87212500Y-65474998D01*
X87212500Y-64500000D01*
X86375001Y-64500000D01*
X86375001Y-64774980D01*
X75634982Y-64774980D01*
X75628299Y-64100000D01*
X75624587Y-63725018D01*
X86375000Y-63725018D01*
X86375000Y-64000000D01*
X87212500Y-64000000D01*
X87212500Y-62500000D01*
X86375001Y-62500000D01*
X86375001Y-62774980D01*
X86385493Y-62877693D01*
X86440642Y-63044122D01*
X86532682Y-63193343D01*
X86554691Y-63215352D01*
X86569043Y-63250000D01*
X86554691Y-63284648D01*
X86532682Y-63306656D01*
X86440642Y-63455877D01*
X86385493Y-63622306D01*
X86375000Y-63725018D01*
X75624587Y-63725018D01*
X75624579Y-63724259D01*
X75621368Y-63399985D01*
X75635376Y-63365197D01*
X75669881Y-63350502D01*
X75670366Y-63350500D01*
X83667930Y-63350500D01*
X83667946Y-63350501D01*
X83670943Y-63350501D01*
X83829059Y-63350501D01*
X83905421Y-63330039D01*
X83981785Y-63309577D01*
X83986845Y-63306656D01*
X84041660Y-63275008D01*
X84118716Y-63230520D01*
X84230520Y-63118716D01*
X84230520Y-63118714D01*
X84234549Y-63114686D01*
X84234552Y-63114681D01*
X86234384Y-61114852D01*
X86269032Y-61100500D01*
X86620543Y-61100500D01*
X86655191Y-61114852D01*
X86669543Y-61149500D01*
X86655191Y-61184148D01*
X86532682Y-61306656D01*
X86440642Y-61455877D01*
X86385493Y-61622306D01*
X86375000Y-61725018D01*
X86375000Y-62000000D01*
X87413500Y-62000000D01*
X87448148Y-62014352D01*
X87462500Y-62049000D01*
X87462500Y-62250000D01*
X87663500Y-62250000D01*
X87698148Y-62264352D01*
X87712500Y-62299000D01*
X87712500Y-65480604D01*
X87722888Y-65505683D01*
X87708536Y-65540331D01*
X87701111Y-65546425D01*
X87604225Y-65611161D01*
X87595756Y-65615688D01*
X87572162Y-65625462D01*
X87572154Y-65625467D01*
X87446718Y-65721717D01*
X87446717Y-65721718D01*
X87350467Y-65847153D01*
X87350464Y-65847159D01*
X87347616Y-65854033D01*
X87336996Y-65869924D01*
X86952211Y-66254711D01*
X86840710Y-66366211D01*
X86753104Y-66497324D01*
X86692763Y-66643001D01*
X86692760Y-66643012D01*
X86662000Y-66797652D01*
X86662000Y-67406335D01*
X86647648Y-67440983D01*
X86532287Y-67556344D01*
X86440186Y-67705665D01*
X86385000Y-67872205D01*
X86374500Y-67974988D01*
X86374500Y-69025010D01*
X86385000Y-69127794D01*
X86440186Y-69294334D01*
X86532287Y-69443655D01*
X86647648Y-69559016D01*
X86662000Y-69593664D01*
X86662000Y-69906335D01*
X86647648Y-69940983D01*
X86532287Y-70056344D01*
X86440186Y-70205665D01*
X86385000Y-70372205D01*
X86374500Y-70474988D01*
X86374500Y-71525010D01*
X86385000Y-71627794D01*
X86440186Y-71794334D01*
X86532285Y-71943652D01*
X86532288Y-71943656D01*
X86656344Y-72067712D01*
X86805666Y-72159814D01*
X86972203Y-72214999D01*
X87074991Y-72225500D01*
X87850008Y-72225499D01*
X87850010Y-72225499D01*
X87891123Y-72221299D01*
X87952797Y-72214999D01*
X88119334Y-72159814D01*
X88268656Y-72067712D01*
X88392712Y-71943656D01*
X88392713Y-71943653D01*
X88392715Y-71943652D01*
X88458588Y-71836853D01*
X88488992Y-71814897D01*
X88526016Y-71820871D01*
X88541998Y-71836852D01*
X88607682Y-71943343D01*
X88731656Y-72067317D01*
X88880877Y-72159357D01*
X89047306Y-72214506D01*
X89150018Y-72224999D01*
X89287499Y-72224999D01*
X89787500Y-72224999D01*
X89924980Y-72224999D01*
X90027693Y-72214506D01*
X90194122Y-72159357D01*
X90343343Y-72067317D01*
X90467317Y-71943343D01*
X90559357Y-71794122D01*
X90614506Y-71627693D01*
X90625000Y-71524981D01*
X90625000Y-71250000D01*
X89787500Y-71250000D01*
X89787500Y-72224999D01*
X89287499Y-72224999D01*
X89287500Y-72224998D01*
X89287500Y-69761355D01*
X89282796Y-69749999D01*
X89287500Y-69738642D01*
X89787500Y-69738642D01*
X89792204Y-69749999D01*
X89787500Y-69761357D01*
X89787500Y-70750000D01*
X90624999Y-70750000D01*
X90624999Y-70475019D01*
X90614506Y-70372306D01*
X90559357Y-70205877D01*
X90467317Y-70056656D01*
X90343343Y-69932682D01*
X90194122Y-69840642D01*
X90060947Y-69796513D01*
X90032572Y-69771991D01*
X90029847Y-69734587D01*
X90054369Y-69706212D01*
X90060947Y-69703487D01*
X90194122Y-69659357D01*
X90343343Y-69567317D01*
X90467317Y-69443343D01*
X90559357Y-69294122D01*
X90614506Y-69127693D01*
X90625000Y-69024981D01*
X90625000Y-68750000D01*
X89787500Y-68750000D01*
X89787500Y-69738642D01*
X89287500Y-69738642D01*
X89287500Y-68250000D01*
X89787500Y-68250000D01*
X90624999Y-68250000D01*
X90624999Y-67975019D01*
X90614506Y-67872306D01*
X90559357Y-67705877D01*
X90467317Y-67556656D01*
X90343343Y-67432682D01*
X90194122Y-67340642D01*
X90027693Y-67285493D01*
X89924981Y-67275000D01*
X89787500Y-67275000D01*
X89787500Y-68250000D01*
X89287500Y-68250000D01*
X89287500Y-67275000D01*
X89150019Y-67275000D01*
X89047306Y-67285493D01*
X88880877Y-67340642D01*
X88731656Y-67432682D01*
X88607682Y-67556656D01*
X88541998Y-67663147D01*
X88511593Y-67685102D01*
X88474569Y-67679128D01*
X88458588Y-67663146D01*
X88392715Y-67556347D01*
X88392712Y-67556344D01*
X88277352Y-67440983D01*
X88263000Y-67406335D01*
X88263000Y-67228373D01*
X88277351Y-67193726D01*
X88494431Y-66976645D01*
X88529078Y-66962294D01*
X88547824Y-66966022D01*
X88677503Y-67019737D01*
X88677509Y-67019738D01*
X88677512Y-67019739D01*
X88832152Y-67050499D01*
X88832158Y-67050500D01*
X88989842Y-67050500D01*
X89144497Y-67019737D01*
X89290179Y-66959394D01*
X89395780Y-66888832D01*
X89404235Y-66884313D01*
X89427841Y-66874536D01*
X89553282Y-66778282D01*
X89649536Y-66652841D01*
X89710044Y-66506762D01*
X89725500Y-66389361D01*
X89725499Y-66110640D01*
X89711919Y-66007480D01*
X89711500Y-66001085D01*
X89711500Y-65524499D01*
X89725852Y-65489851D01*
X89760500Y-65475499D01*
X89925010Y-65475499D01*
X89966123Y-65471299D01*
X90027797Y-65464999D01*
X90194334Y-65409814D01*
X90343656Y-65317712D01*
X90467712Y-65193656D01*
X90559814Y-65044334D01*
X90614999Y-64877797D01*
X90625500Y-64775009D01*
X90625499Y-63724992D01*
X90625164Y-63721717D01*
X90615332Y-63625461D01*
X90614999Y-63622203D01*
X90559814Y-63455666D01*
X90467712Y-63306344D01*
X90446016Y-63284648D01*
X90431664Y-63250000D01*
X90446016Y-63215352D01*
X90454327Y-63207041D01*
X90467712Y-63193656D01*
X90541654Y-63073775D01*
X90572058Y-63051821D01*
X90583359Y-63050500D01*
X91578842Y-63050500D01*
X91733497Y-63019737D01*
X91879179Y-62959394D01*
X92010289Y-62871789D01*
X92121789Y-62760289D01*
X92209394Y-62629179D01*
X92269737Y-62483497D01*
X92300500Y-62328842D01*
X92300500Y-62171158D01*
X92297627Y-62156715D01*
X92269739Y-62016512D01*
X92269736Y-62016501D01*
X92262901Y-62000000D01*
X92209394Y-61870821D01*
X92121789Y-61739711D01*
X92010289Y-61628211D01*
X92001297Y-61622203D01*
X91966978Y-61599271D01*
X91879179Y-61540606D01*
X91879176Y-61540604D01*
X91879175Y-61540604D01*
X91733498Y-61480263D01*
X91733487Y-61480260D01*
X91578847Y-61449500D01*
X91578842Y-61449500D01*
X90583359Y-61449500D01*
X90548711Y-61435148D01*
X90541654Y-61426224D01*
X90494947Y-61350500D01*
X90467712Y-61306344D01*
X90345516Y-61184148D01*
X90331164Y-61149500D01*
X90345516Y-61114852D01*
X90380164Y-61100500D01*
X93329060Y-61100500D01*
X93329060Y-61100499D01*
X93481784Y-61059577D01*
X93618716Y-60980520D01*
X93730520Y-60868716D01*
X93747218Y-60839792D01*
X93809576Y-60731786D01*
X93809576Y-60731785D01*
X93809577Y-60731784D01*
X93850499Y-60579060D01*
X93850500Y-60579060D01*
X93850500Y-60164499D01*
X93864852Y-60129851D01*
X93899500Y-60115499D01*
X93932878Y-60115499D01*
X93992478Y-60109092D01*
X93992479Y-60109091D01*
X93992483Y-60109091D01*
X94127331Y-60058796D01*
X94140366Y-60049037D01*
X94176702Y-60039761D01*
X94204379Y-60053615D01*
X94685148Y-60534383D01*
X94699500Y-60569031D01*
X94699500Y-60578847D01*
X94730260Y-60733487D01*
X94730263Y-60733497D01*
X94790606Y-60879179D01*
X94797409Y-60889360D01*
X94875853Y-61006761D01*
X94878211Y-61010289D01*
X94989711Y-61121789D01*
X95120821Y-61209394D01*
X95266503Y-61269737D01*
X95266509Y-61269738D01*
X95266512Y-61269739D01*
X95421152Y-61300499D01*
X95421158Y-61300500D01*
X95578842Y-61300500D01*
X95733497Y-61269737D01*
X95879179Y-61209394D01*
X96010289Y-61121789D01*
X96121789Y-61010289D01*
X96209394Y-60879179D01*
X96269737Y-60733497D01*
X96300500Y-60578842D01*
X96300500Y-60421158D01*
X96269737Y-60266503D01*
X96209394Y-60120821D01*
X96121789Y-59989711D01*
X96010289Y-59878211D01*
X96010288Y-59878210D01*
X96010289Y-59878210D01*
X95976041Y-59855327D01*
X95955205Y-59824144D01*
X95962522Y-59787362D01*
X95984510Y-59769317D01*
X96129179Y-59709394D01*
X96260289Y-59621789D01*
X96371789Y-59510289D01*
X96459394Y-59379179D01*
X96519737Y-59233497D01*
X96550500Y-59078842D01*
X96550500Y-58921158D01*
X96536031Y-58848416D01*
X96519739Y-58766512D01*
X96519736Y-58766501D01*
X96458536Y-58618749D01*
X96458536Y-58618717D01*
X96458513Y-58618694D01*
X96458536Y-58599942D01*
X96458536Y-58581246D01*
X96458559Y-58581191D01*
X96458766Y-58580693D01*
X96485317Y-58554207D01*
X96504013Y-58550500D01*
X96578842Y-58550500D01*
X96733497Y-58519737D01*
X96879179Y-58459394D01*
X97010289Y-58371789D01*
X97121789Y-58260289D01*
X97159758Y-58203463D01*
X97190940Y-58182629D01*
X97227723Y-58189945D01*
X97248558Y-58221127D01*
X97249500Y-58230687D01*
X97249500Y-63381908D01*
X97249500Y-63618092D01*
X97250667Y-63625461D01*
X97286446Y-63851365D01*
X97286447Y-63851368D01*
X97359432Y-64075993D01*
X97466653Y-64286428D01*
X97466656Y-64286432D01*
X97466657Y-64286434D01*
X97605483Y-64477510D01*
X97605485Y-64477512D01*
X97605488Y-64477516D01*
X100022484Y-66894513D01*
X100022488Y-66894516D01*
X100022490Y-66894518D01*
X100194840Y-67019737D01*
X100213567Y-67033343D01*
X100251175Y-67052505D01*
X100252416Y-67053233D01*
X100262923Y-67067123D01*
X100274228Y-67080358D01*
X100274106Y-67081905D01*
X100275042Y-67083142D01*
X100272650Y-67100392D01*
X100271285Y-67117745D01*
X100270106Y-67118751D01*
X100269893Y-67120290D01*
X100256002Y-67130797D01*
X100242768Y-67142102D01*
X100240607Y-67142444D01*
X100239984Y-67142916D01*
X100238727Y-67142741D01*
X100227626Y-67144500D01*
X94500000Y-67144500D01*
X94463725Y-67145587D01*
X94463718Y-67145588D01*
X94308523Y-67175571D01*
X94308521Y-67175572D01*
X94166374Y-67244702D01*
X94046964Y-67348267D01*
X93958420Y-67479218D01*
X88958426Y-77479207D01*
X88958424Y-77479212D01*
X88915132Y-77593283D01*
X88915132Y-77593284D01*
X88915132Y-77593285D01*
X88894500Y-77750000D01*
X88894500Y-82250000D01*
X88902288Y-82309158D01*
X88915131Y-82406714D01*
X88975619Y-82552745D01*
X88975622Y-82552750D01*
X89071847Y-82678153D01*
X89197250Y-82774378D01*
X89197252Y-82774378D01*
X89197254Y-82774380D01*
X89343285Y-82834868D01*
X89500000Y-82855500D01*
X89500004Y-82855500D01*
X94940543Y-82855500D01*
X94975191Y-82869852D01*
X94989543Y-82904500D01*
X94975191Y-82939148D01*
X94932682Y-82981656D01*
X94840642Y-83130877D01*
X94785493Y-83297306D01*
X94775000Y-83400018D01*
X94775000Y-83537500D01*
X105224999Y-83537500D01*
X105224999Y-83400019D01*
X105214506Y-83297306D01*
X105159357Y-83130877D01*
X105067317Y-82981656D01*
X105024809Y-82939148D01*
X105010457Y-82904500D01*
X105024809Y-82869852D01*
X105059457Y-82855500D01*
X105499996Y-82855500D01*
X105500000Y-82855500D01*
X105656715Y-82834868D01*
X105802750Y-82774378D01*
X105928153Y-82678153D01*
X106024378Y-82552750D01*
X106084868Y-82406715D01*
X106105500Y-82250000D01*
X106105500Y-77801015D01*
X106442500Y-77801015D01*
X106442500Y-78198984D01*
X106477185Y-78595441D01*
X106546292Y-78987366D01*
X106546293Y-78987371D01*
X106649291Y-79371765D01*
X106785406Y-79745737D01*
X106785412Y-79745751D01*
X106953599Y-80106428D01*
X107152577Y-80451071D01*
X107152583Y-80451080D01*
X107380841Y-80777066D01*
X107380845Y-80777071D01*
X107603739Y-81042706D01*
X108918314Y-79728131D01*
X108979860Y-79805307D01*
X109194693Y-80020140D01*
X109271867Y-80081684D01*
X107957292Y-81396259D01*
X108222928Y-81619154D01*
X108222933Y-81619158D01*
X108548919Y-81847416D01*
X108548928Y-81847422D01*
X108893571Y-82046400D01*
X109254248Y-82214587D01*
X109254262Y-82214593D01*
X109628234Y-82350708D01*
X110012628Y-82453706D01*
X110012633Y-82453707D01*
X110404558Y-82522814D01*
X110801015Y-82557499D01*
X110801020Y-82557500D01*
X111198980Y-82557500D01*
X111198984Y-82557499D01*
X111595441Y-82522814D01*
X111987366Y-82453707D01*
X111987371Y-82453706D01*
X112371765Y-82350708D01*
X112745737Y-82214593D01*
X112745751Y-82214587D01*
X113106428Y-82046400D01*
X113451071Y-81847422D01*
X113451080Y-81847416D01*
X113777066Y-81619158D01*
X113777071Y-81619154D01*
X114042706Y-81396259D01*
X112728131Y-80081685D01*
X112805307Y-80020140D01*
X113020140Y-79805307D01*
X113081685Y-79728132D01*
X114396259Y-81042706D01*
X114619154Y-80777071D01*
X114619158Y-80777066D01*
X114847053Y-80451599D01*
X114847056Y-80451597D01*
X114847058Y-80451591D01*
X114847423Y-80451068D01*
X115046400Y-80106428D01*
X115214587Y-79745751D01*
X115214593Y-79745737D01*
X115350708Y-79371766D01*
X115355960Y-79352165D01*
X117400000Y-79352165D01*
X117400000Y-80000000D01*
X118316988Y-80000000D01*
X118284075Y-80057007D01*
X118250000Y-80184174D01*
X118250000Y-80315826D01*
X118284075Y-80442993D01*
X118316988Y-80500000D01*
X117400000Y-80500000D01*
X117400000Y-81147834D01*
X117406401Y-81207372D01*
X117406401Y-81207373D01*
X117456648Y-81342091D01*
X117542811Y-81457188D01*
X117657908Y-81543351D01*
X117792626Y-81593598D01*
X117852166Y-81600000D01*
X118500000Y-81600000D01*
X118500000Y-80683012D01*
X118557007Y-80715925D01*
X118684174Y-80750000D01*
X118815826Y-80750000D01*
X118942993Y-80715925D01*
X119000000Y-80683012D01*
X119000000Y-81600000D01*
X119647834Y-81600000D01*
X119707372Y-81593598D01*
X119707373Y-81593598D01*
X119842091Y-81543351D01*
X119957188Y-81457188D01*
X120043351Y-81342091D01*
X120093598Y-81207373D01*
X120093598Y-81207372D01*
X120100000Y-81147834D01*
X120100000Y-80500000D01*
X119183012Y-80500000D01*
X119215925Y-80442993D01*
X119250000Y-80315826D01*
X119250000Y-80184174D01*
X119215925Y-80057007D01*
X119183012Y-80000000D01*
X120100000Y-80000000D01*
X120100000Y-79352165D01*
X120093598Y-79292627D01*
X120093598Y-79292626D01*
X120043351Y-79157908D01*
X119957188Y-79042811D01*
X119842091Y-78956648D01*
X119707373Y-78906401D01*
X119647834Y-78900000D01*
X119000000Y-78900000D01*
X119000000Y-79816988D01*
X118942993Y-79784075D01*
X118815826Y-79750000D01*
X118684174Y-79750000D01*
X118557007Y-79784075D01*
X118500000Y-79816988D01*
X118500000Y-78900000D01*
X117852166Y-78900000D01*
X117792627Y-78906401D01*
X117792626Y-78906401D01*
X117657908Y-78956648D01*
X117542811Y-79042811D01*
X117456648Y-79157908D01*
X117406401Y-79292626D01*
X117406401Y-79292627D01*
X117400000Y-79352165D01*
X115355960Y-79352165D01*
X115359708Y-79338178D01*
X115453706Y-78987371D01*
X115453707Y-78987366D01*
X115522814Y-78595441D01*
X115557499Y-78198984D01*
X115557500Y-78198979D01*
X115557500Y-77801020D01*
X115557499Y-77801015D01*
X115522814Y-77404558D01*
X115453707Y-77012633D01*
X115453706Y-77012628D01*
X115350708Y-76628234D01*
X115214593Y-76254262D01*
X115214587Y-76254248D01*
X115046400Y-75893571D01*
X114847422Y-75548928D01*
X114847416Y-75548919D01*
X114619158Y-75222933D01*
X114619154Y-75222928D01*
X114396259Y-74957292D01*
X113081684Y-76271867D01*
X113020140Y-76194693D01*
X112805307Y-75979860D01*
X112728130Y-75918314D01*
X114042706Y-74603739D01*
X113777071Y-74380845D01*
X113777066Y-74380841D01*
X113451080Y-74152583D01*
X113451071Y-74152577D01*
X113106428Y-73953599D01*
X112745751Y-73785412D01*
X112745737Y-73785406D01*
X112371765Y-73649291D01*
X111987371Y-73546293D01*
X111987366Y-73546292D01*
X111595441Y-73477185D01*
X111198984Y-73442500D01*
X110801015Y-73442500D01*
X110404558Y-73477185D01*
X110012633Y-73546292D01*
X110012628Y-73546293D01*
X109628234Y-73649291D01*
X109254262Y-73785406D01*
X109254248Y-73785412D01*
X108893571Y-73953599D01*
X108548928Y-74152577D01*
X108548919Y-74152583D01*
X108222946Y-74380833D01*
X108222917Y-74380855D01*
X107957292Y-74603739D01*
X109271867Y-75918314D01*
X109194693Y-75979860D01*
X108979860Y-76194693D01*
X108918314Y-76271867D01*
X107603739Y-74957292D01*
X107380855Y-75222917D01*
X107380833Y-75222946D01*
X107152583Y-75548919D01*
X107152577Y-75548928D01*
X106953599Y-75893571D01*
X106785412Y-76254248D01*
X106785406Y-76254262D01*
X106649291Y-76628234D01*
X106546293Y-77012628D01*
X106546292Y-77012633D01*
X106477185Y-77404558D01*
X106442500Y-77801015D01*
X106105500Y-77801015D01*
X106105500Y-71299500D01*
X106119852Y-71264852D01*
X106154500Y-71250500D01*
X125668091Y-71250500D01*
X125668092Y-71250500D01*
X125901368Y-71213553D01*
X126125992Y-71140568D01*
X126184335Y-71110841D01*
X126206580Y-71105500D01*
X126499996Y-71105500D01*
X126500000Y-71105500D01*
X126656715Y-71084868D01*
X126802750Y-71024378D01*
X126928153Y-70928153D01*
X137928153Y-59928153D01*
X138024378Y-59802750D01*
X138084868Y-59656715D01*
X138105500Y-59500000D01*
X138105500Y-58329716D01*
X138119852Y-58295068D01*
X141665852Y-54749068D01*
X141700500Y-54734716D01*
X141735148Y-54749068D01*
X141749500Y-54783716D01*
X141749500Y-54868092D01*
X141749599Y-54868716D01*
X141786446Y-55101365D01*
X141786447Y-55101368D01*
X141859432Y-55325993D01*
X141966653Y-55536428D01*
X141966656Y-55536432D01*
X141966657Y-55536434D01*
X142105483Y-55727510D01*
X142105485Y-55727512D01*
X142105488Y-55727516D01*
X142272483Y-55894511D01*
X142272486Y-55894513D01*
X142272490Y-55894517D01*
X142463566Y-56033343D01*
X142463568Y-56033344D01*
X142463571Y-56033346D01*
X142674006Y-56140567D01*
X142674008Y-56140568D01*
X142898632Y-56213553D01*
X143131908Y-56250500D01*
X143131909Y-56250500D01*
X143368091Y-56250500D01*
X143368092Y-56250500D01*
X143601368Y-56213553D01*
X143825992Y-56140568D01*
X144036434Y-56033343D01*
X144227510Y-55894517D01*
X147244518Y-52877510D01*
X147383343Y-52686433D01*
X147490568Y-52475992D01*
X147563553Y-52251368D01*
X147600500Y-52018092D01*
X147600500Y-51781908D01*
X147563553Y-51548631D01*
X147490568Y-51324008D01*
X147383343Y-51113566D01*
X147343470Y-51058686D01*
X147334450Y-51035616D01*
X147219754Y-50060839D01*
X147212633Y-50015318D01*
X147162290Y-49865482D01*
X147074882Y-49733781D01*
X147074879Y-49733777D01*
X146842053Y-49466618D01*
X146842041Y-49466605D01*
X146755870Y-49385360D01*
X146755861Y-49385352D01*
X146719533Y-49357271D01*
X146700897Y-49324726D01*
X146700500Y-49318503D01*
X146700500Y-49179941D01*
X146692170Y-49148855D01*
X146690500Y-49136172D01*
X146690500Y-49123257D01*
X146674978Y-49065333D01*
X146660870Y-49012681D01*
X146660870Y-48987317D01*
X146661894Y-48983498D01*
X146690500Y-48876741D01*
X146690500Y-48863827D01*
X146692170Y-48851144D01*
X146700500Y-48820058D01*
X146700500Y-48476014D01*
X146700501Y-48476001D01*
X146700501Y-48313941D01*
X146680610Y-48239711D01*
X146659577Y-48161216D01*
X146659576Y-48161214D01*
X146659576Y-48161213D01*
X146612065Y-48078921D01*
X146605500Y-48054421D01*
X146605500Y-47750003D01*
X146605500Y-47750000D01*
X146602419Y-47726596D01*
X146602000Y-47720201D01*
X146602000Y-46454237D01*
X146603670Y-46441554D01*
X146609136Y-46421158D01*
X146632137Y-46335317D01*
X146641000Y-46302242D01*
X146641000Y-46030327D01*
X146642670Y-46017644D01*
X146651000Y-45986558D01*
X146651000Y-45383514D01*
X146651001Y-45383501D01*
X146651001Y-45221441D01*
X146631183Y-45147483D01*
X146610077Y-45068716D01*
X146610076Y-45068714D01*
X146610076Y-45068713D01*
X146531024Y-44931790D01*
X146531021Y-44931787D01*
X146531020Y-44931784D01*
X146453740Y-44854504D01*
X146449521Y-44849694D01*
X146428153Y-44821847D01*
X145537406Y-43931100D01*
X145525569Y-43911947D01*
X145324433Y-43308540D01*
X145324428Y-43308524D01*
X145316664Y-43287369D01*
X145311925Y-43274455D01*
X145311921Y-43274448D01*
X145298164Y-43250003D01*
X145234400Y-43136700D01*
X144484400Y-42136700D01*
X144457330Y-42105488D01*
X144428153Y-42071846D01*
X144428152Y-42071845D01*
X144302750Y-41975622D01*
X144302745Y-41975619D01*
X144156714Y-41915131D01*
X144071474Y-41903909D01*
X144055625Y-41898988D01*
X144051988Y-41897135D01*
X143977992Y-41859432D01*
X143977989Y-41859431D01*
X143977987Y-41859430D01*
X143951175Y-41850718D01*
X143936965Y-41846101D01*
X143908449Y-41821746D01*
X143905506Y-41784358D01*
X143929862Y-41755841D01*
X143952108Y-41750500D01*
X151200500Y-41750500D01*
X151235148Y-41764852D01*
G37*
%TD.AperFunction*%
%TA.AperFunction,Conductor*%
G36*
X140799966Y-44764852D02*
G01*
X140814318Y-44799500D01*
X140799966Y-44834148D01*
X140774877Y-44847558D01*
X140618012Y-44878760D01*
X140618001Y-44878763D01*
X140472324Y-44939104D01*
X140341211Y-45026710D01*
X139378210Y-45989711D01*
X139290604Y-46120824D01*
X139230263Y-46266501D01*
X139230260Y-46266512D01*
X139199500Y-46421152D01*
X139199500Y-46578847D01*
X139230260Y-46733487D01*
X139230263Y-46733498D01*
X139290604Y-46879175D01*
X139290606Y-46879179D01*
X139378211Y-47010289D01*
X139489711Y-47121789D01*
X139620821Y-47209394D01*
X139766503Y-47269737D01*
X139766509Y-47269738D01*
X139766512Y-47269739D01*
X139921152Y-47300499D01*
X139921158Y-47300500D01*
X140078842Y-47300500D01*
X140233497Y-47269737D01*
X140379179Y-47209394D01*
X140510289Y-47121789D01*
X140621789Y-47010289D01*
X141070244Y-46561833D01*
X141095278Y-46548435D01*
X141629688Y-46441554D01*
X142118731Y-46343746D01*
X142119715Y-46343515D01*
X142156715Y-46334868D01*
X142234303Y-46302729D01*
X142253054Y-46299000D01*
X144222050Y-46299000D01*
X144256698Y-46313352D01*
X144269380Y-46335317D01*
X144300708Y-46452231D01*
X144300708Y-46452233D01*
X144378383Y-46586768D01*
X144488231Y-46696616D01*
X144622766Y-46774291D01*
X144622770Y-46774292D01*
X144760499Y-46811197D01*
X144760500Y-46811197D01*
X144760500Y-46687888D01*
X144774852Y-46653240D01*
X144809500Y-46638888D01*
X144844148Y-46653240D01*
X144887925Y-46697017D01*
X144916001Y-46713226D01*
X144938830Y-46742977D01*
X144940500Y-46755660D01*
X144940500Y-46811196D01*
X145036850Y-46785379D01*
X145062214Y-46785379D01*
X145123253Y-46801734D01*
X145172757Y-46815000D01*
X145172759Y-46815000D01*
X145328241Y-46815000D01*
X145339317Y-46812032D01*
X145376498Y-46816926D01*
X145399330Y-46846678D01*
X145401000Y-46859362D01*
X145401000Y-47472397D01*
X145386648Y-47507045D01*
X145071852Y-47821840D01*
X145071842Y-47821851D01*
X144975622Y-47947249D01*
X144975621Y-47947252D01*
X144938384Y-48037147D01*
X144927763Y-48053043D01*
X144902657Y-48078148D01*
X144868011Y-48092500D01*
X144822256Y-48092500D01*
X144672077Y-48132741D01*
X144672073Y-48132742D01*
X144537424Y-48210483D01*
X144537424Y-48210484D01*
X144427484Y-48320424D01*
X144427483Y-48320424D01*
X144349742Y-48455073D01*
X144349741Y-48455077D01*
X144309500Y-48605256D01*
X144309500Y-48877172D01*
X144307830Y-48889855D01*
X144299500Y-48920941D01*
X144299500Y-49280054D01*
X144285148Y-49314702D01*
X144277723Y-49320796D01*
X144237221Y-49347858D01*
X144237220Y-49347859D01*
X125349932Y-68235148D01*
X125315284Y-68249500D01*
X106154500Y-68249500D01*
X106119852Y-68235148D01*
X106105500Y-68200500D01*
X106105500Y-67750003D01*
X106094065Y-67663147D01*
X106084868Y-67593285D01*
X106069568Y-67556347D01*
X106024380Y-67447254D01*
X106024377Y-67447249D01*
X106013199Y-67432682D01*
X105933893Y-67329328D01*
X105924187Y-67293104D01*
X105942939Y-67260626D01*
X105972768Y-67250500D01*
X115118091Y-67250500D01*
X115118092Y-67250500D01*
X115351368Y-67213553D01*
X115575992Y-67140568D01*
X115786433Y-67033343D01*
X115950254Y-66914320D01*
X120300001Y-66914320D01*
X120315443Y-67031630D01*
X120375898Y-67177584D01*
X120375901Y-67177589D01*
X120472074Y-67302924D01*
X120472075Y-67302925D01*
X120597410Y-67399098D01*
X120597415Y-67399101D01*
X120743365Y-67459554D01*
X120743373Y-67459556D01*
X120799998Y-67467011D01*
X120800000Y-67467010D01*
X120800000Y-66857500D01*
X120300001Y-66857500D01*
X120300001Y-66914320D01*
X115950254Y-66914320D01*
X115977510Y-66894517D01*
X116014527Y-66857500D01*
X116069472Y-66802556D01*
X116144511Y-66727516D01*
X116144517Y-66727510D01*
X116283343Y-66536433D01*
X116390568Y-66325992D01*
X116463553Y-66101368D01*
X116500500Y-65868092D01*
X116500500Y-65631908D01*
X116463553Y-65398632D01*
X116390568Y-65174008D01*
X116348783Y-65092000D01*
X116283346Y-64963572D01*
X116283344Y-64963569D01*
X116283343Y-64963567D01*
X116144517Y-64772490D01*
X116144513Y-64772486D01*
X116144511Y-64772483D01*
X116061175Y-64689148D01*
X116046823Y-64654500D01*
X116061175Y-64619852D01*
X116095823Y-64605500D01*
X116999996Y-64605500D01*
X117000000Y-64605500D01*
X117156715Y-64584868D01*
X117302750Y-64524378D01*
X117428153Y-64428153D01*
X117461127Y-64385179D01*
X117493604Y-64366429D01*
X117529829Y-64376135D01*
X117538868Y-64385174D01*
X117571847Y-64428153D01*
X117571849Y-64428155D01*
X117636170Y-64477510D01*
X117697250Y-64524378D01*
X117697252Y-64524378D01*
X117697254Y-64524380D01*
X117804025Y-64568606D01*
X117843285Y-64584868D01*
X118000000Y-64605500D01*
X118000004Y-64605500D01*
X120000000Y-64605500D01*
X120036279Y-64604412D01*
X120191476Y-64574428D01*
X120249984Y-64545972D01*
X120287416Y-64543725D01*
X120315477Y-64568606D01*
X120316682Y-64571286D01*
X120350463Y-64652839D01*
X120350464Y-64652841D01*
X120444206Y-64775009D01*
X120446718Y-64778282D01*
X120572159Y-64874536D01*
X120572161Y-64874536D01*
X120572163Y-64874538D01*
X120684999Y-64921276D01*
X120718238Y-64935044D01*
X120760172Y-64940564D01*
X120792651Y-64959315D01*
X120802358Y-64995540D01*
X120783607Y-65028019D01*
X120760173Y-65037726D01*
X120743238Y-65039955D01*
X120626597Y-65088270D01*
X120607846Y-65092000D01*
X119720959Y-65092000D01*
X119693736Y-65083742D01*
X119661788Y-65062395D01*
X119629179Y-65040606D01*
X119629176Y-65040604D01*
X119629175Y-65040604D01*
X119483498Y-64980263D01*
X119483487Y-64980260D01*
X119328847Y-64949500D01*
X119328842Y-64949500D01*
X119171158Y-64949500D01*
X119171152Y-64949500D01*
X119016512Y-64980260D01*
X119016501Y-64980263D01*
X118870824Y-65040604D01*
X118739711Y-65128210D01*
X118628210Y-65239711D01*
X118540604Y-65370824D01*
X118480263Y-65516501D01*
X118480260Y-65516512D01*
X118449500Y-65671152D01*
X118449500Y-65828847D01*
X118480260Y-65983487D01*
X118480263Y-65983498D01*
X118540604Y-66129175D01*
X118540606Y-66129179D01*
X118628211Y-66260289D01*
X118739711Y-66371789D01*
X118870821Y-66459394D01*
X118917242Y-66478622D01*
X118984216Y-66506363D01*
X118985335Y-66506892D01*
X118987003Y-66507583D01*
X118987005Y-66507584D01*
X119056638Y-66536427D01*
X119123584Y-66564157D01*
X119123585Y-66564157D01*
X119123587Y-66564158D01*
X119268582Y-66593000D01*
X120607846Y-66593000D01*
X120626597Y-66596730D01*
X120729513Y-66639359D01*
X120743238Y-66645044D01*
X120860639Y-66660500D01*
X121139360Y-66660499D01*
X121144605Y-66659808D01*
X121180828Y-66669514D01*
X121199581Y-66701992D01*
X121200000Y-66708389D01*
X121200000Y-67467010D01*
X121200001Y-67467011D01*
X121256626Y-67459556D01*
X121256634Y-67459554D01*
X121402584Y-67399101D01*
X121402589Y-67399098D01*
X121527924Y-67302925D01*
X121527925Y-67302924D01*
X121624098Y-67177589D01*
X121624101Y-67177584D01*
X121666951Y-67074133D01*
X121693469Y-67047614D01*
X121730972Y-67047614D01*
X121746868Y-67058235D01*
X121771584Y-67082951D01*
X121894505Y-67165084D01*
X121942688Y-67185042D01*
X122031084Y-67221657D01*
X122031085Y-67221657D01*
X122031087Y-67221658D01*
X122176082Y-67250500D01*
X122983918Y-67250500D01*
X123128913Y-67221658D01*
X123180154Y-67200432D01*
X123192510Y-67197122D01*
X123284262Y-67185044D01*
X123298747Y-67179044D01*
X123336248Y-67179042D01*
X123350738Y-67185044D01*
X123442497Y-67197123D01*
X123454842Y-67200431D01*
X123506087Y-67221658D01*
X123651082Y-67250500D01*
X123798918Y-67250500D01*
X123943913Y-67221658D01*
X123995154Y-67200432D01*
X124007510Y-67197122D01*
X124099262Y-67185044D01*
X124245341Y-67124536D01*
X124370782Y-67028282D01*
X124467036Y-66902841D01*
X124527544Y-66756762D01*
X124543000Y-66639361D01*
X124542999Y-66360640D01*
X124527544Y-66243238D01*
X124479230Y-66126597D01*
X124475500Y-66107846D01*
X124475500Y-65993582D01*
X124475499Y-65993578D01*
X124450537Y-65868091D01*
X124446658Y-65848587D01*
X124438481Y-65828847D01*
X124390085Y-65712008D01*
X124390084Y-65712005D01*
X124307951Y-65589084D01*
X124203416Y-65484549D01*
X122715478Y-63996610D01*
X122704856Y-63980713D01*
X122649538Y-63847163D01*
X122649535Y-63847158D01*
X122593688Y-63774377D01*
X122553282Y-63721718D01*
X122427841Y-63625464D01*
X122427836Y-63625461D01*
X122281761Y-63564955D01*
X122190003Y-63552875D01*
X122177648Y-63549564D01*
X122126411Y-63528341D01*
X122126404Y-63528339D01*
X121981420Y-63499500D01*
X121981417Y-63499500D01*
X121833583Y-63499500D01*
X121833579Y-63499500D01*
X121688595Y-63528340D01*
X121688591Y-63528341D01*
X121688589Y-63528341D01*
X121688588Y-63528342D01*
X121668465Y-63536676D01*
X121637346Y-63549566D01*
X121624992Y-63552876D01*
X121533240Y-63564955D01*
X121533238Y-63564956D01*
X121520718Y-63570142D01*
X121518750Y-63570957D01*
X121481248Y-63570956D01*
X121479280Y-63570141D01*
X121463387Y-63559520D01*
X121110908Y-63207041D01*
X121096556Y-63172393D01*
X121101728Y-63150481D01*
X121541576Y-62270788D01*
X121584868Y-62156715D01*
X121605500Y-62000000D01*
X121605500Y-61852165D01*
X124650000Y-61852165D01*
X124650000Y-62500000D01*
X125566988Y-62500000D01*
X125534075Y-62557007D01*
X125500000Y-62684174D01*
X125500000Y-62815826D01*
X125534075Y-62942993D01*
X125566988Y-63000000D01*
X124650000Y-63000000D01*
X124650000Y-63647834D01*
X124656401Y-63707372D01*
X124656401Y-63707373D01*
X124706648Y-63842091D01*
X124792811Y-63957188D01*
X124907908Y-64043351D01*
X125042626Y-64093598D01*
X125102166Y-64100000D01*
X125750000Y-64100000D01*
X125750000Y-63183012D01*
X125807007Y-63215925D01*
X125934174Y-63250000D01*
X126065826Y-63250000D01*
X126192993Y-63215925D01*
X126250000Y-63183012D01*
X126250000Y-64100000D01*
X126897834Y-64100000D01*
X126957372Y-64093598D01*
X126957373Y-64093598D01*
X127092091Y-64043351D01*
X127207188Y-63957188D01*
X127293351Y-63842091D01*
X127343598Y-63707373D01*
X127343598Y-63707372D01*
X127350000Y-63647834D01*
X127350000Y-63000000D01*
X126433012Y-63000000D01*
X126465925Y-62942993D01*
X126500000Y-62815826D01*
X126500000Y-62684174D01*
X126465925Y-62557007D01*
X126433012Y-62500000D01*
X127350000Y-62500000D01*
X127350000Y-61852165D01*
X127343598Y-61792627D01*
X127343598Y-61792626D01*
X127293351Y-61657908D01*
X127207188Y-61542811D01*
X127092091Y-61456648D01*
X126957373Y-61406401D01*
X126897834Y-61400000D01*
X126250000Y-61400000D01*
X126250000Y-62316988D01*
X126192993Y-62284075D01*
X126065826Y-62250000D01*
X125934174Y-62250000D01*
X125807007Y-62284075D01*
X125750000Y-62316988D01*
X125750000Y-61400000D01*
X125102166Y-61400000D01*
X125042627Y-61406401D01*
X125042626Y-61406401D01*
X124907908Y-61456648D01*
X124792811Y-61542811D01*
X124706648Y-61657908D01*
X124656401Y-61792626D01*
X124656401Y-61792627D01*
X124650000Y-61852165D01*
X121605500Y-61852165D01*
X121605500Y-59309457D01*
X121619852Y-59274809D01*
X121654500Y-59260457D01*
X121689148Y-59274809D01*
X121731656Y-59317317D01*
X121880877Y-59409357D01*
X122047306Y-59464506D01*
X122150018Y-59474999D01*
X122287499Y-59474999D01*
X122787500Y-59474999D01*
X122924980Y-59474999D01*
X123027693Y-59464506D01*
X123194122Y-59409357D01*
X123343343Y-59317317D01*
X123467317Y-59193343D01*
X123559357Y-59044122D01*
X123614506Y-58877693D01*
X123625000Y-58774981D01*
X123625000Y-58500000D01*
X122787500Y-58500000D01*
X122787500Y-59474999D01*
X122287499Y-59474999D01*
X122287500Y-59474998D01*
X122287500Y-58000000D01*
X122787500Y-58000000D01*
X123624999Y-58000000D01*
X123624999Y-57725019D01*
X123614506Y-57622306D01*
X123559357Y-57455877D01*
X123467317Y-57306656D01*
X123445309Y-57284648D01*
X123430957Y-57250000D01*
X123445309Y-57215352D01*
X123467317Y-57193343D01*
X123559357Y-57044122D01*
X123614506Y-56877693D01*
X123625000Y-56774981D01*
X123625000Y-56500000D01*
X122787500Y-56500000D01*
X122787500Y-58000000D01*
X122287500Y-58000000D01*
X122287500Y-56000000D01*
X122787500Y-56000000D01*
X123624999Y-56000000D01*
X123624999Y-55725019D01*
X123614506Y-55622306D01*
X123559357Y-55455877D01*
X123467317Y-55306656D01*
X123343343Y-55182682D01*
X123194122Y-55090642D01*
X123027693Y-55035493D01*
X122924981Y-55025000D01*
X122787500Y-55025000D01*
X122787500Y-56000000D01*
X122287500Y-56000000D01*
X122287500Y-55025000D01*
X122150019Y-55025000D01*
X122047306Y-55035493D01*
X121880877Y-55090642D01*
X121731656Y-55182682D01*
X121689148Y-55225191D01*
X121654500Y-55239543D01*
X121619852Y-55225191D01*
X121605500Y-55190543D01*
X121605500Y-54449999D01*
X121857500Y-54449999D01*
X121914318Y-54449999D01*
X121914320Y-54449998D01*
X122031630Y-54434556D01*
X122177584Y-54374101D01*
X122177589Y-54374098D01*
X122302924Y-54277925D01*
X122302925Y-54277924D01*
X122399098Y-54152589D01*
X122399101Y-54152584D01*
X122459556Y-54006630D01*
X122467012Y-53950000D01*
X121857500Y-53950000D01*
X121857500Y-54449999D01*
X121605500Y-54449999D01*
X121605500Y-54111975D01*
X121609230Y-54093223D01*
X121645044Y-54006762D01*
X121660500Y-53889361D01*
X121660499Y-53610640D01*
X121652516Y-53550000D01*
X121857500Y-53550000D01*
X122467010Y-53550000D01*
X122467011Y-53549998D01*
X122459556Y-53493373D01*
X122459554Y-53493365D01*
X122399101Y-53347415D01*
X122399098Y-53347410D01*
X122302925Y-53222075D01*
X122302924Y-53222074D01*
X122177589Y-53125901D01*
X122177584Y-53125898D01*
X122031630Y-53065443D01*
X121914320Y-53050000D01*
X121857500Y-53050000D01*
X121857500Y-53550000D01*
X121652516Y-53550000D01*
X121645044Y-53493238D01*
X121609230Y-53406775D01*
X121605500Y-53388024D01*
X121605500Y-51346957D01*
X121619852Y-51312309D01*
X121654500Y-51297957D01*
X121689148Y-51312309D01*
X121694156Y-51317317D01*
X121843377Y-51409357D01*
X122009806Y-51464506D01*
X122112518Y-51474999D01*
X122249999Y-51474999D01*
X122750000Y-51474999D01*
X122887480Y-51474999D01*
X122990193Y-51464506D01*
X123156622Y-51409357D01*
X123305843Y-51317317D01*
X123429817Y-51193343D01*
X123521857Y-51044122D01*
X123577006Y-50877693D01*
X123587500Y-50774981D01*
X123587500Y-50500000D01*
X122750000Y-50500000D01*
X122750000Y-51474999D01*
X122249999Y-51474999D01*
X122250000Y-51474998D01*
X122250000Y-50000000D01*
X122750000Y-50000000D01*
X123587499Y-50000000D01*
X123587499Y-49725019D01*
X123577006Y-49622306D01*
X123521857Y-49455877D01*
X123429817Y-49306656D01*
X123305843Y-49182682D01*
X123156622Y-49090642D01*
X122990193Y-49035493D01*
X122887481Y-49025000D01*
X122750000Y-49025000D01*
X122750000Y-50000000D01*
X122250000Y-50000000D01*
X122250000Y-49025000D01*
X122112519Y-49025000D01*
X122009806Y-49035493D01*
X121843377Y-49090642D01*
X121694156Y-49182682D01*
X121680458Y-49196380D01*
X121645809Y-49210731D01*
X121611162Y-49196378D01*
X121597061Y-49166669D01*
X121593207Y-49128609D01*
X121591357Y-49123257D01*
X121541577Y-48979215D01*
X121541576Y-48979212D01*
X120457986Y-46812032D01*
X119462677Y-44821413D01*
X119460019Y-44784005D01*
X119484591Y-44755673D01*
X119506504Y-44750500D01*
X140765318Y-44750500D01*
X140799966Y-44764852D01*
G37*
%TD.AperFunction*%
%TA.AperFunction,Conductor*%
G36*
X105234540Y-41764852D02*
G01*
X105248892Y-41799500D01*
X105234540Y-41834148D01*
X105215034Y-41846101D01*
X105205417Y-41849226D01*
X105174006Y-41859432D01*
X104963571Y-41966653D01*
X104772483Y-42105488D01*
X101730488Y-45147483D01*
X101591653Y-45338571D01*
X101509403Y-45499999D01*
X101484432Y-45549006D01*
X101464406Y-45610642D01*
X101440050Y-45639159D01*
X101417804Y-45644500D01*
X98750000Y-45644500D01*
X98705630Y-45650341D01*
X98593285Y-45665131D01*
X98447254Y-45725619D01*
X98447249Y-45725622D01*
X98321847Y-45821846D01*
X98321846Y-45821847D01*
X98225622Y-45947249D01*
X98225619Y-45947254D01*
X98165131Y-46093285D01*
X98144500Y-46250003D01*
X98144500Y-46748836D01*
X98130148Y-46783484D01*
X98107287Y-46806344D01*
X98041705Y-46912671D01*
X98011300Y-46934626D01*
X97974276Y-46928652D01*
X97958295Y-46912671D01*
X97892712Y-46806344D01*
X97768655Y-46682287D01*
X97619334Y-46590186D01*
X97452794Y-46535000D01*
X97350011Y-46524500D01*
X97350009Y-46524500D01*
X97222621Y-46524500D01*
X97214956Y-46523897D01*
X97184591Y-46519087D01*
X97060917Y-46499500D01*
X96864083Y-46499500D01*
X96710039Y-46523897D01*
X96702374Y-46524500D01*
X96574989Y-46524500D01*
X96472205Y-46535000D01*
X96305665Y-46590186D01*
X96156344Y-46682287D01*
X96032287Y-46806344D01*
X95946664Y-46945161D01*
X95939607Y-46954085D01*
X94958546Y-47935148D01*
X94923898Y-47949500D01*
X94921152Y-47949500D01*
X94766512Y-47980260D01*
X94766501Y-47980263D01*
X94620824Y-48040604D01*
X94489711Y-48128210D01*
X94378210Y-48239711D01*
X94290604Y-48370824D01*
X94230263Y-48516501D01*
X94230260Y-48516512D01*
X94199500Y-48671152D01*
X94199500Y-48828847D01*
X94230260Y-48983487D01*
X94230263Y-48983498D01*
X94288153Y-49123257D01*
X94290606Y-49129179D01*
X94378211Y-49260289D01*
X94489711Y-49371789D01*
X94620821Y-49459394D01*
X94766503Y-49519737D01*
X94766509Y-49519738D01*
X94766512Y-49519739D01*
X94921152Y-49550499D01*
X94921158Y-49550500D01*
X94923898Y-49550500D01*
X94958546Y-49564852D01*
X95939607Y-50545913D01*
X95946664Y-50554837D01*
X96032285Y-50693652D01*
X96032288Y-50693656D01*
X96156344Y-50817712D01*
X96305666Y-50909814D01*
X96472203Y-50964999D01*
X96574991Y-50975500D01*
X96702378Y-50975499D01*
X96710043Y-50976102D01*
X96864083Y-51000500D01*
X96864084Y-51000500D01*
X97060916Y-51000500D01*
X97060917Y-51000500D01*
X97214960Y-50976102D01*
X97222625Y-50975499D01*
X97350010Y-50975499D01*
X97391123Y-50971299D01*
X97452797Y-50964999D01*
X97619334Y-50909814D01*
X97768656Y-50817712D01*
X97892712Y-50693656D01*
X97892713Y-50693653D01*
X97892715Y-50693652D01*
X97958295Y-50587329D01*
X97988699Y-50565373D01*
X98025723Y-50571347D01*
X98041705Y-50587329D01*
X98107284Y-50693652D01*
X98130148Y-50716516D01*
X98144500Y-50751164D01*
X98144500Y-51850500D01*
X98130148Y-51885148D01*
X98095500Y-51899500D01*
X96332070Y-51899500D01*
X96332054Y-51899499D01*
X96329057Y-51899499D01*
X96170943Y-51899499D01*
X96170940Y-51899499D01*
X96018218Y-51940421D01*
X96018212Y-51940423D01*
X95968095Y-51969360D01*
X95881283Y-52019480D01*
X95881283Y-52019481D01*
X94134148Y-53766616D01*
X94099500Y-53780968D01*
X94064852Y-53766616D01*
X94050500Y-53731968D01*
X94050500Y-53671158D01*
X94050499Y-53671152D01*
X94019739Y-53516512D01*
X94019736Y-53516501D01*
X94006066Y-53483498D01*
X93959394Y-53370821D01*
X93871789Y-53239711D01*
X93760289Y-53128211D01*
X93756827Y-53125898D01*
X93666350Y-53065443D01*
X93629179Y-53040606D01*
X93629176Y-53040604D01*
X93629175Y-53040604D01*
X93483498Y-52980263D01*
X93483487Y-52980260D01*
X93328847Y-52949500D01*
X93328842Y-52949500D01*
X93171158Y-52949500D01*
X93171152Y-52949500D01*
X93016512Y-52980260D01*
X93016501Y-52980263D01*
X92870824Y-53040604D01*
X92739711Y-53128210D01*
X92628210Y-53239711D01*
X92540604Y-53370824D01*
X92480263Y-53516501D01*
X92480261Y-53516510D01*
X92451184Y-53662686D01*
X92430349Y-53693868D01*
X92412686Y-53701184D01*
X92266510Y-53730261D01*
X92266501Y-53730263D01*
X92120824Y-53790604D01*
X91989711Y-53878210D01*
X91882449Y-53985472D01*
X91870632Y-53990366D01*
X91860484Y-53998154D01*
X91853918Y-53997289D01*
X91847801Y-53999824D01*
X91823302Y-53993260D01*
X91809812Y-53985472D01*
X91764643Y-53959394D01*
X91731785Y-53940423D01*
X91731784Y-53940422D01*
X91731783Y-53940422D01*
X91731781Y-53940421D01*
X91579060Y-53899499D01*
X91579057Y-53899499D01*
X91519030Y-53899499D01*
X91484382Y-53885147D01*
X90814852Y-53215617D01*
X90800500Y-53180969D01*
X90800500Y-53171158D01*
X90800499Y-53171152D01*
X90769739Y-53016512D01*
X90769736Y-53016501D01*
X90754725Y-52980260D01*
X90709394Y-52870821D01*
X90621789Y-52739711D01*
X90510289Y-52628211D01*
X90379179Y-52540606D01*
X90379176Y-52540604D01*
X90379175Y-52540604D01*
X90233498Y-52480263D01*
X90233487Y-52480260D01*
X90078847Y-52449500D01*
X90078842Y-52449500D01*
X89921158Y-52449500D01*
X89921152Y-52449500D01*
X89766512Y-52480260D01*
X89766501Y-52480263D01*
X89620824Y-52540604D01*
X89489711Y-52628210D01*
X89378210Y-52739711D01*
X89290604Y-52870824D01*
X89230263Y-53016501D01*
X89230260Y-53016512D01*
X89199500Y-53171152D01*
X89199500Y-53328847D01*
X89230260Y-53483487D01*
X89230263Y-53483498D01*
X89243934Y-53516503D01*
X89290606Y-53629179D01*
X89378211Y-53760289D01*
X89489711Y-53871789D01*
X89620821Y-53959394D01*
X89766503Y-54019737D01*
X89766509Y-54019738D01*
X89766512Y-54019739D01*
X89921152Y-54050499D01*
X89921158Y-54050500D01*
X89930969Y-54050500D01*
X89965617Y-54064852D01*
X90767764Y-54866999D01*
X90767769Y-54867005D01*
X90769480Y-54868716D01*
X90881284Y-54980520D01*
X90881287Y-54980521D01*
X90881290Y-54980524D01*
X90957462Y-55024501D01*
X91018212Y-55059576D01*
X91018218Y-55059578D01*
X91170940Y-55100501D01*
X91170943Y-55100501D01*
X91230970Y-55100501D01*
X91265618Y-55114853D01*
X91452117Y-55301352D01*
X91466469Y-55336000D01*
X91452117Y-55370648D01*
X91417469Y-55385000D01*
X91385000Y-55385000D01*
X91385000Y-56256000D01*
X91370648Y-56290648D01*
X91336000Y-56305000D01*
X91250000Y-56305000D01*
X91250000Y-56362815D01*
X91235648Y-56397463D01*
X91201000Y-56411815D01*
X91183877Y-56408726D01*
X91082481Y-56370908D01*
X91022879Y-56364500D01*
X90087120Y-56364500D01*
X90027520Y-56370908D01*
X89959142Y-56396411D01*
X89942019Y-56399500D01*
X88051874Y-56399500D01*
X88017226Y-56385148D01*
X88010288Y-56378210D01*
X87916435Y-56315500D01*
X87879179Y-56290606D01*
X87879176Y-56290604D01*
X87879175Y-56290604D01*
X87733498Y-56230263D01*
X87733487Y-56230260D01*
X87578847Y-56199500D01*
X87578842Y-56199500D01*
X87421158Y-56199500D01*
X87421152Y-56199500D01*
X87266512Y-56230260D01*
X87266501Y-56230263D01*
X87120824Y-56290604D01*
X86989711Y-56378210D01*
X86878210Y-56489711D01*
X86790604Y-56620824D01*
X86730263Y-56766501D01*
X86730260Y-56766512D01*
X86699500Y-56921152D01*
X86699500Y-57078847D01*
X86730260Y-57233487D01*
X86730263Y-57233498D01*
X86770960Y-57331749D01*
X86770960Y-57369252D01*
X86744441Y-57395770D01*
X86725690Y-57399500D01*
X84337000Y-57399500D01*
X84302352Y-57385148D01*
X84288000Y-57350500D01*
X84288000Y-56651583D01*
X84257209Y-56457174D01*
X84196384Y-56269975D01*
X84176148Y-56230260D01*
X84106150Y-56092879D01*
X84106290Y-56092807D01*
X84102691Y-56085061D01*
X84059814Y-55955666D01*
X84001783Y-55861582D01*
X83986723Y-55837165D01*
X90615000Y-55837165D01*
X90615000Y-56170000D01*
X91115000Y-56170000D01*
X91115000Y-55385000D01*
X91067166Y-55385000D01*
X91007627Y-55391401D01*
X91007626Y-55391401D01*
X90872908Y-55441648D01*
X90757811Y-55527811D01*
X90671648Y-55642908D01*
X90621401Y-55777626D01*
X90621401Y-55777627D01*
X90615000Y-55837165D01*
X83986723Y-55837165D01*
X83967715Y-55806347D01*
X83843655Y-55682287D01*
X83694334Y-55590186D01*
X83527794Y-55535000D01*
X83425011Y-55524500D01*
X83425009Y-55524500D01*
X83297621Y-55524500D01*
X83289956Y-55523897D01*
X83259591Y-55519087D01*
X83135917Y-55499500D01*
X82939083Y-55499500D01*
X82785039Y-55523897D01*
X82777374Y-55524500D01*
X82649989Y-55524500D01*
X82547205Y-55535000D01*
X82380665Y-55590186D01*
X82231344Y-55682287D01*
X82107287Y-55806344D01*
X82041411Y-55913147D01*
X82011006Y-55935102D01*
X81973982Y-55929128D01*
X81958001Y-55913147D01*
X81892317Y-55806656D01*
X81768343Y-55682682D01*
X81619122Y-55590642D01*
X81452693Y-55535493D01*
X81349981Y-55525000D01*
X81212500Y-55525000D01*
X81212500Y-59987934D01*
X81217705Y-60000500D01*
X81203353Y-60035148D01*
X81168705Y-60049500D01*
X81058143Y-60049500D01*
X81058141Y-60049500D01*
X81058140Y-60049501D01*
X81042686Y-60051535D01*
X80940739Y-60064955D01*
X80940736Y-60064956D01*
X80925593Y-60071228D01*
X80888095Y-60071228D01*
X80874128Y-60065443D01*
X80756820Y-60050000D01*
X80755795Y-60050000D01*
X80755602Y-60049920D01*
X80755219Y-60049895D01*
X80755227Y-60049764D01*
X80721147Y-60035648D01*
X80706795Y-60001000D01*
X80712500Y-59987227D01*
X80712500Y-59000000D01*
X79875001Y-59000000D01*
X79875001Y-59274980D01*
X79885493Y-59377693D01*
X79940642Y-59544122D01*
X80032682Y-59693343D01*
X80156656Y-59817317D01*
X80305877Y-59909357D01*
X80442072Y-59954487D01*
X80470447Y-59979009D01*
X80473172Y-60016413D01*
X80448650Y-60044788D01*
X80426659Y-60050000D01*
X80243181Y-60050000D01*
X80243179Y-60050001D01*
X80125869Y-60065443D01*
X79979915Y-60125898D01*
X79979910Y-60125901D01*
X79854575Y-60222074D01*
X79854574Y-60222075D01*
X79758401Y-60347410D01*
X79758398Y-60347415D01*
X79697943Y-60493369D01*
X79690487Y-60550000D01*
X80449110Y-60550000D01*
X80483758Y-60564352D01*
X80498110Y-60599000D01*
X80497692Y-60605382D01*
X80497000Y-60610639D01*
X80497000Y-60610643D01*
X80497000Y-60610644D01*
X80497000Y-60889356D01*
X80497001Y-60889358D01*
X80512455Y-61006761D01*
X80572961Y-61152836D01*
X80572964Y-61152841D01*
X80668943Y-61277924D01*
X80669219Y-61278283D01*
X80680828Y-61287191D01*
X80699581Y-61319669D01*
X80700000Y-61326066D01*
X80700000Y-61449999D01*
X80756818Y-61449999D01*
X80756820Y-61449998D01*
X80874127Y-61434556D01*
X80874135Y-61434554D01*
X80888092Y-61428773D01*
X80925593Y-61428771D01*
X80940738Y-61435044D01*
X81058139Y-61450500D01*
X81571860Y-61450499D01*
X81689262Y-61435044D01*
X81835341Y-61374536D01*
X81853470Y-61360625D01*
X81883299Y-61350500D01*
X83667930Y-61350500D01*
X83667946Y-61350501D01*
X83670943Y-61350501D01*
X83829059Y-61350501D01*
X83920248Y-61326066D01*
X83981785Y-61309577D01*
X83986845Y-61306656D01*
X84041660Y-61275008D01*
X84050786Y-61269739D01*
X84118716Y-61230520D01*
X84230520Y-61118716D01*
X84230520Y-61118714D01*
X84234549Y-61114686D01*
X84234552Y-61114681D01*
X86234384Y-59114852D01*
X86269032Y-59100500D01*
X89942019Y-59100500D01*
X89959141Y-59103588D01*
X90027517Y-59129091D01*
X90027520Y-59129092D01*
X90071177Y-59133785D01*
X90087127Y-59135500D01*
X90565500Y-59135499D01*
X90600148Y-59149851D01*
X90614500Y-59184499D01*
X90614500Y-59662879D01*
X90620907Y-59722478D01*
X90620909Y-59722483D01*
X90662269Y-59833377D01*
X90660931Y-59870856D01*
X90633483Y-59896411D01*
X90616359Y-59899500D01*
X86082071Y-59899500D01*
X86082055Y-59899499D01*
X86079058Y-59899499D01*
X85920943Y-59899499D01*
X85920941Y-59899499D01*
X85768215Y-59940423D01*
X85768213Y-59940423D01*
X85631290Y-60019475D01*
X85631281Y-60019482D01*
X83515617Y-62135148D01*
X83480969Y-62149500D01*
X75657505Y-62149500D01*
X75622857Y-62135148D01*
X75608507Y-62100985D01*
X75597111Y-60950001D01*
X79690488Y-60950001D01*
X79697943Y-61006626D01*
X79697945Y-61006634D01*
X79758398Y-61152584D01*
X79758401Y-61152589D01*
X79854574Y-61277924D01*
X79854575Y-61277925D01*
X79979910Y-61374098D01*
X79979915Y-61374101D01*
X80125869Y-61434556D01*
X80243180Y-61449999D01*
X80299999Y-61449999D01*
X80300000Y-61449998D01*
X80300000Y-60950000D01*
X79690490Y-60950000D01*
X79690488Y-60950001D01*
X75597111Y-60950001D01*
X75596961Y-60934869D01*
X75589369Y-60168073D01*
X75570131Y-58225018D01*
X79875000Y-58225018D01*
X79875000Y-58500000D01*
X80712500Y-58500000D01*
X80712500Y-57000000D01*
X79875001Y-57000000D01*
X79875001Y-57274980D01*
X79885493Y-57377693D01*
X79940642Y-57544122D01*
X80032682Y-57693343D01*
X80054691Y-57715352D01*
X80069043Y-57750000D01*
X80054691Y-57784648D01*
X80032682Y-57806656D01*
X79940642Y-57955877D01*
X79885493Y-58122306D01*
X79875000Y-58225018D01*
X75570131Y-58225018D01*
X75558385Y-57038714D01*
X75572393Y-57003926D01*
X75576765Y-56999973D01*
X76545459Y-56225018D01*
X79875000Y-56225018D01*
X79875000Y-56500000D01*
X80712500Y-56500000D01*
X80712500Y-55525000D01*
X80575019Y-55525000D01*
X80472306Y-55535493D01*
X80305877Y-55590642D01*
X80156656Y-55682682D01*
X80032682Y-55806656D01*
X79940642Y-55955877D01*
X79885493Y-56122306D01*
X79875000Y-56225018D01*
X76545459Y-56225018D01*
X81597018Y-52183773D01*
X81629158Y-52155979D01*
X81724630Y-52038629D01*
X81784901Y-51899872D01*
X81805500Y-51750000D01*
X81805500Y-43250000D01*
X81793881Y-43136980D01*
X81793781Y-43136700D01*
X81773261Y-43078963D01*
X81743220Y-42994434D01*
X81655979Y-42870842D01*
X81655977Y-42870840D01*
X81655976Y-42870839D01*
X81600656Y-42825833D01*
X81538629Y-42775370D01*
X81538627Y-42775369D01*
X81399876Y-42715100D01*
X81399872Y-42715099D01*
X81250001Y-42694500D01*
X81250000Y-42694500D01*
X80596874Y-42694500D01*
X80562226Y-42680148D01*
X80510288Y-42628210D01*
X80466978Y-42599271D01*
X80379179Y-42540606D01*
X80379176Y-42540604D01*
X80379175Y-42540604D01*
X80233498Y-42480263D01*
X80233487Y-42480260D01*
X80078847Y-42449500D01*
X80078842Y-42449500D01*
X79921158Y-42449500D01*
X79921152Y-42449500D01*
X79766512Y-42480260D01*
X79766501Y-42480263D01*
X79620824Y-42540604D01*
X79489711Y-42628210D01*
X79437774Y-42680148D01*
X79403126Y-42694500D01*
X79096874Y-42694500D01*
X79062226Y-42680148D01*
X79010288Y-42628210D01*
X78966978Y-42599271D01*
X78879179Y-42540606D01*
X78879176Y-42540604D01*
X78879175Y-42540604D01*
X78733498Y-42480263D01*
X78733487Y-42480260D01*
X78578847Y-42449500D01*
X78578842Y-42449500D01*
X78421158Y-42449500D01*
X78421152Y-42449500D01*
X78266512Y-42480260D01*
X78266501Y-42480263D01*
X78120824Y-42540604D01*
X77989711Y-42628210D01*
X77937774Y-42680148D01*
X77903126Y-42694500D01*
X77596874Y-42694500D01*
X77562226Y-42680148D01*
X77510288Y-42628210D01*
X77466978Y-42599271D01*
X77379179Y-42540606D01*
X77379176Y-42540604D01*
X77379175Y-42540604D01*
X77233498Y-42480263D01*
X77233487Y-42480260D01*
X77078847Y-42449500D01*
X77078842Y-42449500D01*
X76921158Y-42449500D01*
X76921152Y-42449500D01*
X76766512Y-42480260D01*
X76766501Y-42480263D01*
X76620824Y-42540604D01*
X76489711Y-42628210D01*
X76437774Y-42680148D01*
X76403126Y-42694500D01*
X76096874Y-42694500D01*
X76062226Y-42680148D01*
X76010288Y-42628210D01*
X75966978Y-42599271D01*
X75879179Y-42540606D01*
X75879176Y-42540604D01*
X75879175Y-42540604D01*
X75733498Y-42480263D01*
X75733487Y-42480260D01*
X75578847Y-42449500D01*
X75578842Y-42449500D01*
X75421158Y-42449500D01*
X75421152Y-42449500D01*
X75266512Y-42480260D01*
X75266501Y-42480263D01*
X75120824Y-42540604D01*
X74989711Y-42628210D01*
X74937774Y-42680148D01*
X74903126Y-42694500D01*
X74596874Y-42694500D01*
X74562226Y-42680148D01*
X74510288Y-42628210D01*
X74466978Y-42599271D01*
X74379179Y-42540606D01*
X74379176Y-42540604D01*
X74379175Y-42540604D01*
X74233498Y-42480263D01*
X74233487Y-42480260D01*
X74078847Y-42449500D01*
X74078842Y-42449500D01*
X73921158Y-42449500D01*
X73921152Y-42449500D01*
X73766512Y-42480260D01*
X73766501Y-42480263D01*
X73620824Y-42540604D01*
X73489711Y-42628210D01*
X73437774Y-42680148D01*
X73403126Y-42694500D01*
X73096874Y-42694500D01*
X73062226Y-42680148D01*
X73010288Y-42628210D01*
X72966978Y-42599271D01*
X72879179Y-42540606D01*
X72879176Y-42540604D01*
X72879175Y-42540604D01*
X72733498Y-42480263D01*
X72733487Y-42480260D01*
X72578847Y-42449500D01*
X72578842Y-42449500D01*
X72421158Y-42449500D01*
X72421152Y-42449500D01*
X72266512Y-42480260D01*
X72266501Y-42480263D01*
X72120824Y-42540604D01*
X71989711Y-42628210D01*
X71937774Y-42680148D01*
X71903126Y-42694500D01*
X71596874Y-42694500D01*
X71562226Y-42680148D01*
X71510288Y-42628210D01*
X71466978Y-42599271D01*
X71379179Y-42540606D01*
X71379176Y-42540604D01*
X71379175Y-42540604D01*
X71233498Y-42480263D01*
X71233487Y-42480260D01*
X71078847Y-42449500D01*
X71078842Y-42449500D01*
X70921158Y-42449500D01*
X70921152Y-42449500D01*
X70766512Y-42480260D01*
X70766501Y-42480263D01*
X70620824Y-42540604D01*
X70489711Y-42628210D01*
X70437774Y-42680148D01*
X70403126Y-42694500D01*
X70096874Y-42694500D01*
X70062226Y-42680148D01*
X70010288Y-42628210D01*
X69966978Y-42599271D01*
X69879179Y-42540606D01*
X69879176Y-42540604D01*
X69879175Y-42540604D01*
X69733498Y-42480263D01*
X69733487Y-42480260D01*
X69578847Y-42449500D01*
X69578842Y-42449500D01*
X69421158Y-42449500D01*
X69421152Y-42449500D01*
X69266512Y-42480260D01*
X69266501Y-42480263D01*
X69120824Y-42540604D01*
X68989711Y-42628210D01*
X68937774Y-42680148D01*
X68903126Y-42694500D01*
X68596874Y-42694500D01*
X68562226Y-42680148D01*
X68510288Y-42628210D01*
X68466978Y-42599271D01*
X68379179Y-42540606D01*
X68379176Y-42540604D01*
X68379175Y-42540604D01*
X68233498Y-42480263D01*
X68233487Y-42480260D01*
X68078847Y-42449500D01*
X68078842Y-42449500D01*
X67921158Y-42449500D01*
X67921152Y-42449500D01*
X67766512Y-42480260D01*
X67766501Y-42480263D01*
X67620824Y-42540604D01*
X67489711Y-42628210D01*
X67437774Y-42680148D01*
X67403126Y-42694500D01*
X67096874Y-42694500D01*
X67062226Y-42680148D01*
X67010288Y-42628210D01*
X66966978Y-42599271D01*
X66879179Y-42540606D01*
X66879176Y-42540604D01*
X66879175Y-42540604D01*
X66733498Y-42480263D01*
X66733487Y-42480260D01*
X66578847Y-42449500D01*
X66578842Y-42449500D01*
X66421158Y-42449500D01*
X66421152Y-42449500D01*
X66266512Y-42480260D01*
X66266501Y-42480263D01*
X66120823Y-42540604D01*
X66120819Y-42540606D01*
X66076722Y-42570071D01*
X66039940Y-42577387D01*
X66008758Y-42556551D01*
X66000500Y-42529329D01*
X66000500Y-41799500D01*
X66014852Y-41764852D01*
X66049500Y-41750500D01*
X105199892Y-41750500D01*
X105234540Y-41764852D01*
G37*
%TD.AperFunction*%
%TD*%
M02*
