%TF.GenerationSoftware,KiCad,Pcbnew,9.0.1*%
%TF.CreationDate,2025-11-16T17:21:23-08:00*%
%TF.ProjectId,GaN-LTC7800-Alternate,47614e2d-4c54-4433-9738-30302d416c74,rev?*%
%TF.SameCoordinates,Original*%
%TF.FileFunction,Paste,Top*%
%TF.FilePolarity,Positive*%
%FSLAX46Y46*%
G04 Gerber Fmt 4.6, Leading zero omitted, Abs format (unit mm)*
G04 Created by KiCad (PCBNEW 9.0.1) date 2025-11-16 17:21:23*
%MOMM*%
%LPD*%
G01*
G04 APERTURE LIST*
G04 Aperture macros list*
%AMRoundRect*
0 Rectangle with rounded corners*
0 $1 Rounding radius*
0 $2 $3 $4 $5 $6 $7 $8 $9 X,Y pos of 4 corners*
0 Add a 4 corners polygon primitive as box body*
4,1,4,$2,$3,$4,$5,$6,$7,$8,$9,$2,$3,0*
0 Add four circle primitives for the rounded corners*
1,1,$1+$1,$2,$3*
1,1,$1+$1,$4,$5*
1,1,$1+$1,$6,$7*
1,1,$1+$1,$8,$9*
0 Add four rect primitives between the rounded corners*
20,1,$1+$1,$2,$3,$4,$5,0*
20,1,$1+$1,$4,$5,$6,$7,0*
20,1,$1+$1,$6,$7,$8,$9,0*
20,1,$1+$1,$8,$9,$2,$3,0*%
G04 Aperture macros list end*
%ADD10C,0.010000*%
%ADD11C,0.000100*%
%ADD12RoundRect,0.250000X-0.337500X-0.475000X0.337500X-0.475000X0.337500X0.475000X-0.337500X0.475000X0*%
%ADD13RoundRect,0.250000X0.337500X0.475000X-0.337500X0.475000X-0.337500X-0.475000X0.337500X-0.475000X0*%
%ADD14RoundRect,0.090000X-0.139000X-0.090000X0.139000X-0.090000X0.139000X0.090000X-0.139000X0.090000X0*%
%ADD15R,0.270000X0.840000*%
%ADD16R,0.840000X0.270000*%
%ADD17RoundRect,0.090000X0.139000X0.090000X-0.139000X0.090000X-0.139000X-0.090000X0.139000X-0.090000X0*%
%ADD18RoundRect,0.250000X-0.475000X0.337500X-0.475000X-0.337500X0.475000X-0.337500X0.475000X0.337500X0*%
%ADD19RoundRect,0.250000X0.475000X-0.337500X0.475000X0.337500X-0.475000X0.337500X-0.475000X-0.337500X0*%
%ADD20RoundRect,0.090000X-0.090000X0.139000X-0.090000X-0.139000X0.090000X-0.139000X0.090000X0.139000X0*%
%ADD21R,2.380000X8.500000*%
G04 APERTURE END LIST*
D10*
%TO.C,U1*%
X92399938Y-57649938D02*
X91370000Y-57649938D01*
X91370000Y-57120000D01*
X92399938Y-57120000D01*
X92399938Y-57649938D01*
G36*
X92399938Y-57649938D02*
G01*
X91370000Y-57649938D01*
X91370000Y-57120000D01*
X92399938Y-57120000D01*
X92399938Y-57649938D01*
G37*
X92399972Y-58380177D02*
X91370000Y-58380177D01*
X91370000Y-57850000D01*
X92399972Y-57850000D01*
X92399972Y-58380177D01*
G36*
X92399972Y-58380177D02*
G01*
X91370000Y-58380177D01*
X91370000Y-57850000D01*
X92399972Y-57850000D01*
X92399972Y-58380177D01*
G37*
X93631780Y-57649842D02*
X92600000Y-57649842D01*
X92600000Y-57120000D01*
X93631780Y-57120000D01*
X93631780Y-57649842D01*
G36*
X93631780Y-57649842D02*
G01*
X92600000Y-57649842D01*
X92600000Y-57120000D01*
X93631780Y-57120000D01*
X93631780Y-57649842D01*
G37*
X93631590Y-58380886D02*
X92600000Y-58380886D01*
X92600000Y-57850000D01*
X93631590Y-57850000D01*
X93631590Y-58380886D01*
G36*
X93631590Y-58380886D02*
G01*
X92600000Y-58380886D01*
X92600000Y-57850000D01*
X93631590Y-57850000D01*
X93631590Y-58380886D01*
G37*
D11*
%TO.C,Q2*%
X144889500Y-45501500D02*
X144892500Y-45501500D01*
X144896500Y-45502500D01*
X144899500Y-45503500D01*
X144902500Y-45504500D01*
X144904500Y-45505500D01*
X144907500Y-45507500D01*
X144910500Y-45508500D01*
X144913500Y-45510500D01*
X144915500Y-45511500D01*
X144918500Y-45513500D01*
X144920500Y-45515500D01*
X144922500Y-45518500D01*
X144925500Y-45520500D01*
X144927500Y-45522500D01*
X144929500Y-45525500D01*
X144930500Y-45527500D01*
X144932500Y-45530500D01*
X144933500Y-45533500D01*
X144935500Y-45536500D01*
X144936500Y-45538500D01*
X144937500Y-45541500D01*
X144938500Y-45544500D01*
X144939500Y-45548500D01*
X144939500Y-45551500D01*
X144940500Y-45554500D01*
X144940500Y-45557500D01*
X144940500Y-45560500D01*
X144940500Y-45736500D01*
X144940500Y-45739500D01*
X144940500Y-45742500D01*
X144939500Y-45745500D01*
X144939500Y-45748500D01*
X144938500Y-45752500D01*
X144937500Y-45755500D01*
X144936500Y-45758500D01*
X144935500Y-45760500D01*
X144933500Y-45763500D01*
X144932500Y-45766500D01*
X144930500Y-45769500D01*
X144929500Y-45771500D01*
X144927500Y-45774500D01*
X144925500Y-45776500D01*
X144922500Y-45778500D01*
X144920500Y-45781500D01*
X144918500Y-45783500D01*
X144915500Y-45785500D01*
X144913500Y-45786500D01*
X144910500Y-45788500D01*
X144907500Y-45789500D01*
X144904500Y-45791500D01*
X144902500Y-45792500D01*
X144899500Y-45793500D01*
X144896500Y-45794500D01*
X144892500Y-45795500D01*
X144889500Y-45795500D01*
X144886500Y-45796500D01*
X144883500Y-45796500D01*
X144880500Y-45796500D01*
X144820500Y-45796500D01*
X144817500Y-45796500D01*
X144814500Y-45796500D01*
X144811500Y-45795500D01*
X144808500Y-45795500D01*
X144804500Y-45794500D01*
X144801500Y-45793500D01*
X144798500Y-45792500D01*
X144796500Y-45791500D01*
X144793500Y-45789500D01*
X144790500Y-45788500D01*
X144787500Y-45786500D01*
X144785500Y-45785500D01*
X144782500Y-45783500D01*
X144780500Y-45781500D01*
X144778500Y-45778500D01*
X144775500Y-45776500D01*
X144773500Y-45774500D01*
X144771500Y-45771500D01*
X144770500Y-45769500D01*
X144768500Y-45766500D01*
X144767500Y-45763500D01*
X144765500Y-45760500D01*
X144764500Y-45758500D01*
X144763500Y-45755500D01*
X144762500Y-45752500D01*
X144761500Y-45748500D01*
X144761500Y-45745500D01*
X144760500Y-45742500D01*
X144760500Y-45739500D01*
X144760500Y-45736500D01*
X144760500Y-45560500D01*
X144760500Y-45557500D01*
X144760500Y-45554500D01*
X144761500Y-45551500D01*
X144761500Y-45548500D01*
X144762500Y-45544500D01*
X144763500Y-45541500D01*
X144764500Y-45538500D01*
X144765500Y-45536500D01*
X144767500Y-45533500D01*
X144768500Y-45530500D01*
X144770500Y-45527500D01*
X144771500Y-45525500D01*
X144773500Y-45522500D01*
X144775500Y-45520500D01*
X144778500Y-45518500D01*
X144780500Y-45515500D01*
X144782500Y-45513500D01*
X144785500Y-45511500D01*
X144787500Y-45510500D01*
X144790500Y-45508500D01*
X144793500Y-45507500D01*
X144796500Y-45505500D01*
X144798500Y-45504500D01*
X144801500Y-45503500D01*
X144804500Y-45502500D01*
X144808500Y-45501500D01*
X144811500Y-45501500D01*
X144814500Y-45500500D01*
X144817500Y-45500500D01*
X144820500Y-45500500D01*
X144880500Y-45500500D01*
X144883500Y-45500500D01*
X144886500Y-45500500D01*
X144889500Y-45501500D01*
G36*
X144889500Y-45501500D02*
G01*
X144892500Y-45501500D01*
X144896500Y-45502500D01*
X144899500Y-45503500D01*
X144902500Y-45504500D01*
X144904500Y-45505500D01*
X144907500Y-45507500D01*
X144910500Y-45508500D01*
X144913500Y-45510500D01*
X144915500Y-45511500D01*
X144918500Y-45513500D01*
X144920500Y-45515500D01*
X144922500Y-45518500D01*
X144925500Y-45520500D01*
X144927500Y-45522500D01*
X144929500Y-45525500D01*
X144930500Y-45527500D01*
X144932500Y-45530500D01*
X144933500Y-45533500D01*
X144935500Y-45536500D01*
X144936500Y-45538500D01*
X144937500Y-45541500D01*
X144938500Y-45544500D01*
X144939500Y-45548500D01*
X144939500Y-45551500D01*
X144940500Y-45554500D01*
X144940500Y-45557500D01*
X144940500Y-45560500D01*
X144940500Y-45736500D01*
X144940500Y-45739500D01*
X144940500Y-45742500D01*
X144939500Y-45745500D01*
X144939500Y-45748500D01*
X144938500Y-45752500D01*
X144937500Y-45755500D01*
X144936500Y-45758500D01*
X144935500Y-45760500D01*
X144933500Y-45763500D01*
X144932500Y-45766500D01*
X144930500Y-45769500D01*
X144929500Y-45771500D01*
X144927500Y-45774500D01*
X144925500Y-45776500D01*
X144922500Y-45778500D01*
X144920500Y-45781500D01*
X144918500Y-45783500D01*
X144915500Y-45785500D01*
X144913500Y-45786500D01*
X144910500Y-45788500D01*
X144907500Y-45789500D01*
X144904500Y-45791500D01*
X144902500Y-45792500D01*
X144899500Y-45793500D01*
X144896500Y-45794500D01*
X144892500Y-45795500D01*
X144889500Y-45795500D01*
X144886500Y-45796500D01*
X144883500Y-45796500D01*
X144880500Y-45796500D01*
X144820500Y-45796500D01*
X144817500Y-45796500D01*
X144814500Y-45796500D01*
X144811500Y-45795500D01*
X144808500Y-45795500D01*
X144804500Y-45794500D01*
X144801500Y-45793500D01*
X144798500Y-45792500D01*
X144796500Y-45791500D01*
X144793500Y-45789500D01*
X144790500Y-45788500D01*
X144787500Y-45786500D01*
X144785500Y-45785500D01*
X144782500Y-45783500D01*
X144780500Y-45781500D01*
X144778500Y-45778500D01*
X144775500Y-45776500D01*
X144773500Y-45774500D01*
X144771500Y-45771500D01*
X144770500Y-45769500D01*
X144768500Y-45766500D01*
X144767500Y-45763500D01*
X144765500Y-45760500D01*
X144764500Y-45758500D01*
X144763500Y-45755500D01*
X144762500Y-45752500D01*
X144761500Y-45748500D01*
X144761500Y-45745500D01*
X144760500Y-45742500D01*
X144760500Y-45739500D01*
X144760500Y-45736500D01*
X144760500Y-45560500D01*
X144760500Y-45557500D01*
X144760500Y-45554500D01*
X144761500Y-45551500D01*
X144761500Y-45548500D01*
X144762500Y-45544500D01*
X144763500Y-45541500D01*
X144764500Y-45538500D01*
X144765500Y-45536500D01*
X144767500Y-45533500D01*
X144768500Y-45530500D01*
X144770500Y-45527500D01*
X144771500Y-45525500D01*
X144773500Y-45522500D01*
X144775500Y-45520500D01*
X144778500Y-45518500D01*
X144780500Y-45515500D01*
X144782500Y-45513500D01*
X144785500Y-45511500D01*
X144787500Y-45510500D01*
X144790500Y-45508500D01*
X144793500Y-45507500D01*
X144796500Y-45505500D01*
X144798500Y-45504500D01*
X144801500Y-45503500D01*
X144804500Y-45502500D01*
X144808500Y-45501500D01*
X144811500Y-45501500D01*
X144814500Y-45500500D01*
X144817500Y-45500500D01*
X144820500Y-45500500D01*
X144880500Y-45500500D01*
X144883500Y-45500500D01*
X144886500Y-45500500D01*
X144889500Y-45501500D01*
G37*
X144889500Y-46019500D02*
X144892500Y-46019500D01*
X144896500Y-46020500D01*
X144899500Y-46021500D01*
X144902500Y-46022500D01*
X144904500Y-46023500D01*
X144907500Y-46025500D01*
X144910500Y-46026500D01*
X144913500Y-46028500D01*
X144915500Y-46029500D01*
X144918500Y-46031500D01*
X144920500Y-46033500D01*
X144922500Y-46036500D01*
X144925500Y-46038500D01*
X144927500Y-46040500D01*
X144929500Y-46043500D01*
X144930500Y-46045500D01*
X144932500Y-46048500D01*
X144933500Y-46051500D01*
X144935500Y-46054500D01*
X144936500Y-46056500D01*
X144937500Y-46059500D01*
X144938500Y-46062500D01*
X144939500Y-46066500D01*
X144939500Y-46069500D01*
X144940500Y-46072500D01*
X144940500Y-46075500D01*
X144940500Y-46078500D01*
X144940500Y-46254500D01*
X144940500Y-46257500D01*
X144940500Y-46260500D01*
X144939500Y-46263500D01*
X144939500Y-46266500D01*
X144938500Y-46270500D01*
X144937500Y-46273500D01*
X144936500Y-46276500D01*
X144935500Y-46278500D01*
X144933500Y-46281500D01*
X144932500Y-46284500D01*
X144930500Y-46287500D01*
X144929500Y-46289500D01*
X144927500Y-46292500D01*
X144925500Y-46294500D01*
X144922500Y-46296500D01*
X144920500Y-46299500D01*
X144918500Y-46301500D01*
X144915500Y-46303500D01*
X144913500Y-46304500D01*
X144910500Y-46306500D01*
X144907500Y-46307500D01*
X144904500Y-46309500D01*
X144902500Y-46310500D01*
X144899500Y-46311500D01*
X144896500Y-46312500D01*
X144892500Y-46313500D01*
X144889500Y-46313500D01*
X144886500Y-46314500D01*
X144883500Y-46314500D01*
X144880500Y-46314500D01*
X144820500Y-46314500D01*
X144817500Y-46314500D01*
X144814500Y-46314500D01*
X144811500Y-46313500D01*
X144808500Y-46313500D01*
X144804500Y-46312500D01*
X144801500Y-46311500D01*
X144798500Y-46310500D01*
X144796500Y-46309500D01*
X144793500Y-46307500D01*
X144790500Y-46306500D01*
X144787500Y-46304500D01*
X144785500Y-46303500D01*
X144782500Y-46301500D01*
X144780500Y-46299500D01*
X144778500Y-46296500D01*
X144775500Y-46294500D01*
X144773500Y-46292500D01*
X144771500Y-46289500D01*
X144770500Y-46287500D01*
X144768500Y-46284500D01*
X144767500Y-46281500D01*
X144765500Y-46278500D01*
X144764500Y-46276500D01*
X144763500Y-46273500D01*
X144762500Y-46270500D01*
X144761500Y-46266500D01*
X144761500Y-46263500D01*
X144760500Y-46260500D01*
X144760500Y-46257500D01*
X144760500Y-46254500D01*
X144760500Y-46078500D01*
X144760500Y-46075500D01*
X144760500Y-46072500D01*
X144761500Y-46069500D01*
X144761500Y-46066500D01*
X144762500Y-46062500D01*
X144763500Y-46059500D01*
X144764500Y-46056500D01*
X144765500Y-46054500D01*
X144767500Y-46051500D01*
X144768500Y-46048500D01*
X144770500Y-46045500D01*
X144771500Y-46043500D01*
X144773500Y-46040500D01*
X144775500Y-46038500D01*
X144778500Y-46036500D01*
X144780500Y-46033500D01*
X144782500Y-46031500D01*
X144785500Y-46029500D01*
X144787500Y-46028500D01*
X144790500Y-46026500D01*
X144793500Y-46025500D01*
X144796500Y-46023500D01*
X144798500Y-46022500D01*
X144801500Y-46021500D01*
X144804500Y-46020500D01*
X144808500Y-46019500D01*
X144811500Y-46019500D01*
X144814500Y-46018500D01*
X144817500Y-46018500D01*
X144820500Y-46018500D01*
X144880500Y-46018500D01*
X144883500Y-46018500D01*
X144886500Y-46018500D01*
X144889500Y-46019500D01*
G36*
X144889500Y-46019500D02*
G01*
X144892500Y-46019500D01*
X144896500Y-46020500D01*
X144899500Y-46021500D01*
X144902500Y-46022500D01*
X144904500Y-46023500D01*
X144907500Y-46025500D01*
X144910500Y-46026500D01*
X144913500Y-46028500D01*
X144915500Y-46029500D01*
X144918500Y-46031500D01*
X144920500Y-46033500D01*
X144922500Y-46036500D01*
X144925500Y-46038500D01*
X144927500Y-46040500D01*
X144929500Y-46043500D01*
X144930500Y-46045500D01*
X144932500Y-46048500D01*
X144933500Y-46051500D01*
X144935500Y-46054500D01*
X144936500Y-46056500D01*
X144937500Y-46059500D01*
X144938500Y-46062500D01*
X144939500Y-46066500D01*
X144939500Y-46069500D01*
X144940500Y-46072500D01*
X144940500Y-46075500D01*
X144940500Y-46078500D01*
X144940500Y-46254500D01*
X144940500Y-46257500D01*
X144940500Y-46260500D01*
X144939500Y-46263500D01*
X144939500Y-46266500D01*
X144938500Y-46270500D01*
X144937500Y-46273500D01*
X144936500Y-46276500D01*
X144935500Y-46278500D01*
X144933500Y-46281500D01*
X144932500Y-46284500D01*
X144930500Y-46287500D01*
X144929500Y-46289500D01*
X144927500Y-46292500D01*
X144925500Y-46294500D01*
X144922500Y-46296500D01*
X144920500Y-46299500D01*
X144918500Y-46301500D01*
X144915500Y-46303500D01*
X144913500Y-46304500D01*
X144910500Y-46306500D01*
X144907500Y-46307500D01*
X144904500Y-46309500D01*
X144902500Y-46310500D01*
X144899500Y-46311500D01*
X144896500Y-46312500D01*
X144892500Y-46313500D01*
X144889500Y-46313500D01*
X144886500Y-46314500D01*
X144883500Y-46314500D01*
X144880500Y-46314500D01*
X144820500Y-46314500D01*
X144817500Y-46314500D01*
X144814500Y-46314500D01*
X144811500Y-46313500D01*
X144808500Y-46313500D01*
X144804500Y-46312500D01*
X144801500Y-46311500D01*
X144798500Y-46310500D01*
X144796500Y-46309500D01*
X144793500Y-46307500D01*
X144790500Y-46306500D01*
X144787500Y-46304500D01*
X144785500Y-46303500D01*
X144782500Y-46301500D01*
X144780500Y-46299500D01*
X144778500Y-46296500D01*
X144775500Y-46294500D01*
X144773500Y-46292500D01*
X144771500Y-46289500D01*
X144770500Y-46287500D01*
X144768500Y-46284500D01*
X144767500Y-46281500D01*
X144765500Y-46278500D01*
X144764500Y-46276500D01*
X144763500Y-46273500D01*
X144762500Y-46270500D01*
X144761500Y-46266500D01*
X144761500Y-46263500D01*
X144760500Y-46260500D01*
X144760500Y-46257500D01*
X144760500Y-46254500D01*
X144760500Y-46078500D01*
X144760500Y-46075500D01*
X144760500Y-46072500D01*
X144761500Y-46069500D01*
X144761500Y-46066500D01*
X144762500Y-46062500D01*
X144763500Y-46059500D01*
X144764500Y-46056500D01*
X144765500Y-46054500D01*
X144767500Y-46051500D01*
X144768500Y-46048500D01*
X144770500Y-46045500D01*
X144771500Y-46043500D01*
X144773500Y-46040500D01*
X144775500Y-46038500D01*
X144778500Y-46036500D01*
X144780500Y-46033500D01*
X144782500Y-46031500D01*
X144785500Y-46029500D01*
X144787500Y-46028500D01*
X144790500Y-46026500D01*
X144793500Y-46025500D01*
X144796500Y-46023500D01*
X144798500Y-46022500D01*
X144801500Y-46021500D01*
X144804500Y-46020500D01*
X144808500Y-46019500D01*
X144811500Y-46019500D01*
X144814500Y-46018500D01*
X144817500Y-46018500D01*
X144820500Y-46018500D01*
X144880500Y-46018500D01*
X144883500Y-46018500D01*
X144886500Y-46018500D01*
X144889500Y-46019500D01*
G37*
X145289500Y-45501500D02*
X145292500Y-45501500D01*
X145296500Y-45502500D01*
X145299500Y-45503500D01*
X145302500Y-45504500D01*
X145304500Y-45505500D01*
X145307500Y-45507500D01*
X145310500Y-45508500D01*
X145313500Y-45510500D01*
X145315500Y-45511500D01*
X145318500Y-45513500D01*
X145320500Y-45515500D01*
X145322500Y-45518500D01*
X145325500Y-45520500D01*
X145327500Y-45522500D01*
X145329500Y-45525500D01*
X145330500Y-45527500D01*
X145332500Y-45530500D01*
X145333500Y-45533500D01*
X145335500Y-45536500D01*
X145336500Y-45538500D01*
X145337500Y-45541500D01*
X145338500Y-45544500D01*
X145339500Y-45548500D01*
X145339500Y-45551500D01*
X145340500Y-45554500D01*
X145340500Y-45557500D01*
X145340500Y-45560500D01*
X145340500Y-46254500D01*
X145340500Y-46257500D01*
X145340500Y-46260500D01*
X145339500Y-46263500D01*
X145339500Y-46266500D01*
X145338500Y-46270500D01*
X145337500Y-46273500D01*
X145336500Y-46276500D01*
X145335500Y-46278500D01*
X145333500Y-46281500D01*
X145332500Y-46284500D01*
X145330500Y-46287500D01*
X145329500Y-46289500D01*
X145327500Y-46292500D01*
X145325500Y-46294500D01*
X145322500Y-46296500D01*
X145320500Y-46299500D01*
X145318500Y-46301500D01*
X145315500Y-46303500D01*
X145313500Y-46304500D01*
X145310500Y-46306500D01*
X145307500Y-46307500D01*
X145304500Y-46309500D01*
X145302500Y-46310500D01*
X145299500Y-46311500D01*
X145296500Y-46312500D01*
X145292500Y-46313500D01*
X145289500Y-46313500D01*
X145286500Y-46314500D01*
X145283500Y-46314500D01*
X145280500Y-46314500D01*
X145220500Y-46314500D01*
X145217500Y-46314500D01*
X145214500Y-46314500D01*
X145211500Y-46313500D01*
X145208500Y-46313500D01*
X145204500Y-46312500D01*
X145201500Y-46311500D01*
X145198500Y-46310500D01*
X145196500Y-46309500D01*
X145193500Y-46307500D01*
X145190500Y-46306500D01*
X145187500Y-46304500D01*
X145185500Y-46303500D01*
X145182500Y-46301500D01*
X145180500Y-46299500D01*
X145178500Y-46296500D01*
X145175500Y-46294500D01*
X145173500Y-46292500D01*
X145171500Y-46289500D01*
X145170500Y-46287500D01*
X145168500Y-46284500D01*
X145167500Y-46281500D01*
X145165500Y-46278500D01*
X145164500Y-46276500D01*
X145163500Y-46273500D01*
X145162500Y-46270500D01*
X145161500Y-46266500D01*
X145161500Y-46263500D01*
X145160500Y-46260500D01*
X145160500Y-46257500D01*
X145160500Y-46254500D01*
X145160500Y-45560500D01*
X145160500Y-45557500D01*
X145160500Y-45554500D01*
X145161500Y-45551500D01*
X145161500Y-45548500D01*
X145162500Y-45544500D01*
X145163500Y-45541500D01*
X145164500Y-45538500D01*
X145165500Y-45536500D01*
X145167500Y-45533500D01*
X145168500Y-45530500D01*
X145170500Y-45527500D01*
X145171500Y-45525500D01*
X145173500Y-45522500D01*
X145175500Y-45520500D01*
X145178500Y-45518500D01*
X145180500Y-45515500D01*
X145182500Y-45513500D01*
X145185500Y-45511500D01*
X145187500Y-45510500D01*
X145190500Y-45508500D01*
X145193500Y-45507500D01*
X145196500Y-45505500D01*
X145198500Y-45504500D01*
X145201500Y-45503500D01*
X145204500Y-45502500D01*
X145208500Y-45501500D01*
X145211500Y-45501500D01*
X145214500Y-45500500D01*
X145217500Y-45500500D01*
X145220500Y-45500500D01*
X145280500Y-45500500D01*
X145283500Y-45500500D01*
X145286500Y-45500500D01*
X145289500Y-45501500D01*
G36*
X145289500Y-45501500D02*
G01*
X145292500Y-45501500D01*
X145296500Y-45502500D01*
X145299500Y-45503500D01*
X145302500Y-45504500D01*
X145304500Y-45505500D01*
X145307500Y-45507500D01*
X145310500Y-45508500D01*
X145313500Y-45510500D01*
X145315500Y-45511500D01*
X145318500Y-45513500D01*
X145320500Y-45515500D01*
X145322500Y-45518500D01*
X145325500Y-45520500D01*
X145327500Y-45522500D01*
X145329500Y-45525500D01*
X145330500Y-45527500D01*
X145332500Y-45530500D01*
X145333500Y-45533500D01*
X145335500Y-45536500D01*
X145336500Y-45538500D01*
X145337500Y-45541500D01*
X145338500Y-45544500D01*
X145339500Y-45548500D01*
X145339500Y-45551500D01*
X145340500Y-45554500D01*
X145340500Y-45557500D01*
X145340500Y-45560500D01*
X145340500Y-46254500D01*
X145340500Y-46257500D01*
X145340500Y-46260500D01*
X145339500Y-46263500D01*
X145339500Y-46266500D01*
X145338500Y-46270500D01*
X145337500Y-46273500D01*
X145336500Y-46276500D01*
X145335500Y-46278500D01*
X145333500Y-46281500D01*
X145332500Y-46284500D01*
X145330500Y-46287500D01*
X145329500Y-46289500D01*
X145327500Y-46292500D01*
X145325500Y-46294500D01*
X145322500Y-46296500D01*
X145320500Y-46299500D01*
X145318500Y-46301500D01*
X145315500Y-46303500D01*
X145313500Y-46304500D01*
X145310500Y-46306500D01*
X145307500Y-46307500D01*
X145304500Y-46309500D01*
X145302500Y-46310500D01*
X145299500Y-46311500D01*
X145296500Y-46312500D01*
X145292500Y-46313500D01*
X145289500Y-46313500D01*
X145286500Y-46314500D01*
X145283500Y-46314500D01*
X145280500Y-46314500D01*
X145220500Y-46314500D01*
X145217500Y-46314500D01*
X145214500Y-46314500D01*
X145211500Y-46313500D01*
X145208500Y-46313500D01*
X145204500Y-46312500D01*
X145201500Y-46311500D01*
X145198500Y-46310500D01*
X145196500Y-46309500D01*
X145193500Y-46307500D01*
X145190500Y-46306500D01*
X145187500Y-46304500D01*
X145185500Y-46303500D01*
X145182500Y-46301500D01*
X145180500Y-46299500D01*
X145178500Y-46296500D01*
X145175500Y-46294500D01*
X145173500Y-46292500D01*
X145171500Y-46289500D01*
X145170500Y-46287500D01*
X145168500Y-46284500D01*
X145167500Y-46281500D01*
X145165500Y-46278500D01*
X145164500Y-46276500D01*
X145163500Y-46273500D01*
X145162500Y-46270500D01*
X145161500Y-46266500D01*
X145161500Y-46263500D01*
X145160500Y-46260500D01*
X145160500Y-46257500D01*
X145160500Y-46254500D01*
X145160500Y-45560500D01*
X145160500Y-45557500D01*
X145160500Y-45554500D01*
X145161500Y-45551500D01*
X145161500Y-45548500D01*
X145162500Y-45544500D01*
X145163500Y-45541500D01*
X145164500Y-45538500D01*
X145165500Y-45536500D01*
X145167500Y-45533500D01*
X145168500Y-45530500D01*
X145170500Y-45527500D01*
X145171500Y-45525500D01*
X145173500Y-45522500D01*
X145175500Y-45520500D01*
X145178500Y-45518500D01*
X145180500Y-45515500D01*
X145182500Y-45513500D01*
X145185500Y-45511500D01*
X145187500Y-45510500D01*
X145190500Y-45508500D01*
X145193500Y-45507500D01*
X145196500Y-45505500D01*
X145198500Y-45504500D01*
X145201500Y-45503500D01*
X145204500Y-45502500D01*
X145208500Y-45501500D01*
X145211500Y-45501500D01*
X145214500Y-45500500D01*
X145217500Y-45500500D01*
X145220500Y-45500500D01*
X145280500Y-45500500D01*
X145283500Y-45500500D01*
X145286500Y-45500500D01*
X145289500Y-45501500D01*
G37*
X145689500Y-45501500D02*
X145692500Y-45501500D01*
X145696500Y-45502500D01*
X145699500Y-45503500D01*
X145702500Y-45504500D01*
X145704500Y-45505500D01*
X145707500Y-45507500D01*
X145710500Y-45508500D01*
X145713500Y-45510500D01*
X145715500Y-45511500D01*
X145718500Y-45513500D01*
X145720500Y-45515500D01*
X145722500Y-45518500D01*
X145725500Y-45520500D01*
X145727500Y-45522500D01*
X145729500Y-45525500D01*
X145730500Y-45527500D01*
X145732500Y-45530500D01*
X145733500Y-45533500D01*
X145735500Y-45536500D01*
X145736500Y-45538500D01*
X145737500Y-45541500D01*
X145738500Y-45544500D01*
X145739500Y-45548500D01*
X145739500Y-45551500D01*
X145740500Y-45554500D01*
X145740500Y-45557500D01*
X145740500Y-45560500D01*
X145740500Y-46254500D01*
X145740500Y-46257500D01*
X145740500Y-46260500D01*
X145739500Y-46263500D01*
X145739500Y-46266500D01*
X145738500Y-46270500D01*
X145737500Y-46273500D01*
X145736500Y-46276500D01*
X145735500Y-46278500D01*
X145733500Y-46281500D01*
X145732500Y-46284500D01*
X145730500Y-46287500D01*
X145729500Y-46289500D01*
X145727500Y-46292500D01*
X145725500Y-46294500D01*
X145722500Y-46296500D01*
X145720500Y-46299500D01*
X145718500Y-46301500D01*
X145715500Y-46303500D01*
X145713500Y-46304500D01*
X145710500Y-46306500D01*
X145707500Y-46307500D01*
X145704500Y-46309500D01*
X145702500Y-46310500D01*
X145699500Y-46311500D01*
X145696500Y-46312500D01*
X145692500Y-46313500D01*
X145689500Y-46313500D01*
X145686500Y-46314500D01*
X145683500Y-46314500D01*
X145680500Y-46314500D01*
X145620500Y-46314500D01*
X145617500Y-46314500D01*
X145614500Y-46314500D01*
X145611500Y-46313500D01*
X145608500Y-46313500D01*
X145604500Y-46312500D01*
X145601500Y-46311500D01*
X145598500Y-46310500D01*
X145596500Y-46309500D01*
X145593500Y-46307500D01*
X145590500Y-46306500D01*
X145587500Y-46304500D01*
X145585500Y-46303500D01*
X145582500Y-46301500D01*
X145580500Y-46299500D01*
X145578500Y-46296500D01*
X145575500Y-46294500D01*
X145573500Y-46292500D01*
X145571500Y-46289500D01*
X145570500Y-46287500D01*
X145568500Y-46284500D01*
X145567500Y-46281500D01*
X145565500Y-46278500D01*
X145564500Y-46276500D01*
X145563500Y-46273500D01*
X145562500Y-46270500D01*
X145561500Y-46266500D01*
X145561500Y-46263500D01*
X145560500Y-46260500D01*
X145560500Y-46257500D01*
X145560500Y-46254500D01*
X145560500Y-45560500D01*
X145560500Y-45557500D01*
X145560500Y-45554500D01*
X145561500Y-45551500D01*
X145561500Y-45548500D01*
X145562500Y-45544500D01*
X145563500Y-45541500D01*
X145564500Y-45538500D01*
X145565500Y-45536500D01*
X145567500Y-45533500D01*
X145568500Y-45530500D01*
X145570500Y-45527500D01*
X145571500Y-45525500D01*
X145573500Y-45522500D01*
X145575500Y-45520500D01*
X145578500Y-45518500D01*
X145580500Y-45515500D01*
X145582500Y-45513500D01*
X145585500Y-45511500D01*
X145587500Y-45510500D01*
X145590500Y-45508500D01*
X145593500Y-45507500D01*
X145596500Y-45505500D01*
X145598500Y-45504500D01*
X145601500Y-45503500D01*
X145604500Y-45502500D01*
X145608500Y-45501500D01*
X145611500Y-45501500D01*
X145614500Y-45500500D01*
X145617500Y-45500500D01*
X145620500Y-45500500D01*
X145680500Y-45500500D01*
X145683500Y-45500500D01*
X145686500Y-45500500D01*
X145689500Y-45501500D01*
G36*
X145689500Y-45501500D02*
G01*
X145692500Y-45501500D01*
X145696500Y-45502500D01*
X145699500Y-45503500D01*
X145702500Y-45504500D01*
X145704500Y-45505500D01*
X145707500Y-45507500D01*
X145710500Y-45508500D01*
X145713500Y-45510500D01*
X145715500Y-45511500D01*
X145718500Y-45513500D01*
X145720500Y-45515500D01*
X145722500Y-45518500D01*
X145725500Y-45520500D01*
X145727500Y-45522500D01*
X145729500Y-45525500D01*
X145730500Y-45527500D01*
X145732500Y-45530500D01*
X145733500Y-45533500D01*
X145735500Y-45536500D01*
X145736500Y-45538500D01*
X145737500Y-45541500D01*
X145738500Y-45544500D01*
X145739500Y-45548500D01*
X145739500Y-45551500D01*
X145740500Y-45554500D01*
X145740500Y-45557500D01*
X145740500Y-45560500D01*
X145740500Y-46254500D01*
X145740500Y-46257500D01*
X145740500Y-46260500D01*
X145739500Y-46263500D01*
X145739500Y-46266500D01*
X145738500Y-46270500D01*
X145737500Y-46273500D01*
X145736500Y-46276500D01*
X145735500Y-46278500D01*
X145733500Y-46281500D01*
X145732500Y-46284500D01*
X145730500Y-46287500D01*
X145729500Y-46289500D01*
X145727500Y-46292500D01*
X145725500Y-46294500D01*
X145722500Y-46296500D01*
X145720500Y-46299500D01*
X145718500Y-46301500D01*
X145715500Y-46303500D01*
X145713500Y-46304500D01*
X145710500Y-46306500D01*
X145707500Y-46307500D01*
X145704500Y-46309500D01*
X145702500Y-46310500D01*
X145699500Y-46311500D01*
X145696500Y-46312500D01*
X145692500Y-46313500D01*
X145689500Y-46313500D01*
X145686500Y-46314500D01*
X145683500Y-46314500D01*
X145680500Y-46314500D01*
X145620500Y-46314500D01*
X145617500Y-46314500D01*
X145614500Y-46314500D01*
X145611500Y-46313500D01*
X145608500Y-46313500D01*
X145604500Y-46312500D01*
X145601500Y-46311500D01*
X145598500Y-46310500D01*
X145596500Y-46309500D01*
X145593500Y-46307500D01*
X145590500Y-46306500D01*
X145587500Y-46304500D01*
X145585500Y-46303500D01*
X145582500Y-46301500D01*
X145580500Y-46299500D01*
X145578500Y-46296500D01*
X145575500Y-46294500D01*
X145573500Y-46292500D01*
X145571500Y-46289500D01*
X145570500Y-46287500D01*
X145568500Y-46284500D01*
X145567500Y-46281500D01*
X145565500Y-46278500D01*
X145564500Y-46276500D01*
X145563500Y-46273500D01*
X145562500Y-46270500D01*
X145561500Y-46266500D01*
X145561500Y-46263500D01*
X145560500Y-46260500D01*
X145560500Y-46257500D01*
X145560500Y-46254500D01*
X145560500Y-45560500D01*
X145560500Y-45557500D01*
X145560500Y-45554500D01*
X145561500Y-45551500D01*
X145561500Y-45548500D01*
X145562500Y-45544500D01*
X145563500Y-45541500D01*
X145564500Y-45538500D01*
X145565500Y-45536500D01*
X145567500Y-45533500D01*
X145568500Y-45530500D01*
X145570500Y-45527500D01*
X145571500Y-45525500D01*
X145573500Y-45522500D01*
X145575500Y-45520500D01*
X145578500Y-45518500D01*
X145580500Y-45515500D01*
X145582500Y-45513500D01*
X145585500Y-45511500D01*
X145587500Y-45510500D01*
X145590500Y-45508500D01*
X145593500Y-45507500D01*
X145596500Y-45505500D01*
X145598500Y-45504500D01*
X145601500Y-45503500D01*
X145604500Y-45502500D01*
X145608500Y-45501500D01*
X145611500Y-45501500D01*
X145614500Y-45500500D01*
X145617500Y-45500500D01*
X145620500Y-45500500D01*
X145680500Y-45500500D01*
X145683500Y-45500500D01*
X145686500Y-45500500D01*
X145689500Y-45501500D01*
G37*
X146089500Y-45501500D02*
X146092500Y-45501500D01*
X146096500Y-45502500D01*
X146099500Y-45503500D01*
X146102500Y-45504500D01*
X146104500Y-45505500D01*
X146107500Y-45507500D01*
X146110500Y-45508500D01*
X146113500Y-45510500D01*
X146115500Y-45511500D01*
X146118500Y-45513500D01*
X146120500Y-45515500D01*
X146122500Y-45518500D01*
X146125500Y-45520500D01*
X146127500Y-45522500D01*
X146129500Y-45525500D01*
X146130500Y-45527500D01*
X146132500Y-45530500D01*
X146133500Y-45533500D01*
X146135500Y-45536500D01*
X146136500Y-45538500D01*
X146137500Y-45541500D01*
X146138500Y-45544500D01*
X146139500Y-45548500D01*
X146139500Y-45551500D01*
X146140500Y-45554500D01*
X146140500Y-45557500D01*
X146140500Y-45560500D01*
X146140500Y-46254500D01*
X146140500Y-46257500D01*
X146140500Y-46260500D01*
X146139500Y-46263500D01*
X146139500Y-46266500D01*
X146138500Y-46270500D01*
X146137500Y-46273500D01*
X146136500Y-46276500D01*
X146135500Y-46278500D01*
X146133500Y-46281500D01*
X146132500Y-46284500D01*
X146130500Y-46287500D01*
X146129500Y-46289500D01*
X146127500Y-46292500D01*
X146125500Y-46294500D01*
X146122500Y-46296500D01*
X146120500Y-46299500D01*
X146118500Y-46301500D01*
X146115500Y-46303500D01*
X146113500Y-46304500D01*
X146110500Y-46306500D01*
X146107500Y-46307500D01*
X146104500Y-46309500D01*
X146102500Y-46310500D01*
X146099500Y-46311500D01*
X146096500Y-46312500D01*
X146092500Y-46313500D01*
X146089500Y-46313500D01*
X146086500Y-46314500D01*
X146083500Y-46314500D01*
X146080500Y-46314500D01*
X146020500Y-46314500D01*
X146017500Y-46314500D01*
X146014500Y-46314500D01*
X146011500Y-46313500D01*
X146008500Y-46313500D01*
X146004500Y-46312500D01*
X146001500Y-46311500D01*
X145998500Y-46310500D01*
X145996500Y-46309500D01*
X145993500Y-46307500D01*
X145990500Y-46306500D01*
X145987500Y-46304500D01*
X145985500Y-46303500D01*
X145982500Y-46301500D01*
X145980500Y-46299500D01*
X145978500Y-46296500D01*
X145975500Y-46294500D01*
X145973500Y-46292500D01*
X145971500Y-46289500D01*
X145970500Y-46287500D01*
X145968500Y-46284500D01*
X145967500Y-46281500D01*
X145965500Y-46278500D01*
X145964500Y-46276500D01*
X145963500Y-46273500D01*
X145962500Y-46270500D01*
X145961500Y-46266500D01*
X145961500Y-46263500D01*
X145960500Y-46260500D01*
X145960500Y-46257500D01*
X145960500Y-46254500D01*
X145960500Y-45560500D01*
X145960500Y-45557500D01*
X145960500Y-45554500D01*
X145961500Y-45551500D01*
X145961500Y-45548500D01*
X145962500Y-45544500D01*
X145963500Y-45541500D01*
X145964500Y-45538500D01*
X145965500Y-45536500D01*
X145967500Y-45533500D01*
X145968500Y-45530500D01*
X145970500Y-45527500D01*
X145971500Y-45525500D01*
X145973500Y-45522500D01*
X145975500Y-45520500D01*
X145978500Y-45518500D01*
X145980500Y-45515500D01*
X145982500Y-45513500D01*
X145985500Y-45511500D01*
X145987500Y-45510500D01*
X145990500Y-45508500D01*
X145993500Y-45507500D01*
X145996500Y-45505500D01*
X145998500Y-45504500D01*
X146001500Y-45503500D01*
X146004500Y-45502500D01*
X146008500Y-45501500D01*
X146011500Y-45501500D01*
X146014500Y-45500500D01*
X146017500Y-45500500D01*
X146020500Y-45500500D01*
X146080500Y-45500500D01*
X146083500Y-45500500D01*
X146086500Y-45500500D01*
X146089500Y-45501500D01*
G36*
X146089500Y-45501500D02*
G01*
X146092500Y-45501500D01*
X146096500Y-45502500D01*
X146099500Y-45503500D01*
X146102500Y-45504500D01*
X146104500Y-45505500D01*
X146107500Y-45507500D01*
X146110500Y-45508500D01*
X146113500Y-45510500D01*
X146115500Y-45511500D01*
X146118500Y-45513500D01*
X146120500Y-45515500D01*
X146122500Y-45518500D01*
X146125500Y-45520500D01*
X146127500Y-45522500D01*
X146129500Y-45525500D01*
X146130500Y-45527500D01*
X146132500Y-45530500D01*
X146133500Y-45533500D01*
X146135500Y-45536500D01*
X146136500Y-45538500D01*
X146137500Y-45541500D01*
X146138500Y-45544500D01*
X146139500Y-45548500D01*
X146139500Y-45551500D01*
X146140500Y-45554500D01*
X146140500Y-45557500D01*
X146140500Y-45560500D01*
X146140500Y-46254500D01*
X146140500Y-46257500D01*
X146140500Y-46260500D01*
X146139500Y-46263500D01*
X146139500Y-46266500D01*
X146138500Y-46270500D01*
X146137500Y-46273500D01*
X146136500Y-46276500D01*
X146135500Y-46278500D01*
X146133500Y-46281500D01*
X146132500Y-46284500D01*
X146130500Y-46287500D01*
X146129500Y-46289500D01*
X146127500Y-46292500D01*
X146125500Y-46294500D01*
X146122500Y-46296500D01*
X146120500Y-46299500D01*
X146118500Y-46301500D01*
X146115500Y-46303500D01*
X146113500Y-46304500D01*
X146110500Y-46306500D01*
X146107500Y-46307500D01*
X146104500Y-46309500D01*
X146102500Y-46310500D01*
X146099500Y-46311500D01*
X146096500Y-46312500D01*
X146092500Y-46313500D01*
X146089500Y-46313500D01*
X146086500Y-46314500D01*
X146083500Y-46314500D01*
X146080500Y-46314500D01*
X146020500Y-46314500D01*
X146017500Y-46314500D01*
X146014500Y-46314500D01*
X146011500Y-46313500D01*
X146008500Y-46313500D01*
X146004500Y-46312500D01*
X146001500Y-46311500D01*
X145998500Y-46310500D01*
X145996500Y-46309500D01*
X145993500Y-46307500D01*
X145990500Y-46306500D01*
X145987500Y-46304500D01*
X145985500Y-46303500D01*
X145982500Y-46301500D01*
X145980500Y-46299500D01*
X145978500Y-46296500D01*
X145975500Y-46294500D01*
X145973500Y-46292500D01*
X145971500Y-46289500D01*
X145970500Y-46287500D01*
X145968500Y-46284500D01*
X145967500Y-46281500D01*
X145965500Y-46278500D01*
X145964500Y-46276500D01*
X145963500Y-46273500D01*
X145962500Y-46270500D01*
X145961500Y-46266500D01*
X145961500Y-46263500D01*
X145960500Y-46260500D01*
X145960500Y-46257500D01*
X145960500Y-46254500D01*
X145960500Y-45560500D01*
X145960500Y-45557500D01*
X145960500Y-45554500D01*
X145961500Y-45551500D01*
X145961500Y-45548500D01*
X145962500Y-45544500D01*
X145963500Y-45541500D01*
X145964500Y-45538500D01*
X145965500Y-45536500D01*
X145967500Y-45533500D01*
X145968500Y-45530500D01*
X145970500Y-45527500D01*
X145971500Y-45525500D01*
X145973500Y-45522500D01*
X145975500Y-45520500D01*
X145978500Y-45518500D01*
X145980500Y-45515500D01*
X145982500Y-45513500D01*
X145985500Y-45511500D01*
X145987500Y-45510500D01*
X145990500Y-45508500D01*
X145993500Y-45507500D01*
X145996500Y-45505500D01*
X145998500Y-45504500D01*
X146001500Y-45503500D01*
X146004500Y-45502500D01*
X146008500Y-45501500D01*
X146011500Y-45501500D01*
X146014500Y-45500500D01*
X146017500Y-45500500D01*
X146020500Y-45500500D01*
X146080500Y-45500500D01*
X146083500Y-45500500D01*
X146086500Y-45500500D01*
X146089500Y-45501500D01*
G37*
%TO.C,Q1*%
X144939000Y-48594000D02*
X144942000Y-48594000D01*
X144946000Y-48595000D01*
X144949000Y-48596000D01*
X144952000Y-48597000D01*
X144954000Y-48598000D01*
X144957000Y-48600000D01*
X144960000Y-48601000D01*
X144963000Y-48603000D01*
X144965000Y-48604000D01*
X144968000Y-48606000D01*
X144970000Y-48608000D01*
X144972000Y-48611000D01*
X144975000Y-48613000D01*
X144977000Y-48615000D01*
X144979000Y-48618000D01*
X144980000Y-48620000D01*
X144982000Y-48623000D01*
X144983000Y-48626000D01*
X144985000Y-48629000D01*
X144986000Y-48631000D01*
X144987000Y-48634000D01*
X144988000Y-48637000D01*
X144989000Y-48641000D01*
X144989000Y-48644000D01*
X144990000Y-48647000D01*
X144990000Y-48650000D01*
X144990000Y-48653000D01*
X144990000Y-49347000D01*
X144990000Y-49350000D01*
X144990000Y-49353000D01*
X144989000Y-49356000D01*
X144989000Y-49359000D01*
X144988000Y-49363000D01*
X144987000Y-49366000D01*
X144986000Y-49369000D01*
X144985000Y-49371000D01*
X144983000Y-49374000D01*
X144982000Y-49377000D01*
X144980000Y-49380000D01*
X144979000Y-49382000D01*
X144977000Y-49385000D01*
X144975000Y-49387000D01*
X144972000Y-49389000D01*
X144970000Y-49392000D01*
X144968000Y-49394000D01*
X144965000Y-49396000D01*
X144963000Y-49397000D01*
X144960000Y-49399000D01*
X144957000Y-49400000D01*
X144954000Y-49402000D01*
X144952000Y-49403000D01*
X144949000Y-49404000D01*
X144946000Y-49405000D01*
X144942000Y-49406000D01*
X144939000Y-49406000D01*
X144936000Y-49407000D01*
X144933000Y-49407000D01*
X144930000Y-49407000D01*
X144870000Y-49407000D01*
X144867000Y-49407000D01*
X144864000Y-49407000D01*
X144861000Y-49406000D01*
X144858000Y-49406000D01*
X144854000Y-49405000D01*
X144851000Y-49404000D01*
X144848000Y-49403000D01*
X144846000Y-49402000D01*
X144843000Y-49400000D01*
X144840000Y-49399000D01*
X144837000Y-49397000D01*
X144835000Y-49396000D01*
X144832000Y-49394000D01*
X144830000Y-49392000D01*
X144828000Y-49389000D01*
X144825000Y-49387000D01*
X144823000Y-49385000D01*
X144821000Y-49382000D01*
X144820000Y-49380000D01*
X144818000Y-49377000D01*
X144817000Y-49374000D01*
X144815000Y-49371000D01*
X144814000Y-49369000D01*
X144813000Y-49366000D01*
X144812000Y-49363000D01*
X144811000Y-49359000D01*
X144811000Y-49356000D01*
X144810000Y-49353000D01*
X144810000Y-49350000D01*
X144810000Y-49347000D01*
X144810000Y-48653000D01*
X144810000Y-48650000D01*
X144810000Y-48647000D01*
X144811000Y-48644000D01*
X144811000Y-48641000D01*
X144812000Y-48637000D01*
X144813000Y-48634000D01*
X144814000Y-48631000D01*
X144815000Y-48629000D01*
X144817000Y-48626000D01*
X144818000Y-48623000D01*
X144820000Y-48620000D01*
X144821000Y-48618000D01*
X144823000Y-48615000D01*
X144825000Y-48613000D01*
X144828000Y-48611000D01*
X144830000Y-48608000D01*
X144832000Y-48606000D01*
X144835000Y-48604000D01*
X144837000Y-48603000D01*
X144840000Y-48601000D01*
X144843000Y-48600000D01*
X144846000Y-48598000D01*
X144848000Y-48597000D01*
X144851000Y-48596000D01*
X144854000Y-48595000D01*
X144858000Y-48594000D01*
X144861000Y-48594000D01*
X144864000Y-48593000D01*
X144867000Y-48593000D01*
X144870000Y-48593000D01*
X144930000Y-48593000D01*
X144933000Y-48593000D01*
X144936000Y-48593000D01*
X144939000Y-48594000D01*
G36*
X144939000Y-48594000D02*
G01*
X144942000Y-48594000D01*
X144946000Y-48595000D01*
X144949000Y-48596000D01*
X144952000Y-48597000D01*
X144954000Y-48598000D01*
X144957000Y-48600000D01*
X144960000Y-48601000D01*
X144963000Y-48603000D01*
X144965000Y-48604000D01*
X144968000Y-48606000D01*
X144970000Y-48608000D01*
X144972000Y-48611000D01*
X144975000Y-48613000D01*
X144977000Y-48615000D01*
X144979000Y-48618000D01*
X144980000Y-48620000D01*
X144982000Y-48623000D01*
X144983000Y-48626000D01*
X144985000Y-48629000D01*
X144986000Y-48631000D01*
X144987000Y-48634000D01*
X144988000Y-48637000D01*
X144989000Y-48641000D01*
X144989000Y-48644000D01*
X144990000Y-48647000D01*
X144990000Y-48650000D01*
X144990000Y-48653000D01*
X144990000Y-49347000D01*
X144990000Y-49350000D01*
X144990000Y-49353000D01*
X144989000Y-49356000D01*
X144989000Y-49359000D01*
X144988000Y-49363000D01*
X144987000Y-49366000D01*
X144986000Y-49369000D01*
X144985000Y-49371000D01*
X144983000Y-49374000D01*
X144982000Y-49377000D01*
X144980000Y-49380000D01*
X144979000Y-49382000D01*
X144977000Y-49385000D01*
X144975000Y-49387000D01*
X144972000Y-49389000D01*
X144970000Y-49392000D01*
X144968000Y-49394000D01*
X144965000Y-49396000D01*
X144963000Y-49397000D01*
X144960000Y-49399000D01*
X144957000Y-49400000D01*
X144954000Y-49402000D01*
X144952000Y-49403000D01*
X144949000Y-49404000D01*
X144946000Y-49405000D01*
X144942000Y-49406000D01*
X144939000Y-49406000D01*
X144936000Y-49407000D01*
X144933000Y-49407000D01*
X144930000Y-49407000D01*
X144870000Y-49407000D01*
X144867000Y-49407000D01*
X144864000Y-49407000D01*
X144861000Y-49406000D01*
X144858000Y-49406000D01*
X144854000Y-49405000D01*
X144851000Y-49404000D01*
X144848000Y-49403000D01*
X144846000Y-49402000D01*
X144843000Y-49400000D01*
X144840000Y-49399000D01*
X144837000Y-49397000D01*
X144835000Y-49396000D01*
X144832000Y-49394000D01*
X144830000Y-49392000D01*
X144828000Y-49389000D01*
X144825000Y-49387000D01*
X144823000Y-49385000D01*
X144821000Y-49382000D01*
X144820000Y-49380000D01*
X144818000Y-49377000D01*
X144817000Y-49374000D01*
X144815000Y-49371000D01*
X144814000Y-49369000D01*
X144813000Y-49366000D01*
X144812000Y-49363000D01*
X144811000Y-49359000D01*
X144811000Y-49356000D01*
X144810000Y-49353000D01*
X144810000Y-49350000D01*
X144810000Y-49347000D01*
X144810000Y-48653000D01*
X144810000Y-48650000D01*
X144810000Y-48647000D01*
X144811000Y-48644000D01*
X144811000Y-48641000D01*
X144812000Y-48637000D01*
X144813000Y-48634000D01*
X144814000Y-48631000D01*
X144815000Y-48629000D01*
X144817000Y-48626000D01*
X144818000Y-48623000D01*
X144820000Y-48620000D01*
X144821000Y-48618000D01*
X144823000Y-48615000D01*
X144825000Y-48613000D01*
X144828000Y-48611000D01*
X144830000Y-48608000D01*
X144832000Y-48606000D01*
X144835000Y-48604000D01*
X144837000Y-48603000D01*
X144840000Y-48601000D01*
X144843000Y-48600000D01*
X144846000Y-48598000D01*
X144848000Y-48597000D01*
X144851000Y-48596000D01*
X144854000Y-48595000D01*
X144858000Y-48594000D01*
X144861000Y-48594000D01*
X144864000Y-48593000D01*
X144867000Y-48593000D01*
X144870000Y-48593000D01*
X144930000Y-48593000D01*
X144933000Y-48593000D01*
X144936000Y-48593000D01*
X144939000Y-48594000D01*
G37*
X145339000Y-48594000D02*
X145342000Y-48594000D01*
X145346000Y-48595000D01*
X145349000Y-48596000D01*
X145352000Y-48597000D01*
X145354000Y-48598000D01*
X145357000Y-48600000D01*
X145360000Y-48601000D01*
X145363000Y-48603000D01*
X145365000Y-48604000D01*
X145368000Y-48606000D01*
X145370000Y-48608000D01*
X145372000Y-48611000D01*
X145375000Y-48613000D01*
X145377000Y-48615000D01*
X145379000Y-48618000D01*
X145380000Y-48620000D01*
X145382000Y-48623000D01*
X145383000Y-48626000D01*
X145385000Y-48629000D01*
X145386000Y-48631000D01*
X145387000Y-48634000D01*
X145388000Y-48637000D01*
X145389000Y-48641000D01*
X145389000Y-48644000D01*
X145390000Y-48647000D01*
X145390000Y-48650000D01*
X145390000Y-48653000D01*
X145390000Y-49347000D01*
X145390000Y-49350000D01*
X145390000Y-49353000D01*
X145389000Y-49356000D01*
X145389000Y-49359000D01*
X145388000Y-49363000D01*
X145387000Y-49366000D01*
X145386000Y-49369000D01*
X145385000Y-49371000D01*
X145383000Y-49374000D01*
X145382000Y-49377000D01*
X145380000Y-49380000D01*
X145379000Y-49382000D01*
X145377000Y-49385000D01*
X145375000Y-49387000D01*
X145372000Y-49389000D01*
X145370000Y-49392000D01*
X145368000Y-49394000D01*
X145365000Y-49396000D01*
X145363000Y-49397000D01*
X145360000Y-49399000D01*
X145357000Y-49400000D01*
X145354000Y-49402000D01*
X145352000Y-49403000D01*
X145349000Y-49404000D01*
X145346000Y-49405000D01*
X145342000Y-49406000D01*
X145339000Y-49406000D01*
X145336000Y-49407000D01*
X145333000Y-49407000D01*
X145330000Y-49407000D01*
X145270000Y-49407000D01*
X145267000Y-49407000D01*
X145264000Y-49407000D01*
X145261000Y-49406000D01*
X145258000Y-49406000D01*
X145254000Y-49405000D01*
X145251000Y-49404000D01*
X145248000Y-49403000D01*
X145246000Y-49402000D01*
X145243000Y-49400000D01*
X145240000Y-49399000D01*
X145237000Y-49397000D01*
X145235000Y-49396000D01*
X145232000Y-49394000D01*
X145230000Y-49392000D01*
X145228000Y-49389000D01*
X145225000Y-49387000D01*
X145223000Y-49385000D01*
X145221000Y-49382000D01*
X145220000Y-49380000D01*
X145218000Y-49377000D01*
X145217000Y-49374000D01*
X145215000Y-49371000D01*
X145214000Y-49369000D01*
X145213000Y-49366000D01*
X145212000Y-49363000D01*
X145211000Y-49359000D01*
X145211000Y-49356000D01*
X145210000Y-49353000D01*
X145210000Y-49350000D01*
X145210000Y-49347000D01*
X145210000Y-48653000D01*
X145210000Y-48650000D01*
X145210000Y-48647000D01*
X145211000Y-48644000D01*
X145211000Y-48641000D01*
X145212000Y-48637000D01*
X145213000Y-48634000D01*
X145214000Y-48631000D01*
X145215000Y-48629000D01*
X145217000Y-48626000D01*
X145218000Y-48623000D01*
X145220000Y-48620000D01*
X145221000Y-48618000D01*
X145223000Y-48615000D01*
X145225000Y-48613000D01*
X145228000Y-48611000D01*
X145230000Y-48608000D01*
X145232000Y-48606000D01*
X145235000Y-48604000D01*
X145237000Y-48603000D01*
X145240000Y-48601000D01*
X145243000Y-48600000D01*
X145246000Y-48598000D01*
X145248000Y-48597000D01*
X145251000Y-48596000D01*
X145254000Y-48595000D01*
X145258000Y-48594000D01*
X145261000Y-48594000D01*
X145264000Y-48593000D01*
X145267000Y-48593000D01*
X145270000Y-48593000D01*
X145330000Y-48593000D01*
X145333000Y-48593000D01*
X145336000Y-48593000D01*
X145339000Y-48594000D01*
G36*
X145339000Y-48594000D02*
G01*
X145342000Y-48594000D01*
X145346000Y-48595000D01*
X145349000Y-48596000D01*
X145352000Y-48597000D01*
X145354000Y-48598000D01*
X145357000Y-48600000D01*
X145360000Y-48601000D01*
X145363000Y-48603000D01*
X145365000Y-48604000D01*
X145368000Y-48606000D01*
X145370000Y-48608000D01*
X145372000Y-48611000D01*
X145375000Y-48613000D01*
X145377000Y-48615000D01*
X145379000Y-48618000D01*
X145380000Y-48620000D01*
X145382000Y-48623000D01*
X145383000Y-48626000D01*
X145385000Y-48629000D01*
X145386000Y-48631000D01*
X145387000Y-48634000D01*
X145388000Y-48637000D01*
X145389000Y-48641000D01*
X145389000Y-48644000D01*
X145390000Y-48647000D01*
X145390000Y-48650000D01*
X145390000Y-48653000D01*
X145390000Y-49347000D01*
X145390000Y-49350000D01*
X145390000Y-49353000D01*
X145389000Y-49356000D01*
X145389000Y-49359000D01*
X145388000Y-49363000D01*
X145387000Y-49366000D01*
X145386000Y-49369000D01*
X145385000Y-49371000D01*
X145383000Y-49374000D01*
X145382000Y-49377000D01*
X145380000Y-49380000D01*
X145379000Y-49382000D01*
X145377000Y-49385000D01*
X145375000Y-49387000D01*
X145372000Y-49389000D01*
X145370000Y-49392000D01*
X145368000Y-49394000D01*
X145365000Y-49396000D01*
X145363000Y-49397000D01*
X145360000Y-49399000D01*
X145357000Y-49400000D01*
X145354000Y-49402000D01*
X145352000Y-49403000D01*
X145349000Y-49404000D01*
X145346000Y-49405000D01*
X145342000Y-49406000D01*
X145339000Y-49406000D01*
X145336000Y-49407000D01*
X145333000Y-49407000D01*
X145330000Y-49407000D01*
X145270000Y-49407000D01*
X145267000Y-49407000D01*
X145264000Y-49407000D01*
X145261000Y-49406000D01*
X145258000Y-49406000D01*
X145254000Y-49405000D01*
X145251000Y-49404000D01*
X145248000Y-49403000D01*
X145246000Y-49402000D01*
X145243000Y-49400000D01*
X145240000Y-49399000D01*
X145237000Y-49397000D01*
X145235000Y-49396000D01*
X145232000Y-49394000D01*
X145230000Y-49392000D01*
X145228000Y-49389000D01*
X145225000Y-49387000D01*
X145223000Y-49385000D01*
X145221000Y-49382000D01*
X145220000Y-49380000D01*
X145218000Y-49377000D01*
X145217000Y-49374000D01*
X145215000Y-49371000D01*
X145214000Y-49369000D01*
X145213000Y-49366000D01*
X145212000Y-49363000D01*
X145211000Y-49359000D01*
X145211000Y-49356000D01*
X145210000Y-49353000D01*
X145210000Y-49350000D01*
X145210000Y-49347000D01*
X145210000Y-48653000D01*
X145210000Y-48650000D01*
X145210000Y-48647000D01*
X145211000Y-48644000D01*
X145211000Y-48641000D01*
X145212000Y-48637000D01*
X145213000Y-48634000D01*
X145214000Y-48631000D01*
X145215000Y-48629000D01*
X145217000Y-48626000D01*
X145218000Y-48623000D01*
X145220000Y-48620000D01*
X145221000Y-48618000D01*
X145223000Y-48615000D01*
X145225000Y-48613000D01*
X145228000Y-48611000D01*
X145230000Y-48608000D01*
X145232000Y-48606000D01*
X145235000Y-48604000D01*
X145237000Y-48603000D01*
X145240000Y-48601000D01*
X145243000Y-48600000D01*
X145246000Y-48598000D01*
X145248000Y-48597000D01*
X145251000Y-48596000D01*
X145254000Y-48595000D01*
X145258000Y-48594000D01*
X145261000Y-48594000D01*
X145264000Y-48593000D01*
X145267000Y-48593000D01*
X145270000Y-48593000D01*
X145330000Y-48593000D01*
X145333000Y-48593000D01*
X145336000Y-48593000D01*
X145339000Y-48594000D01*
G37*
X145739000Y-48594000D02*
X145742000Y-48594000D01*
X145746000Y-48595000D01*
X145749000Y-48596000D01*
X145752000Y-48597000D01*
X145754000Y-48598000D01*
X145757000Y-48600000D01*
X145760000Y-48601000D01*
X145763000Y-48603000D01*
X145765000Y-48604000D01*
X145768000Y-48606000D01*
X145770000Y-48608000D01*
X145772000Y-48611000D01*
X145775000Y-48613000D01*
X145777000Y-48615000D01*
X145779000Y-48618000D01*
X145780000Y-48620000D01*
X145782000Y-48623000D01*
X145783000Y-48626000D01*
X145785000Y-48629000D01*
X145786000Y-48631000D01*
X145787000Y-48634000D01*
X145788000Y-48637000D01*
X145789000Y-48641000D01*
X145789000Y-48644000D01*
X145790000Y-48647000D01*
X145790000Y-48650000D01*
X145790000Y-48653000D01*
X145790000Y-49347000D01*
X145790000Y-49350000D01*
X145790000Y-49353000D01*
X145789000Y-49356000D01*
X145789000Y-49359000D01*
X145788000Y-49363000D01*
X145787000Y-49366000D01*
X145786000Y-49369000D01*
X145785000Y-49371000D01*
X145783000Y-49374000D01*
X145782000Y-49377000D01*
X145780000Y-49380000D01*
X145779000Y-49382000D01*
X145777000Y-49385000D01*
X145775000Y-49387000D01*
X145772000Y-49389000D01*
X145770000Y-49392000D01*
X145768000Y-49394000D01*
X145765000Y-49396000D01*
X145763000Y-49397000D01*
X145760000Y-49399000D01*
X145757000Y-49400000D01*
X145754000Y-49402000D01*
X145752000Y-49403000D01*
X145749000Y-49404000D01*
X145746000Y-49405000D01*
X145742000Y-49406000D01*
X145739000Y-49406000D01*
X145736000Y-49407000D01*
X145733000Y-49407000D01*
X145730000Y-49407000D01*
X145670000Y-49407000D01*
X145667000Y-49407000D01*
X145664000Y-49407000D01*
X145661000Y-49406000D01*
X145658000Y-49406000D01*
X145654000Y-49405000D01*
X145651000Y-49404000D01*
X145648000Y-49403000D01*
X145646000Y-49402000D01*
X145643000Y-49400000D01*
X145640000Y-49399000D01*
X145637000Y-49397000D01*
X145635000Y-49396000D01*
X145632000Y-49394000D01*
X145630000Y-49392000D01*
X145628000Y-49389000D01*
X145625000Y-49387000D01*
X145623000Y-49385000D01*
X145621000Y-49382000D01*
X145620000Y-49380000D01*
X145618000Y-49377000D01*
X145617000Y-49374000D01*
X145615000Y-49371000D01*
X145614000Y-49369000D01*
X145613000Y-49366000D01*
X145612000Y-49363000D01*
X145611000Y-49359000D01*
X145611000Y-49356000D01*
X145610000Y-49353000D01*
X145610000Y-49350000D01*
X145610000Y-49347000D01*
X145610000Y-48653000D01*
X145610000Y-48650000D01*
X145610000Y-48647000D01*
X145611000Y-48644000D01*
X145611000Y-48641000D01*
X145612000Y-48637000D01*
X145613000Y-48634000D01*
X145614000Y-48631000D01*
X145615000Y-48629000D01*
X145617000Y-48626000D01*
X145618000Y-48623000D01*
X145620000Y-48620000D01*
X145621000Y-48618000D01*
X145623000Y-48615000D01*
X145625000Y-48613000D01*
X145628000Y-48611000D01*
X145630000Y-48608000D01*
X145632000Y-48606000D01*
X145635000Y-48604000D01*
X145637000Y-48603000D01*
X145640000Y-48601000D01*
X145643000Y-48600000D01*
X145646000Y-48598000D01*
X145648000Y-48597000D01*
X145651000Y-48596000D01*
X145654000Y-48595000D01*
X145658000Y-48594000D01*
X145661000Y-48594000D01*
X145664000Y-48593000D01*
X145667000Y-48593000D01*
X145670000Y-48593000D01*
X145730000Y-48593000D01*
X145733000Y-48593000D01*
X145736000Y-48593000D01*
X145739000Y-48594000D01*
G36*
X145739000Y-48594000D02*
G01*
X145742000Y-48594000D01*
X145746000Y-48595000D01*
X145749000Y-48596000D01*
X145752000Y-48597000D01*
X145754000Y-48598000D01*
X145757000Y-48600000D01*
X145760000Y-48601000D01*
X145763000Y-48603000D01*
X145765000Y-48604000D01*
X145768000Y-48606000D01*
X145770000Y-48608000D01*
X145772000Y-48611000D01*
X145775000Y-48613000D01*
X145777000Y-48615000D01*
X145779000Y-48618000D01*
X145780000Y-48620000D01*
X145782000Y-48623000D01*
X145783000Y-48626000D01*
X145785000Y-48629000D01*
X145786000Y-48631000D01*
X145787000Y-48634000D01*
X145788000Y-48637000D01*
X145789000Y-48641000D01*
X145789000Y-48644000D01*
X145790000Y-48647000D01*
X145790000Y-48650000D01*
X145790000Y-48653000D01*
X145790000Y-49347000D01*
X145790000Y-49350000D01*
X145790000Y-49353000D01*
X145789000Y-49356000D01*
X145789000Y-49359000D01*
X145788000Y-49363000D01*
X145787000Y-49366000D01*
X145786000Y-49369000D01*
X145785000Y-49371000D01*
X145783000Y-49374000D01*
X145782000Y-49377000D01*
X145780000Y-49380000D01*
X145779000Y-49382000D01*
X145777000Y-49385000D01*
X145775000Y-49387000D01*
X145772000Y-49389000D01*
X145770000Y-49392000D01*
X145768000Y-49394000D01*
X145765000Y-49396000D01*
X145763000Y-49397000D01*
X145760000Y-49399000D01*
X145757000Y-49400000D01*
X145754000Y-49402000D01*
X145752000Y-49403000D01*
X145749000Y-49404000D01*
X145746000Y-49405000D01*
X145742000Y-49406000D01*
X145739000Y-49406000D01*
X145736000Y-49407000D01*
X145733000Y-49407000D01*
X145730000Y-49407000D01*
X145670000Y-49407000D01*
X145667000Y-49407000D01*
X145664000Y-49407000D01*
X145661000Y-49406000D01*
X145658000Y-49406000D01*
X145654000Y-49405000D01*
X145651000Y-49404000D01*
X145648000Y-49403000D01*
X145646000Y-49402000D01*
X145643000Y-49400000D01*
X145640000Y-49399000D01*
X145637000Y-49397000D01*
X145635000Y-49396000D01*
X145632000Y-49394000D01*
X145630000Y-49392000D01*
X145628000Y-49389000D01*
X145625000Y-49387000D01*
X145623000Y-49385000D01*
X145621000Y-49382000D01*
X145620000Y-49380000D01*
X145618000Y-49377000D01*
X145617000Y-49374000D01*
X145615000Y-49371000D01*
X145614000Y-49369000D01*
X145613000Y-49366000D01*
X145612000Y-49363000D01*
X145611000Y-49359000D01*
X145611000Y-49356000D01*
X145610000Y-49353000D01*
X145610000Y-49350000D01*
X145610000Y-49347000D01*
X145610000Y-48653000D01*
X145610000Y-48650000D01*
X145610000Y-48647000D01*
X145611000Y-48644000D01*
X145611000Y-48641000D01*
X145612000Y-48637000D01*
X145613000Y-48634000D01*
X145614000Y-48631000D01*
X145615000Y-48629000D01*
X145617000Y-48626000D01*
X145618000Y-48623000D01*
X145620000Y-48620000D01*
X145621000Y-48618000D01*
X145623000Y-48615000D01*
X145625000Y-48613000D01*
X145628000Y-48611000D01*
X145630000Y-48608000D01*
X145632000Y-48606000D01*
X145635000Y-48604000D01*
X145637000Y-48603000D01*
X145640000Y-48601000D01*
X145643000Y-48600000D01*
X145646000Y-48598000D01*
X145648000Y-48597000D01*
X145651000Y-48596000D01*
X145654000Y-48595000D01*
X145658000Y-48594000D01*
X145661000Y-48594000D01*
X145664000Y-48593000D01*
X145667000Y-48593000D01*
X145670000Y-48593000D01*
X145730000Y-48593000D01*
X145733000Y-48593000D01*
X145736000Y-48593000D01*
X145739000Y-48594000D01*
G37*
X146139000Y-48594000D02*
X146142000Y-48594000D01*
X146146000Y-48595000D01*
X146149000Y-48596000D01*
X146152000Y-48597000D01*
X146154000Y-48598000D01*
X146157000Y-48600000D01*
X146160000Y-48601000D01*
X146163000Y-48603000D01*
X146165000Y-48604000D01*
X146168000Y-48606000D01*
X146170000Y-48608000D01*
X146172000Y-48611000D01*
X146175000Y-48613000D01*
X146177000Y-48615000D01*
X146179000Y-48618000D01*
X146180000Y-48620000D01*
X146182000Y-48623000D01*
X146183000Y-48626000D01*
X146185000Y-48629000D01*
X146186000Y-48631000D01*
X146187000Y-48634000D01*
X146188000Y-48637000D01*
X146189000Y-48641000D01*
X146189000Y-48644000D01*
X146190000Y-48647000D01*
X146190000Y-48650000D01*
X146190000Y-48653000D01*
X146190000Y-48829000D01*
X146190000Y-48832000D01*
X146190000Y-48835000D01*
X146189000Y-48838000D01*
X146189000Y-48841000D01*
X146188000Y-48845000D01*
X146187000Y-48848000D01*
X146186000Y-48851000D01*
X146185000Y-48853000D01*
X146183000Y-48856000D01*
X146182000Y-48859000D01*
X146180000Y-48862000D01*
X146179000Y-48864000D01*
X146177000Y-48867000D01*
X146175000Y-48869000D01*
X146172000Y-48871000D01*
X146170000Y-48874000D01*
X146168000Y-48876000D01*
X146165000Y-48878000D01*
X146163000Y-48879000D01*
X146160000Y-48881000D01*
X146157000Y-48882000D01*
X146154000Y-48884000D01*
X146152000Y-48885000D01*
X146149000Y-48886000D01*
X146146000Y-48887000D01*
X146142000Y-48888000D01*
X146139000Y-48888000D01*
X146136000Y-48889000D01*
X146133000Y-48889000D01*
X146130000Y-48889000D01*
X146070000Y-48889000D01*
X146067000Y-48889000D01*
X146064000Y-48889000D01*
X146061000Y-48888000D01*
X146058000Y-48888000D01*
X146054000Y-48887000D01*
X146051000Y-48886000D01*
X146048000Y-48885000D01*
X146046000Y-48884000D01*
X146043000Y-48882000D01*
X146040000Y-48881000D01*
X146037000Y-48879000D01*
X146035000Y-48878000D01*
X146032000Y-48876000D01*
X146030000Y-48874000D01*
X146028000Y-48871000D01*
X146025000Y-48869000D01*
X146023000Y-48867000D01*
X146021000Y-48864000D01*
X146020000Y-48862000D01*
X146018000Y-48859000D01*
X146017000Y-48856000D01*
X146015000Y-48853000D01*
X146014000Y-48851000D01*
X146013000Y-48848000D01*
X146012000Y-48845000D01*
X146011000Y-48841000D01*
X146011000Y-48838000D01*
X146010000Y-48835000D01*
X146010000Y-48832000D01*
X146010000Y-48829000D01*
X146010000Y-48653000D01*
X146010000Y-48650000D01*
X146010000Y-48647000D01*
X146011000Y-48644000D01*
X146011000Y-48641000D01*
X146012000Y-48637000D01*
X146013000Y-48634000D01*
X146014000Y-48631000D01*
X146015000Y-48629000D01*
X146017000Y-48626000D01*
X146018000Y-48623000D01*
X146020000Y-48620000D01*
X146021000Y-48618000D01*
X146023000Y-48615000D01*
X146025000Y-48613000D01*
X146028000Y-48611000D01*
X146030000Y-48608000D01*
X146032000Y-48606000D01*
X146035000Y-48604000D01*
X146037000Y-48603000D01*
X146040000Y-48601000D01*
X146043000Y-48600000D01*
X146046000Y-48598000D01*
X146048000Y-48597000D01*
X146051000Y-48596000D01*
X146054000Y-48595000D01*
X146058000Y-48594000D01*
X146061000Y-48594000D01*
X146064000Y-48593000D01*
X146067000Y-48593000D01*
X146070000Y-48593000D01*
X146130000Y-48593000D01*
X146133000Y-48593000D01*
X146136000Y-48593000D01*
X146139000Y-48594000D01*
G36*
X146139000Y-48594000D02*
G01*
X146142000Y-48594000D01*
X146146000Y-48595000D01*
X146149000Y-48596000D01*
X146152000Y-48597000D01*
X146154000Y-48598000D01*
X146157000Y-48600000D01*
X146160000Y-48601000D01*
X146163000Y-48603000D01*
X146165000Y-48604000D01*
X146168000Y-48606000D01*
X146170000Y-48608000D01*
X146172000Y-48611000D01*
X146175000Y-48613000D01*
X146177000Y-48615000D01*
X146179000Y-48618000D01*
X146180000Y-48620000D01*
X146182000Y-48623000D01*
X146183000Y-48626000D01*
X146185000Y-48629000D01*
X146186000Y-48631000D01*
X146187000Y-48634000D01*
X146188000Y-48637000D01*
X146189000Y-48641000D01*
X146189000Y-48644000D01*
X146190000Y-48647000D01*
X146190000Y-48650000D01*
X146190000Y-48653000D01*
X146190000Y-48829000D01*
X146190000Y-48832000D01*
X146190000Y-48835000D01*
X146189000Y-48838000D01*
X146189000Y-48841000D01*
X146188000Y-48845000D01*
X146187000Y-48848000D01*
X146186000Y-48851000D01*
X146185000Y-48853000D01*
X146183000Y-48856000D01*
X146182000Y-48859000D01*
X146180000Y-48862000D01*
X146179000Y-48864000D01*
X146177000Y-48867000D01*
X146175000Y-48869000D01*
X146172000Y-48871000D01*
X146170000Y-48874000D01*
X146168000Y-48876000D01*
X146165000Y-48878000D01*
X146163000Y-48879000D01*
X146160000Y-48881000D01*
X146157000Y-48882000D01*
X146154000Y-48884000D01*
X146152000Y-48885000D01*
X146149000Y-48886000D01*
X146146000Y-48887000D01*
X146142000Y-48888000D01*
X146139000Y-48888000D01*
X146136000Y-48889000D01*
X146133000Y-48889000D01*
X146130000Y-48889000D01*
X146070000Y-48889000D01*
X146067000Y-48889000D01*
X146064000Y-48889000D01*
X146061000Y-48888000D01*
X146058000Y-48888000D01*
X146054000Y-48887000D01*
X146051000Y-48886000D01*
X146048000Y-48885000D01*
X146046000Y-48884000D01*
X146043000Y-48882000D01*
X146040000Y-48881000D01*
X146037000Y-48879000D01*
X146035000Y-48878000D01*
X146032000Y-48876000D01*
X146030000Y-48874000D01*
X146028000Y-48871000D01*
X146025000Y-48869000D01*
X146023000Y-48867000D01*
X146021000Y-48864000D01*
X146020000Y-48862000D01*
X146018000Y-48859000D01*
X146017000Y-48856000D01*
X146015000Y-48853000D01*
X146014000Y-48851000D01*
X146013000Y-48848000D01*
X146012000Y-48845000D01*
X146011000Y-48841000D01*
X146011000Y-48838000D01*
X146010000Y-48835000D01*
X146010000Y-48832000D01*
X146010000Y-48829000D01*
X146010000Y-48653000D01*
X146010000Y-48650000D01*
X146010000Y-48647000D01*
X146011000Y-48644000D01*
X146011000Y-48641000D01*
X146012000Y-48637000D01*
X146013000Y-48634000D01*
X146014000Y-48631000D01*
X146015000Y-48629000D01*
X146017000Y-48626000D01*
X146018000Y-48623000D01*
X146020000Y-48620000D01*
X146021000Y-48618000D01*
X146023000Y-48615000D01*
X146025000Y-48613000D01*
X146028000Y-48611000D01*
X146030000Y-48608000D01*
X146032000Y-48606000D01*
X146035000Y-48604000D01*
X146037000Y-48603000D01*
X146040000Y-48601000D01*
X146043000Y-48600000D01*
X146046000Y-48598000D01*
X146048000Y-48597000D01*
X146051000Y-48596000D01*
X146054000Y-48595000D01*
X146058000Y-48594000D01*
X146061000Y-48594000D01*
X146064000Y-48593000D01*
X146067000Y-48593000D01*
X146070000Y-48593000D01*
X146130000Y-48593000D01*
X146133000Y-48593000D01*
X146136000Y-48593000D01*
X146139000Y-48594000D01*
G37*
X146139000Y-49112000D02*
X146142000Y-49112000D01*
X146146000Y-49113000D01*
X146149000Y-49114000D01*
X146152000Y-49115000D01*
X146154000Y-49116000D01*
X146157000Y-49118000D01*
X146160000Y-49119000D01*
X146163000Y-49121000D01*
X146165000Y-49122000D01*
X146168000Y-49124000D01*
X146170000Y-49126000D01*
X146172000Y-49129000D01*
X146175000Y-49131000D01*
X146177000Y-49133000D01*
X146179000Y-49136000D01*
X146180000Y-49138000D01*
X146182000Y-49141000D01*
X146183000Y-49144000D01*
X146185000Y-49147000D01*
X146186000Y-49149000D01*
X146187000Y-49152000D01*
X146188000Y-49155000D01*
X146189000Y-49159000D01*
X146189000Y-49162000D01*
X146190000Y-49165000D01*
X146190000Y-49168000D01*
X146190000Y-49171000D01*
X146190000Y-49347000D01*
X146190000Y-49350000D01*
X146190000Y-49353000D01*
X146189000Y-49356000D01*
X146189000Y-49359000D01*
X146188000Y-49363000D01*
X146187000Y-49366000D01*
X146186000Y-49369000D01*
X146185000Y-49371000D01*
X146183000Y-49374000D01*
X146182000Y-49377000D01*
X146180000Y-49380000D01*
X146179000Y-49382000D01*
X146177000Y-49385000D01*
X146175000Y-49387000D01*
X146172000Y-49389000D01*
X146170000Y-49392000D01*
X146168000Y-49394000D01*
X146165000Y-49396000D01*
X146163000Y-49397000D01*
X146160000Y-49399000D01*
X146157000Y-49400000D01*
X146154000Y-49402000D01*
X146152000Y-49403000D01*
X146149000Y-49404000D01*
X146146000Y-49405000D01*
X146142000Y-49406000D01*
X146139000Y-49406000D01*
X146136000Y-49407000D01*
X146133000Y-49407000D01*
X146130000Y-49407000D01*
X146070000Y-49407000D01*
X146067000Y-49407000D01*
X146064000Y-49407000D01*
X146061000Y-49406000D01*
X146058000Y-49406000D01*
X146054000Y-49405000D01*
X146051000Y-49404000D01*
X146048000Y-49403000D01*
X146046000Y-49402000D01*
X146043000Y-49400000D01*
X146040000Y-49399000D01*
X146037000Y-49397000D01*
X146035000Y-49396000D01*
X146032000Y-49394000D01*
X146030000Y-49392000D01*
X146028000Y-49389000D01*
X146025000Y-49387000D01*
X146023000Y-49385000D01*
X146021000Y-49382000D01*
X146020000Y-49380000D01*
X146018000Y-49377000D01*
X146017000Y-49374000D01*
X146015000Y-49371000D01*
X146014000Y-49369000D01*
X146013000Y-49366000D01*
X146012000Y-49363000D01*
X146011000Y-49359000D01*
X146011000Y-49356000D01*
X146010000Y-49353000D01*
X146010000Y-49350000D01*
X146010000Y-49347000D01*
X146010000Y-49171000D01*
X146010000Y-49168000D01*
X146010000Y-49165000D01*
X146011000Y-49162000D01*
X146011000Y-49159000D01*
X146012000Y-49155000D01*
X146013000Y-49152000D01*
X146014000Y-49149000D01*
X146015000Y-49147000D01*
X146017000Y-49144000D01*
X146018000Y-49141000D01*
X146020000Y-49138000D01*
X146021000Y-49136000D01*
X146023000Y-49133000D01*
X146025000Y-49131000D01*
X146028000Y-49129000D01*
X146030000Y-49126000D01*
X146032000Y-49124000D01*
X146035000Y-49122000D01*
X146037000Y-49121000D01*
X146040000Y-49119000D01*
X146043000Y-49118000D01*
X146046000Y-49116000D01*
X146048000Y-49115000D01*
X146051000Y-49114000D01*
X146054000Y-49113000D01*
X146058000Y-49112000D01*
X146061000Y-49112000D01*
X146064000Y-49111000D01*
X146067000Y-49111000D01*
X146070000Y-49111000D01*
X146130000Y-49111000D01*
X146133000Y-49111000D01*
X146136000Y-49111000D01*
X146139000Y-49112000D01*
G36*
X146139000Y-49112000D02*
G01*
X146142000Y-49112000D01*
X146146000Y-49113000D01*
X146149000Y-49114000D01*
X146152000Y-49115000D01*
X146154000Y-49116000D01*
X146157000Y-49118000D01*
X146160000Y-49119000D01*
X146163000Y-49121000D01*
X146165000Y-49122000D01*
X146168000Y-49124000D01*
X146170000Y-49126000D01*
X146172000Y-49129000D01*
X146175000Y-49131000D01*
X146177000Y-49133000D01*
X146179000Y-49136000D01*
X146180000Y-49138000D01*
X146182000Y-49141000D01*
X146183000Y-49144000D01*
X146185000Y-49147000D01*
X146186000Y-49149000D01*
X146187000Y-49152000D01*
X146188000Y-49155000D01*
X146189000Y-49159000D01*
X146189000Y-49162000D01*
X146190000Y-49165000D01*
X146190000Y-49168000D01*
X146190000Y-49171000D01*
X146190000Y-49347000D01*
X146190000Y-49350000D01*
X146190000Y-49353000D01*
X146189000Y-49356000D01*
X146189000Y-49359000D01*
X146188000Y-49363000D01*
X146187000Y-49366000D01*
X146186000Y-49369000D01*
X146185000Y-49371000D01*
X146183000Y-49374000D01*
X146182000Y-49377000D01*
X146180000Y-49380000D01*
X146179000Y-49382000D01*
X146177000Y-49385000D01*
X146175000Y-49387000D01*
X146172000Y-49389000D01*
X146170000Y-49392000D01*
X146168000Y-49394000D01*
X146165000Y-49396000D01*
X146163000Y-49397000D01*
X146160000Y-49399000D01*
X146157000Y-49400000D01*
X146154000Y-49402000D01*
X146152000Y-49403000D01*
X146149000Y-49404000D01*
X146146000Y-49405000D01*
X146142000Y-49406000D01*
X146139000Y-49406000D01*
X146136000Y-49407000D01*
X146133000Y-49407000D01*
X146130000Y-49407000D01*
X146070000Y-49407000D01*
X146067000Y-49407000D01*
X146064000Y-49407000D01*
X146061000Y-49406000D01*
X146058000Y-49406000D01*
X146054000Y-49405000D01*
X146051000Y-49404000D01*
X146048000Y-49403000D01*
X146046000Y-49402000D01*
X146043000Y-49400000D01*
X146040000Y-49399000D01*
X146037000Y-49397000D01*
X146035000Y-49396000D01*
X146032000Y-49394000D01*
X146030000Y-49392000D01*
X146028000Y-49389000D01*
X146025000Y-49387000D01*
X146023000Y-49385000D01*
X146021000Y-49382000D01*
X146020000Y-49380000D01*
X146018000Y-49377000D01*
X146017000Y-49374000D01*
X146015000Y-49371000D01*
X146014000Y-49369000D01*
X146013000Y-49366000D01*
X146012000Y-49363000D01*
X146011000Y-49359000D01*
X146011000Y-49356000D01*
X146010000Y-49353000D01*
X146010000Y-49350000D01*
X146010000Y-49347000D01*
X146010000Y-49171000D01*
X146010000Y-49168000D01*
X146010000Y-49165000D01*
X146011000Y-49162000D01*
X146011000Y-49159000D01*
X146012000Y-49155000D01*
X146013000Y-49152000D01*
X146014000Y-49149000D01*
X146015000Y-49147000D01*
X146017000Y-49144000D01*
X146018000Y-49141000D01*
X146020000Y-49138000D01*
X146021000Y-49136000D01*
X146023000Y-49133000D01*
X146025000Y-49131000D01*
X146028000Y-49129000D01*
X146030000Y-49126000D01*
X146032000Y-49124000D01*
X146035000Y-49122000D01*
X146037000Y-49121000D01*
X146040000Y-49119000D01*
X146043000Y-49118000D01*
X146046000Y-49116000D01*
X146048000Y-49115000D01*
X146051000Y-49114000D01*
X146054000Y-49113000D01*
X146058000Y-49112000D01*
X146061000Y-49112000D01*
X146064000Y-49111000D01*
X146067000Y-49111000D01*
X146070000Y-49111000D01*
X146130000Y-49111000D01*
X146133000Y-49111000D01*
X146136000Y-49111000D01*
X146139000Y-49112000D01*
G37*
%TD*%
D12*
%TO.C,C1_EX1*%
X80962500Y-56750000D03*
X83037500Y-56750000D03*
%TD*%
D13*
%TO.C,COUT_EX2*%
X122537500Y-58250000D03*
X120462500Y-58250000D03*
%TD*%
D14*
%TO.C,R2*%
X80475000Y-60750000D03*
X81340000Y-60750000D03*
%TD*%
D13*
%TO.C,COUT_EX1*%
X122537500Y-56250000D03*
X120462500Y-56250000D03*
%TD*%
D12*
%TO.C,C6*%
X87462500Y-62250000D03*
X89537500Y-62250000D03*
%TD*%
D15*
%TO.C,U1*%
X91250000Y-59195000D03*
X91750000Y-59195000D03*
X92250000Y-59195000D03*
X92750000Y-59195000D03*
X93250000Y-59195000D03*
X93750000Y-59195000D03*
D16*
X94445000Y-58500000D03*
X94445000Y-58000000D03*
X94445000Y-57500000D03*
X94445000Y-57000000D03*
D15*
X93750000Y-56305000D03*
X93250000Y-56305000D03*
X92750000Y-56305000D03*
X92250000Y-56305000D03*
X91750000Y-56305000D03*
X91250000Y-56305000D03*
D16*
X90555000Y-57000000D03*
X90555000Y-57500000D03*
X90555000Y-58000000D03*
X90555000Y-58500000D03*
%TD*%
D14*
%TO.C,R4*%
X115067500Y-56750000D03*
X115932500Y-56750000D03*
%TD*%
D12*
%TO.C,CSENSE1*%
X116462500Y-60750000D03*
X118537500Y-60750000D03*
%TD*%
D13*
%TO.C,CSENSE_EX1*%
X118537500Y-62750000D03*
X116462500Y-62750000D03*
%TD*%
%TO.C,C5*%
X89537500Y-71000000D03*
X87462500Y-71000000D03*
%TD*%
D12*
%TO.C,C1*%
X80962500Y-58750000D03*
X83037500Y-58750000D03*
%TD*%
%TO.C,C3*%
X96962500Y-49750000D03*
X99037500Y-49750000D03*
%TD*%
D17*
%TO.C,R7*%
X123750000Y-66500000D03*
X122885000Y-66500000D03*
%TD*%
D12*
%TO.C,COUT1*%
X120425000Y-50250000D03*
X122500000Y-50250000D03*
%TD*%
D17*
%TO.C,R9*%
X88932500Y-66250000D03*
X88067500Y-66250000D03*
%TD*%
D18*
%TO.C,CinB1_EX1*%
X96000000Y-81712500D03*
X96000000Y-83787500D03*
%TD*%
D13*
%TO.C,C3_EX1*%
X99037500Y-47750000D03*
X96962500Y-47750000D03*
%TD*%
%TO.C,C5_EX1*%
X89537500Y-68500000D03*
X87462500Y-68500000D03*
%TD*%
D14*
%TO.C,RSENSE1*%
X115067500Y-54250000D03*
X115932500Y-54250000D03*
%TD*%
D18*
%TO.C,CinA1*%
X102000000Y-81712500D03*
X102000000Y-83787500D03*
%TD*%
%TO.C,CinB1*%
X104000000Y-81712500D03*
X104000000Y-83787500D03*
%TD*%
D14*
%TO.C,RLOAD1*%
X120817500Y-53750000D03*
X121682500Y-53750000D03*
%TD*%
D12*
%TO.C,C6_EX1*%
X87462500Y-64250000D03*
X89537500Y-64250000D03*
%TD*%
D19*
%TO.C,CinA1_EX1*%
X98000000Y-83787500D03*
X98000000Y-81712500D03*
%TD*%
D20*
%TO.C,R5*%
X121000000Y-65817500D03*
X121000000Y-66682500D03*
%TD*%
D21*
%TO.C,L1*%
X105175000Y-56750000D03*
X111825000Y-56750000D03*
%TD*%
D18*
%TO.C,CinA2*%
X100000000Y-81712500D03*
X100000000Y-83787500D03*
%TD*%
D14*
%TO.C,R6*%
X121067500Y-64250000D03*
X121932500Y-64250000D03*
%TD*%
M02*
