M48
; DRILL file {KiCad 9.0.1} date 2025-11-16T17:21:14-0800
; FORMAT={-:-/ absolute / inch / decimal}
; #@! TF.CreationDate,2025-11-16T17:21:14-08:00
; #@! TF.GenerationSoftware,Kicad,Pcbnew,9.0.1
; #@! TF.FileFunction,Plated,1,2,PTH
FMAT,2
INCH
; #@! TA.AperFunction,Plated,PTH,ViaDrill
T1C0.0118
; #@! TA.AperFunction,Plated,PTH,ComponentDrill
T2C0.0394
; #@! TA.AperFunction,Plated,PTH,ComponentDrill
T3C0.2130
%
G90
G05
T1
X2.6181Y-1.7028
X2.6181Y-1.7618
X2.6181Y-1.8307
X2.6181Y-1.8996
X2.6181Y-1.9587
X2.6476Y-1.7323
X2.6476Y-1.8012
X2.6476Y-1.8701
X2.6476Y-1.9291
X2.6772Y-1.7028
X2.6772Y-1.7618
X2.6772Y-1.8307
X2.6772Y-1.8996
X2.6772Y-1.9587
X2.7067Y-1.7323
X2.7067Y-1.8012
X2.7067Y-1.8701
X2.7067Y-1.9291
X2.7362Y-1.7028
X2.7362Y-1.7618
X2.7362Y-1.8307
X2.7362Y-1.8996
X2.7362Y-1.9587
X2.7657Y-1.7323
X2.7657Y-1.8012
X2.7657Y-1.8701
X2.7657Y-1.9291
X2.7953Y-1.7028
X2.7953Y-1.7618
X2.7953Y-1.8307
X2.7953Y-1.8996
X2.7953Y-1.9587
X2.8248Y-1.7323
X2.8248Y-1.8012
X2.8248Y-1.8701
X2.8248Y-1.9291
X2.8543Y-1.7028
X2.8543Y-1.7618
X2.8543Y-1.8307
X2.8543Y-1.8996
X2.8543Y-1.9587
X2.8839Y-1.7323
X2.8839Y-1.8012
X2.8839Y-1.8701
X2.8839Y-1.9291
X2.9134Y-1.7028
X2.9134Y-1.7618
X2.9134Y-1.8307
X2.9134Y-1.8996
X2.9134Y-1.9587
X2.9429Y-1.7323
X2.9429Y-1.8012
X2.9429Y-1.8701
X2.9429Y-1.9291
X2.9724Y-1.7028
X2.9724Y-1.7618
X2.9724Y-1.8307
X2.9724Y-1.8996
X2.9724Y-1.9587
X3.002Y-1.7323
X3.002Y-1.8012
X3.002Y-1.8701
X3.002Y-1.9291
X3.0118Y-2.2835
X3.0118Y-2.3228
X3.0118Y-2.3622
X3.0118Y-2.4016
X3.0315Y-1.7028
X3.0315Y-1.7618
X3.0315Y-1.8307
X3.0315Y-1.8996
X3.0315Y-1.9587
X3.0315Y-2.5984
X3.0315Y-2.6476
X3.0315Y-2.6969
X3.0315Y-2.7461
X3.0315Y-2.7953
X3.0315Y-2.8445
X3.0512Y-2.2835
X3.0512Y-2.3228
X3.0512Y-2.3622
X3.0512Y-2.4016
X3.061Y-1.7323
X3.061Y-1.8012
X3.061Y-1.8701
X3.061Y-1.9291
X3.0807Y-2.5984
X3.0807Y-2.6476
X3.0807Y-2.6969
X3.0807Y-2.7461
X3.0807Y-2.7953
X3.0807Y-2.8445
X3.0906Y-1.7028
X3.0906Y-1.7618
X3.0906Y-1.8307
X3.0906Y-1.8996
X3.0906Y-1.9587
X3.1201Y-1.7323
X3.1201Y-1.8012
X3.1201Y-1.8701
X3.1201Y-1.9291
X3.1299Y-2.5984
X3.1299Y-2.6476
X3.1299Y-2.6969
X3.1299Y-2.7461
X3.1299Y-2.7953
X3.1299Y-2.8445
X3.1398Y-2.1555
X3.1496Y-1.7028
X3.1496Y-1.7618
X3.1496Y-1.8307
X3.1496Y-1.8996
X3.1496Y-1.9587
X3.1791Y-1.7323
X3.1791Y-1.8012
X3.1791Y-1.8701
X3.1791Y-1.9291
X3.1791Y-2.1555
X3.1791Y-2.5984
X3.1791Y-2.6476
X3.1791Y-2.6969
X3.1791Y-2.7461
X3.1791Y-2.7953
X3.1791Y-2.8445
X3.2185Y-2.1555
X3.2283Y-2.5984
X3.2283Y-2.6476
X3.2283Y-2.6969
X3.2283Y-2.7461
X3.2283Y-2.7953
X3.2283Y-2.8445
X3.2579Y-2.1555
X3.2776Y-2.5984
X3.2776Y-2.6476
X3.2776Y-2.6969
X3.2776Y-2.7461
X3.2776Y-2.7953
X3.2776Y-2.8445
X3.2972Y-2.1555
X3.4449Y-2.2441
X3.5433Y-2.0965
X3.6024Y-2.4508
X3.6417Y-2.1457
X3.6713Y-2.1161
X3.6811Y-2.874
X3.7402Y-1.9193
X3.7598Y-2.3819
X3.7697Y-2.2913
X3.7697Y-2.3228
X3.7992Y-2.2736
X4.498Y-2.4606
X4.5276Y-2.5886
X4.6949Y-2.5886
X4.9902Y-1.8701
X4.9902Y-1.9193
X4.9902Y-1.9685
X5.0394Y-1.8701
X5.0394Y-1.9193
X5.0394Y-1.9685
X5.0886Y-1.8701
X5.0886Y-1.9193
X5.0886Y-1.9685
X5.5118Y-1.8307
X5.6398Y-2.1555
T2
X3.6417Y-3.1594
X4.5866Y-1.8406
X4.6752Y-3.1594
X4.9606Y-2.4705
T3
X3.937Y-2.9232
X4.3701Y-3.0709
M30
