%TF.GenerationSoftware,KiCad,Pcbnew,9.0.1*%
%TF.CreationDate,2025-11-16T17:16:38-08:00*%
%TF.ProjectId,GaN-LTC7800,47614e2d-4c54-4433-9738-30302e6b6963,rev?*%
%TF.SameCoordinates,Original*%
%TF.FileFunction,Soldermask,Bot*%
%TF.FilePolarity,Negative*%
%FSLAX46Y46*%
G04 Gerber Fmt 4.6, Leading zero omitted, Abs format (unit mm)*
G04 Created by KiCad (PCBNEW 9.0.1) date 2025-11-16 17:16:38*
%MOMM*%
%LPD*%
G01*
G04 APERTURE LIST*
G04 Aperture macros list*
%AMRoundRect*
0 Rectangle with rounded corners*
0 $1 Rounding radius*
0 $2 $3 $4 $5 $6 $7 $8 $9 X,Y pos of 4 corners*
0 Add a 4 corners polygon primitive as box body*
4,1,4,$2,$3,$4,$5,$6,$7,$8,$9,$2,$3,0*
0 Add four circle primitives for the rounded corners*
1,1,$1+$1,$2,$3*
1,1,$1+$1,$4,$5*
1,1,$1+$1,$6,$7*
1,1,$1+$1,$8,$9*
0 Add four rect primitives between the rounded corners*
20,1,$1+$1,$2,$3,$4,$5,0*
20,1,$1+$1,$4,$5,$6,$7,0*
20,1,$1+$1,$6,$7,$8,$9,0*
20,1,$1+$1,$8,$9,$2,$3,0*%
G04 Aperture macros list end*
%ADD10R,1.700000X1.700000*%
%ADD11C,8.115000*%
%ADD12RoundRect,0.250000X-0.475000X0.337500X-0.475000X-0.337500X0.475000X-0.337500X0.475000X0.337500X0*%
%ADD13R,0.850000X0.600000*%
%ADD14RoundRect,0.100000X0.100000X-0.217500X0.100000X0.217500X-0.100000X0.217500X-0.100000X-0.217500X0*%
%ADD15RoundRect,0.250000X0.475000X-0.337500X0.475000X0.337500X-0.475000X0.337500X-0.475000X-0.337500X0*%
%ADD16C,0.600000*%
G04 APERTURE END LIST*
D10*
%TO.C,TP_VIN2*%
X122750000Y-154000000D03*
%TD*%
%TO.C,TP_VIN1*%
X96500000Y-156500000D03*
%TD*%
D11*
%TO.C,VSource_IN1*%
X104000000Y-150500000D03*
%TD*%
D10*
%TO.C,VOUT1*%
X120500000Y-123000000D03*
%TD*%
D11*
%TO.C,VSource_GND1*%
X115000000Y-150500000D03*
%TD*%
D10*
%TO.C,GND1*%
X130000000Y-139000000D03*
%TD*%
D12*
%TO.C,C2_EX1*%
X90000000Y-128462500D03*
X90000000Y-130537500D03*
%TD*%
D13*
%TO.C,D1*%
X94200000Y-127950000D03*
X94200000Y-126050000D03*
X96500000Y-127000000D03*
%TD*%
D14*
%TO.C,R1*%
X100250000Y-132157500D03*
X100250000Y-131342500D03*
%TD*%
D15*
%TO.C,C2*%
X92000000Y-130537500D03*
X92000000Y-128462500D03*
%TD*%
D16*
X81000000Y-142250000D03*
X82250000Y-144750000D03*
X86000000Y-146000000D03*
X83500000Y-142250000D03*
X81000000Y-148500000D03*
X84750000Y-146000000D03*
X84750000Y-147250000D03*
X82250000Y-146000000D03*
X83500000Y-148500000D03*
X86000000Y-143500000D03*
X86000000Y-147250000D03*
X86000000Y-148500000D03*
X83500000Y-146000000D03*
X82250000Y-147250000D03*
X84750000Y-144750000D03*
X82250000Y-142250000D03*
X84750000Y-142250000D03*
X87250000Y-144750000D03*
X83500000Y-144750000D03*
X81000000Y-147250000D03*
X83500000Y-143500000D03*
X87250000Y-142250000D03*
X81000000Y-143500000D03*
X87250000Y-143500000D03*
X87250000Y-148500000D03*
X84750000Y-143500000D03*
X82250000Y-148500000D03*
X87250000Y-146000000D03*
X87250000Y-147250000D03*
X81000000Y-146000000D03*
X82250000Y-143500000D03*
X81000000Y-144750000D03*
X86000000Y-142250000D03*
X86000000Y-144750000D03*
X83500000Y-147250000D03*
X84750000Y-148500000D03*
X94000000Y-129500000D03*
X102250000Y-137250000D03*
X105250000Y-137250000D03*
X97250000Y-130000000D03*
X99000000Y-125000000D03*
X95500000Y-138500000D03*
X99750000Y-134449997D03*
X91500000Y-133250000D03*
X97500000Y-149250000D03*
X71250000Y-122000000D03*
X73500000Y-121000000D03*
X81000000Y-121000000D03*
X75750000Y-125250000D03*
X75750000Y-123750000D03*
X76500000Y-119500000D03*
X84000000Y-124500000D03*
X76500000Y-124500000D03*
X78750000Y-123750000D03*
X83250000Y-120250000D03*
X80250000Y-122000000D03*
X81750000Y-120250000D03*
X79500000Y-122750000D03*
X84000000Y-122750000D03*
X83250000Y-122000000D03*
X75750000Y-122000000D03*
X76500000Y-122750000D03*
X81750000Y-122000000D03*
X75000000Y-119500000D03*
X78000000Y-126000000D03*
X72000000Y-126000000D03*
X84000000Y-126000000D03*
X75000000Y-122750000D03*
X76500000Y-121000000D03*
X82500000Y-122750000D03*
X73500000Y-119500000D03*
X70500000Y-122750000D03*
X70500000Y-121000000D03*
X72000000Y-122750000D03*
X75750000Y-120250000D03*
X83250000Y-123750000D03*
X82500000Y-119500000D03*
X72000000Y-121000000D03*
X78750000Y-125250000D03*
X71250000Y-125250000D03*
X74250000Y-120250000D03*
X74250000Y-125250000D03*
X78000000Y-121000000D03*
X81000000Y-122750000D03*
X78000000Y-122750000D03*
X80250000Y-125250000D03*
X78750000Y-122000000D03*
X73500000Y-126000000D03*
X72750000Y-125250000D03*
X72000000Y-124500000D03*
X72000000Y-119500000D03*
X81750000Y-123750000D03*
X70500000Y-119500000D03*
X81750000Y-125250000D03*
X81000000Y-124500000D03*
X74250000Y-123750000D03*
X84750000Y-120250000D03*
X71250000Y-120250000D03*
X77250000Y-123750000D03*
X78750000Y-120250000D03*
X79500000Y-119500000D03*
X83250000Y-125250000D03*
X80250000Y-120250000D03*
X84000000Y-119500000D03*
X82500000Y-121000000D03*
X82500000Y-124500000D03*
X78000000Y-124500000D03*
X73500000Y-124500000D03*
X72750000Y-123750000D03*
X80250000Y-123750000D03*
X74250000Y-122000000D03*
X81000000Y-126000000D03*
X77250000Y-120250000D03*
X77250000Y-122000000D03*
X84750000Y-123750000D03*
X73500000Y-122750000D03*
X75000000Y-124500000D03*
X79500000Y-124500000D03*
X79500000Y-121000000D03*
X71250000Y-123750000D03*
X79500000Y-126000000D03*
X84750000Y-122000000D03*
X75000000Y-126000000D03*
X84000000Y-121000000D03*
X81000000Y-119500000D03*
X82500000Y-126000000D03*
X70500000Y-124500000D03*
X70500000Y-126000000D03*
X75000000Y-121000000D03*
X76500000Y-126000000D03*
X84750000Y-125250000D03*
X78000000Y-119500000D03*
X72750000Y-122000000D03*
X72750000Y-120250000D03*
X77250000Y-125250000D03*
X118250000Y-138750000D03*
X99500000Y-136750000D03*
X95250000Y-129500000D03*
X100250000Y-129750000D03*
X100500000Y-134000000D03*
X99750000Y-135250000D03*
X123250000Y-142000000D03*
M02*
