M48
; DRILL file {KiCad 9.0.1} date 2025-11-16T17:16:21-0800
; FORMAT={-:-/ absolute / inch / decimal}
; #@! TF.CreationDate,2025-11-16T17:16:21-08:00
; #@! TF.GenerationSoftware,Kicad,Pcbnew,9.0.1
; #@! TF.FileFunction,Plated,1,2,PTH
FMAT,2
INCH
; #@! TA.AperFunction,Plated,PTH,ViaDrill
T1C0.0118
; #@! TA.AperFunction,Plated,PTH,ComponentDrill
T2C0.0394
; #@! TA.AperFunction,Plated,PTH,ComponentDrill
T3C0.2130
%
G90
G05
T1
X2.7756Y-4.7047
X2.7756Y-4.7638
X2.7756Y-4.8327
X2.7756Y-4.9016
X2.7756Y-4.9606
X2.8051Y-4.7343
X2.8051Y-4.8031
X2.8051Y-4.872
X2.8051Y-4.9311
X2.8346Y-4.7047
X2.8346Y-4.7638
X2.8346Y-4.8327
X2.8346Y-4.9016
X2.8346Y-4.9606
X2.8642Y-4.7343
X2.8642Y-4.8031
X2.8642Y-4.872
X2.8642Y-4.9311
X2.8937Y-4.7047
X2.8937Y-4.7638
X2.8937Y-4.8327
X2.8937Y-4.9016
X2.8937Y-4.9606
X2.9232Y-4.7343
X2.9232Y-4.8031
X2.9232Y-4.872
X2.9232Y-4.9311
X2.9528Y-4.7047
X2.9528Y-4.7638
X2.9528Y-4.8327
X2.9528Y-4.9016
X2.9528Y-4.9606
X2.9823Y-4.7343
X2.9823Y-4.8031
X2.9823Y-4.872
X2.9823Y-4.9311
X3.0118Y-4.7047
X3.0118Y-4.7638
X3.0118Y-4.8327
X3.0118Y-4.9016
X3.0118Y-4.9606
X3.0413Y-4.7343
X3.0413Y-4.8031
X3.0413Y-4.872
X3.0413Y-4.9311
X3.0709Y-4.7047
X3.0709Y-4.7638
X3.0709Y-4.8327
X3.0709Y-4.9016
X3.0709Y-4.9606
X3.1004Y-4.7343
X3.1004Y-4.8031
X3.1004Y-4.872
X3.1004Y-4.9311
X3.1299Y-4.7047
X3.1299Y-4.7638
X3.1299Y-4.8327
X3.1299Y-4.9016
X3.1299Y-4.9606
X3.1594Y-4.7343
X3.1594Y-4.8031
X3.1594Y-4.872
X3.1594Y-4.9311
X3.189Y-4.7047
X3.189Y-4.7638
X3.189Y-4.8327
X3.189Y-4.9016
X3.189Y-4.9606
X3.189Y-5.6004
X3.189Y-5.6496
X3.189Y-5.6988
X3.189Y-5.748
X3.189Y-5.7972
X3.189Y-5.8465
X3.2185Y-4.7343
X3.2185Y-4.8031
X3.2185Y-4.872
X3.2185Y-4.9311
X3.2382Y-5.6004
X3.2382Y-5.6496
X3.2382Y-5.6988
X3.2382Y-5.748
X3.2382Y-5.7972
X3.2382Y-5.8465
X3.248Y-4.7047
X3.248Y-4.7638
X3.248Y-4.8327
X3.248Y-4.9016
X3.248Y-4.9606
X3.2776Y-4.7343
X3.2776Y-4.8031
X3.2776Y-4.872
X3.2776Y-4.9311
X3.2874Y-5.6004
X3.2874Y-5.6496
X3.2874Y-5.6988
X3.2874Y-5.748
X3.2874Y-5.7972
X3.2874Y-5.8465
X3.3071Y-4.7047
X3.3071Y-4.7638
X3.3071Y-4.8327
X3.3071Y-4.9016
X3.3071Y-4.9606
X3.3366Y-4.7343
X3.3366Y-4.8031
X3.3366Y-4.872
X3.3366Y-4.9311
X3.3366Y-5.6004
X3.3366Y-5.6496
X3.3366Y-5.6988
X3.3366Y-5.748
X3.3366Y-5.7972
X3.3366Y-5.8465
X3.3858Y-5.6004
X3.3858Y-5.6496
X3.3858Y-5.6988
X3.3858Y-5.748
X3.3858Y-5.7972
X3.3858Y-5.8465
X3.435Y-5.6004
X3.435Y-5.6496
X3.435Y-5.6988
X3.435Y-5.748
X3.435Y-5.7972
X3.435Y-5.8465
X3.6024Y-5.2461
X3.7008Y-5.0984
X3.75Y-5.0984
X3.7598Y-5.4528
X3.8287Y-5.1181
X3.8386Y-5.876
X3.8976Y-4.9213
X3.9173Y-5.3839
X3.9272Y-5.2933
X3.9272Y-5.3248
X3.9469Y-5.1083
X3.9567Y-5.2756
X4.0256Y-5.4035
X4.1437Y-5.4035
X4.6555Y-5.4626
X4.8524Y-5.5906
T2
X3.7992Y-6.1614
X4.7441Y-4.8425
X4.8327Y-6.063
X5.1181Y-5.4724
T3
X4.0945Y-5.9252
X4.5276Y-5.9252
M30
