%TF.GenerationSoftware,KiCad,Pcbnew,9.0.1*%
%TF.CreationDate,2025-11-16T17:16:38-08:00*%
%TF.ProjectId,GaN-LTC7800,47614e2d-4c54-4433-9738-30302e6b6963,rev?*%
%TF.SameCoordinates,Original*%
%TF.FileFunction,Legend,Top*%
%TF.FilePolarity,Positive*%
%FSLAX46Y46*%
G04 Gerber Fmt 4.6, Leading zero omitted, Abs format (unit mm)*
G04 Created by KiCad (PCBNEW 9.0.1) date 2025-11-16 17:16:38*
%MOMM*%
%LPD*%
G01*
G04 APERTURE LIST*
%ADD10C,0.062500*%
%ADD11C,0.120000*%
%ADD12C,0.127000*%
%ADD13C,0.300000*%
%ADD14C,0.100000*%
%ADD15C,0.200000*%
G04 APERTURE END LIST*
D10*
X97023810Y-124180440D02*
X97000001Y-124204250D01*
X97000001Y-124204250D02*
X96928572Y-124228059D01*
X96928572Y-124228059D02*
X96880953Y-124228059D01*
X96880953Y-124228059D02*
X96809525Y-124204250D01*
X96809525Y-124204250D02*
X96761906Y-124156630D01*
X96761906Y-124156630D02*
X96738096Y-124109011D01*
X96738096Y-124109011D02*
X96714287Y-124013773D01*
X96714287Y-124013773D02*
X96714287Y-123942345D01*
X96714287Y-123942345D02*
X96738096Y-123847107D01*
X96738096Y-123847107D02*
X96761906Y-123799488D01*
X96761906Y-123799488D02*
X96809525Y-123751869D01*
X96809525Y-123751869D02*
X96880953Y-123728059D01*
X96880953Y-123728059D02*
X96928572Y-123728059D01*
X96928572Y-123728059D02*
X97000001Y-123751869D01*
X97000001Y-123751869D02*
X97023810Y-123775678D01*
X97190477Y-123728059D02*
X97500001Y-123728059D01*
X97500001Y-123728059D02*
X97333334Y-123918535D01*
X97333334Y-123918535D02*
X97404763Y-123918535D01*
X97404763Y-123918535D02*
X97452382Y-123942345D01*
X97452382Y-123942345D02*
X97476191Y-123966154D01*
X97476191Y-123966154D02*
X97500001Y-124013773D01*
X97500001Y-124013773D02*
X97500001Y-124132821D01*
X97500001Y-124132821D02*
X97476191Y-124180440D01*
X97476191Y-124180440D02*
X97452382Y-124204250D01*
X97452382Y-124204250D02*
X97404763Y-124228059D01*
X97404763Y-124228059D02*
X97261906Y-124228059D01*
X97261906Y-124228059D02*
X97214287Y-124204250D01*
X97214287Y-124204250D02*
X97190477Y-124180440D01*
X97595239Y-124275678D02*
X97976191Y-124275678D01*
X98095238Y-123966154D02*
X98261905Y-123966154D01*
X98333333Y-124228059D02*
X98095238Y-124228059D01*
X98095238Y-124228059D02*
X98095238Y-123728059D01*
X98095238Y-123728059D02*
X98333333Y-123728059D01*
X98500000Y-123728059D02*
X98833333Y-124228059D01*
X98833333Y-123728059D02*
X98500000Y-124228059D01*
X99285714Y-124228059D02*
X99000000Y-124228059D01*
X99142857Y-124228059D02*
X99142857Y-123728059D01*
X99142857Y-123728059D02*
X99095238Y-123799488D01*
X99095238Y-123799488D02*
X99047619Y-123847107D01*
X99047619Y-123847107D02*
X99000000Y-123870916D01*
X82454166Y-135180440D02*
X82430357Y-135204250D01*
X82430357Y-135204250D02*
X82358928Y-135228059D01*
X82358928Y-135228059D02*
X82311309Y-135228059D01*
X82311309Y-135228059D02*
X82239881Y-135204250D01*
X82239881Y-135204250D02*
X82192262Y-135156630D01*
X82192262Y-135156630D02*
X82168452Y-135109011D01*
X82168452Y-135109011D02*
X82144643Y-135013773D01*
X82144643Y-135013773D02*
X82144643Y-134942345D01*
X82144643Y-134942345D02*
X82168452Y-134847107D01*
X82168452Y-134847107D02*
X82192262Y-134799488D01*
X82192262Y-134799488D02*
X82239881Y-134751869D01*
X82239881Y-134751869D02*
X82311309Y-134728059D01*
X82311309Y-134728059D02*
X82358928Y-134728059D01*
X82358928Y-134728059D02*
X82430357Y-134751869D01*
X82430357Y-134751869D02*
X82454166Y-134775678D01*
X82930357Y-135228059D02*
X82644643Y-135228059D01*
X82787500Y-135228059D02*
X82787500Y-134728059D01*
X82787500Y-134728059D02*
X82739881Y-134799488D01*
X82739881Y-134799488D02*
X82692262Y-134847107D01*
X82692262Y-134847107D02*
X82644643Y-134870916D01*
X120226190Y-141180440D02*
X120202381Y-141204250D01*
X120202381Y-141204250D02*
X120130952Y-141228059D01*
X120130952Y-141228059D02*
X120083333Y-141228059D01*
X120083333Y-141228059D02*
X120011905Y-141204250D01*
X120011905Y-141204250D02*
X119964286Y-141156630D01*
X119964286Y-141156630D02*
X119940476Y-141109011D01*
X119940476Y-141109011D02*
X119916667Y-141013773D01*
X119916667Y-141013773D02*
X119916667Y-140942345D01*
X119916667Y-140942345D02*
X119940476Y-140847107D01*
X119940476Y-140847107D02*
X119964286Y-140799488D01*
X119964286Y-140799488D02*
X120011905Y-140751869D01*
X120011905Y-140751869D02*
X120083333Y-140728059D01*
X120083333Y-140728059D02*
X120130952Y-140728059D01*
X120130952Y-140728059D02*
X120202381Y-140751869D01*
X120202381Y-140751869D02*
X120226190Y-140775678D01*
X120416667Y-141204250D02*
X120488095Y-141228059D01*
X120488095Y-141228059D02*
X120607143Y-141228059D01*
X120607143Y-141228059D02*
X120654762Y-141204250D01*
X120654762Y-141204250D02*
X120678571Y-141180440D01*
X120678571Y-141180440D02*
X120702381Y-141132821D01*
X120702381Y-141132821D02*
X120702381Y-141085202D01*
X120702381Y-141085202D02*
X120678571Y-141037583D01*
X120678571Y-141037583D02*
X120654762Y-141013773D01*
X120654762Y-141013773D02*
X120607143Y-140989964D01*
X120607143Y-140989964D02*
X120511905Y-140966154D01*
X120511905Y-140966154D02*
X120464286Y-140942345D01*
X120464286Y-140942345D02*
X120440476Y-140918535D01*
X120440476Y-140918535D02*
X120416667Y-140870916D01*
X120416667Y-140870916D02*
X120416667Y-140823297D01*
X120416667Y-140823297D02*
X120440476Y-140775678D01*
X120440476Y-140775678D02*
X120464286Y-140751869D01*
X120464286Y-140751869D02*
X120511905Y-140728059D01*
X120511905Y-140728059D02*
X120630952Y-140728059D01*
X120630952Y-140728059D02*
X120702381Y-140751869D01*
X120916666Y-140966154D02*
X121083333Y-140966154D01*
X121154761Y-141228059D02*
X120916666Y-141228059D01*
X120916666Y-141228059D02*
X120916666Y-140728059D01*
X120916666Y-140728059D02*
X121154761Y-140728059D01*
X121369047Y-141228059D02*
X121369047Y-140728059D01*
X121369047Y-140728059D02*
X121654761Y-141228059D01*
X121654761Y-141228059D02*
X121654761Y-140728059D01*
X121869048Y-141204250D02*
X121940476Y-141228059D01*
X121940476Y-141228059D02*
X122059524Y-141228059D01*
X122059524Y-141228059D02*
X122107143Y-141204250D01*
X122107143Y-141204250D02*
X122130952Y-141180440D01*
X122130952Y-141180440D02*
X122154762Y-141132821D01*
X122154762Y-141132821D02*
X122154762Y-141085202D01*
X122154762Y-141085202D02*
X122130952Y-141037583D01*
X122130952Y-141037583D02*
X122107143Y-141013773D01*
X122107143Y-141013773D02*
X122059524Y-140989964D01*
X122059524Y-140989964D02*
X121964286Y-140966154D01*
X121964286Y-140966154D02*
X121916667Y-140942345D01*
X121916667Y-140942345D02*
X121892857Y-140918535D01*
X121892857Y-140918535D02*
X121869048Y-140870916D01*
X121869048Y-140870916D02*
X121869048Y-140823297D01*
X121869048Y-140823297D02*
X121892857Y-140775678D01*
X121892857Y-140775678D02*
X121916667Y-140751869D01*
X121916667Y-140751869D02*
X121964286Y-140728059D01*
X121964286Y-140728059D02*
X122083333Y-140728059D01*
X122083333Y-140728059D02*
X122154762Y-140751869D01*
X122369047Y-140966154D02*
X122535714Y-140966154D01*
X122607142Y-141228059D02*
X122369047Y-141228059D01*
X122369047Y-141228059D02*
X122369047Y-140728059D01*
X122369047Y-140728059D02*
X122607142Y-140728059D01*
X123083333Y-141228059D02*
X122797619Y-141228059D01*
X122940476Y-141228059D02*
X122940476Y-140728059D01*
X122940476Y-140728059D02*
X122892857Y-140799488D01*
X122892857Y-140799488D02*
X122845238Y-140847107D01*
X122845238Y-140847107D02*
X122797619Y-140870916D01*
X107819559Y-161321428D02*
X107795750Y-161297619D01*
X107795750Y-161297619D02*
X107771940Y-161226190D01*
X107771940Y-161226190D02*
X107771940Y-161178571D01*
X107771940Y-161178571D02*
X107795750Y-161107143D01*
X107795750Y-161107143D02*
X107843369Y-161059524D01*
X107843369Y-161059524D02*
X107890988Y-161035714D01*
X107890988Y-161035714D02*
X107986226Y-161011905D01*
X107986226Y-161011905D02*
X108057654Y-161011905D01*
X108057654Y-161011905D02*
X108152892Y-161035714D01*
X108152892Y-161035714D02*
X108200511Y-161059524D01*
X108200511Y-161059524D02*
X108248130Y-161107143D01*
X108248130Y-161107143D02*
X108271940Y-161178571D01*
X108271940Y-161178571D02*
X108271940Y-161226190D01*
X108271940Y-161226190D02*
X108248130Y-161297619D01*
X108248130Y-161297619D02*
X108224321Y-161321428D01*
X107771940Y-161535714D02*
X108105273Y-161535714D01*
X108271940Y-161535714D02*
X108248130Y-161511905D01*
X108248130Y-161511905D02*
X108224321Y-161535714D01*
X108224321Y-161535714D02*
X108248130Y-161559524D01*
X108248130Y-161559524D02*
X108271940Y-161535714D01*
X108271940Y-161535714D02*
X108224321Y-161535714D01*
X108105273Y-161773809D02*
X107771940Y-161773809D01*
X108057654Y-161773809D02*
X108081464Y-161797619D01*
X108081464Y-161797619D02*
X108105273Y-161845238D01*
X108105273Y-161845238D02*
X108105273Y-161916666D01*
X108105273Y-161916666D02*
X108081464Y-161964285D01*
X108081464Y-161964285D02*
X108033845Y-161988095D01*
X108033845Y-161988095D02*
X107771940Y-161988095D01*
X108033845Y-162392857D02*
X108010035Y-162464285D01*
X108010035Y-162464285D02*
X107986226Y-162488095D01*
X107986226Y-162488095D02*
X107938607Y-162511904D01*
X107938607Y-162511904D02*
X107867178Y-162511904D01*
X107867178Y-162511904D02*
X107819559Y-162488095D01*
X107819559Y-162488095D02*
X107795750Y-162464285D01*
X107795750Y-162464285D02*
X107771940Y-162416666D01*
X107771940Y-162416666D02*
X107771940Y-162226190D01*
X107771940Y-162226190D02*
X108271940Y-162226190D01*
X108271940Y-162226190D02*
X108271940Y-162392857D01*
X108271940Y-162392857D02*
X108248130Y-162440476D01*
X108248130Y-162440476D02*
X108224321Y-162464285D01*
X108224321Y-162464285D02*
X108176702Y-162488095D01*
X108176702Y-162488095D02*
X108129083Y-162488095D01*
X108129083Y-162488095D02*
X108081464Y-162464285D01*
X108081464Y-162464285D02*
X108057654Y-162440476D01*
X108057654Y-162440476D02*
X108033845Y-162392857D01*
X108033845Y-162392857D02*
X108033845Y-162226190D01*
X107771940Y-162988095D02*
X107771940Y-162702381D01*
X107771940Y-162845238D02*
X108271940Y-162845238D01*
X108271940Y-162845238D02*
X108200511Y-162797619D01*
X108200511Y-162797619D02*
X108152892Y-162750000D01*
X108152892Y-162750000D02*
X108129083Y-162702381D01*
X82666666Y-137228059D02*
X82500000Y-136989964D01*
X82380952Y-137228059D02*
X82380952Y-136728059D01*
X82380952Y-136728059D02*
X82571428Y-136728059D01*
X82571428Y-136728059D02*
X82619047Y-136751869D01*
X82619047Y-136751869D02*
X82642857Y-136775678D01*
X82642857Y-136775678D02*
X82666666Y-136823297D01*
X82666666Y-136823297D02*
X82666666Y-136894726D01*
X82666666Y-136894726D02*
X82642857Y-136942345D01*
X82642857Y-136942345D02*
X82619047Y-136966154D01*
X82619047Y-136966154D02*
X82571428Y-136989964D01*
X82571428Y-136989964D02*
X82380952Y-136989964D01*
X82857143Y-136775678D02*
X82880952Y-136751869D01*
X82880952Y-136751869D02*
X82928571Y-136728059D01*
X82928571Y-136728059D02*
X83047619Y-136728059D01*
X83047619Y-136728059D02*
X83095238Y-136751869D01*
X83095238Y-136751869D02*
X83119047Y-136775678D01*
X83119047Y-136775678D02*
X83142857Y-136823297D01*
X83142857Y-136823297D02*
X83142857Y-136870916D01*
X83142857Y-136870916D02*
X83119047Y-136942345D01*
X83119047Y-136942345D02*
X82833333Y-137228059D01*
X82833333Y-137228059D02*
X83142857Y-137228059D01*
X88916666Y-147180440D02*
X88892857Y-147204250D01*
X88892857Y-147204250D02*
X88821428Y-147228059D01*
X88821428Y-147228059D02*
X88773809Y-147228059D01*
X88773809Y-147228059D02*
X88702381Y-147204250D01*
X88702381Y-147204250D02*
X88654762Y-147156630D01*
X88654762Y-147156630D02*
X88630952Y-147109011D01*
X88630952Y-147109011D02*
X88607143Y-147013773D01*
X88607143Y-147013773D02*
X88607143Y-146942345D01*
X88607143Y-146942345D02*
X88630952Y-146847107D01*
X88630952Y-146847107D02*
X88654762Y-146799488D01*
X88654762Y-146799488D02*
X88702381Y-146751869D01*
X88702381Y-146751869D02*
X88773809Y-146728059D01*
X88773809Y-146728059D02*
X88821428Y-146728059D01*
X88821428Y-146728059D02*
X88892857Y-146751869D01*
X88892857Y-146751869D02*
X88916666Y-146775678D01*
X89369047Y-146728059D02*
X89130952Y-146728059D01*
X89130952Y-146728059D02*
X89107143Y-146966154D01*
X89107143Y-146966154D02*
X89130952Y-146942345D01*
X89130952Y-146942345D02*
X89178571Y-146918535D01*
X89178571Y-146918535D02*
X89297619Y-146918535D01*
X89297619Y-146918535D02*
X89345238Y-146942345D01*
X89345238Y-146942345D02*
X89369047Y-146966154D01*
X89369047Y-146966154D02*
X89392857Y-147013773D01*
X89392857Y-147013773D02*
X89392857Y-147132821D01*
X89392857Y-147132821D02*
X89369047Y-147180440D01*
X89369047Y-147180440D02*
X89345238Y-147204250D01*
X89345238Y-147204250D02*
X89297619Y-147228059D01*
X89297619Y-147228059D02*
X89178571Y-147228059D01*
X89178571Y-147228059D02*
X89130952Y-147204250D01*
X89130952Y-147204250D02*
X89107143Y-147180440D01*
X121333334Y-151348059D02*
X121619048Y-151348059D01*
X121476191Y-151848059D02*
X121476191Y-151348059D01*
X121785714Y-151848059D02*
X121785714Y-151348059D01*
X121785714Y-151348059D02*
X121976190Y-151348059D01*
X121976190Y-151348059D02*
X122023809Y-151371869D01*
X122023809Y-151371869D02*
X122047619Y-151395678D01*
X122047619Y-151395678D02*
X122071428Y-151443297D01*
X122071428Y-151443297D02*
X122071428Y-151514726D01*
X122071428Y-151514726D02*
X122047619Y-151562345D01*
X122047619Y-151562345D02*
X122023809Y-151586154D01*
X122023809Y-151586154D02*
X121976190Y-151609964D01*
X121976190Y-151609964D02*
X121785714Y-151609964D01*
X122166667Y-151895678D02*
X122547619Y-151895678D01*
X122595238Y-151348059D02*
X122761904Y-151848059D01*
X122761904Y-151848059D02*
X122928571Y-151348059D01*
X123095237Y-151848059D02*
X123095237Y-151348059D01*
X123333332Y-151848059D02*
X123333332Y-151348059D01*
X123333332Y-151348059D02*
X123619046Y-151848059D01*
X123619046Y-151848059D02*
X123619046Y-151348059D01*
X123833333Y-151395678D02*
X123857142Y-151371869D01*
X123857142Y-151371869D02*
X123904761Y-151348059D01*
X123904761Y-151348059D02*
X124023809Y-151348059D01*
X124023809Y-151348059D02*
X124071428Y-151371869D01*
X124071428Y-151371869D02*
X124095237Y-151395678D01*
X124095237Y-151395678D02*
X124119047Y-151443297D01*
X124119047Y-151443297D02*
X124119047Y-151490916D01*
X124119047Y-151490916D02*
X124095237Y-151562345D01*
X124095237Y-151562345D02*
X123809523Y-151848059D01*
X123809523Y-151848059D02*
X124119047Y-151848059D01*
X98416666Y-126180440D02*
X98392857Y-126204250D01*
X98392857Y-126204250D02*
X98321428Y-126228059D01*
X98321428Y-126228059D02*
X98273809Y-126228059D01*
X98273809Y-126228059D02*
X98202381Y-126204250D01*
X98202381Y-126204250D02*
X98154762Y-126156630D01*
X98154762Y-126156630D02*
X98130952Y-126109011D01*
X98130952Y-126109011D02*
X98107143Y-126013773D01*
X98107143Y-126013773D02*
X98107143Y-125942345D01*
X98107143Y-125942345D02*
X98130952Y-125847107D01*
X98130952Y-125847107D02*
X98154762Y-125799488D01*
X98154762Y-125799488D02*
X98202381Y-125751869D01*
X98202381Y-125751869D02*
X98273809Y-125728059D01*
X98273809Y-125728059D02*
X98321428Y-125728059D01*
X98321428Y-125728059D02*
X98392857Y-125751869D01*
X98392857Y-125751869D02*
X98416666Y-125775678D01*
X98583333Y-125728059D02*
X98892857Y-125728059D01*
X98892857Y-125728059D02*
X98726190Y-125918535D01*
X98726190Y-125918535D02*
X98797619Y-125918535D01*
X98797619Y-125918535D02*
X98845238Y-125942345D01*
X98845238Y-125942345D02*
X98869047Y-125966154D01*
X98869047Y-125966154D02*
X98892857Y-126013773D01*
X98892857Y-126013773D02*
X98892857Y-126132821D01*
X98892857Y-126132821D02*
X98869047Y-126180440D01*
X98869047Y-126180440D02*
X98845238Y-126204250D01*
X98845238Y-126204250D02*
X98797619Y-126228059D01*
X98797619Y-126228059D02*
X98654762Y-126228059D01*
X98654762Y-126228059D02*
X98607143Y-126204250D01*
X98607143Y-126204250D02*
X98583333Y-126180440D01*
X80008419Y-156069762D02*
X80413181Y-156069762D01*
X80413181Y-156069762D02*
X80460800Y-156045952D01*
X80460800Y-156045952D02*
X80484610Y-156022143D01*
X80484610Y-156022143D02*
X80508419Y-155974524D01*
X80508419Y-155974524D02*
X80508419Y-155879286D01*
X80508419Y-155879286D02*
X80484610Y-155831667D01*
X80484610Y-155831667D02*
X80460800Y-155807857D01*
X80460800Y-155807857D02*
X80413181Y-155784048D01*
X80413181Y-155784048D02*
X80008419Y-155784048D01*
X80508419Y-155284047D02*
X80508419Y-155569761D01*
X80508419Y-155426904D02*
X80008419Y-155426904D01*
X80008419Y-155426904D02*
X80079848Y-155474523D01*
X80079848Y-155474523D02*
X80127467Y-155522142D01*
X80127467Y-155522142D02*
X80151276Y-155569761D01*
X95083334Y-153848059D02*
X95369048Y-153848059D01*
X95226191Y-154348059D02*
X95226191Y-153848059D01*
X95535714Y-154348059D02*
X95535714Y-153848059D01*
X95535714Y-153848059D02*
X95726190Y-153848059D01*
X95726190Y-153848059D02*
X95773809Y-153871869D01*
X95773809Y-153871869D02*
X95797619Y-153895678D01*
X95797619Y-153895678D02*
X95821428Y-153943297D01*
X95821428Y-153943297D02*
X95821428Y-154014726D01*
X95821428Y-154014726D02*
X95797619Y-154062345D01*
X95797619Y-154062345D02*
X95773809Y-154086154D01*
X95773809Y-154086154D02*
X95726190Y-154109964D01*
X95726190Y-154109964D02*
X95535714Y-154109964D01*
X95916667Y-154395678D02*
X96297619Y-154395678D01*
X96345238Y-153848059D02*
X96511904Y-154348059D01*
X96511904Y-154348059D02*
X96678571Y-153848059D01*
X96845237Y-154348059D02*
X96845237Y-153848059D01*
X97083332Y-154348059D02*
X97083332Y-153848059D01*
X97083332Y-153848059D02*
X97369046Y-154348059D01*
X97369046Y-154348059D02*
X97369046Y-153848059D01*
X97869047Y-154348059D02*
X97583333Y-154348059D01*
X97726190Y-154348059D02*
X97726190Y-153848059D01*
X97726190Y-153848059D02*
X97678571Y-153919488D01*
X97678571Y-153919488D02*
X97630952Y-153967107D01*
X97630952Y-153967107D02*
X97583333Y-153990916D01*
X118071429Y-144180440D02*
X118047620Y-144204250D01*
X118047620Y-144204250D02*
X117976191Y-144228059D01*
X117976191Y-144228059D02*
X117928572Y-144228059D01*
X117928572Y-144228059D02*
X117857144Y-144204250D01*
X117857144Y-144204250D02*
X117809525Y-144156630D01*
X117809525Y-144156630D02*
X117785715Y-144109011D01*
X117785715Y-144109011D02*
X117761906Y-144013773D01*
X117761906Y-144013773D02*
X117761906Y-143942345D01*
X117761906Y-143942345D02*
X117785715Y-143847107D01*
X117785715Y-143847107D02*
X117809525Y-143799488D01*
X117809525Y-143799488D02*
X117857144Y-143751869D01*
X117857144Y-143751869D02*
X117928572Y-143728059D01*
X117928572Y-143728059D02*
X117976191Y-143728059D01*
X117976191Y-143728059D02*
X118047620Y-143751869D01*
X118047620Y-143751869D02*
X118071429Y-143775678D01*
X118261906Y-144204250D02*
X118333334Y-144228059D01*
X118333334Y-144228059D02*
X118452382Y-144228059D01*
X118452382Y-144228059D02*
X118500001Y-144204250D01*
X118500001Y-144204250D02*
X118523810Y-144180440D01*
X118523810Y-144180440D02*
X118547620Y-144132821D01*
X118547620Y-144132821D02*
X118547620Y-144085202D01*
X118547620Y-144085202D02*
X118523810Y-144037583D01*
X118523810Y-144037583D02*
X118500001Y-144013773D01*
X118500001Y-144013773D02*
X118452382Y-143989964D01*
X118452382Y-143989964D02*
X118357144Y-143966154D01*
X118357144Y-143966154D02*
X118309525Y-143942345D01*
X118309525Y-143942345D02*
X118285715Y-143918535D01*
X118285715Y-143918535D02*
X118261906Y-143870916D01*
X118261906Y-143870916D02*
X118261906Y-143823297D01*
X118261906Y-143823297D02*
X118285715Y-143775678D01*
X118285715Y-143775678D02*
X118309525Y-143751869D01*
X118309525Y-143751869D02*
X118357144Y-143728059D01*
X118357144Y-143728059D02*
X118476191Y-143728059D01*
X118476191Y-143728059D02*
X118547620Y-143751869D01*
X118761905Y-143966154D02*
X118928572Y-143966154D01*
X119000000Y-144228059D02*
X118761905Y-144228059D01*
X118761905Y-144228059D02*
X118761905Y-143728059D01*
X118761905Y-143728059D02*
X119000000Y-143728059D01*
X119214286Y-144228059D02*
X119214286Y-143728059D01*
X119214286Y-143728059D02*
X119500000Y-144228059D01*
X119500000Y-144228059D02*
X119500000Y-143728059D01*
X119714287Y-144204250D02*
X119785715Y-144228059D01*
X119785715Y-144228059D02*
X119904763Y-144228059D01*
X119904763Y-144228059D02*
X119952382Y-144204250D01*
X119952382Y-144204250D02*
X119976191Y-144180440D01*
X119976191Y-144180440D02*
X120000001Y-144132821D01*
X120000001Y-144132821D02*
X120000001Y-144085202D01*
X120000001Y-144085202D02*
X119976191Y-144037583D01*
X119976191Y-144037583D02*
X119952382Y-144013773D01*
X119952382Y-144013773D02*
X119904763Y-143989964D01*
X119904763Y-143989964D02*
X119809525Y-143966154D01*
X119809525Y-143966154D02*
X119761906Y-143942345D01*
X119761906Y-143942345D02*
X119738096Y-143918535D01*
X119738096Y-143918535D02*
X119714287Y-143870916D01*
X119714287Y-143870916D02*
X119714287Y-143823297D01*
X119714287Y-143823297D02*
X119738096Y-143775678D01*
X119738096Y-143775678D02*
X119761906Y-143751869D01*
X119761906Y-143751869D02*
X119809525Y-143728059D01*
X119809525Y-143728059D02*
X119928572Y-143728059D01*
X119928572Y-143728059D02*
X120000001Y-143751869D01*
X120214286Y-143966154D02*
X120380953Y-143966154D01*
X120452381Y-144228059D02*
X120214286Y-144228059D01*
X120214286Y-144228059D02*
X120214286Y-143728059D01*
X120214286Y-143728059D02*
X120452381Y-143728059D01*
X120547620Y-144275678D02*
X120928572Y-144275678D01*
X121047619Y-143966154D02*
X121214286Y-143966154D01*
X121285714Y-144228059D02*
X121047619Y-144228059D01*
X121047619Y-144228059D02*
X121047619Y-143728059D01*
X121047619Y-143728059D02*
X121285714Y-143728059D01*
X121452381Y-143728059D02*
X121785714Y-144228059D01*
X121785714Y-143728059D02*
X121452381Y-144228059D01*
X122238095Y-144228059D02*
X121952381Y-144228059D01*
X122095238Y-144228059D02*
X122095238Y-143728059D01*
X122095238Y-143728059D02*
X122047619Y-143799488D01*
X122047619Y-143799488D02*
X122000000Y-143847107D01*
X122000000Y-143847107D02*
X121952381Y-143870916D01*
X128085119Y-134680440D02*
X128061310Y-134704250D01*
X128061310Y-134704250D02*
X127989881Y-134728059D01*
X127989881Y-134728059D02*
X127942262Y-134728059D01*
X127942262Y-134728059D02*
X127870834Y-134704250D01*
X127870834Y-134704250D02*
X127823215Y-134656630D01*
X127823215Y-134656630D02*
X127799405Y-134609011D01*
X127799405Y-134609011D02*
X127775596Y-134513773D01*
X127775596Y-134513773D02*
X127775596Y-134442345D01*
X127775596Y-134442345D02*
X127799405Y-134347107D01*
X127799405Y-134347107D02*
X127823215Y-134299488D01*
X127823215Y-134299488D02*
X127870834Y-134251869D01*
X127870834Y-134251869D02*
X127942262Y-134228059D01*
X127942262Y-134228059D02*
X127989881Y-134228059D01*
X127989881Y-134228059D02*
X128061310Y-134251869D01*
X128061310Y-134251869D02*
X128085119Y-134275678D01*
X128394643Y-134228059D02*
X128489881Y-134228059D01*
X128489881Y-134228059D02*
X128537500Y-134251869D01*
X128537500Y-134251869D02*
X128585119Y-134299488D01*
X128585119Y-134299488D02*
X128608929Y-134394726D01*
X128608929Y-134394726D02*
X128608929Y-134561392D01*
X128608929Y-134561392D02*
X128585119Y-134656630D01*
X128585119Y-134656630D02*
X128537500Y-134704250D01*
X128537500Y-134704250D02*
X128489881Y-134728059D01*
X128489881Y-134728059D02*
X128394643Y-134728059D01*
X128394643Y-134728059D02*
X128347024Y-134704250D01*
X128347024Y-134704250D02*
X128299405Y-134656630D01*
X128299405Y-134656630D02*
X128275596Y-134561392D01*
X128275596Y-134561392D02*
X128275596Y-134394726D01*
X128275596Y-134394726D02*
X128299405Y-134299488D01*
X128299405Y-134299488D02*
X128347024Y-134251869D01*
X128347024Y-134251869D02*
X128394643Y-134228059D01*
X128823215Y-134228059D02*
X128823215Y-134632821D01*
X128823215Y-134632821D02*
X128847025Y-134680440D01*
X128847025Y-134680440D02*
X128870834Y-134704250D01*
X128870834Y-134704250D02*
X128918453Y-134728059D01*
X128918453Y-134728059D02*
X129013691Y-134728059D01*
X129013691Y-134728059D02*
X129061310Y-134704250D01*
X129061310Y-134704250D02*
X129085120Y-134680440D01*
X129085120Y-134680440D02*
X129108929Y-134632821D01*
X129108929Y-134632821D02*
X129108929Y-134228059D01*
X129275597Y-134228059D02*
X129561311Y-134228059D01*
X129418454Y-134728059D02*
X129418454Y-134228059D01*
X129608930Y-134775678D02*
X129989882Y-134775678D01*
X130108929Y-134466154D02*
X130275596Y-134466154D01*
X130347024Y-134728059D02*
X130108929Y-134728059D01*
X130108929Y-134728059D02*
X130108929Y-134228059D01*
X130108929Y-134228059D02*
X130347024Y-134228059D01*
X130513691Y-134228059D02*
X130847024Y-134728059D01*
X130847024Y-134228059D02*
X130513691Y-134728059D01*
X131013691Y-134275678D02*
X131037500Y-134251869D01*
X131037500Y-134251869D02*
X131085119Y-134228059D01*
X131085119Y-134228059D02*
X131204167Y-134228059D01*
X131204167Y-134228059D02*
X131251786Y-134251869D01*
X131251786Y-134251869D02*
X131275595Y-134275678D01*
X131275595Y-134275678D02*
X131299405Y-134323297D01*
X131299405Y-134323297D02*
X131299405Y-134370916D01*
X131299405Y-134370916D02*
X131275595Y-134442345D01*
X131275595Y-134442345D02*
X130989881Y-134728059D01*
X130989881Y-134728059D02*
X131299405Y-134728059D01*
X101500001Y-145728059D02*
X101666667Y-146228059D01*
X101666667Y-146228059D02*
X101833334Y-145728059D01*
X101976191Y-146204250D02*
X102047619Y-146228059D01*
X102047619Y-146228059D02*
X102166667Y-146228059D01*
X102166667Y-146228059D02*
X102214286Y-146204250D01*
X102214286Y-146204250D02*
X102238095Y-146180440D01*
X102238095Y-146180440D02*
X102261905Y-146132821D01*
X102261905Y-146132821D02*
X102261905Y-146085202D01*
X102261905Y-146085202D02*
X102238095Y-146037583D01*
X102238095Y-146037583D02*
X102214286Y-146013773D01*
X102214286Y-146013773D02*
X102166667Y-145989964D01*
X102166667Y-145989964D02*
X102071429Y-145966154D01*
X102071429Y-145966154D02*
X102023810Y-145942345D01*
X102023810Y-145942345D02*
X102000000Y-145918535D01*
X102000000Y-145918535D02*
X101976191Y-145870916D01*
X101976191Y-145870916D02*
X101976191Y-145823297D01*
X101976191Y-145823297D02*
X102000000Y-145775678D01*
X102000000Y-145775678D02*
X102023810Y-145751869D01*
X102023810Y-145751869D02*
X102071429Y-145728059D01*
X102071429Y-145728059D02*
X102190476Y-145728059D01*
X102190476Y-145728059D02*
X102261905Y-145751869D01*
X102547619Y-146228059D02*
X102500000Y-146204250D01*
X102500000Y-146204250D02*
X102476190Y-146180440D01*
X102476190Y-146180440D02*
X102452381Y-146132821D01*
X102452381Y-146132821D02*
X102452381Y-145989964D01*
X102452381Y-145989964D02*
X102476190Y-145942345D01*
X102476190Y-145942345D02*
X102500000Y-145918535D01*
X102500000Y-145918535D02*
X102547619Y-145894726D01*
X102547619Y-145894726D02*
X102619047Y-145894726D01*
X102619047Y-145894726D02*
X102666666Y-145918535D01*
X102666666Y-145918535D02*
X102690476Y-145942345D01*
X102690476Y-145942345D02*
X102714285Y-145989964D01*
X102714285Y-145989964D02*
X102714285Y-146132821D01*
X102714285Y-146132821D02*
X102690476Y-146180440D01*
X102690476Y-146180440D02*
X102666666Y-146204250D01*
X102666666Y-146204250D02*
X102619047Y-146228059D01*
X102619047Y-146228059D02*
X102547619Y-146228059D01*
X103142857Y-145894726D02*
X103142857Y-146228059D01*
X102928571Y-145894726D02*
X102928571Y-146156630D01*
X102928571Y-146156630D02*
X102952381Y-146204250D01*
X102952381Y-146204250D02*
X103000000Y-146228059D01*
X103000000Y-146228059D02*
X103071428Y-146228059D01*
X103071428Y-146228059D02*
X103119047Y-146204250D01*
X103119047Y-146204250D02*
X103142857Y-146180440D01*
X103380952Y-146228059D02*
X103380952Y-145894726D01*
X103380952Y-145989964D02*
X103404762Y-145942345D01*
X103404762Y-145942345D02*
X103428571Y-145918535D01*
X103428571Y-145918535D02*
X103476190Y-145894726D01*
X103476190Y-145894726D02*
X103523809Y-145894726D01*
X103904762Y-146204250D02*
X103857143Y-146228059D01*
X103857143Y-146228059D02*
X103761905Y-146228059D01*
X103761905Y-146228059D02*
X103714286Y-146204250D01*
X103714286Y-146204250D02*
X103690476Y-146180440D01*
X103690476Y-146180440D02*
X103666667Y-146132821D01*
X103666667Y-146132821D02*
X103666667Y-145989964D01*
X103666667Y-145989964D02*
X103690476Y-145942345D01*
X103690476Y-145942345D02*
X103714286Y-145918535D01*
X103714286Y-145918535D02*
X103761905Y-145894726D01*
X103761905Y-145894726D02*
X103857143Y-145894726D01*
X103857143Y-145894726D02*
X103904762Y-145918535D01*
X104309523Y-146204250D02*
X104261904Y-146228059D01*
X104261904Y-146228059D02*
X104166666Y-146228059D01*
X104166666Y-146228059D02*
X104119047Y-146204250D01*
X104119047Y-146204250D02*
X104095238Y-146156630D01*
X104095238Y-146156630D02*
X104095238Y-145966154D01*
X104095238Y-145966154D02*
X104119047Y-145918535D01*
X104119047Y-145918535D02*
X104166666Y-145894726D01*
X104166666Y-145894726D02*
X104261904Y-145894726D01*
X104261904Y-145894726D02*
X104309523Y-145918535D01*
X104309523Y-145918535D02*
X104333333Y-145966154D01*
X104333333Y-145966154D02*
X104333333Y-146013773D01*
X104333333Y-146013773D02*
X104095238Y-146061392D01*
X104428571Y-146275678D02*
X104809523Y-146275678D01*
X104928570Y-146228059D02*
X104928570Y-145728059D01*
X105166665Y-146228059D02*
X105166665Y-145728059D01*
X105166665Y-145728059D02*
X105452379Y-146228059D01*
X105452379Y-146228059D02*
X105452379Y-145728059D01*
X105952380Y-146228059D02*
X105666666Y-146228059D01*
X105809523Y-146228059D02*
X105809523Y-145728059D01*
X105809523Y-145728059D02*
X105761904Y-145799488D01*
X105761904Y-145799488D02*
X105714285Y-145847107D01*
X105714285Y-145847107D02*
X105666666Y-145870916D01*
X128047619Y-132680440D02*
X128023810Y-132704250D01*
X128023810Y-132704250D02*
X127952381Y-132728059D01*
X127952381Y-132728059D02*
X127904762Y-132728059D01*
X127904762Y-132728059D02*
X127833334Y-132704250D01*
X127833334Y-132704250D02*
X127785715Y-132656630D01*
X127785715Y-132656630D02*
X127761905Y-132609011D01*
X127761905Y-132609011D02*
X127738096Y-132513773D01*
X127738096Y-132513773D02*
X127738096Y-132442345D01*
X127738096Y-132442345D02*
X127761905Y-132347107D01*
X127761905Y-132347107D02*
X127785715Y-132299488D01*
X127785715Y-132299488D02*
X127833334Y-132251869D01*
X127833334Y-132251869D02*
X127904762Y-132228059D01*
X127904762Y-132228059D02*
X127952381Y-132228059D01*
X127952381Y-132228059D02*
X128023810Y-132251869D01*
X128023810Y-132251869D02*
X128047619Y-132275678D01*
X128357143Y-132228059D02*
X128452381Y-132228059D01*
X128452381Y-132228059D02*
X128500000Y-132251869D01*
X128500000Y-132251869D02*
X128547619Y-132299488D01*
X128547619Y-132299488D02*
X128571429Y-132394726D01*
X128571429Y-132394726D02*
X128571429Y-132561392D01*
X128571429Y-132561392D02*
X128547619Y-132656630D01*
X128547619Y-132656630D02*
X128500000Y-132704250D01*
X128500000Y-132704250D02*
X128452381Y-132728059D01*
X128452381Y-132728059D02*
X128357143Y-132728059D01*
X128357143Y-132728059D02*
X128309524Y-132704250D01*
X128309524Y-132704250D02*
X128261905Y-132656630D01*
X128261905Y-132656630D02*
X128238096Y-132561392D01*
X128238096Y-132561392D02*
X128238096Y-132394726D01*
X128238096Y-132394726D02*
X128261905Y-132299488D01*
X128261905Y-132299488D02*
X128309524Y-132251869D01*
X128309524Y-132251869D02*
X128357143Y-132228059D01*
X128785715Y-132228059D02*
X128785715Y-132632821D01*
X128785715Y-132632821D02*
X128809525Y-132680440D01*
X128809525Y-132680440D02*
X128833334Y-132704250D01*
X128833334Y-132704250D02*
X128880953Y-132728059D01*
X128880953Y-132728059D02*
X128976191Y-132728059D01*
X128976191Y-132728059D02*
X129023810Y-132704250D01*
X129023810Y-132704250D02*
X129047620Y-132680440D01*
X129047620Y-132680440D02*
X129071429Y-132632821D01*
X129071429Y-132632821D02*
X129071429Y-132228059D01*
X129238097Y-132228059D02*
X129523811Y-132228059D01*
X129380954Y-132728059D02*
X129380954Y-132228059D01*
X129571430Y-132775678D02*
X129952382Y-132775678D01*
X130071429Y-132466154D02*
X130238096Y-132466154D01*
X130309524Y-132728059D02*
X130071429Y-132728059D01*
X130071429Y-132728059D02*
X130071429Y-132228059D01*
X130071429Y-132228059D02*
X130309524Y-132228059D01*
X130476191Y-132228059D02*
X130809524Y-132728059D01*
X130809524Y-132228059D02*
X130476191Y-132728059D01*
X131261905Y-132728059D02*
X130976191Y-132728059D01*
X131119048Y-132728059D02*
X131119048Y-132228059D01*
X131119048Y-132228059D02*
X131071429Y-132299488D01*
X131071429Y-132299488D02*
X131023810Y-132347107D01*
X131023810Y-132347107D02*
X130976191Y-132370916D01*
X81023810Y-133180440D02*
X81000001Y-133204250D01*
X81000001Y-133204250D02*
X80928572Y-133228059D01*
X80928572Y-133228059D02*
X80880953Y-133228059D01*
X80880953Y-133228059D02*
X80809525Y-133204250D01*
X80809525Y-133204250D02*
X80761906Y-133156630D01*
X80761906Y-133156630D02*
X80738096Y-133109011D01*
X80738096Y-133109011D02*
X80714287Y-133013773D01*
X80714287Y-133013773D02*
X80714287Y-132942345D01*
X80714287Y-132942345D02*
X80738096Y-132847107D01*
X80738096Y-132847107D02*
X80761906Y-132799488D01*
X80761906Y-132799488D02*
X80809525Y-132751869D01*
X80809525Y-132751869D02*
X80880953Y-132728059D01*
X80880953Y-132728059D02*
X80928572Y-132728059D01*
X80928572Y-132728059D02*
X81000001Y-132751869D01*
X81000001Y-132751869D02*
X81023810Y-132775678D01*
X81500001Y-133228059D02*
X81214287Y-133228059D01*
X81357144Y-133228059D02*
X81357144Y-132728059D01*
X81357144Y-132728059D02*
X81309525Y-132799488D01*
X81309525Y-132799488D02*
X81261906Y-132847107D01*
X81261906Y-132847107D02*
X81214287Y-132870916D01*
X81595239Y-133275678D02*
X81976191Y-133275678D01*
X82095238Y-132966154D02*
X82261905Y-132966154D01*
X82333333Y-133228059D02*
X82095238Y-133228059D01*
X82095238Y-133228059D02*
X82095238Y-132728059D01*
X82095238Y-132728059D02*
X82333333Y-132728059D01*
X82500000Y-132728059D02*
X82833333Y-133228059D01*
X82833333Y-132728059D02*
X82500000Y-133228059D01*
X83285714Y-133228059D02*
X83000000Y-133228059D01*
X83142857Y-133228059D02*
X83142857Y-132728059D01*
X83142857Y-132728059D02*
X83095238Y-132799488D01*
X83095238Y-132799488D02*
X83047619Y-132847107D01*
X83047619Y-132847107D02*
X83000000Y-132870916D01*
X118726190Y-129228059D02*
X118559524Y-128989964D01*
X118440476Y-129228059D02*
X118440476Y-128728059D01*
X118440476Y-128728059D02*
X118630952Y-128728059D01*
X118630952Y-128728059D02*
X118678571Y-128751869D01*
X118678571Y-128751869D02*
X118702381Y-128775678D01*
X118702381Y-128775678D02*
X118726190Y-128823297D01*
X118726190Y-128823297D02*
X118726190Y-128894726D01*
X118726190Y-128894726D02*
X118702381Y-128942345D01*
X118702381Y-128942345D02*
X118678571Y-128966154D01*
X118678571Y-128966154D02*
X118630952Y-128989964D01*
X118630952Y-128989964D02*
X118440476Y-128989964D01*
X118916667Y-129204250D02*
X118988095Y-129228059D01*
X118988095Y-129228059D02*
X119107143Y-129228059D01*
X119107143Y-129228059D02*
X119154762Y-129204250D01*
X119154762Y-129204250D02*
X119178571Y-129180440D01*
X119178571Y-129180440D02*
X119202381Y-129132821D01*
X119202381Y-129132821D02*
X119202381Y-129085202D01*
X119202381Y-129085202D02*
X119178571Y-129037583D01*
X119178571Y-129037583D02*
X119154762Y-129013773D01*
X119154762Y-129013773D02*
X119107143Y-128989964D01*
X119107143Y-128989964D02*
X119011905Y-128966154D01*
X119011905Y-128966154D02*
X118964286Y-128942345D01*
X118964286Y-128942345D02*
X118940476Y-128918535D01*
X118940476Y-128918535D02*
X118916667Y-128870916D01*
X118916667Y-128870916D02*
X118916667Y-128823297D01*
X118916667Y-128823297D02*
X118940476Y-128775678D01*
X118940476Y-128775678D02*
X118964286Y-128751869D01*
X118964286Y-128751869D02*
X119011905Y-128728059D01*
X119011905Y-128728059D02*
X119130952Y-128728059D01*
X119130952Y-128728059D02*
X119202381Y-128751869D01*
X119416666Y-128966154D02*
X119583333Y-128966154D01*
X119654761Y-129228059D02*
X119416666Y-129228059D01*
X119416666Y-129228059D02*
X119416666Y-128728059D01*
X119416666Y-128728059D02*
X119654761Y-128728059D01*
X119869047Y-129228059D02*
X119869047Y-128728059D01*
X119869047Y-128728059D02*
X120154761Y-129228059D01*
X120154761Y-129228059D02*
X120154761Y-128728059D01*
X120369048Y-129204250D02*
X120440476Y-129228059D01*
X120440476Y-129228059D02*
X120559524Y-129228059D01*
X120559524Y-129228059D02*
X120607143Y-129204250D01*
X120607143Y-129204250D02*
X120630952Y-129180440D01*
X120630952Y-129180440D02*
X120654762Y-129132821D01*
X120654762Y-129132821D02*
X120654762Y-129085202D01*
X120654762Y-129085202D02*
X120630952Y-129037583D01*
X120630952Y-129037583D02*
X120607143Y-129013773D01*
X120607143Y-129013773D02*
X120559524Y-128989964D01*
X120559524Y-128989964D02*
X120464286Y-128966154D01*
X120464286Y-128966154D02*
X120416667Y-128942345D01*
X120416667Y-128942345D02*
X120392857Y-128918535D01*
X120392857Y-128918535D02*
X120369048Y-128870916D01*
X120369048Y-128870916D02*
X120369048Y-128823297D01*
X120369048Y-128823297D02*
X120392857Y-128775678D01*
X120392857Y-128775678D02*
X120416667Y-128751869D01*
X120416667Y-128751869D02*
X120464286Y-128728059D01*
X120464286Y-128728059D02*
X120583333Y-128728059D01*
X120583333Y-128728059D02*
X120654762Y-128751869D01*
X120869047Y-128966154D02*
X121035714Y-128966154D01*
X121107142Y-129228059D02*
X120869047Y-129228059D01*
X120869047Y-129228059D02*
X120869047Y-128728059D01*
X120869047Y-128728059D02*
X121107142Y-128728059D01*
X121583333Y-129228059D02*
X121297619Y-129228059D01*
X121440476Y-129228059D02*
X121440476Y-128728059D01*
X121440476Y-128728059D02*
X121392857Y-128799488D01*
X121392857Y-128799488D02*
X121345238Y-128847107D01*
X121345238Y-128847107D02*
X121297619Y-128870916D01*
X103819559Y-161357143D02*
X103795750Y-161333334D01*
X103795750Y-161333334D02*
X103771940Y-161261905D01*
X103771940Y-161261905D02*
X103771940Y-161214286D01*
X103771940Y-161214286D02*
X103795750Y-161142858D01*
X103795750Y-161142858D02*
X103843369Y-161095239D01*
X103843369Y-161095239D02*
X103890988Y-161071429D01*
X103890988Y-161071429D02*
X103986226Y-161047620D01*
X103986226Y-161047620D02*
X104057654Y-161047620D01*
X104057654Y-161047620D02*
X104152892Y-161071429D01*
X104152892Y-161071429D02*
X104200511Y-161095239D01*
X104200511Y-161095239D02*
X104248130Y-161142858D01*
X104248130Y-161142858D02*
X104271940Y-161214286D01*
X104271940Y-161214286D02*
X104271940Y-161261905D01*
X104271940Y-161261905D02*
X104248130Y-161333334D01*
X104248130Y-161333334D02*
X104224321Y-161357143D01*
X103771940Y-161571429D02*
X104105273Y-161571429D01*
X104271940Y-161571429D02*
X104248130Y-161547620D01*
X104248130Y-161547620D02*
X104224321Y-161571429D01*
X104224321Y-161571429D02*
X104248130Y-161595239D01*
X104248130Y-161595239D02*
X104271940Y-161571429D01*
X104271940Y-161571429D02*
X104224321Y-161571429D01*
X104105273Y-161809524D02*
X103771940Y-161809524D01*
X104057654Y-161809524D02*
X104081464Y-161833334D01*
X104081464Y-161833334D02*
X104105273Y-161880953D01*
X104105273Y-161880953D02*
X104105273Y-161952381D01*
X104105273Y-161952381D02*
X104081464Y-162000000D01*
X104081464Y-162000000D02*
X104033845Y-162023810D01*
X104033845Y-162023810D02*
X103771940Y-162023810D01*
X103914797Y-162238096D02*
X103914797Y-162476191D01*
X103771940Y-162190477D02*
X104271940Y-162357143D01*
X104271940Y-162357143D02*
X103771940Y-162523810D01*
X104224321Y-162666667D02*
X104248130Y-162690476D01*
X104248130Y-162690476D02*
X104271940Y-162738095D01*
X104271940Y-162738095D02*
X104271940Y-162857143D01*
X104271940Y-162857143D02*
X104248130Y-162904762D01*
X104248130Y-162904762D02*
X104224321Y-162928571D01*
X104224321Y-162928571D02*
X104176702Y-162952381D01*
X104176702Y-162952381D02*
X104129083Y-162952381D01*
X104129083Y-162952381D02*
X104057654Y-162928571D01*
X104057654Y-162928571D02*
X103771940Y-162642857D01*
X103771940Y-162642857D02*
X103771940Y-162952381D01*
X125416666Y-139678059D02*
X125250000Y-139439964D01*
X125130952Y-139678059D02*
X125130952Y-139178059D01*
X125130952Y-139178059D02*
X125321428Y-139178059D01*
X125321428Y-139178059D02*
X125369047Y-139201869D01*
X125369047Y-139201869D02*
X125392857Y-139225678D01*
X125392857Y-139225678D02*
X125416666Y-139273297D01*
X125416666Y-139273297D02*
X125416666Y-139344726D01*
X125416666Y-139344726D02*
X125392857Y-139392345D01*
X125392857Y-139392345D02*
X125369047Y-139416154D01*
X125369047Y-139416154D02*
X125321428Y-139439964D01*
X125321428Y-139439964D02*
X125130952Y-139439964D01*
X125845238Y-139178059D02*
X125750000Y-139178059D01*
X125750000Y-139178059D02*
X125702381Y-139201869D01*
X125702381Y-139201869D02*
X125678571Y-139225678D01*
X125678571Y-139225678D02*
X125630952Y-139297107D01*
X125630952Y-139297107D02*
X125607143Y-139392345D01*
X125607143Y-139392345D02*
X125607143Y-139582821D01*
X125607143Y-139582821D02*
X125630952Y-139630440D01*
X125630952Y-139630440D02*
X125654762Y-139654250D01*
X125654762Y-139654250D02*
X125702381Y-139678059D01*
X125702381Y-139678059D02*
X125797619Y-139678059D01*
X125797619Y-139678059D02*
X125845238Y-139654250D01*
X125845238Y-139654250D02*
X125869047Y-139630440D01*
X125869047Y-139630440D02*
X125892857Y-139582821D01*
X125892857Y-139582821D02*
X125892857Y-139463773D01*
X125892857Y-139463773D02*
X125869047Y-139416154D01*
X125869047Y-139416154D02*
X125845238Y-139392345D01*
X125845238Y-139392345D02*
X125797619Y-139368535D01*
X125797619Y-139368535D02*
X125702381Y-139368535D01*
X125702381Y-139368535D02*
X125654762Y-139392345D01*
X125654762Y-139392345D02*
X125630952Y-139416154D01*
X125630952Y-139416154D02*
X125607143Y-139463773D01*
X94928572Y-160717940D02*
X94904763Y-160741750D01*
X94904763Y-160741750D02*
X94833334Y-160765559D01*
X94833334Y-160765559D02*
X94785715Y-160765559D01*
X94785715Y-160765559D02*
X94714287Y-160741750D01*
X94714287Y-160741750D02*
X94666668Y-160694130D01*
X94666668Y-160694130D02*
X94642858Y-160646511D01*
X94642858Y-160646511D02*
X94619049Y-160551273D01*
X94619049Y-160551273D02*
X94619049Y-160479845D01*
X94619049Y-160479845D02*
X94642858Y-160384607D01*
X94642858Y-160384607D02*
X94666668Y-160336988D01*
X94666668Y-160336988D02*
X94714287Y-160289369D01*
X94714287Y-160289369D02*
X94785715Y-160265559D01*
X94785715Y-160265559D02*
X94833334Y-160265559D01*
X94833334Y-160265559D02*
X94904763Y-160289369D01*
X94904763Y-160289369D02*
X94928572Y-160313178D01*
X95142858Y-160765559D02*
X95142858Y-160432226D01*
X95142858Y-160265559D02*
X95119049Y-160289369D01*
X95119049Y-160289369D02*
X95142858Y-160313178D01*
X95142858Y-160313178D02*
X95166668Y-160289369D01*
X95166668Y-160289369D02*
X95142858Y-160265559D01*
X95142858Y-160265559D02*
X95142858Y-160313178D01*
X95380953Y-160432226D02*
X95380953Y-160765559D01*
X95380953Y-160479845D02*
X95404763Y-160456035D01*
X95404763Y-160456035D02*
X95452382Y-160432226D01*
X95452382Y-160432226D02*
X95523810Y-160432226D01*
X95523810Y-160432226D02*
X95571429Y-160456035D01*
X95571429Y-160456035D02*
X95595239Y-160503654D01*
X95595239Y-160503654D02*
X95595239Y-160765559D01*
X96000001Y-160503654D02*
X96071429Y-160527464D01*
X96071429Y-160527464D02*
X96095239Y-160551273D01*
X96095239Y-160551273D02*
X96119048Y-160598892D01*
X96119048Y-160598892D02*
X96119048Y-160670321D01*
X96119048Y-160670321D02*
X96095239Y-160717940D01*
X96095239Y-160717940D02*
X96071429Y-160741750D01*
X96071429Y-160741750D02*
X96023810Y-160765559D01*
X96023810Y-160765559D02*
X95833334Y-160765559D01*
X95833334Y-160765559D02*
X95833334Y-160265559D01*
X95833334Y-160265559D02*
X96000001Y-160265559D01*
X96000001Y-160265559D02*
X96047620Y-160289369D01*
X96047620Y-160289369D02*
X96071429Y-160313178D01*
X96071429Y-160313178D02*
X96095239Y-160360797D01*
X96095239Y-160360797D02*
X96095239Y-160408416D01*
X96095239Y-160408416D02*
X96071429Y-160456035D01*
X96071429Y-160456035D02*
X96047620Y-160479845D01*
X96047620Y-160479845D02*
X96000001Y-160503654D01*
X96000001Y-160503654D02*
X95833334Y-160503654D01*
X96595239Y-160765559D02*
X96309525Y-160765559D01*
X96452382Y-160765559D02*
X96452382Y-160265559D01*
X96452382Y-160265559D02*
X96404763Y-160336988D01*
X96404763Y-160336988D02*
X96357144Y-160384607D01*
X96357144Y-160384607D02*
X96309525Y-160408416D01*
X96690477Y-160813178D02*
X97071429Y-160813178D01*
X97190476Y-160503654D02*
X97357143Y-160503654D01*
X97428571Y-160765559D02*
X97190476Y-160765559D01*
X97190476Y-160765559D02*
X97190476Y-160265559D01*
X97190476Y-160265559D02*
X97428571Y-160265559D01*
X97595238Y-160265559D02*
X97928571Y-160765559D01*
X97928571Y-160265559D02*
X97595238Y-160765559D01*
X98380952Y-160765559D02*
X98095238Y-160765559D01*
X98238095Y-160765559D02*
X98238095Y-160265559D01*
X98238095Y-160265559D02*
X98190476Y-160336988D01*
X98190476Y-160336988D02*
X98142857Y-160384607D01*
X98142857Y-160384607D02*
X98095238Y-160408416D01*
X124238095Y-129178059D02*
X124071429Y-128939964D01*
X123952381Y-129178059D02*
X123952381Y-128678059D01*
X123952381Y-128678059D02*
X124142857Y-128678059D01*
X124142857Y-128678059D02*
X124190476Y-128701869D01*
X124190476Y-128701869D02*
X124214286Y-128725678D01*
X124214286Y-128725678D02*
X124238095Y-128773297D01*
X124238095Y-128773297D02*
X124238095Y-128844726D01*
X124238095Y-128844726D02*
X124214286Y-128892345D01*
X124214286Y-128892345D02*
X124190476Y-128916154D01*
X124190476Y-128916154D02*
X124142857Y-128939964D01*
X124142857Y-128939964D02*
X123952381Y-128939964D01*
X124690476Y-129178059D02*
X124452381Y-129178059D01*
X124452381Y-129178059D02*
X124452381Y-128678059D01*
X124952381Y-128678059D02*
X125047619Y-128678059D01*
X125047619Y-128678059D02*
X125095238Y-128701869D01*
X125095238Y-128701869D02*
X125142857Y-128749488D01*
X125142857Y-128749488D02*
X125166667Y-128844726D01*
X125166667Y-128844726D02*
X125166667Y-129011392D01*
X125166667Y-129011392D02*
X125142857Y-129106630D01*
X125142857Y-129106630D02*
X125095238Y-129154250D01*
X125095238Y-129154250D02*
X125047619Y-129178059D01*
X125047619Y-129178059D02*
X124952381Y-129178059D01*
X124952381Y-129178059D02*
X124904762Y-129154250D01*
X124904762Y-129154250D02*
X124857143Y-129106630D01*
X124857143Y-129106630D02*
X124833334Y-129011392D01*
X124833334Y-129011392D02*
X124833334Y-128844726D01*
X124833334Y-128844726D02*
X124857143Y-128749488D01*
X124857143Y-128749488D02*
X124904762Y-128701869D01*
X124904762Y-128701869D02*
X124952381Y-128678059D01*
X125357144Y-129035202D02*
X125595239Y-129035202D01*
X125309525Y-129178059D02*
X125476191Y-128678059D01*
X125476191Y-128678059D02*
X125642858Y-129178059D01*
X125809524Y-129178059D02*
X125809524Y-128678059D01*
X125809524Y-128678059D02*
X125928572Y-128678059D01*
X125928572Y-128678059D02*
X126000000Y-128701869D01*
X126000000Y-128701869D02*
X126047619Y-128749488D01*
X126047619Y-128749488D02*
X126071429Y-128797107D01*
X126071429Y-128797107D02*
X126095238Y-128892345D01*
X126095238Y-128892345D02*
X126095238Y-128963773D01*
X126095238Y-128963773D02*
X126071429Y-129059011D01*
X126071429Y-129059011D02*
X126047619Y-129106630D01*
X126047619Y-129106630D02*
X126000000Y-129154250D01*
X126000000Y-129154250D02*
X125928572Y-129178059D01*
X125928572Y-129178059D02*
X125809524Y-129178059D01*
X126571429Y-129178059D02*
X126285715Y-129178059D01*
X126428572Y-129178059D02*
X126428572Y-128678059D01*
X126428572Y-128678059D02*
X126380953Y-128749488D01*
X126380953Y-128749488D02*
X126333334Y-128797107D01*
X126333334Y-128797107D02*
X126285715Y-128820916D01*
X97464286Y-162142940D02*
X97440477Y-162166750D01*
X97440477Y-162166750D02*
X97369048Y-162190559D01*
X97369048Y-162190559D02*
X97321429Y-162190559D01*
X97321429Y-162190559D02*
X97250001Y-162166750D01*
X97250001Y-162166750D02*
X97202382Y-162119130D01*
X97202382Y-162119130D02*
X97178572Y-162071511D01*
X97178572Y-162071511D02*
X97154763Y-161976273D01*
X97154763Y-161976273D02*
X97154763Y-161904845D01*
X97154763Y-161904845D02*
X97178572Y-161809607D01*
X97178572Y-161809607D02*
X97202382Y-161761988D01*
X97202382Y-161761988D02*
X97250001Y-161714369D01*
X97250001Y-161714369D02*
X97321429Y-161690559D01*
X97321429Y-161690559D02*
X97369048Y-161690559D01*
X97369048Y-161690559D02*
X97440477Y-161714369D01*
X97440477Y-161714369D02*
X97464286Y-161738178D01*
X97678572Y-162190559D02*
X97678572Y-161857226D01*
X97678572Y-161690559D02*
X97654763Y-161714369D01*
X97654763Y-161714369D02*
X97678572Y-161738178D01*
X97678572Y-161738178D02*
X97702382Y-161714369D01*
X97702382Y-161714369D02*
X97678572Y-161690559D01*
X97678572Y-161690559D02*
X97678572Y-161738178D01*
X97916667Y-161857226D02*
X97916667Y-162190559D01*
X97916667Y-161904845D02*
X97940477Y-161881035D01*
X97940477Y-161881035D02*
X97988096Y-161857226D01*
X97988096Y-161857226D02*
X98059524Y-161857226D01*
X98059524Y-161857226D02*
X98107143Y-161881035D01*
X98107143Y-161881035D02*
X98130953Y-161928654D01*
X98130953Y-161928654D02*
X98130953Y-162190559D01*
X98345239Y-162047702D02*
X98583334Y-162047702D01*
X98297620Y-162190559D02*
X98464286Y-161690559D01*
X98464286Y-161690559D02*
X98630953Y-162190559D01*
X99059524Y-162190559D02*
X98773810Y-162190559D01*
X98916667Y-162190559D02*
X98916667Y-161690559D01*
X98916667Y-161690559D02*
X98869048Y-161761988D01*
X98869048Y-161761988D02*
X98821429Y-161809607D01*
X98821429Y-161809607D02*
X98773810Y-161833416D01*
X99154762Y-162238178D02*
X99535714Y-162238178D01*
X99654761Y-161928654D02*
X99821428Y-161928654D01*
X99892856Y-162190559D02*
X99654761Y-162190559D01*
X99654761Y-162190559D02*
X99654761Y-161690559D01*
X99654761Y-161690559D02*
X99892856Y-161690559D01*
X100059523Y-161690559D02*
X100392856Y-162190559D01*
X100392856Y-161690559D02*
X100059523Y-162190559D01*
X100845237Y-162190559D02*
X100559523Y-162190559D01*
X100702380Y-162190559D02*
X100702380Y-161690559D01*
X100702380Y-161690559D02*
X100654761Y-161761988D01*
X100654761Y-161761988D02*
X100607142Y-161809607D01*
X100607142Y-161809607D02*
X100559523Y-161833416D01*
X90916666Y-142728059D02*
X90750000Y-142489964D01*
X90630952Y-142728059D02*
X90630952Y-142228059D01*
X90630952Y-142228059D02*
X90821428Y-142228059D01*
X90821428Y-142228059D02*
X90869047Y-142251869D01*
X90869047Y-142251869D02*
X90892857Y-142275678D01*
X90892857Y-142275678D02*
X90916666Y-142323297D01*
X90916666Y-142323297D02*
X90916666Y-142394726D01*
X90916666Y-142394726D02*
X90892857Y-142442345D01*
X90892857Y-142442345D02*
X90869047Y-142466154D01*
X90869047Y-142466154D02*
X90821428Y-142489964D01*
X90821428Y-142489964D02*
X90630952Y-142489964D01*
X91154762Y-142728059D02*
X91250000Y-142728059D01*
X91250000Y-142728059D02*
X91297619Y-142704250D01*
X91297619Y-142704250D02*
X91321428Y-142680440D01*
X91321428Y-142680440D02*
X91369047Y-142609011D01*
X91369047Y-142609011D02*
X91392857Y-142513773D01*
X91392857Y-142513773D02*
X91392857Y-142323297D01*
X91392857Y-142323297D02*
X91369047Y-142275678D01*
X91369047Y-142275678D02*
X91345238Y-142251869D01*
X91345238Y-142251869D02*
X91297619Y-142228059D01*
X91297619Y-142228059D02*
X91202381Y-142228059D01*
X91202381Y-142228059D02*
X91154762Y-142251869D01*
X91154762Y-142251869D02*
X91130952Y-142275678D01*
X91130952Y-142275678D02*
X91107143Y-142323297D01*
X91107143Y-142323297D02*
X91107143Y-142442345D01*
X91107143Y-142442345D02*
X91130952Y-142489964D01*
X91130952Y-142489964D02*
X91154762Y-142513773D01*
X91154762Y-142513773D02*
X91202381Y-142537583D01*
X91202381Y-142537583D02*
X91297619Y-142537583D01*
X91297619Y-142537583D02*
X91345238Y-142513773D01*
X91345238Y-142513773D02*
X91369047Y-142489964D01*
X91369047Y-142489964D02*
X91392857Y-142442345D01*
X124664880Y-125000440D02*
X124641071Y-125024250D01*
X124641071Y-125024250D02*
X124569642Y-125048059D01*
X124569642Y-125048059D02*
X124522023Y-125048059D01*
X124522023Y-125048059D02*
X124450595Y-125024250D01*
X124450595Y-125024250D02*
X124402976Y-124976630D01*
X124402976Y-124976630D02*
X124379166Y-124929011D01*
X124379166Y-124929011D02*
X124355357Y-124833773D01*
X124355357Y-124833773D02*
X124355357Y-124762345D01*
X124355357Y-124762345D02*
X124379166Y-124667107D01*
X124379166Y-124667107D02*
X124402976Y-124619488D01*
X124402976Y-124619488D02*
X124450595Y-124571869D01*
X124450595Y-124571869D02*
X124522023Y-124548059D01*
X124522023Y-124548059D02*
X124569642Y-124548059D01*
X124569642Y-124548059D02*
X124641071Y-124571869D01*
X124641071Y-124571869D02*
X124664880Y-124595678D01*
X124974404Y-124548059D02*
X125069642Y-124548059D01*
X125069642Y-124548059D02*
X125117261Y-124571869D01*
X125117261Y-124571869D02*
X125164880Y-124619488D01*
X125164880Y-124619488D02*
X125188690Y-124714726D01*
X125188690Y-124714726D02*
X125188690Y-124881392D01*
X125188690Y-124881392D02*
X125164880Y-124976630D01*
X125164880Y-124976630D02*
X125117261Y-125024250D01*
X125117261Y-125024250D02*
X125069642Y-125048059D01*
X125069642Y-125048059D02*
X124974404Y-125048059D01*
X124974404Y-125048059D02*
X124926785Y-125024250D01*
X124926785Y-125024250D02*
X124879166Y-124976630D01*
X124879166Y-124976630D02*
X124855357Y-124881392D01*
X124855357Y-124881392D02*
X124855357Y-124714726D01*
X124855357Y-124714726D02*
X124879166Y-124619488D01*
X124879166Y-124619488D02*
X124926785Y-124571869D01*
X124926785Y-124571869D02*
X124974404Y-124548059D01*
X125402976Y-124548059D02*
X125402976Y-124952821D01*
X125402976Y-124952821D02*
X125426786Y-125000440D01*
X125426786Y-125000440D02*
X125450595Y-125024250D01*
X125450595Y-125024250D02*
X125498214Y-125048059D01*
X125498214Y-125048059D02*
X125593452Y-125048059D01*
X125593452Y-125048059D02*
X125641071Y-125024250D01*
X125641071Y-125024250D02*
X125664881Y-125000440D01*
X125664881Y-125000440D02*
X125688690Y-124952821D01*
X125688690Y-124952821D02*
X125688690Y-124548059D01*
X125855358Y-124548059D02*
X126141072Y-124548059D01*
X125998215Y-125048059D02*
X125998215Y-124548059D01*
X126569643Y-125048059D02*
X126283929Y-125048059D01*
X126426786Y-125048059D02*
X126426786Y-124548059D01*
X126426786Y-124548059D02*
X126379167Y-124619488D01*
X126379167Y-124619488D02*
X126331548Y-124667107D01*
X126331548Y-124667107D02*
X126283929Y-124690916D01*
X88023810Y-140680440D02*
X88000001Y-140704250D01*
X88000001Y-140704250D02*
X87928572Y-140728059D01*
X87928572Y-140728059D02*
X87880953Y-140728059D01*
X87880953Y-140728059D02*
X87809525Y-140704250D01*
X87809525Y-140704250D02*
X87761906Y-140656630D01*
X87761906Y-140656630D02*
X87738096Y-140609011D01*
X87738096Y-140609011D02*
X87714287Y-140513773D01*
X87714287Y-140513773D02*
X87714287Y-140442345D01*
X87714287Y-140442345D02*
X87738096Y-140347107D01*
X87738096Y-140347107D02*
X87761906Y-140299488D01*
X87761906Y-140299488D02*
X87809525Y-140251869D01*
X87809525Y-140251869D02*
X87880953Y-140228059D01*
X87880953Y-140228059D02*
X87928572Y-140228059D01*
X87928572Y-140228059D02*
X88000001Y-140251869D01*
X88000001Y-140251869D02*
X88023810Y-140275678D01*
X88452382Y-140228059D02*
X88357144Y-140228059D01*
X88357144Y-140228059D02*
X88309525Y-140251869D01*
X88309525Y-140251869D02*
X88285715Y-140275678D01*
X88285715Y-140275678D02*
X88238096Y-140347107D01*
X88238096Y-140347107D02*
X88214287Y-140442345D01*
X88214287Y-140442345D02*
X88214287Y-140632821D01*
X88214287Y-140632821D02*
X88238096Y-140680440D01*
X88238096Y-140680440D02*
X88261906Y-140704250D01*
X88261906Y-140704250D02*
X88309525Y-140728059D01*
X88309525Y-140728059D02*
X88404763Y-140728059D01*
X88404763Y-140728059D02*
X88452382Y-140704250D01*
X88452382Y-140704250D02*
X88476191Y-140680440D01*
X88476191Y-140680440D02*
X88500001Y-140632821D01*
X88500001Y-140632821D02*
X88500001Y-140513773D01*
X88500001Y-140513773D02*
X88476191Y-140466154D01*
X88476191Y-140466154D02*
X88452382Y-140442345D01*
X88452382Y-140442345D02*
X88404763Y-140418535D01*
X88404763Y-140418535D02*
X88309525Y-140418535D01*
X88309525Y-140418535D02*
X88261906Y-140442345D01*
X88261906Y-140442345D02*
X88238096Y-140466154D01*
X88238096Y-140466154D02*
X88214287Y-140513773D01*
X88595239Y-140775678D02*
X88976191Y-140775678D01*
X89095238Y-140466154D02*
X89261905Y-140466154D01*
X89333333Y-140728059D02*
X89095238Y-140728059D01*
X89095238Y-140728059D02*
X89095238Y-140228059D01*
X89095238Y-140228059D02*
X89333333Y-140228059D01*
X89500000Y-140228059D02*
X89833333Y-140728059D01*
X89833333Y-140228059D02*
X89500000Y-140728059D01*
X90285714Y-140728059D02*
X90000000Y-140728059D01*
X90142857Y-140728059D02*
X90142857Y-140228059D01*
X90142857Y-140228059D02*
X90095238Y-140299488D01*
X90095238Y-140299488D02*
X90047619Y-140347107D01*
X90047619Y-140347107D02*
X90000000Y-140370916D01*
X127234166Y-143978059D02*
X127067500Y-143739964D01*
X126948452Y-143978059D02*
X126948452Y-143478059D01*
X126948452Y-143478059D02*
X127138928Y-143478059D01*
X127138928Y-143478059D02*
X127186547Y-143501869D01*
X127186547Y-143501869D02*
X127210357Y-143525678D01*
X127210357Y-143525678D02*
X127234166Y-143573297D01*
X127234166Y-143573297D02*
X127234166Y-143644726D01*
X127234166Y-143644726D02*
X127210357Y-143692345D01*
X127210357Y-143692345D02*
X127186547Y-143716154D01*
X127186547Y-143716154D02*
X127138928Y-143739964D01*
X127138928Y-143739964D02*
X126948452Y-143739964D01*
X127400833Y-143478059D02*
X127734166Y-143478059D01*
X127734166Y-143478059D02*
X127519881Y-143978059D01*
X119380953Y-120348059D02*
X119547619Y-120848059D01*
X119547619Y-120848059D02*
X119714286Y-120348059D01*
X119976190Y-120348059D02*
X120071428Y-120348059D01*
X120071428Y-120348059D02*
X120119047Y-120371869D01*
X120119047Y-120371869D02*
X120166666Y-120419488D01*
X120166666Y-120419488D02*
X120190476Y-120514726D01*
X120190476Y-120514726D02*
X120190476Y-120681392D01*
X120190476Y-120681392D02*
X120166666Y-120776630D01*
X120166666Y-120776630D02*
X120119047Y-120824250D01*
X120119047Y-120824250D02*
X120071428Y-120848059D01*
X120071428Y-120848059D02*
X119976190Y-120848059D01*
X119976190Y-120848059D02*
X119928571Y-120824250D01*
X119928571Y-120824250D02*
X119880952Y-120776630D01*
X119880952Y-120776630D02*
X119857143Y-120681392D01*
X119857143Y-120681392D02*
X119857143Y-120514726D01*
X119857143Y-120514726D02*
X119880952Y-120419488D01*
X119880952Y-120419488D02*
X119928571Y-120371869D01*
X119928571Y-120371869D02*
X119976190Y-120348059D01*
X120404762Y-120348059D02*
X120404762Y-120752821D01*
X120404762Y-120752821D02*
X120428572Y-120800440D01*
X120428572Y-120800440D02*
X120452381Y-120824250D01*
X120452381Y-120824250D02*
X120500000Y-120848059D01*
X120500000Y-120848059D02*
X120595238Y-120848059D01*
X120595238Y-120848059D02*
X120642857Y-120824250D01*
X120642857Y-120824250D02*
X120666667Y-120800440D01*
X120666667Y-120800440D02*
X120690476Y-120752821D01*
X120690476Y-120752821D02*
X120690476Y-120348059D01*
X120857144Y-120348059D02*
X121142858Y-120348059D01*
X121000001Y-120848059D02*
X121000001Y-120348059D01*
X121571429Y-120848059D02*
X121285715Y-120848059D01*
X121428572Y-120848059D02*
X121428572Y-120348059D01*
X121428572Y-120348059D02*
X121380953Y-120419488D01*
X121380953Y-120419488D02*
X121333334Y-120467107D01*
X121333334Y-120467107D02*
X121285715Y-120490916D01*
X103122380Y-134167678D02*
X103074761Y-134143869D01*
X103074761Y-134143869D02*
X103027142Y-134096250D01*
X103027142Y-134096250D02*
X102955714Y-134024821D01*
X102955714Y-134024821D02*
X102908095Y-134001011D01*
X102908095Y-134001011D02*
X102860476Y-134001011D01*
X102884285Y-134120059D02*
X102836666Y-134096250D01*
X102836666Y-134096250D02*
X102789047Y-134048630D01*
X102789047Y-134048630D02*
X102765238Y-133953392D01*
X102765238Y-133953392D02*
X102765238Y-133786726D01*
X102765238Y-133786726D02*
X102789047Y-133691488D01*
X102789047Y-133691488D02*
X102836666Y-133643869D01*
X102836666Y-133643869D02*
X102884285Y-133620059D01*
X102884285Y-133620059D02*
X102979523Y-133620059D01*
X102979523Y-133620059D02*
X103027142Y-133643869D01*
X103027142Y-133643869D02*
X103074761Y-133691488D01*
X103074761Y-133691488D02*
X103098571Y-133786726D01*
X103098571Y-133786726D02*
X103098571Y-133953392D01*
X103098571Y-133953392D02*
X103074761Y-134048630D01*
X103074761Y-134048630D02*
X103027142Y-134096250D01*
X103027142Y-134096250D02*
X102979523Y-134120059D01*
X102979523Y-134120059D02*
X102884285Y-134120059D01*
X103574762Y-134120059D02*
X103289048Y-134120059D01*
X103431905Y-134120059D02*
X103431905Y-133620059D01*
X103431905Y-133620059D02*
X103384286Y-133691488D01*
X103384286Y-133691488D02*
X103336667Y-133739107D01*
X103336667Y-133739107D02*
X103289048Y-133762916D01*
X105819559Y-161357143D02*
X105795750Y-161333334D01*
X105795750Y-161333334D02*
X105771940Y-161261905D01*
X105771940Y-161261905D02*
X105771940Y-161214286D01*
X105771940Y-161214286D02*
X105795750Y-161142858D01*
X105795750Y-161142858D02*
X105843369Y-161095239D01*
X105843369Y-161095239D02*
X105890988Y-161071429D01*
X105890988Y-161071429D02*
X105986226Y-161047620D01*
X105986226Y-161047620D02*
X106057654Y-161047620D01*
X106057654Y-161047620D02*
X106152892Y-161071429D01*
X106152892Y-161071429D02*
X106200511Y-161095239D01*
X106200511Y-161095239D02*
X106248130Y-161142858D01*
X106248130Y-161142858D02*
X106271940Y-161214286D01*
X106271940Y-161214286D02*
X106271940Y-161261905D01*
X106271940Y-161261905D02*
X106248130Y-161333334D01*
X106248130Y-161333334D02*
X106224321Y-161357143D01*
X105771940Y-161571429D02*
X106105273Y-161571429D01*
X106271940Y-161571429D02*
X106248130Y-161547620D01*
X106248130Y-161547620D02*
X106224321Y-161571429D01*
X106224321Y-161571429D02*
X106248130Y-161595239D01*
X106248130Y-161595239D02*
X106271940Y-161571429D01*
X106271940Y-161571429D02*
X106224321Y-161571429D01*
X106105273Y-161809524D02*
X105771940Y-161809524D01*
X106057654Y-161809524D02*
X106081464Y-161833334D01*
X106081464Y-161833334D02*
X106105273Y-161880953D01*
X106105273Y-161880953D02*
X106105273Y-161952381D01*
X106105273Y-161952381D02*
X106081464Y-162000000D01*
X106081464Y-162000000D02*
X106033845Y-162023810D01*
X106033845Y-162023810D02*
X105771940Y-162023810D01*
X105914797Y-162238096D02*
X105914797Y-162476191D01*
X105771940Y-162190477D02*
X106271940Y-162357143D01*
X106271940Y-162357143D02*
X105771940Y-162523810D01*
X105771940Y-162952381D02*
X105771940Y-162666667D01*
X105771940Y-162809524D02*
X106271940Y-162809524D01*
X106271940Y-162809524D02*
X106200511Y-162761905D01*
X106200511Y-162761905D02*
X106152892Y-162714286D01*
X106152892Y-162714286D02*
X106129083Y-162666667D01*
X112369049Y-155978059D02*
X112535715Y-156478059D01*
X112535715Y-156478059D02*
X112702382Y-155978059D01*
X112845239Y-156454250D02*
X112916667Y-156478059D01*
X112916667Y-156478059D02*
X113035715Y-156478059D01*
X113035715Y-156478059D02*
X113083334Y-156454250D01*
X113083334Y-156454250D02*
X113107143Y-156430440D01*
X113107143Y-156430440D02*
X113130953Y-156382821D01*
X113130953Y-156382821D02*
X113130953Y-156335202D01*
X113130953Y-156335202D02*
X113107143Y-156287583D01*
X113107143Y-156287583D02*
X113083334Y-156263773D01*
X113083334Y-156263773D02*
X113035715Y-156239964D01*
X113035715Y-156239964D02*
X112940477Y-156216154D01*
X112940477Y-156216154D02*
X112892858Y-156192345D01*
X112892858Y-156192345D02*
X112869048Y-156168535D01*
X112869048Y-156168535D02*
X112845239Y-156120916D01*
X112845239Y-156120916D02*
X112845239Y-156073297D01*
X112845239Y-156073297D02*
X112869048Y-156025678D01*
X112869048Y-156025678D02*
X112892858Y-156001869D01*
X112892858Y-156001869D02*
X112940477Y-155978059D01*
X112940477Y-155978059D02*
X113059524Y-155978059D01*
X113059524Y-155978059D02*
X113130953Y-156001869D01*
X113416667Y-156478059D02*
X113369048Y-156454250D01*
X113369048Y-156454250D02*
X113345238Y-156430440D01*
X113345238Y-156430440D02*
X113321429Y-156382821D01*
X113321429Y-156382821D02*
X113321429Y-156239964D01*
X113321429Y-156239964D02*
X113345238Y-156192345D01*
X113345238Y-156192345D02*
X113369048Y-156168535D01*
X113369048Y-156168535D02*
X113416667Y-156144726D01*
X113416667Y-156144726D02*
X113488095Y-156144726D01*
X113488095Y-156144726D02*
X113535714Y-156168535D01*
X113535714Y-156168535D02*
X113559524Y-156192345D01*
X113559524Y-156192345D02*
X113583333Y-156239964D01*
X113583333Y-156239964D02*
X113583333Y-156382821D01*
X113583333Y-156382821D02*
X113559524Y-156430440D01*
X113559524Y-156430440D02*
X113535714Y-156454250D01*
X113535714Y-156454250D02*
X113488095Y-156478059D01*
X113488095Y-156478059D02*
X113416667Y-156478059D01*
X114011905Y-156144726D02*
X114011905Y-156478059D01*
X113797619Y-156144726D02*
X113797619Y-156406630D01*
X113797619Y-156406630D02*
X113821429Y-156454250D01*
X113821429Y-156454250D02*
X113869048Y-156478059D01*
X113869048Y-156478059D02*
X113940476Y-156478059D01*
X113940476Y-156478059D02*
X113988095Y-156454250D01*
X113988095Y-156454250D02*
X114011905Y-156430440D01*
X114250000Y-156478059D02*
X114250000Y-156144726D01*
X114250000Y-156239964D02*
X114273810Y-156192345D01*
X114273810Y-156192345D02*
X114297619Y-156168535D01*
X114297619Y-156168535D02*
X114345238Y-156144726D01*
X114345238Y-156144726D02*
X114392857Y-156144726D01*
X114773810Y-156454250D02*
X114726191Y-156478059D01*
X114726191Y-156478059D02*
X114630953Y-156478059D01*
X114630953Y-156478059D02*
X114583334Y-156454250D01*
X114583334Y-156454250D02*
X114559524Y-156430440D01*
X114559524Y-156430440D02*
X114535715Y-156382821D01*
X114535715Y-156382821D02*
X114535715Y-156239964D01*
X114535715Y-156239964D02*
X114559524Y-156192345D01*
X114559524Y-156192345D02*
X114583334Y-156168535D01*
X114583334Y-156168535D02*
X114630953Y-156144726D01*
X114630953Y-156144726D02*
X114726191Y-156144726D01*
X114726191Y-156144726D02*
X114773810Y-156168535D01*
X115178571Y-156454250D02*
X115130952Y-156478059D01*
X115130952Y-156478059D02*
X115035714Y-156478059D01*
X115035714Y-156478059D02*
X114988095Y-156454250D01*
X114988095Y-156454250D02*
X114964286Y-156406630D01*
X114964286Y-156406630D02*
X114964286Y-156216154D01*
X114964286Y-156216154D02*
X114988095Y-156168535D01*
X114988095Y-156168535D02*
X115035714Y-156144726D01*
X115035714Y-156144726D02*
X115130952Y-156144726D01*
X115130952Y-156144726D02*
X115178571Y-156168535D01*
X115178571Y-156168535D02*
X115202381Y-156216154D01*
X115202381Y-156216154D02*
X115202381Y-156263773D01*
X115202381Y-156263773D02*
X114964286Y-156311392D01*
X115297619Y-156525678D02*
X115678571Y-156525678D01*
X116059523Y-156001869D02*
X116011904Y-155978059D01*
X116011904Y-155978059D02*
X115940475Y-155978059D01*
X115940475Y-155978059D02*
X115869047Y-156001869D01*
X115869047Y-156001869D02*
X115821428Y-156049488D01*
X115821428Y-156049488D02*
X115797618Y-156097107D01*
X115797618Y-156097107D02*
X115773809Y-156192345D01*
X115773809Y-156192345D02*
X115773809Y-156263773D01*
X115773809Y-156263773D02*
X115797618Y-156359011D01*
X115797618Y-156359011D02*
X115821428Y-156406630D01*
X115821428Y-156406630D02*
X115869047Y-156454250D01*
X115869047Y-156454250D02*
X115940475Y-156478059D01*
X115940475Y-156478059D02*
X115988094Y-156478059D01*
X115988094Y-156478059D02*
X116059523Y-156454250D01*
X116059523Y-156454250D02*
X116083332Y-156430440D01*
X116083332Y-156430440D02*
X116083332Y-156263773D01*
X116083332Y-156263773D02*
X115988094Y-156263773D01*
X116297618Y-156478059D02*
X116297618Y-155978059D01*
X116297618Y-155978059D02*
X116583332Y-156478059D01*
X116583332Y-156478059D02*
X116583332Y-155978059D01*
X116821428Y-156478059D02*
X116821428Y-155978059D01*
X116821428Y-155978059D02*
X116940476Y-155978059D01*
X116940476Y-155978059D02*
X117011904Y-156001869D01*
X117011904Y-156001869D02*
X117059523Y-156049488D01*
X117059523Y-156049488D02*
X117083333Y-156097107D01*
X117083333Y-156097107D02*
X117107142Y-156192345D01*
X117107142Y-156192345D02*
X117107142Y-156263773D01*
X117107142Y-156263773D02*
X117083333Y-156359011D01*
X117083333Y-156359011D02*
X117059523Y-156406630D01*
X117059523Y-156406630D02*
X117011904Y-156454250D01*
X117011904Y-156454250D02*
X116940476Y-156478059D01*
X116940476Y-156478059D02*
X116821428Y-156478059D01*
X117583333Y-156478059D02*
X117297619Y-156478059D01*
X117440476Y-156478059D02*
X117440476Y-155978059D01*
X117440476Y-155978059D02*
X117392857Y-156049488D01*
X117392857Y-156049488D02*
X117345238Y-156097107D01*
X117345238Y-156097107D02*
X117297619Y-156120916D01*
X112416666Y-126343059D02*
X112178571Y-126343059D01*
X112178571Y-126343059D02*
X112178571Y-125843059D01*
X112845238Y-126343059D02*
X112559524Y-126343059D01*
X112702381Y-126343059D02*
X112702381Y-125843059D01*
X112702381Y-125843059D02*
X112654762Y-125914488D01*
X112654762Y-125914488D02*
X112607143Y-125962107D01*
X112607143Y-125962107D02*
X112559524Y-125985916D01*
X88916666Y-138680440D02*
X88892857Y-138704250D01*
X88892857Y-138704250D02*
X88821428Y-138728059D01*
X88821428Y-138728059D02*
X88773809Y-138728059D01*
X88773809Y-138728059D02*
X88702381Y-138704250D01*
X88702381Y-138704250D02*
X88654762Y-138656630D01*
X88654762Y-138656630D02*
X88630952Y-138609011D01*
X88630952Y-138609011D02*
X88607143Y-138513773D01*
X88607143Y-138513773D02*
X88607143Y-138442345D01*
X88607143Y-138442345D02*
X88630952Y-138347107D01*
X88630952Y-138347107D02*
X88654762Y-138299488D01*
X88654762Y-138299488D02*
X88702381Y-138251869D01*
X88702381Y-138251869D02*
X88773809Y-138228059D01*
X88773809Y-138228059D02*
X88821428Y-138228059D01*
X88821428Y-138228059D02*
X88892857Y-138251869D01*
X88892857Y-138251869D02*
X88916666Y-138275678D01*
X89345238Y-138228059D02*
X89250000Y-138228059D01*
X89250000Y-138228059D02*
X89202381Y-138251869D01*
X89202381Y-138251869D02*
X89178571Y-138275678D01*
X89178571Y-138275678D02*
X89130952Y-138347107D01*
X89130952Y-138347107D02*
X89107143Y-138442345D01*
X89107143Y-138442345D02*
X89107143Y-138632821D01*
X89107143Y-138632821D02*
X89130952Y-138680440D01*
X89130952Y-138680440D02*
X89154762Y-138704250D01*
X89154762Y-138704250D02*
X89202381Y-138728059D01*
X89202381Y-138728059D02*
X89297619Y-138728059D01*
X89297619Y-138728059D02*
X89345238Y-138704250D01*
X89345238Y-138704250D02*
X89369047Y-138680440D01*
X89369047Y-138680440D02*
X89392857Y-138632821D01*
X89392857Y-138632821D02*
X89392857Y-138513773D01*
X89392857Y-138513773D02*
X89369047Y-138466154D01*
X89369047Y-138466154D02*
X89345238Y-138442345D01*
X89345238Y-138442345D02*
X89297619Y-138418535D01*
X89297619Y-138418535D02*
X89202381Y-138418535D01*
X89202381Y-138418535D02*
X89154762Y-138442345D01*
X89154762Y-138442345D02*
X89130952Y-138466154D01*
X89130952Y-138466154D02*
X89107143Y-138513773D01*
X119166666Y-134478059D02*
X119000000Y-134239964D01*
X118880952Y-134478059D02*
X118880952Y-133978059D01*
X118880952Y-133978059D02*
X119071428Y-133978059D01*
X119071428Y-133978059D02*
X119119047Y-134001869D01*
X119119047Y-134001869D02*
X119142857Y-134025678D01*
X119142857Y-134025678D02*
X119166666Y-134073297D01*
X119166666Y-134073297D02*
X119166666Y-134144726D01*
X119166666Y-134144726D02*
X119142857Y-134192345D01*
X119142857Y-134192345D02*
X119119047Y-134216154D01*
X119119047Y-134216154D02*
X119071428Y-134239964D01*
X119071428Y-134239964D02*
X118880952Y-134239964D01*
X119595238Y-134144726D02*
X119595238Y-134478059D01*
X119476190Y-133954250D02*
X119357143Y-134311392D01*
X119357143Y-134311392D02*
X119666666Y-134311392D01*
X88023810Y-144930440D02*
X88000001Y-144954250D01*
X88000001Y-144954250D02*
X87928572Y-144978059D01*
X87928572Y-144978059D02*
X87880953Y-144978059D01*
X87880953Y-144978059D02*
X87809525Y-144954250D01*
X87809525Y-144954250D02*
X87761906Y-144906630D01*
X87761906Y-144906630D02*
X87738096Y-144859011D01*
X87738096Y-144859011D02*
X87714287Y-144763773D01*
X87714287Y-144763773D02*
X87714287Y-144692345D01*
X87714287Y-144692345D02*
X87738096Y-144597107D01*
X87738096Y-144597107D02*
X87761906Y-144549488D01*
X87761906Y-144549488D02*
X87809525Y-144501869D01*
X87809525Y-144501869D02*
X87880953Y-144478059D01*
X87880953Y-144478059D02*
X87928572Y-144478059D01*
X87928572Y-144478059D02*
X88000001Y-144501869D01*
X88000001Y-144501869D02*
X88023810Y-144525678D01*
X88476191Y-144478059D02*
X88238096Y-144478059D01*
X88238096Y-144478059D02*
X88214287Y-144716154D01*
X88214287Y-144716154D02*
X88238096Y-144692345D01*
X88238096Y-144692345D02*
X88285715Y-144668535D01*
X88285715Y-144668535D02*
X88404763Y-144668535D01*
X88404763Y-144668535D02*
X88452382Y-144692345D01*
X88452382Y-144692345D02*
X88476191Y-144716154D01*
X88476191Y-144716154D02*
X88500001Y-144763773D01*
X88500001Y-144763773D02*
X88500001Y-144882821D01*
X88500001Y-144882821D02*
X88476191Y-144930440D01*
X88476191Y-144930440D02*
X88452382Y-144954250D01*
X88452382Y-144954250D02*
X88404763Y-144978059D01*
X88404763Y-144978059D02*
X88285715Y-144978059D01*
X88285715Y-144978059D02*
X88238096Y-144954250D01*
X88238096Y-144954250D02*
X88214287Y-144930440D01*
X88595239Y-145025678D02*
X88976191Y-145025678D01*
X89095238Y-144716154D02*
X89261905Y-144716154D01*
X89333333Y-144978059D02*
X89095238Y-144978059D01*
X89095238Y-144978059D02*
X89095238Y-144478059D01*
X89095238Y-144478059D02*
X89333333Y-144478059D01*
X89500000Y-144478059D02*
X89833333Y-144978059D01*
X89833333Y-144478059D02*
X89500000Y-144978059D01*
X90285714Y-144978059D02*
X90000000Y-144978059D01*
X90142857Y-144978059D02*
X90142857Y-144478059D01*
X90142857Y-144478059D02*
X90095238Y-144549488D01*
X90095238Y-144549488D02*
X90047619Y-144597107D01*
X90047619Y-144597107D02*
X90000000Y-144620916D01*
X121916666Y-146228059D02*
X121750000Y-145989964D01*
X121630952Y-146228059D02*
X121630952Y-145728059D01*
X121630952Y-145728059D02*
X121821428Y-145728059D01*
X121821428Y-145728059D02*
X121869047Y-145751869D01*
X121869047Y-145751869D02*
X121892857Y-145775678D01*
X121892857Y-145775678D02*
X121916666Y-145823297D01*
X121916666Y-145823297D02*
X121916666Y-145894726D01*
X121916666Y-145894726D02*
X121892857Y-145942345D01*
X121892857Y-145942345D02*
X121869047Y-145966154D01*
X121869047Y-145966154D02*
X121821428Y-145989964D01*
X121821428Y-145989964D02*
X121630952Y-145989964D01*
X122369047Y-145728059D02*
X122130952Y-145728059D01*
X122130952Y-145728059D02*
X122107143Y-145966154D01*
X122107143Y-145966154D02*
X122130952Y-145942345D01*
X122130952Y-145942345D02*
X122178571Y-145918535D01*
X122178571Y-145918535D02*
X122297619Y-145918535D01*
X122297619Y-145918535D02*
X122345238Y-145942345D01*
X122345238Y-145942345D02*
X122369047Y-145966154D01*
X122369047Y-145966154D02*
X122392857Y-146013773D01*
X122392857Y-146013773D02*
X122392857Y-146132821D01*
X122392857Y-146132821D02*
X122369047Y-146180440D01*
X122369047Y-146180440D02*
X122345238Y-146204250D01*
X122345238Y-146204250D02*
X122297619Y-146228059D01*
X122297619Y-146228059D02*
X122178571Y-146228059D01*
X122178571Y-146228059D02*
X122130952Y-146204250D01*
X122130952Y-146204250D02*
X122107143Y-146180440D01*
X102622380Y-128167678D02*
X102574761Y-128143869D01*
X102574761Y-128143869D02*
X102527142Y-128096250D01*
X102527142Y-128096250D02*
X102455714Y-128024821D01*
X102455714Y-128024821D02*
X102408095Y-128001011D01*
X102408095Y-128001011D02*
X102360476Y-128001011D01*
X102384285Y-128120059D02*
X102336666Y-128096250D01*
X102336666Y-128096250D02*
X102289047Y-128048630D01*
X102289047Y-128048630D02*
X102265238Y-127953392D01*
X102265238Y-127953392D02*
X102265238Y-127786726D01*
X102265238Y-127786726D02*
X102289047Y-127691488D01*
X102289047Y-127691488D02*
X102336666Y-127643869D01*
X102336666Y-127643869D02*
X102384285Y-127620059D01*
X102384285Y-127620059D02*
X102479523Y-127620059D01*
X102479523Y-127620059D02*
X102527142Y-127643869D01*
X102527142Y-127643869D02*
X102574761Y-127691488D01*
X102574761Y-127691488D02*
X102598571Y-127786726D01*
X102598571Y-127786726D02*
X102598571Y-127953392D01*
X102598571Y-127953392D02*
X102574761Y-128048630D01*
X102574761Y-128048630D02*
X102527142Y-128096250D01*
X102527142Y-128096250D02*
X102479523Y-128120059D01*
X102479523Y-128120059D02*
X102384285Y-128120059D01*
X102789048Y-127667678D02*
X102812857Y-127643869D01*
X102812857Y-127643869D02*
X102860476Y-127620059D01*
X102860476Y-127620059D02*
X102979524Y-127620059D01*
X102979524Y-127620059D02*
X103027143Y-127643869D01*
X103027143Y-127643869D02*
X103050952Y-127667678D01*
X103050952Y-127667678D02*
X103074762Y-127715297D01*
X103074762Y-127715297D02*
X103074762Y-127762916D01*
X103074762Y-127762916D02*
X103050952Y-127834345D01*
X103050952Y-127834345D02*
X102765238Y-128120059D01*
X102765238Y-128120059D02*
X103074762Y-128120059D01*
X129380952Y-136371869D02*
X129333333Y-136348059D01*
X129333333Y-136348059D02*
X129261904Y-136348059D01*
X129261904Y-136348059D02*
X129190476Y-136371869D01*
X129190476Y-136371869D02*
X129142857Y-136419488D01*
X129142857Y-136419488D02*
X129119047Y-136467107D01*
X129119047Y-136467107D02*
X129095238Y-136562345D01*
X129095238Y-136562345D02*
X129095238Y-136633773D01*
X129095238Y-136633773D02*
X129119047Y-136729011D01*
X129119047Y-136729011D02*
X129142857Y-136776630D01*
X129142857Y-136776630D02*
X129190476Y-136824250D01*
X129190476Y-136824250D02*
X129261904Y-136848059D01*
X129261904Y-136848059D02*
X129309523Y-136848059D01*
X129309523Y-136848059D02*
X129380952Y-136824250D01*
X129380952Y-136824250D02*
X129404761Y-136800440D01*
X129404761Y-136800440D02*
X129404761Y-136633773D01*
X129404761Y-136633773D02*
X129309523Y-136633773D01*
X129619047Y-136848059D02*
X129619047Y-136348059D01*
X129619047Y-136348059D02*
X129904761Y-136848059D01*
X129904761Y-136848059D02*
X129904761Y-136348059D01*
X130142857Y-136848059D02*
X130142857Y-136348059D01*
X130142857Y-136348059D02*
X130261905Y-136348059D01*
X130261905Y-136348059D02*
X130333333Y-136371869D01*
X130333333Y-136371869D02*
X130380952Y-136419488D01*
X130380952Y-136419488D02*
X130404762Y-136467107D01*
X130404762Y-136467107D02*
X130428571Y-136562345D01*
X130428571Y-136562345D02*
X130428571Y-136633773D01*
X130428571Y-136633773D02*
X130404762Y-136729011D01*
X130404762Y-136729011D02*
X130380952Y-136776630D01*
X130380952Y-136776630D02*
X130333333Y-136824250D01*
X130333333Y-136824250D02*
X130261905Y-136848059D01*
X130261905Y-136848059D02*
X130142857Y-136848059D01*
X130904762Y-136848059D02*
X130619048Y-136848059D01*
X130761905Y-136848059D02*
X130761905Y-136348059D01*
X130761905Y-136348059D02*
X130714286Y-136419488D01*
X130714286Y-136419488D02*
X130666667Y-136467107D01*
X130666667Y-136467107D02*
X130619048Y-136490916D01*
D11*
%TO.C,C3_EX1*%
X102261252Y-123265000D02*
X101738748Y-123265000D01*
X102261252Y-124735000D02*
X101738748Y-124735000D01*
%TO.C,C1*%
X85738748Y-134265000D02*
X86261252Y-134265000D01*
X85738748Y-135735000D02*
X86261252Y-135735000D01*
%TO.C,CSENSE1*%
X121238748Y-136265000D02*
X121761252Y-136265000D01*
X121238748Y-137735000D02*
X121761252Y-137735000D01*
%TO.C,CinB1*%
X107265000Y-158738748D02*
X107265000Y-159261252D01*
X108735000Y-158738748D02*
X108735000Y-159261252D01*
%TO.C,C5*%
X92761252Y-146515000D02*
X92238748Y-146515000D01*
X92761252Y-147985000D02*
X92238748Y-147985000D01*
%TO.C,TP_VIN2*%
X121370000Y-152620000D02*
X122750000Y-152620000D01*
X121370000Y-154000000D02*
X121370000Y-152620000D01*
X121370000Y-155270000D02*
X121370000Y-155380000D01*
X121370000Y-155270000D02*
X124130000Y-155270000D01*
X121370000Y-155380000D02*
X124130000Y-155380000D01*
X124130000Y-155270000D02*
X124130000Y-155380000D01*
%TO.C,C3*%
X101738748Y-125265000D02*
X102261252Y-125265000D01*
X101738748Y-126735000D02*
X102261252Y-126735000D01*
D12*
%TO.C,U1*%
X94450000Y-132450000D02*
X94450000Y-132850000D01*
X94450000Y-135150000D02*
X94450000Y-135550000D01*
X94450000Y-135550000D02*
X94850000Y-135550000D01*
X94850000Y-132450000D02*
X94450000Y-132450000D01*
X98150000Y-132450000D02*
X98550000Y-132450000D01*
X98550000Y-132450000D02*
X98550000Y-132800000D01*
X98550000Y-135150000D02*
X98550000Y-135550000D01*
X98550000Y-135550000D02*
X98150000Y-135550000D01*
D13*
X94770709Y-136100000D02*
G75*
G02*
X94629291Y-136100000I-70709J0D01*
G01*
X94629291Y-136100000D02*
G75*
G02*
X94770709Y-136100000I70709J0D01*
G01*
D11*
%TO.C,TP_VIN1*%
X95120000Y-155120000D02*
X96500000Y-155120000D01*
X95120000Y-156500000D02*
X95120000Y-155120000D01*
X95120000Y-157770000D02*
X95120000Y-157880000D01*
X95120000Y-157770000D02*
X97880000Y-157770000D01*
X95120000Y-157880000D02*
X97880000Y-157880000D01*
X97880000Y-157770000D02*
X97880000Y-157880000D01*
%TO.C,CSENSE_EX1*%
X121761252Y-138265000D02*
X121238748Y-138265000D01*
X121761252Y-139735000D02*
X121238748Y-139735000D01*
%TO.C,COUT_EX2*%
X125761252Y-133765000D02*
X125238748Y-133765000D01*
X125761252Y-135235000D02*
X125238748Y-135235000D01*
D14*
%TO.C,VSource_IN1*%
X99100000Y-150500000D02*
X99100000Y-150500000D01*
X99200000Y-150500000D02*
X99200000Y-150500000D01*
X99100000Y-150500000D02*
G75*
G02*
X99200000Y-150500000I50000J0D01*
G01*
X99200000Y-150500000D02*
G75*
G02*
X99100000Y-150500000I-50000J0D01*
G01*
D11*
%TO.C,COUT_EX1*%
X125761252Y-131765000D02*
X125238748Y-131765000D01*
X125761252Y-133235000D02*
X125238748Y-133235000D01*
%TO.C,C1_EX1*%
X85738748Y-132265000D02*
X86261252Y-132265000D01*
X85738748Y-133735000D02*
X86261252Y-133735000D01*
%TO.C,CinA2*%
X103265000Y-158738748D02*
X103265000Y-159261252D01*
X104735000Y-158738748D02*
X104735000Y-159261252D01*
%TO.C,CinB1_EX1*%
X99265000Y-158738748D02*
X99265000Y-159261252D01*
X100735000Y-158738748D02*
X100735000Y-159261252D01*
%TO.C,CinA1_EX1*%
X101265000Y-159261252D02*
X101265000Y-158738748D01*
X102735000Y-159261252D02*
X102735000Y-158738748D01*
%TO.C,COUT1*%
X125201248Y-125765000D02*
X125723752Y-125765000D01*
X125201248Y-127235000D02*
X125723752Y-127235000D01*
%TO.C,C6_EX1*%
X92238748Y-139765000D02*
X92761252Y-139765000D01*
X92238748Y-141235000D02*
X92761252Y-141235000D01*
%TO.C,VOUT1*%
X119120000Y-121620000D02*
X120500000Y-121620000D01*
X119120000Y-123000000D02*
X119120000Y-121620000D01*
X119120000Y-124270000D02*
X119120000Y-124380000D01*
X119120000Y-124270000D02*
X121880000Y-124270000D01*
X119120000Y-124380000D02*
X121880000Y-124380000D01*
X121880000Y-124270000D02*
X121880000Y-124380000D01*
D12*
%TO.C,Q1*%
X101690000Y-134773000D02*
X101890000Y-134773000D01*
X101690000Y-134973000D02*
X101690000Y-134773000D01*
X101690000Y-136027000D02*
X101690000Y-136227000D01*
X101690000Y-136227000D02*
X101890000Y-136227000D01*
X103710000Y-134773000D02*
X103510000Y-134773000D01*
X103710000Y-134973000D02*
X103710000Y-134773000D01*
X103710000Y-136027000D02*
X103710000Y-136227000D01*
X103710000Y-136227000D02*
X103510000Y-136227000D01*
D15*
X101290000Y-135200000D02*
G75*
G02*
X101090000Y-135200000I-100000J0D01*
G01*
X101090000Y-135200000D02*
G75*
G02*
X101290000Y-135200000I100000J0D01*
G01*
D11*
%TO.C,CinA1*%
X105265000Y-158738748D02*
X105265000Y-159261252D01*
X106735000Y-158738748D02*
X106735000Y-159261252D01*
D14*
%TO.C,VSource_GND1*%
X110100000Y-150500000D02*
X110100000Y-150500000D01*
X110200000Y-150500000D02*
X110200000Y-150500000D01*
X110100000Y-150500000D02*
G75*
G02*
X110200000Y-150500000I50000J0D01*
G01*
X110200000Y-150500000D02*
G75*
G02*
X110100000Y-150500000I-50000J0D01*
G01*
D12*
%TO.C,L1*%
X107500000Y-127350000D02*
X117500000Y-127350000D01*
X107500000Y-138650000D02*
X107500000Y-127350000D01*
X117500000Y-127350000D02*
X117500000Y-138650000D01*
X117500000Y-138650000D02*
X107500000Y-138650000D01*
D15*
X106900000Y-133000000D02*
G75*
G02*
X106700000Y-133000000I-100000J0D01*
G01*
X106700000Y-133000000D02*
G75*
G02*
X106900000Y-133000000I100000J0D01*
G01*
D11*
%TO.C,C6*%
X92238748Y-137765000D02*
X92761252Y-137765000D01*
X92238748Y-139235000D02*
X92761252Y-139235000D01*
%TO.C,C5_EX1*%
X92761252Y-144015000D02*
X92238748Y-144015000D01*
X92761252Y-145485000D02*
X92238748Y-145485000D01*
D12*
%TO.C,Q2*%
X101190000Y-128773000D02*
X101390000Y-128773000D01*
X101190000Y-128973000D02*
X101190000Y-128773000D01*
X101190000Y-130027000D02*
X101190000Y-130227000D01*
X101190000Y-130227000D02*
X101390000Y-130227000D01*
X103210000Y-128773000D02*
X103010000Y-128773000D01*
X103210000Y-128973000D02*
X103210000Y-128773000D01*
X103210000Y-130027000D02*
X103210000Y-130227000D01*
X103210000Y-130227000D02*
X103010000Y-130227000D01*
D15*
X100790000Y-129200000D02*
G75*
G02*
X100590000Y-129200000I-100000J0D01*
G01*
X100590000Y-129200000D02*
G75*
G02*
X100790000Y-129200000I100000J0D01*
G01*
D11*
%TO.C,GND1*%
X128620000Y-137620000D02*
X130000000Y-137620000D01*
X128620000Y-139000000D02*
X128620000Y-137620000D01*
X128620000Y-140270000D02*
X128620000Y-140380000D01*
X128620000Y-140270000D02*
X131380000Y-140270000D01*
X128620000Y-140380000D02*
X131380000Y-140380000D01*
X131380000Y-140270000D02*
X131380000Y-140380000D01*
%TD*%
M02*
