%TF.GenerationSoftware,KiCad,Pcbnew,9.0.1*%
%TF.CreationDate,2025-11-16T17:16:38-08:00*%
%TF.ProjectId,GaN-LTC7800,47614e2d-4c54-4433-9738-30302e6b6963,rev?*%
%TF.SameCoordinates,Original*%
%TF.FileFunction,Copper,L2,Bot*%
%TF.FilePolarity,Positive*%
%FSLAX46Y46*%
G04 Gerber Fmt 4.6, Leading zero omitted, Abs format (unit mm)*
G04 Created by KiCad (PCBNEW 9.0.1) date 2025-11-16 17:16:38*
%MOMM*%
%LPD*%
G01*
G04 APERTURE LIST*
G04 Aperture macros list*
%AMRoundRect*
0 Rectangle with rounded corners*
0 $1 Rounding radius*
0 $2 $3 $4 $5 $6 $7 $8 $9 X,Y pos of 4 corners*
0 Add a 4 corners polygon primitive as box body*
4,1,4,$2,$3,$4,$5,$6,$7,$8,$9,$2,$3,0*
0 Add four circle primitives for the rounded corners*
1,1,$1+$1,$2,$3*
1,1,$1+$1,$4,$5*
1,1,$1+$1,$6,$7*
1,1,$1+$1,$8,$9*
0 Add four rect primitives between the rounded corners*
20,1,$1+$1,$2,$3,$4,$5,0*
20,1,$1+$1,$4,$5,$6,$7,0*
20,1,$1+$1,$6,$7,$8,$9,0*
20,1,$1+$1,$8,$9,$2,$3,0*%
G04 Aperture macros list end*
%TA.AperFunction,Conductor*%
%ADD10C,0.200000*%
%TD*%
%TA.AperFunction,ComponentPad*%
%ADD11R,1.700000X1.700000*%
%TD*%
%TA.AperFunction,ComponentPad*%
%ADD12C,8.115000*%
%TD*%
%TA.AperFunction,SMDPad,CuDef*%
%ADD13RoundRect,0.250000X-0.475000X0.337500X-0.475000X-0.337500X0.475000X-0.337500X0.475000X0.337500X0*%
%TD*%
%TA.AperFunction,SMDPad,CuDef*%
%ADD14R,0.850000X0.600000*%
%TD*%
%TA.AperFunction,SMDPad,CuDef*%
%ADD15RoundRect,0.100000X0.100000X-0.217500X0.100000X0.217500X-0.100000X0.217500X-0.100000X-0.217500X0*%
%TD*%
%TA.AperFunction,SMDPad,CuDef*%
%ADD16RoundRect,0.250000X0.475000X-0.337500X0.475000X0.337500X-0.475000X0.337500X-0.475000X-0.337500X0*%
%TD*%
%TA.AperFunction,ViaPad*%
%ADD17C,0.600000*%
%TD*%
%TA.AperFunction,Conductor*%
%ADD18C,0.400000*%
%TD*%
%TA.AperFunction,Conductor*%
%ADD19C,0.600000*%
%TD*%
%TA.AperFunction,Conductor*%
%ADD20C,1.500000*%
%TD*%
%TA.AperFunction,Conductor*%
%ADD21C,0.300000*%
%TD*%
G04 APERTURE END LIST*
D10*
%TO.N,/Vout*%
X124250000Y-127000000D02*
X119000000Y-127000000D01*
X112500000Y-123000000D01*
X92168060Y-123122049D01*
X85250000Y-129750000D01*
X81500000Y-129750000D01*
X81250000Y-119000000D01*
X124000000Y-119000000D01*
X124250000Y-127000000D01*
%TA.AperFunction,Conductor*%
G36*
X124250000Y-127000000D02*
G01*
X119000000Y-127000000D01*
X112500000Y-123000000D01*
X92168060Y-123122049D01*
X85250000Y-129750000D01*
X81500000Y-129750000D01*
X81250000Y-119000000D01*
X124000000Y-119000000D01*
X124250000Y-127000000D01*
G37*
%TD.AperFunction*%
X85250000Y-129750000D02*
X70250000Y-129750000D01*
X70250000Y-119000000D01*
X85250000Y-119000000D01*
X85250000Y-129750000D01*
%TA.AperFunction,Conductor*%
G36*
X85250000Y-129750000D02*
G01*
X70250000Y-129750000D01*
X70250000Y-119000000D01*
X85250000Y-119000000D01*
X85250000Y-129750000D01*
G37*
%TD.AperFunction*%
%TD*%
D11*
%TO.P,TP_VIN2,1,Pin_1*%
%TO.N,GND*%
X122750000Y-154000000D03*
%TD*%
%TO.P,TP_VIN1,1,Pin_1*%
%TO.N,/VIN*%
X96500000Y-156500000D03*
%TD*%
D12*
%TO.P,VSource_IN1,1,1*%
%TO.N,/VIN*%
X104000000Y-150500000D03*
%TD*%
D11*
%TO.P,VOUT1,1,Pin_1*%
%TO.N,/Vout*%
X120500000Y-123000000D03*
%TD*%
D12*
%TO.P,VSource_GND1,1,1*%
%TO.N,GND*%
X115000000Y-150500000D03*
%TD*%
D11*
%TO.P,GND1,1,Pin_1*%
%TO.N,GND*%
X130000000Y-139000000D03*
%TD*%
D13*
%TO.P,C2_EX1,1*%
%TO.N,/INTVCC*%
X90000000Y-128462500D03*
%TO.P,C2_EX1,2*%
%TO.N,GND*%
X90000000Y-130537500D03*
%TD*%
D14*
%TO.P,D1,1,A*%
%TO.N,/INTVCC*%
X94200000Y-127950000D03*
%TO.P,D1,2,NC*%
%TO.N,unconnected-(D1-NC-Pad2)*%
X94200000Y-126050000D03*
%TO.P,D1,3,K*%
%TO.N,/BOOST*%
X96500000Y-127000000D03*
%TD*%
D15*
%TO.P,R1,1*%
%TO.N,Net-(U1-PGOOD)*%
X100250000Y-132157500D03*
%TO.P,R1,2*%
%TO.N,/INTVCC*%
X100250000Y-131342500D03*
%TD*%
D16*
%TO.P,C2,1*%
%TO.N,GND*%
X92000000Y-130537500D03*
%TO.P,C2,2*%
%TO.N,/INTVCC*%
X92000000Y-128462500D03*
%TD*%
D17*
%TO.N,GND*%
X81000000Y-142250000D03*
X82250000Y-144750000D03*
X86000000Y-146000000D03*
X83500000Y-142250000D03*
X81000000Y-148500000D03*
X84750000Y-146000000D03*
X84750000Y-147250000D03*
X82250000Y-146000000D03*
X83500000Y-148500000D03*
X86000000Y-143500000D03*
X86000000Y-147250000D03*
X86000000Y-148500000D03*
X83500000Y-146000000D03*
X82250000Y-147250000D03*
X84750000Y-144750000D03*
X82250000Y-142250000D03*
X84750000Y-142250000D03*
X87250000Y-144750000D03*
X83500000Y-144750000D03*
X81000000Y-147250000D03*
X83500000Y-143500000D03*
X87250000Y-142250000D03*
X81000000Y-143500000D03*
X87250000Y-143500000D03*
X87250000Y-148500000D03*
X84750000Y-143500000D03*
X82250000Y-148500000D03*
X87250000Y-146000000D03*
X87250000Y-147250000D03*
X81000000Y-146000000D03*
X82250000Y-143500000D03*
X81000000Y-144750000D03*
X86000000Y-142250000D03*
X86000000Y-144750000D03*
X83500000Y-147250000D03*
X84750000Y-148500000D03*
%TO.N,/INTVCC*%
X94000000Y-129500000D03*
%TO.N,/SW*%
X102250000Y-137250000D03*
X105250000Y-137250000D03*
%TO.N,/BOOST*%
X97250000Y-130000000D03*
X99000000Y-125000000D03*
%TO.N,/ITH*%
X95500000Y-138500000D03*
X99750000Y-134449997D03*
%TO.N,/VIN*%
X91500000Y-133250000D03*
X97500000Y-149250000D03*
%TO.N,/Vout*%
X71250000Y-122000000D03*
X73500000Y-121000000D03*
X81000000Y-121000000D03*
X75750000Y-125250000D03*
X75750000Y-123750000D03*
X76500000Y-119500000D03*
X84000000Y-124500000D03*
X76500000Y-124500000D03*
X78750000Y-123750000D03*
X83250000Y-120250000D03*
X80250000Y-122000000D03*
X81750000Y-120250000D03*
X79500000Y-122750000D03*
X84000000Y-122750000D03*
X83250000Y-122000000D03*
X75750000Y-122000000D03*
X76500000Y-122750000D03*
X81750000Y-122000000D03*
X75000000Y-119500000D03*
X78000000Y-126000000D03*
X72000000Y-126000000D03*
X84000000Y-126000000D03*
X75000000Y-122750000D03*
X76500000Y-121000000D03*
X82500000Y-122750000D03*
X73500000Y-119500000D03*
X70500000Y-122750000D03*
X70500000Y-121000000D03*
X72000000Y-122750000D03*
X75750000Y-120250000D03*
X83250000Y-123750000D03*
X82500000Y-119500000D03*
X72000000Y-121000000D03*
X78750000Y-125250000D03*
X71250000Y-125250000D03*
X74250000Y-120250000D03*
X74250000Y-125250000D03*
X78000000Y-121000000D03*
X81000000Y-122750000D03*
X78000000Y-122750000D03*
X80250000Y-125250000D03*
X78750000Y-122000000D03*
X73500000Y-126000000D03*
X72750000Y-125250000D03*
X72000000Y-124500000D03*
X72000000Y-119500000D03*
X81750000Y-123750000D03*
X70500000Y-119500000D03*
X81750000Y-125250000D03*
X81000000Y-124500000D03*
X74250000Y-123750000D03*
X84750000Y-120250000D03*
X71250000Y-120250000D03*
X77250000Y-123750000D03*
X78750000Y-120250000D03*
X79500000Y-119500000D03*
X83250000Y-125250000D03*
X80250000Y-120250000D03*
X84000000Y-119500000D03*
X82500000Y-121000000D03*
X82500000Y-124500000D03*
X78000000Y-124500000D03*
X73500000Y-124500000D03*
X72750000Y-123750000D03*
X80250000Y-123750000D03*
X74250000Y-122000000D03*
X81000000Y-126000000D03*
X77250000Y-120250000D03*
X77250000Y-122000000D03*
X84750000Y-123750000D03*
X73500000Y-122750000D03*
X75000000Y-124500000D03*
X79500000Y-124500000D03*
X79500000Y-121000000D03*
X71250000Y-123750000D03*
X79500000Y-126000000D03*
X84750000Y-122000000D03*
X75000000Y-126000000D03*
X84000000Y-121000000D03*
X81000000Y-119500000D03*
X82500000Y-126000000D03*
X70500000Y-124500000D03*
X70500000Y-126000000D03*
X75000000Y-121000000D03*
X76500000Y-126000000D03*
X84750000Y-125250000D03*
X78000000Y-119500000D03*
X72750000Y-122000000D03*
X72750000Y-120250000D03*
X77250000Y-125250000D03*
%TO.N,/SENSE+*%
X118250000Y-138750000D03*
X99500000Y-136750000D03*
%TO.N,/BG*%
X95250000Y-129500000D03*
X100250000Y-129750000D03*
%TO.N,Net-(U1-PGOOD)*%
X100500000Y-134000000D03*
%TO.N,/VFB*%
X99750000Y-135250000D03*
X123250000Y-142000000D03*
%TD*%
D18*
%TO.N,/INTVCC*%
X94000000Y-129500000D02*
X94200000Y-129300000D01*
X94200000Y-129300000D02*
X94200000Y-127950000D01*
D10*
X94000000Y-129500000D02*
X94000000Y-130500000D01*
D19*
X94050000Y-127950000D02*
X93537500Y-128462500D01*
D20*
X92000000Y-128462500D02*
X90000000Y-128462500D01*
D10*
X94200000Y-127950000D02*
X94050000Y-127950000D01*
X94000000Y-130500000D02*
X95000000Y-131500000D01*
X100157500Y-131250000D02*
X100250000Y-131342500D01*
X95000000Y-131500000D02*
X99500000Y-131500000D01*
D19*
X93537500Y-128462500D02*
X92000000Y-128462500D01*
D10*
X99750000Y-131250000D02*
X100157500Y-131250000D01*
X99500000Y-131500000D02*
X99750000Y-131250000D01*
%TO.N,/SW*%
X102250000Y-137250000D02*
X105250000Y-137250000D01*
D19*
%TO.N,/BOOST*%
X96500000Y-127000000D02*
X98500000Y-125000000D01*
X98500000Y-125000000D02*
X99000000Y-125000000D01*
X96500000Y-129250000D02*
X97250000Y-130000000D01*
X96500000Y-127000000D02*
X96500000Y-129250000D01*
%TO.N,/ITH*%
X95500000Y-138367214D02*
X99417217Y-134449997D01*
X99417217Y-134449997D02*
X99750000Y-134449997D01*
X95500000Y-138500000D02*
X95500000Y-138367214D01*
D10*
%TO.N,/VIN*%
X93000000Y-134750000D02*
X93000000Y-144750000D01*
X91500000Y-133250000D02*
X93000000Y-134750000D01*
X93000000Y-144750000D02*
X97500000Y-149250000D01*
%TO.N,/SENSE+*%
X101500000Y-138750000D02*
X118250000Y-138750000D01*
X99500000Y-136750000D02*
X101500000Y-138750000D01*
D21*
%TO.N,/BG*%
X99000000Y-131000000D02*
X100250000Y-129750000D01*
X96000000Y-131000000D02*
X99000000Y-131000000D01*
X95250000Y-129500000D02*
X95250000Y-130250000D01*
X95250000Y-130250000D02*
X96000000Y-131000000D01*
D10*
%TO.N,Net-(U1-PGOOD)*%
X100250000Y-132157500D02*
X100250000Y-133750000D01*
X100250000Y-133750000D02*
X100500000Y-134000000D01*
D18*
%TO.N,/VFB*%
X99750000Y-135250000D02*
X116500000Y-135250000D01*
X116500000Y-135250000D02*
X123250000Y-142000000D01*
%TD*%
%TA.AperFunction,Conductor*%
%TO.N,GND*%
G36*
X132485148Y-118014852D02*
G01*
X132499500Y-118049500D01*
X132499500Y-163450500D01*
X132485148Y-163485148D01*
X132450500Y-163499500D01*
X70049500Y-163499500D01*
X70014852Y-163485148D01*
X70000500Y-163450500D01*
X70000500Y-155602120D01*
X95149500Y-155602120D01*
X95149500Y-157397879D01*
X95155907Y-157457478D01*
X95155909Y-157457483D01*
X95206204Y-157592331D01*
X95292454Y-157707546D01*
X95407669Y-157793796D01*
X95542517Y-157844091D01*
X95542520Y-157844092D01*
X95586177Y-157848785D01*
X95602127Y-157850500D01*
X97397872Y-157850499D01*
X97397878Y-157850499D01*
X97457478Y-157844092D01*
X97457479Y-157844091D01*
X97457483Y-157844091D01*
X97592331Y-157793796D01*
X97707546Y-157707546D01*
X97793796Y-157592331D01*
X97844091Y-157457483D01*
X97844091Y-157457481D01*
X97844092Y-157457479D01*
X97850499Y-157397879D01*
X97850500Y-157397873D01*
X97850499Y-155602128D01*
X97850499Y-155602127D01*
X97850499Y-155602120D01*
X97844092Y-155542521D01*
X97844091Y-155542517D01*
X97793796Y-155407669D01*
X97707546Y-155292454D01*
X97638314Y-155240627D01*
X97592333Y-155206205D01*
X97592331Y-155206204D01*
X97547381Y-155189439D01*
X97457479Y-155155907D01*
X97397879Y-155149500D01*
X95602120Y-155149500D01*
X95542521Y-155155907D01*
X95407666Y-155206205D01*
X95292454Y-155292454D01*
X95206205Y-155407666D01*
X95155907Y-155542520D01*
X95149500Y-155602120D01*
X70000500Y-155602120D01*
X70000500Y-150300993D01*
X99442000Y-150300993D01*
X99442000Y-150699006D01*
X99476689Y-151095506D01*
X99545804Y-151487475D01*
X99545805Y-151487480D01*
X99648814Y-151871916D01*
X99784944Y-152245929D01*
X99784950Y-152245943D01*
X99953155Y-152606659D01*
X100152156Y-152951340D01*
X100152162Y-152951349D01*
X100380445Y-153277371D01*
X100380449Y-153277376D01*
X100380451Y-153277378D01*
X100636289Y-153582274D01*
X100917726Y-153863711D01*
X101001701Y-153934174D01*
X101222623Y-154119550D01*
X101222628Y-154119554D01*
X101548650Y-154347837D01*
X101548659Y-154347843D01*
X101753184Y-154465925D01*
X101893345Y-154546847D01*
X102195565Y-154687774D01*
X102253065Y-154714587D01*
X102254067Y-154715054D01*
X102628077Y-154851183D01*
X102628078Y-154851183D01*
X102628083Y-154851185D01*
X103012519Y-154954194D01*
X103012525Y-154954195D01*
X103012528Y-154954196D01*
X103404495Y-155023311D01*
X103800993Y-155058000D01*
X103800997Y-155058000D01*
X104199003Y-155058000D01*
X104199007Y-155058000D01*
X104595505Y-155023311D01*
X104987472Y-154954196D01*
X104987477Y-154954194D01*
X104987480Y-154954194D01*
X105371916Y-154851185D01*
X105371917Y-154851184D01*
X105371923Y-154851183D01*
X105745933Y-154715054D01*
X106106655Y-154546847D01*
X106451345Y-154347840D01*
X106777378Y-154119549D01*
X107082274Y-153863711D01*
X107363711Y-153582274D01*
X107619549Y-153277378D01*
X107619768Y-153277066D01*
X107762828Y-153072755D01*
X107847840Y-152951345D01*
X108046847Y-152606655D01*
X108215054Y-152245933D01*
X108351183Y-151871923D01*
X108454196Y-151487472D01*
X108523311Y-151095505D01*
X108558000Y-150699007D01*
X108558000Y-150301015D01*
X110442500Y-150301015D01*
X110442500Y-150698984D01*
X110477185Y-151095441D01*
X110546292Y-151487366D01*
X110546293Y-151487371D01*
X110649291Y-151871765D01*
X110785406Y-152245737D01*
X110785412Y-152245751D01*
X110953599Y-152606428D01*
X111152577Y-152951071D01*
X111152583Y-152951080D01*
X111380841Y-153277066D01*
X111380845Y-153277071D01*
X111603739Y-153542706D01*
X112918314Y-152228131D01*
X112979860Y-152305307D01*
X113194693Y-152520140D01*
X113271867Y-152581684D01*
X111957292Y-153896259D01*
X112222928Y-154119154D01*
X112222933Y-154119158D01*
X112548919Y-154347416D01*
X112548928Y-154347422D01*
X112893571Y-154546400D01*
X113254248Y-154714587D01*
X113254262Y-154714593D01*
X113628234Y-154850708D01*
X114012628Y-154953706D01*
X114012633Y-154953707D01*
X114404558Y-155022814D01*
X114801015Y-155057499D01*
X114801020Y-155057500D01*
X115198980Y-155057500D01*
X115198984Y-155057499D01*
X115595441Y-155022814D01*
X115987366Y-154953707D01*
X115987371Y-154953706D01*
X116371765Y-154850708D01*
X116745737Y-154714593D01*
X116745751Y-154714587D01*
X117106428Y-154546400D01*
X117451071Y-154347422D01*
X117451080Y-154347416D01*
X117676514Y-154189566D01*
X117777066Y-154119158D01*
X117777071Y-154119154D01*
X118042706Y-153896259D01*
X116728131Y-152581685D01*
X116805307Y-152520140D01*
X117020140Y-152305307D01*
X117081685Y-152228131D01*
X118396259Y-153542706D01*
X118619154Y-153277071D01*
X118619158Y-153277066D01*
X118741626Y-153102165D01*
X121400000Y-153102165D01*
X121400000Y-153750000D01*
X122316988Y-153750000D01*
X122284075Y-153807007D01*
X122250000Y-153934174D01*
X122250000Y-154065826D01*
X122284075Y-154192993D01*
X122316988Y-154250000D01*
X121400000Y-154250000D01*
X121400000Y-154897834D01*
X121406401Y-154957372D01*
X121406401Y-154957373D01*
X121456648Y-155092091D01*
X121542811Y-155207188D01*
X121657908Y-155293351D01*
X121792626Y-155343598D01*
X121852166Y-155350000D01*
X122500000Y-155350000D01*
X122500000Y-154433012D01*
X122557007Y-154465925D01*
X122684174Y-154500000D01*
X122815826Y-154500000D01*
X122942993Y-154465925D01*
X123000000Y-154433012D01*
X123000000Y-155350000D01*
X123647834Y-155350000D01*
X123707372Y-155343598D01*
X123707373Y-155343598D01*
X123842091Y-155293351D01*
X123957188Y-155207188D01*
X124043351Y-155092091D01*
X124093598Y-154957373D01*
X124093598Y-154957372D01*
X124100000Y-154897834D01*
X124100000Y-154250000D01*
X123183012Y-154250000D01*
X123215925Y-154192993D01*
X123250000Y-154065826D01*
X123250000Y-153934174D01*
X123215925Y-153807007D01*
X123183012Y-153750000D01*
X124100000Y-153750000D01*
X124100000Y-153102165D01*
X124093598Y-153042627D01*
X124093598Y-153042626D01*
X124043351Y-152907908D01*
X123957188Y-152792811D01*
X123842091Y-152706648D01*
X123707373Y-152656401D01*
X123647834Y-152650000D01*
X123000000Y-152650000D01*
X123000000Y-153566988D01*
X122942993Y-153534075D01*
X122815826Y-153500000D01*
X122684174Y-153500000D01*
X122557007Y-153534075D01*
X122500000Y-153566988D01*
X122500000Y-152650000D01*
X121852166Y-152650000D01*
X121792627Y-152656401D01*
X121792626Y-152656401D01*
X121657908Y-152706648D01*
X121542811Y-152792811D01*
X121456648Y-152907908D01*
X121406401Y-153042626D01*
X121406401Y-153042627D01*
X121400000Y-153102165D01*
X118741626Y-153102165D01*
X118762219Y-153072755D01*
X118847416Y-152951080D01*
X118847422Y-152951071D01*
X119046400Y-152606428D01*
X119214587Y-152245751D01*
X119214593Y-152245737D01*
X119350708Y-151871765D01*
X119453706Y-151487371D01*
X119453707Y-151487366D01*
X119522814Y-151095441D01*
X119557499Y-150698984D01*
X119557500Y-150698979D01*
X119557500Y-150301020D01*
X119557499Y-150301015D01*
X119522814Y-149904558D01*
X119453707Y-149512633D01*
X119453706Y-149512628D01*
X119350708Y-149128234D01*
X119214593Y-148754262D01*
X119214587Y-148754248D01*
X119046400Y-148393571D01*
X118847422Y-148048928D01*
X118847416Y-148048919D01*
X118619158Y-147722933D01*
X118619154Y-147722928D01*
X118396259Y-147457292D01*
X117081684Y-148771867D01*
X117020140Y-148694693D01*
X116805307Y-148479860D01*
X116728130Y-148418314D01*
X118042706Y-147103739D01*
X117777071Y-146880845D01*
X117777066Y-146880841D01*
X117451080Y-146652583D01*
X117451071Y-146652577D01*
X117106428Y-146453599D01*
X116745751Y-146285412D01*
X116745737Y-146285406D01*
X116371765Y-146149291D01*
X115987371Y-146046293D01*
X115987366Y-146046292D01*
X115595441Y-145977185D01*
X115198984Y-145942500D01*
X114801015Y-145942500D01*
X114404558Y-145977185D01*
X114012633Y-146046292D01*
X114012628Y-146046293D01*
X113628234Y-146149291D01*
X113254262Y-146285406D01*
X113254248Y-146285412D01*
X112893571Y-146453599D01*
X112548928Y-146652577D01*
X112548919Y-146652583D01*
X112222946Y-146880833D01*
X112222917Y-146880855D01*
X111957292Y-147103739D01*
X113271867Y-148418314D01*
X113194693Y-148479860D01*
X112979860Y-148694693D01*
X112918314Y-148771867D01*
X111603739Y-147457292D01*
X111380855Y-147722917D01*
X111380833Y-147722946D01*
X111152583Y-148048919D01*
X111152577Y-148048928D01*
X110953599Y-148393571D01*
X110785412Y-148754248D01*
X110785406Y-148754262D01*
X110649291Y-149128234D01*
X110546293Y-149512628D01*
X110546292Y-149512633D01*
X110477185Y-149904558D01*
X110442500Y-150301015D01*
X108558000Y-150301015D01*
X108558000Y-150300993D01*
X108523311Y-149904495D01*
X108454196Y-149512528D01*
X108446417Y-149483498D01*
X108351185Y-149128083D01*
X108310576Y-149016512D01*
X108215054Y-148754067D01*
X108046847Y-148393345D01*
X107847998Y-148048928D01*
X107847843Y-148048659D01*
X107847837Y-148048650D01*
X107619554Y-147722628D01*
X107619550Y-147722623D01*
X107544964Y-147633735D01*
X107363711Y-147417726D01*
X107082274Y-147136289D01*
X106955151Y-147029620D01*
X106777376Y-146880449D01*
X106777371Y-146880445D01*
X106451349Y-146652162D01*
X106451340Y-146652156D01*
X106106659Y-146453155D01*
X105745943Y-146284950D01*
X105745929Y-146284944D01*
X105371916Y-146148814D01*
X104987480Y-146045805D01*
X104987475Y-146045804D01*
X104595506Y-145976689D01*
X104397256Y-145959344D01*
X104199007Y-145942000D01*
X103800993Y-145942000D01*
X103404493Y-145976689D01*
X103012524Y-146045804D01*
X103012519Y-146045805D01*
X102628083Y-146148814D01*
X102254070Y-146284944D01*
X102254056Y-146284950D01*
X101893340Y-146453155D01*
X101548659Y-146652156D01*
X101548650Y-146652162D01*
X101222628Y-146880445D01*
X101222623Y-146880449D01*
X100917736Y-147136280D01*
X100917718Y-147136296D01*
X100636296Y-147417718D01*
X100636280Y-147417736D01*
X100380449Y-147722623D01*
X100380445Y-147722628D01*
X100152162Y-148048650D01*
X100152156Y-148048659D01*
X99953155Y-148393340D01*
X99784950Y-148754056D01*
X99784944Y-148754070D01*
X99648814Y-149128083D01*
X99545805Y-149512519D01*
X99545804Y-149512524D01*
X99476689Y-149904493D01*
X99442000Y-150300993D01*
X70000500Y-150300993D01*
X70000500Y-133171152D01*
X90699500Y-133171152D01*
X90699500Y-133328847D01*
X90730260Y-133483487D01*
X90730263Y-133483498D01*
X90787144Y-133620821D01*
X90790606Y-133629179D01*
X90878211Y-133760289D01*
X90989711Y-133871789D01*
X91120821Y-133959394D01*
X91266503Y-134019737D01*
X91266509Y-134019738D01*
X91266512Y-134019739D01*
X91421152Y-134050499D01*
X91421158Y-134050500D01*
X91430969Y-134050500D01*
X91465617Y-134064852D01*
X92385148Y-134984383D01*
X92399500Y-135019031D01*
X92399500Y-144667929D01*
X92399499Y-144667947D01*
X92399499Y-144829059D01*
X92440421Y-144981781D01*
X92440422Y-144981783D01*
X92440423Y-144981785D01*
X92469360Y-145031904D01*
X92469361Y-145031905D01*
X92519477Y-145118712D01*
X92519482Y-145118718D01*
X92634074Y-145233310D01*
X92634080Y-145233315D01*
X96685148Y-149284383D01*
X96699500Y-149319031D01*
X96699500Y-149328847D01*
X96730260Y-149483487D01*
X96730263Y-149483497D01*
X96790606Y-149629179D01*
X96849271Y-149716978D01*
X96871322Y-149749980D01*
X96878211Y-149760289D01*
X96989711Y-149871789D01*
X97120821Y-149959394D01*
X97266503Y-150019737D01*
X97266509Y-150019738D01*
X97266512Y-150019739D01*
X97421152Y-150050499D01*
X97421158Y-150050500D01*
X97578842Y-150050500D01*
X97733497Y-150019737D01*
X97879179Y-149959394D01*
X98010289Y-149871789D01*
X98121789Y-149760289D01*
X98209394Y-149629179D01*
X98269737Y-149483497D01*
X98300500Y-149328842D01*
X98300500Y-149171158D01*
X98269737Y-149016503D01*
X98209394Y-148870821D01*
X98121789Y-148739711D01*
X98010289Y-148628211D01*
X97879179Y-148540606D01*
X97879176Y-148540604D01*
X97879175Y-148540604D01*
X97733498Y-148480263D01*
X97733487Y-148480260D01*
X97578847Y-148449500D01*
X97578842Y-148449500D01*
X97569031Y-148449500D01*
X97534383Y-148435148D01*
X93614852Y-144515617D01*
X93600500Y-144480969D01*
X93600500Y-134670942D01*
X93597713Y-134660542D01*
X93592139Y-134639741D01*
X93581357Y-134599500D01*
X93559577Y-134518216D01*
X93559576Y-134518213D01*
X93480524Y-134381290D01*
X93480521Y-134381287D01*
X93480520Y-134381284D01*
X93368716Y-134269480D01*
X93367010Y-134267774D01*
X93366999Y-134267764D01*
X92314852Y-133215617D01*
X92300500Y-133180969D01*
X92300500Y-133171158D01*
X92300499Y-133171152D01*
X92269739Y-133016512D01*
X92269736Y-133016501D01*
X92209395Y-132870824D01*
X92209394Y-132870821D01*
X92121789Y-132739711D01*
X92010289Y-132628211D01*
X91879179Y-132540606D01*
X91879176Y-132540604D01*
X91879175Y-132540604D01*
X91733498Y-132480263D01*
X91733487Y-132480260D01*
X91578847Y-132449500D01*
X91578842Y-132449500D01*
X91421158Y-132449500D01*
X91421152Y-132449500D01*
X91266512Y-132480260D01*
X91266501Y-132480263D01*
X91120824Y-132540604D01*
X90989711Y-132628210D01*
X90878210Y-132739711D01*
X90790604Y-132870824D01*
X90730263Y-133016501D01*
X90730260Y-133016512D01*
X90699500Y-133171152D01*
X70000500Y-133171152D01*
X70000500Y-130924980D01*
X88775001Y-130924980D01*
X88785493Y-131027693D01*
X88840642Y-131194122D01*
X88932682Y-131343343D01*
X89056656Y-131467317D01*
X89205877Y-131559357D01*
X89372306Y-131614506D01*
X89475018Y-131624999D01*
X89749999Y-131624999D01*
X90250000Y-131624999D01*
X90524980Y-131624999D01*
X90627693Y-131614506D01*
X90794122Y-131559357D01*
X90943343Y-131467317D01*
X90965352Y-131445309D01*
X91000000Y-131430957D01*
X91034648Y-131445309D01*
X91056656Y-131467317D01*
X91205877Y-131559357D01*
X91372306Y-131614506D01*
X91475018Y-131624999D01*
X91749999Y-131624999D01*
X92250000Y-131624999D01*
X92524980Y-131624999D01*
X92627693Y-131614506D01*
X92794122Y-131559357D01*
X92943343Y-131467317D01*
X93067317Y-131343343D01*
X93159357Y-131194122D01*
X93214506Y-131027693D01*
X93225000Y-130924981D01*
X93225000Y-130787500D01*
X92250000Y-130787500D01*
X92250000Y-131624999D01*
X91749999Y-131624999D01*
X91750000Y-131624998D01*
X91750000Y-130787500D01*
X90250000Y-130787500D01*
X90250000Y-131624999D01*
X89749999Y-131624999D01*
X89750000Y-131624998D01*
X89750000Y-130787500D01*
X88775001Y-130787500D01*
X88775001Y-130924980D01*
X70000500Y-130924980D01*
X70000500Y-130369768D01*
X70014852Y-130335120D01*
X70049500Y-130320768D01*
X70068247Y-130324496D01*
X70093285Y-130334868D01*
X70250000Y-130355500D01*
X70250004Y-130355500D01*
X85249995Y-130355500D01*
X85250000Y-130355500D01*
X85394156Y-130338090D01*
X85400243Y-130335720D01*
X85406715Y-130334868D01*
X85473765Y-130307094D01*
X85541453Y-130280741D01*
X85546720Y-130276875D01*
X85552750Y-130274378D01*
X85610335Y-130230190D01*
X85668888Y-130187222D01*
X87571826Y-128364083D01*
X88749500Y-128364083D01*
X88749500Y-128560917D01*
X88770497Y-128693492D01*
X88773897Y-128714959D01*
X88774500Y-128722624D01*
X88774500Y-128850010D01*
X88785000Y-128952794D01*
X88840186Y-129119334D01*
X88932287Y-129268655D01*
X89056347Y-129392715D01*
X89163146Y-129458588D01*
X89185102Y-129488992D01*
X89179128Y-129526016D01*
X89163147Y-129541998D01*
X89056656Y-129607682D01*
X88932682Y-129731656D01*
X88840642Y-129880877D01*
X88785493Y-130047306D01*
X88775000Y-130150018D01*
X88775000Y-130287500D01*
X93224999Y-130287500D01*
X93224999Y-130150019D01*
X93214506Y-130047306D01*
X93159357Y-129880877D01*
X93067317Y-129731656D01*
X92943343Y-129607682D01*
X92836852Y-129541998D01*
X92814897Y-129511593D01*
X92820871Y-129474569D01*
X92836853Y-129458588D01*
X92943652Y-129392715D01*
X92943653Y-129392713D01*
X92943656Y-129392712D01*
X93024368Y-129312000D01*
X93059017Y-129277352D01*
X93093665Y-129263000D01*
X93171253Y-129263000D01*
X93205901Y-129277352D01*
X93220253Y-129312000D01*
X93219311Y-129321559D01*
X93199500Y-129421152D01*
X93199500Y-129578847D01*
X93230260Y-129733487D01*
X93230263Y-129733498D01*
X93243934Y-129766503D01*
X93290606Y-129879179D01*
X93318656Y-129921158D01*
X93378210Y-130010288D01*
X93385148Y-130017226D01*
X93399500Y-130051874D01*
X93399500Y-130417929D01*
X93399499Y-130417947D01*
X93399499Y-130579059D01*
X93440421Y-130731781D01*
X93440423Y-130731787D01*
X93462187Y-130769481D01*
X93519480Y-130868716D01*
X93634074Y-130983310D01*
X93634079Y-130983314D01*
X94631284Y-131980520D01*
X94631287Y-131980521D01*
X94631290Y-131980524D01*
X94768214Y-132059576D01*
X94768216Y-132059577D01*
X94839093Y-132078568D01*
X94920941Y-132100501D01*
X94920943Y-132100501D01*
X95082055Y-132100501D01*
X95082071Y-132100500D01*
X99417931Y-132100500D01*
X99420939Y-132100500D01*
X99420943Y-132100501D01*
X99500501Y-132100501D01*
X99535149Y-132114853D01*
X99545296Y-132139353D01*
X99549500Y-132149501D01*
X99549500Y-132414356D01*
X99549501Y-132414358D01*
X99564955Y-132531761D01*
X99625461Y-132677836D01*
X99625464Y-132677841D01*
X99639374Y-132695969D01*
X99649500Y-132725798D01*
X99649500Y-133600497D01*
X99635148Y-133635145D01*
X99600500Y-133649497D01*
X99338368Y-133649497D01*
X99183728Y-133680257D01*
X99183717Y-133680260D01*
X99141050Y-133697934D01*
X99038041Y-133740601D01*
X98909538Y-133826463D01*
X98909537Y-133826465D01*
X98908232Y-133827337D01*
X98906925Y-133828210D01*
X94878210Y-137856925D01*
X94790604Y-137988038D01*
X94730263Y-138133715D01*
X94730260Y-138133726D01*
X94699500Y-138288366D01*
X94699500Y-138578847D01*
X94730260Y-138733487D01*
X94730263Y-138733498D01*
X94783586Y-138862231D01*
X94790606Y-138879179D01*
X94878211Y-139010289D01*
X94989711Y-139121789D01*
X95120821Y-139209394D01*
X95266503Y-139269737D01*
X95266509Y-139269738D01*
X95266512Y-139269739D01*
X95421152Y-139300499D01*
X95421158Y-139300500D01*
X95578842Y-139300500D01*
X95733497Y-139269737D01*
X95879179Y-139209394D01*
X96010289Y-139121789D01*
X96121789Y-139010289D01*
X96209394Y-138879179D01*
X96268796Y-138735768D01*
X96279414Y-138719876D01*
X98765306Y-136233985D01*
X98799953Y-136219634D01*
X98834601Y-136233986D01*
X98848953Y-136268634D01*
X98840695Y-136295857D01*
X98790604Y-136370824D01*
X98730263Y-136516501D01*
X98730260Y-136516512D01*
X98699500Y-136671152D01*
X98699500Y-136828847D01*
X98730260Y-136983487D01*
X98730263Y-136983498D01*
X98743934Y-137016503D01*
X98790606Y-137129179D01*
X98878211Y-137260289D01*
X98989711Y-137371789D01*
X99120821Y-137459394D01*
X99266503Y-137519737D01*
X99266509Y-137519738D01*
X99266512Y-137519739D01*
X99421152Y-137550499D01*
X99421158Y-137550500D01*
X99430969Y-137550500D01*
X99465617Y-137564852D01*
X101017764Y-139116999D01*
X101017769Y-139117005D01*
X101019480Y-139118716D01*
X101131284Y-139230520D01*
X101131287Y-139230521D01*
X101131290Y-139230524D01*
X101218090Y-139280637D01*
X101218093Y-139280638D01*
X101218095Y-139280639D01*
X101268215Y-139309577D01*
X101388667Y-139341851D01*
X101420939Y-139350499D01*
X101420940Y-139350500D01*
X101420943Y-139350500D01*
X101579057Y-139350500D01*
X117698126Y-139350500D01*
X117732774Y-139364852D01*
X117739711Y-139371789D01*
X117870821Y-139459394D01*
X118016503Y-139519737D01*
X118016509Y-139519738D01*
X118016512Y-139519739D01*
X118171152Y-139550499D01*
X118171158Y-139550500D01*
X118328842Y-139550500D01*
X118483497Y-139519737D01*
X118629179Y-139459394D01*
X118760289Y-139371789D01*
X118871789Y-139260289D01*
X118959394Y-139129179D01*
X119019737Y-138983497D01*
X119038868Y-138887318D01*
X119059703Y-138856137D01*
X119096485Y-138848820D01*
X119121574Y-138862231D01*
X122466629Y-142207286D01*
X122479426Y-142231228D01*
X122479562Y-142231187D01*
X122479768Y-142231866D01*
X122480039Y-142232374D01*
X122480263Y-142233497D01*
X122540606Y-142379179D01*
X122628211Y-142510289D01*
X122739711Y-142621789D01*
X122870821Y-142709394D01*
X123016503Y-142769737D01*
X123016509Y-142769738D01*
X123016512Y-142769739D01*
X123171152Y-142800499D01*
X123171158Y-142800500D01*
X123328842Y-142800500D01*
X123483497Y-142769737D01*
X123629179Y-142709394D01*
X123760289Y-142621789D01*
X123871789Y-142510289D01*
X123959394Y-142379179D01*
X124019737Y-142233497D01*
X124020197Y-142231187D01*
X124050499Y-142078847D01*
X124050500Y-142078842D01*
X124050500Y-141921158D01*
X124050499Y-141921152D01*
X124019739Y-141766512D01*
X124019736Y-141766501D01*
X123959395Y-141620824D01*
X123959394Y-141620821D01*
X123871789Y-141489711D01*
X123760289Y-141378211D01*
X123629179Y-141290606D01*
X123629176Y-141290604D01*
X123629175Y-141290604D01*
X123563168Y-141263263D01*
X123483497Y-141230263D01*
X123482374Y-141230039D01*
X123481866Y-141229768D01*
X123481187Y-141229562D01*
X123481228Y-141229426D01*
X123457286Y-141216629D01*
X120342822Y-138102165D01*
X128650000Y-138102165D01*
X128650000Y-138750000D01*
X129566988Y-138750000D01*
X129534075Y-138807007D01*
X129500000Y-138934174D01*
X129500000Y-139065826D01*
X129534075Y-139192993D01*
X129566988Y-139250000D01*
X128650000Y-139250000D01*
X128650000Y-139897834D01*
X128656401Y-139957372D01*
X128656401Y-139957373D01*
X128706648Y-140092091D01*
X128792811Y-140207188D01*
X128907908Y-140293351D01*
X129042626Y-140343598D01*
X129102166Y-140350000D01*
X129750000Y-140350000D01*
X129750000Y-139433012D01*
X129807007Y-139465925D01*
X129934174Y-139500000D01*
X130065826Y-139500000D01*
X130192993Y-139465925D01*
X130250000Y-139433012D01*
X130250000Y-140350000D01*
X130897834Y-140350000D01*
X130957372Y-140343598D01*
X130957373Y-140343598D01*
X131092091Y-140293351D01*
X131207188Y-140207188D01*
X131293351Y-140092091D01*
X131343598Y-139957373D01*
X131343598Y-139957372D01*
X131350000Y-139897834D01*
X131350000Y-139250000D01*
X130433012Y-139250000D01*
X130465925Y-139192993D01*
X130500000Y-139065826D01*
X130500000Y-138934174D01*
X130465925Y-138807007D01*
X130433012Y-138750000D01*
X131350000Y-138750000D01*
X131350000Y-138102165D01*
X131343598Y-138042627D01*
X131343598Y-138042626D01*
X131293351Y-137907908D01*
X131207188Y-137792811D01*
X131092091Y-137706648D01*
X130957373Y-137656401D01*
X130897834Y-137650000D01*
X130250000Y-137650000D01*
X130250000Y-138566988D01*
X130192993Y-138534075D01*
X130065826Y-138500000D01*
X129934174Y-138500000D01*
X129807007Y-138534075D01*
X129750000Y-138566988D01*
X129750000Y-137650000D01*
X129102166Y-137650000D01*
X129042627Y-137656401D01*
X129042626Y-137656401D01*
X128907908Y-137706648D01*
X128792811Y-137792811D01*
X128706648Y-137907908D01*
X128656401Y-138042626D01*
X128656401Y-138042627D01*
X128650000Y-138102165D01*
X120342822Y-138102165D01*
X116946542Y-134705885D01*
X116847549Y-134639741D01*
X116831811Y-134629225D01*
X116831808Y-134629223D01*
X116831807Y-134629223D01*
X116704329Y-134576420D01*
X116704320Y-134576418D01*
X116568997Y-134549500D01*
X116568994Y-134549500D01*
X116568993Y-134549500D01*
X101187261Y-134549500D01*
X101152613Y-134535148D01*
X101138261Y-134500500D01*
X101146518Y-134473278D01*
X101209394Y-134379179D01*
X101269737Y-134233497D01*
X101300500Y-134078842D01*
X101300500Y-133921158D01*
X101290680Y-133871789D01*
X101269739Y-133766512D01*
X101269736Y-133766501D01*
X101209395Y-133620824D01*
X101209394Y-133620821D01*
X101121789Y-133489711D01*
X101010289Y-133378211D01*
X100936403Y-133328842D01*
X100879175Y-133290603D01*
X100877053Y-133289469D01*
X100877711Y-133288236D01*
X100854213Y-133264696D01*
X100850500Y-133245985D01*
X100850500Y-132725798D01*
X100860625Y-132695969D01*
X100874536Y-132677841D01*
X100935044Y-132531762D01*
X100950500Y-132414361D01*
X100950499Y-131900640D01*
X100935044Y-131783238D01*
X100929044Y-131768753D01*
X100929042Y-131731251D01*
X100935044Y-131716762D01*
X100950500Y-131599361D01*
X100950499Y-131085640D01*
X100935044Y-130968238D01*
X100874536Y-130822159D01*
X100778282Y-130696718D01*
X100652841Y-130600464D01*
X100580014Y-130570298D01*
X100553496Y-130543779D01*
X100553496Y-130506276D01*
X100580014Y-130479758D01*
X100629179Y-130459394D01*
X100760289Y-130371789D01*
X100871789Y-130260289D01*
X100959394Y-130129179D01*
X101019737Y-129983497D01*
X101050500Y-129828842D01*
X101050500Y-129671158D01*
X101032137Y-129578842D01*
X101019739Y-129516512D01*
X101019736Y-129516501D01*
X101008639Y-129489711D01*
X100959394Y-129370821D01*
X100871789Y-129239711D01*
X100760289Y-129128211D01*
X100629179Y-129040606D01*
X100629176Y-129040604D01*
X100629175Y-129040604D01*
X100483498Y-128980263D01*
X100483487Y-128980260D01*
X100328847Y-128949500D01*
X100328842Y-128949500D01*
X100171158Y-128949500D01*
X100171152Y-128949500D01*
X100016512Y-128980260D01*
X100016501Y-128980263D01*
X99870824Y-129040604D01*
X99739711Y-129128210D01*
X99628210Y-129239711D01*
X99540604Y-129370824D01*
X99480262Y-129516503D01*
X99480260Y-129516510D01*
X99462481Y-129605893D01*
X99449071Y-129630981D01*
X98744906Y-130335148D01*
X98710258Y-130349500D01*
X98045020Y-130349500D01*
X98010372Y-130335148D01*
X97996020Y-130300500D01*
X97999749Y-130281751D01*
X98019737Y-130233497D01*
X98050500Y-130078842D01*
X98050500Y-129921158D01*
X98050499Y-129921152D01*
X98019739Y-129766512D01*
X98019736Y-129766501D01*
X98006066Y-129733498D01*
X97959394Y-129620821D01*
X97871789Y-129489711D01*
X97760289Y-129378211D01*
X97314852Y-128932774D01*
X97300500Y-128898126D01*
X97300500Y-127649870D01*
X97310273Y-127620506D01*
X97368796Y-127542331D01*
X97419091Y-127407483D01*
X97419091Y-127407481D01*
X97419092Y-127407479D01*
X97425499Y-127347879D01*
X97425500Y-127347873D01*
X97425499Y-127226872D01*
X97439848Y-127192228D01*
X98817226Y-125814852D01*
X98851874Y-125800500D01*
X99078842Y-125800500D01*
X99233497Y-125769737D01*
X99379179Y-125709394D01*
X99510289Y-125621789D01*
X99621789Y-125510289D01*
X99709394Y-125379179D01*
X99769737Y-125233497D01*
X99800500Y-125078842D01*
X99800500Y-124921158D01*
X99769737Y-124766503D01*
X99709394Y-124620821D01*
X99621789Y-124489711D01*
X99510289Y-124378211D01*
X99510286Y-124378209D01*
X99466978Y-124349271D01*
X99379179Y-124290606D01*
X99379176Y-124290604D01*
X99379175Y-124290604D01*
X99233498Y-124230263D01*
X99233487Y-124230260D01*
X99078847Y-124199500D01*
X99078842Y-124199500D01*
X98421158Y-124199500D01*
X98421152Y-124199500D01*
X98266512Y-124230260D01*
X98266501Y-124230263D01*
X98120824Y-124290604D01*
X97999322Y-124371789D01*
X97989713Y-124378209D01*
X97989709Y-124378212D01*
X96182772Y-126185148D01*
X96148124Y-126199500D01*
X96027120Y-126199500D01*
X95967521Y-126205907D01*
X95832666Y-126256205D01*
X95717454Y-126342454D01*
X95631205Y-126457666D01*
X95580907Y-126592520D01*
X95574500Y-126652120D01*
X95574500Y-127347879D01*
X95580907Y-127407478D01*
X95580909Y-127407483D01*
X95631204Y-127542331D01*
X95689726Y-127620506D01*
X95699500Y-127649870D01*
X95699500Y-128746441D01*
X95685148Y-128781089D01*
X95650500Y-128795441D01*
X95631721Y-128790758D01*
X95631403Y-128791527D01*
X95483498Y-128730263D01*
X95483487Y-128730260D01*
X95328847Y-128699500D01*
X95328842Y-128699500D01*
X95171158Y-128699500D01*
X95171152Y-128699500D01*
X95016512Y-128730260D01*
X95016501Y-128730263D01*
X94968251Y-128750249D01*
X94958505Y-128750249D01*
X94949500Y-128753979D01*
X94940495Y-128750249D01*
X94930748Y-128750249D01*
X94923855Y-128743356D01*
X94914852Y-128739627D01*
X94911122Y-128730622D01*
X94904230Y-128723730D01*
X94900500Y-128704979D01*
X94900500Y-128693492D01*
X94914852Y-128658844D01*
X94920123Y-128654275D01*
X94982546Y-128607546D01*
X95068796Y-128492331D01*
X95119091Y-128357483D01*
X95119091Y-128357481D01*
X95119092Y-128357479D01*
X95125499Y-128297879D01*
X95125500Y-128297873D01*
X95125499Y-127602128D01*
X95125499Y-127602120D01*
X95119092Y-127542521D01*
X95119091Y-127542517D01*
X95068796Y-127407669D01*
X94982546Y-127292454D01*
X94894941Y-127226873D01*
X94867333Y-127206205D01*
X94867331Y-127206204D01*
X94822381Y-127189439D01*
X94732479Y-127155907D01*
X94672879Y-127149500D01*
X94672873Y-127149500D01*
X94128844Y-127149500D01*
X94128842Y-127149500D01*
X93971157Y-127149500D01*
X93971153Y-127149500D01*
X93727120Y-127149500D01*
X93667521Y-127155907D01*
X93532666Y-127206205D01*
X93417454Y-127292454D01*
X93331205Y-127407666D01*
X93280909Y-127542516D01*
X93277396Y-127575187D01*
X93263326Y-127604594D01*
X93220272Y-127647648D01*
X93185627Y-127662000D01*
X93093665Y-127662000D01*
X93059017Y-127647648D01*
X92943655Y-127532287D01*
X92794334Y-127440186D01*
X92664940Y-127397308D01*
X92657191Y-127393711D01*
X92657121Y-127393850D01*
X92480026Y-127303616D01*
X92292826Y-127242791D01*
X92292823Y-127242790D01*
X92143482Y-127219137D01*
X92098417Y-127212000D01*
X89901583Y-127212000D01*
X89864998Y-127217794D01*
X89707176Y-127242790D01*
X89707173Y-127242791D01*
X89519973Y-127303616D01*
X89342881Y-127393849D01*
X89342811Y-127393711D01*
X89335061Y-127397307D01*
X89205666Y-127440186D01*
X89205665Y-127440186D01*
X89056344Y-127532287D01*
X88932287Y-127656344D01*
X88840186Y-127805665D01*
X88785000Y-127972205D01*
X88774500Y-128074988D01*
X88774500Y-128202378D01*
X88773896Y-128210043D01*
X88749500Y-128364083D01*
X87571826Y-128364083D01*
X90350304Y-125702120D01*
X93274500Y-125702120D01*
X93274500Y-126397879D01*
X93280907Y-126457478D01*
X93280909Y-126457483D01*
X93331204Y-126592331D01*
X93417454Y-126707546D01*
X93532669Y-126793796D01*
X93667517Y-126844091D01*
X93667520Y-126844092D01*
X93711177Y-126848785D01*
X93727127Y-126850500D01*
X94672872Y-126850499D01*
X94672878Y-126850499D01*
X94732478Y-126844092D01*
X94732479Y-126844091D01*
X94732483Y-126844091D01*
X94867331Y-126793796D01*
X94982546Y-126707546D01*
X95068796Y-126592331D01*
X95119091Y-126457483D01*
X95119091Y-126457481D01*
X95119092Y-126457479D01*
X95125499Y-126397879D01*
X95125500Y-126397873D01*
X95125499Y-125702128D01*
X95125499Y-125702127D01*
X95125499Y-125702120D01*
X95119092Y-125642521D01*
X95119091Y-125642517D01*
X95068796Y-125507669D01*
X94982546Y-125392454D01*
X94913314Y-125340627D01*
X94867333Y-125306205D01*
X94867331Y-125306204D01*
X94822381Y-125289439D01*
X94732479Y-125255907D01*
X94672879Y-125249500D01*
X93727120Y-125249500D01*
X93667521Y-125255907D01*
X93532666Y-125306205D01*
X93417454Y-125392454D01*
X93331205Y-125507666D01*
X93280907Y-125642520D01*
X93274500Y-125702120D01*
X90350304Y-125702120D01*
X92398736Y-123739588D01*
X92432336Y-123725972D01*
X112316263Y-123606613D01*
X112342238Y-123613881D01*
X118682677Y-127515691D01*
X118694843Y-127522943D01*
X118697250Y-127524378D01*
X118843285Y-127584868D01*
X119000000Y-127605500D01*
X119000004Y-127605500D01*
X124250003Y-127605500D01*
X124268913Y-127605205D01*
X124347359Y-127592373D01*
X124424907Y-127579688D01*
X124566710Y-127515691D01*
X124568977Y-127514668D01*
X124568977Y-127514667D01*
X124568981Y-127514666D01*
X124691318Y-127414571D01*
X124745107Y-127339742D01*
X124783575Y-127286229D01*
X124783578Y-127286224D01*
X124783577Y-127286224D01*
X124783579Y-127286223D01*
X124839478Y-127138370D01*
X124855205Y-126981087D01*
X124605205Y-118981087D01*
X124584868Y-118843285D01*
X124524378Y-118697250D01*
X124428153Y-118571847D01*
X124302750Y-118475622D01*
X124302745Y-118475619D01*
X124156714Y-118415131D01*
X124048992Y-118400950D01*
X124000000Y-118394500D01*
X85250000Y-118394500D01*
X70250000Y-118394500D01*
X70205630Y-118400341D01*
X70093285Y-118415131D01*
X70068251Y-118425501D01*
X70030748Y-118425501D01*
X70004230Y-118398982D01*
X70000500Y-118380231D01*
X70000500Y-118049500D01*
X70014852Y-118014852D01*
X70049500Y-118000500D01*
X132450500Y-118000500D01*
X132485148Y-118014852D01*
G37*
%TD.AperFunction*%
%TD*%
M02*
