%TF.GenerationSoftware,KiCad,Pcbnew,9.0.1*%
%TF.CreationDate,2025-11-16T17:19:11-08:00*%
%TF.ProjectId,GaN-LTC7800-Alternate,47614e2d-4c54-4433-9738-30302d416c74,rev?*%
%TF.SameCoordinates,Original*%
%TF.FileFunction,Copper,L2,Bot*%
%TF.FilePolarity,Positive*%
%FSLAX46Y46*%
G04 Gerber Fmt 4.6, Leading zero omitted, Abs format (unit mm)*
G04 Created by KiCad (PCBNEW 9.0.1) date 2025-11-16 17:19:11*
%MOMM*%
%LPD*%
G01*
G04 APERTURE LIST*
G04 Aperture macros list*
%AMRoundRect*
0 Rectangle with rounded corners*
0 $1 Rounding radius*
0 $2 $3 $4 $5 $6 $7 $8 $9 X,Y pos of 4 corners*
0 Add a 4 corners polygon primitive as box body*
4,1,4,$2,$3,$4,$5,$6,$7,$8,$9,$2,$3,0*
0 Add four circle primitives for the rounded corners*
1,1,$1+$1,$2,$3*
1,1,$1+$1,$4,$5*
1,1,$1+$1,$6,$7*
1,1,$1+$1,$8,$9*
0 Add four rect primitives between the rounded corners*
20,1,$1+$1,$2,$3,$4,$5,0*
20,1,$1+$1,$4,$5,$6,$7,0*
20,1,$1+$1,$6,$7,$8,$9,0*
20,1,$1+$1,$8,$9,$2,$3,0*%
G04 Aperture macros list end*
%TA.AperFunction,Conductor*%
%ADD10C,0.200000*%
%TD*%
%TA.AperFunction,ComponentPad*%
%ADD11R,1.700000X1.700000*%
%TD*%
%TA.AperFunction,ComponentPad*%
%ADD12C,8.115000*%
%TD*%
%TA.AperFunction,SMDPad,CuDef*%
%ADD13RoundRect,0.250000X0.475000X-0.337500X0.475000X0.337500X-0.475000X0.337500X-0.475000X-0.337500X0*%
%TD*%
%TA.AperFunction,SMDPad,CuDef*%
%ADD14R,0.850000X0.600000*%
%TD*%
%TA.AperFunction,SMDPad,CuDef*%
%ADD15RoundRect,0.100000X0.100000X-0.217500X0.100000X0.217500X-0.100000X0.217500X-0.100000X-0.217500X0*%
%TD*%
%TA.AperFunction,SMDPad,CuDef*%
%ADD16RoundRect,0.250000X-0.475000X0.337500X-0.475000X-0.337500X0.475000X-0.337500X0.475000X0.337500X0*%
%TD*%
%TA.AperFunction,ViaPad*%
%ADD17C,0.600000*%
%TD*%
%TA.AperFunction,Conductor*%
%ADD18C,1.500000*%
%TD*%
%TA.AperFunction,Conductor*%
%ADD19C,0.600000*%
%TD*%
%TA.AperFunction,Conductor*%
%ADD20C,0.400000*%
%TD*%
%TA.AperFunction,Conductor*%
%ADD21C,2.000000*%
%TD*%
%TA.AperFunction,Conductor*%
%ADD22C,1.000000*%
%TD*%
%TA.AperFunction,Conductor*%
%ADD23C,0.300000*%
%TD*%
G04 APERTURE END LIST*
D10*
%TO.N,/Vout*%
X120250000Y-50750000D02*
X115000000Y-50750000D01*
X108500000Y-46750000D01*
X88168060Y-46872049D01*
X81250000Y-53500000D01*
X77500000Y-53500000D01*
X77250000Y-42750000D01*
X120000000Y-42750000D01*
X120250000Y-50750000D01*
%TA.AperFunction,Conductor*%
G36*
X120250000Y-50750000D02*
G01*
X115000000Y-50750000D01*
X108500000Y-46750000D01*
X88168060Y-46872049D01*
X81250000Y-53500000D01*
X77500000Y-53500000D01*
X77250000Y-42750000D01*
X120000000Y-42750000D01*
X120250000Y-50750000D01*
G37*
%TD.AperFunction*%
%TO.N,/BG*%
X95750000Y-54250000D02*
X95250000Y-54750000D01*
X94750000Y-54750000D01*
X94500000Y-54500000D01*
X95250000Y-53750000D01*
X95750000Y-54250000D01*
%TA.AperFunction,Conductor*%
G36*
X95750000Y-54250000D02*
G01*
X95250000Y-54750000D01*
X94750000Y-54750000D01*
X94500000Y-54500000D01*
X95250000Y-53750000D01*
X95750000Y-54250000D01*
G37*
%TD.AperFunction*%
%TO.N,/Vout*%
X81250000Y-53500000D02*
X66250000Y-53500000D01*
X66250000Y-42750000D01*
X81250000Y-42750000D01*
X81250000Y-53500000D01*
%TA.AperFunction,Conductor*%
G36*
X81250000Y-53500000D02*
G01*
X66250000Y-53500000D01*
X66250000Y-42750000D01*
X81250000Y-42750000D01*
X81250000Y-53500000D01*
G37*
%TD.AperFunction*%
%TD*%
D11*
%TO.P,VOUT1,1,Pin_1*%
%TO.N,/Vout*%
X116500000Y-46750000D03*
%TD*%
D12*
%TO.P,VSource_GND1,1,1*%
%TO.N,GND*%
X111000000Y-78000000D03*
%TD*%
%TO.P,VSource_IN1,1,1*%
%TO.N,/VIN*%
X100000000Y-74250000D03*
%TD*%
D11*
%TO.P,TP_VIN2,1,Pin_1*%
%TO.N,GND*%
X118750000Y-80250000D03*
%TD*%
%TO.P,TP_VIN1,1,Pin_1*%
%TO.N,/VIN*%
X92500000Y-80250000D03*
%TD*%
%TO.P,GND1,1,Pin_1*%
%TO.N,GND*%
X126000000Y-62750000D03*
%TD*%
D13*
%TO.P,C2,1*%
%TO.N,GND*%
X88000000Y-54287500D03*
%TO.P,C2,2*%
%TO.N,/INTVCC*%
X88000000Y-52212500D03*
%TD*%
D14*
%TO.P,D1,1,A*%
%TO.N,/INTVCC*%
X90200000Y-51700000D03*
%TO.P,D1,2,NC*%
%TO.N,unconnected-(D1-NC-Pad2)*%
X90200000Y-49800000D03*
%TO.P,D1,3,K*%
%TO.N,/BOOST*%
X92500000Y-50750000D03*
%TD*%
D15*
%TO.P,R1,1*%
%TO.N,Net-(U1-PGOOD)*%
X96250000Y-55907500D03*
%TO.P,R1,2*%
%TO.N,/INTVCC*%
X96250000Y-55092500D03*
%TD*%
D16*
%TO.P,C2_EX1,1*%
%TO.N,/INTVCC*%
X86000000Y-52212500D03*
%TO.P,C2_EX1,2*%
%TO.N,GND*%
X86000000Y-54287500D03*
%TD*%
D17*
%TO.N,GND*%
X77000000Y-66000000D03*
X77000000Y-69750000D03*
X128000000Y-48750000D03*
X80750000Y-68500000D03*
X79500000Y-71000000D03*
X80750000Y-72250000D03*
X79500000Y-72250000D03*
X83250000Y-71000000D03*
X79750000Y-54750000D03*
X77000000Y-67250000D03*
X83250000Y-69750000D03*
X126750000Y-48750000D03*
X80750000Y-66000000D03*
X77500000Y-58000000D03*
X83250000Y-72250000D03*
X83250000Y-66000000D03*
X79500000Y-68500000D03*
X126750000Y-47500000D03*
X79500000Y-69750000D03*
X83250000Y-67250000D03*
X76500000Y-61000000D03*
X78250000Y-66000000D03*
X77000000Y-68500000D03*
X80750000Y-67250000D03*
X129250000Y-50000000D03*
X82750000Y-54750000D03*
X78250000Y-67250000D03*
X83250000Y-68500000D03*
X79500000Y-66000000D03*
X83750000Y-54750000D03*
X78250000Y-72250000D03*
X82000000Y-68500000D03*
X129250000Y-47500000D03*
X82000000Y-72250000D03*
X129250000Y-48750000D03*
X80750000Y-69750000D03*
X80750000Y-71000000D03*
X78250000Y-71000000D03*
X77000000Y-71000000D03*
X78250000Y-68500000D03*
X128000000Y-50000000D03*
X78250000Y-69750000D03*
X80750000Y-54750000D03*
X76500000Y-58000000D03*
X81750000Y-54750000D03*
X77000000Y-72250000D03*
X76500000Y-60000000D03*
X126750000Y-50000000D03*
X82000000Y-69750000D03*
X82000000Y-66000000D03*
X79500000Y-67250000D03*
X82000000Y-67250000D03*
X128000000Y-47500000D03*
X82000000Y-71000000D03*
X77500000Y-61000000D03*
X76500000Y-59000000D03*
X77500000Y-60000000D03*
X77500000Y-59000000D03*
%TO.N,/INTVCC*%
X90000000Y-53250000D03*
%TO.N,/BOOST*%
X95000000Y-48750000D03*
X93250000Y-53750000D03*
%TO.N,/ITH*%
X91500000Y-62250000D03*
X95750000Y-58199997D03*
%TO.N,/VIN*%
X93500000Y-73000000D03*
X87500000Y-57000000D03*
%TO.N,/Vout*%
X68750000Y-47500000D03*
X67250000Y-45750000D03*
X66500000Y-44750000D03*
X76250000Y-47500000D03*
X73250000Y-45750000D03*
X67250000Y-47500000D03*
X80000000Y-48250000D03*
X77750000Y-47500000D03*
X75500000Y-46500000D03*
X75500000Y-44750000D03*
X74000000Y-43250000D03*
X80750000Y-47500000D03*
X77750000Y-44000000D03*
X74000000Y-49750000D03*
X80750000Y-49000000D03*
X68000000Y-44750000D03*
X75500000Y-43250000D03*
X71000000Y-43250000D03*
X68000000Y-49750000D03*
X68750000Y-49000000D03*
X70250000Y-49000000D03*
X71000000Y-46500000D03*
X68000000Y-48250000D03*
X80750000Y-44000000D03*
X72500000Y-48250000D03*
X68000000Y-43250000D03*
X80750000Y-45750000D03*
X71750000Y-45750000D03*
X75500000Y-49750000D03*
X78500000Y-49750000D03*
X67250000Y-49000000D03*
X68750000Y-44000000D03*
X77750000Y-45750000D03*
X79250000Y-47500000D03*
X78500000Y-44750000D03*
X68750000Y-45750000D03*
X70250000Y-45750000D03*
X69500000Y-48250000D03*
X73250000Y-49000000D03*
X77000000Y-46500000D03*
X74000000Y-46500000D03*
X80000000Y-44750000D03*
X71750000Y-47500000D03*
X73250000Y-44000000D03*
X71000000Y-48250000D03*
X78500000Y-43250000D03*
X72500000Y-43250000D03*
X67250000Y-44000000D03*
X69500000Y-46500000D03*
X78500000Y-48250000D03*
X71000000Y-49750000D03*
X70250000Y-44000000D03*
X68000000Y-46500000D03*
X79250000Y-49000000D03*
X77000000Y-48250000D03*
X71750000Y-44000000D03*
X66500000Y-49750000D03*
X71750000Y-49000000D03*
X76250000Y-44000000D03*
X74750000Y-47500000D03*
X72500000Y-46500000D03*
X77000000Y-49750000D03*
X66500000Y-46500000D03*
X73250000Y-47500000D03*
X69500000Y-44750000D03*
X70250000Y-47500000D03*
X75500000Y-48250000D03*
X74750000Y-44000000D03*
X72500000Y-49750000D03*
X80000000Y-49750000D03*
X80000000Y-46500000D03*
X66500000Y-43250000D03*
X66500000Y-48250000D03*
X69500000Y-43250000D03*
X77750000Y-49000000D03*
X69500000Y-49750000D03*
X74000000Y-48250000D03*
X76250000Y-45750000D03*
X71000000Y-44750000D03*
X72500000Y-44750000D03*
X76250000Y-49000000D03*
X77000000Y-44750000D03*
X80000000Y-43250000D03*
X79250000Y-45750000D03*
X78500000Y-46500000D03*
X74750000Y-45750000D03*
X74000000Y-44750000D03*
X74750000Y-49000000D03*
X77000000Y-43250000D03*
X79250000Y-44000000D03*
%TO.N,/SENSE+*%
X114250000Y-62500000D03*
X95500000Y-60500000D03*
%TO.N,/TG*%
X143250000Y-54750000D03*
X115000000Y-65750000D03*
%TO.N,/BG*%
X92500000Y-54500000D03*
X140000000Y-46500000D03*
%TO.N,Net-(U1-PGOOD)*%
X96500000Y-57750000D03*
%TO.N,/VFB*%
X95750000Y-59000000D03*
X119250000Y-65750000D03*
%TD*%
D10*
%TO.N,/INTVCC*%
X96157500Y-55000000D02*
X96250000Y-55092500D01*
D18*
X88000000Y-52212500D02*
X86000000Y-52212500D01*
D19*
X90050000Y-51700000D02*
X89537500Y-52212500D01*
D20*
X90000000Y-53250000D02*
X90200000Y-53050000D01*
X90200000Y-53050000D02*
X90200000Y-51700000D01*
D19*
X89537500Y-52212500D02*
X88000000Y-52212500D01*
D10*
X91000000Y-55250000D02*
X95500000Y-55250000D01*
X90000000Y-54250000D02*
X91000000Y-55250000D01*
X95500000Y-55250000D02*
X95750000Y-55000000D01*
X95750000Y-55000000D02*
X96157500Y-55000000D01*
X90000000Y-53250000D02*
X90000000Y-54250000D01*
X90200000Y-51700000D02*
X90050000Y-51700000D01*
D19*
%TO.N,/BOOST*%
X92500000Y-50750000D02*
X92500000Y-53000000D01*
X92500000Y-53000000D02*
X93250000Y-53750000D01*
X94500000Y-48750000D02*
X95000000Y-48750000D01*
X92500000Y-50750000D02*
X94500000Y-48750000D01*
%TO.N,/ITH*%
X91500000Y-62250000D02*
X91500000Y-62117214D01*
X91500000Y-62117214D02*
X95417217Y-58199997D01*
X95417217Y-58199997D02*
X95750000Y-58199997D01*
D10*
%TO.N,/VIN*%
X87500000Y-57000000D02*
X89000000Y-58500000D01*
X89000000Y-68500000D02*
X93500000Y-73000000D01*
X89000000Y-58500000D02*
X89000000Y-68500000D01*
%TO.N,/SENSE+*%
X97500000Y-62500000D02*
X114250000Y-62500000D01*
X95500000Y-60500000D02*
X97500000Y-62500000D01*
D21*
%TO.N,/TG*%
X123250000Y-69000000D02*
X129000000Y-69000000D01*
X115000000Y-65750000D02*
X118250000Y-69000000D01*
X118250000Y-69000000D02*
X123250000Y-69000000D01*
X129000000Y-69000000D02*
X143250000Y-54750000D01*
D22*
%TO.N,/BG*%
X132500000Y-54000000D02*
X140000000Y-46500000D01*
D10*
X95000000Y-54500000D02*
X95500000Y-54000000D01*
D23*
X92500000Y-54500000D02*
X95000000Y-54500000D01*
D22*
X95500000Y-54000000D02*
X132500000Y-54000000D01*
D10*
%TO.N,Net-(U1-PGOOD)*%
X96250000Y-55907500D02*
X96250000Y-57500000D01*
X96250000Y-57500000D02*
X96500000Y-57750000D01*
D20*
%TO.N,/VFB*%
X95750000Y-59000000D02*
X112500000Y-59000000D01*
X112500000Y-59000000D02*
X119250000Y-65750000D01*
%TD*%
%TA.AperFunction,Conductor*%
%TO.N,GND*%
G36*
X151235148Y-41764852D02*
G01*
X151249500Y-41799500D01*
X151249500Y-87200500D01*
X151235148Y-87235148D01*
X151200500Y-87249500D01*
X66049500Y-87249500D01*
X66014852Y-87235148D01*
X66000500Y-87200500D01*
X66000500Y-79352120D01*
X91149500Y-79352120D01*
X91149500Y-81147879D01*
X91155907Y-81207478D01*
X91155909Y-81207483D01*
X91206114Y-81342091D01*
X91206205Y-81342333D01*
X91210069Y-81347494D01*
X91292454Y-81457546D01*
X91384934Y-81526776D01*
X91407074Y-81543351D01*
X91407669Y-81543796D01*
X91542517Y-81594091D01*
X91542520Y-81594092D01*
X91586177Y-81598785D01*
X91602127Y-81600500D01*
X93397872Y-81600499D01*
X93397878Y-81600499D01*
X93457478Y-81594092D01*
X93457479Y-81594091D01*
X93457483Y-81594091D01*
X93592331Y-81543796D01*
X93707546Y-81457546D01*
X93793796Y-81342331D01*
X93844091Y-81207483D01*
X93844091Y-81207481D01*
X93844092Y-81207479D01*
X93850499Y-81147879D01*
X93850500Y-81147873D01*
X93850499Y-79352128D01*
X93850499Y-79352127D01*
X93850499Y-79352120D01*
X93844092Y-79292521D01*
X93844091Y-79292517D01*
X93793796Y-79157669D01*
X93707546Y-79042454D01*
X93633958Y-78987366D01*
X93592333Y-78956205D01*
X93592331Y-78956204D01*
X93547381Y-78939439D01*
X93457479Y-78905907D01*
X93397879Y-78899500D01*
X91602120Y-78899500D01*
X91542521Y-78905907D01*
X91407666Y-78956205D01*
X91292454Y-79042454D01*
X91206205Y-79157666D01*
X91155907Y-79292520D01*
X91149500Y-79352120D01*
X66000500Y-79352120D01*
X66000500Y-74050993D01*
X95442000Y-74050993D01*
X95442000Y-74449006D01*
X95476689Y-74845506D01*
X95545804Y-75237475D01*
X95545805Y-75237480D01*
X95648814Y-75621916D01*
X95784944Y-75995929D01*
X95784950Y-75995943D01*
X95953155Y-76356659D01*
X96152156Y-76701340D01*
X96152162Y-76701349D01*
X96380445Y-77027371D01*
X96380449Y-77027376D01*
X96380451Y-77027378D01*
X96636289Y-77332274D01*
X96917726Y-77613711D01*
X96917736Y-77613719D01*
X97222623Y-77869550D01*
X97222628Y-77869554D01*
X97548650Y-78097837D01*
X97548659Y-78097843D01*
X97723841Y-78198984D01*
X97893345Y-78296847D01*
X98254067Y-78465054D01*
X98628077Y-78601183D01*
X98628078Y-78601183D01*
X98628083Y-78601185D01*
X99012519Y-78704194D01*
X99012525Y-78704195D01*
X99012528Y-78704196D01*
X99404495Y-78773311D01*
X99800993Y-78808000D01*
X99800997Y-78808000D01*
X100199003Y-78808000D01*
X100199007Y-78808000D01*
X100595505Y-78773311D01*
X100987472Y-78704196D01*
X100987477Y-78704194D01*
X100987480Y-78704194D01*
X101371916Y-78601185D01*
X101371917Y-78601184D01*
X101371923Y-78601183D01*
X101745933Y-78465054D01*
X102106655Y-78296847D01*
X102451345Y-78097840D01*
X102777378Y-77869549D01*
X102859054Y-77801015D01*
X106442500Y-77801015D01*
X106442500Y-78198984D01*
X106477185Y-78595441D01*
X106546292Y-78987366D01*
X106546293Y-78987371D01*
X106649291Y-79371765D01*
X106785406Y-79745737D01*
X106785412Y-79745751D01*
X106953599Y-80106428D01*
X107152577Y-80451071D01*
X107152583Y-80451080D01*
X107380841Y-80777066D01*
X107380845Y-80777071D01*
X107603739Y-81042706D01*
X108918314Y-79728131D01*
X108979860Y-79805307D01*
X109194693Y-80020140D01*
X109271867Y-80081684D01*
X107957292Y-81396259D01*
X108222928Y-81619154D01*
X108222933Y-81619158D01*
X108548919Y-81847416D01*
X108548928Y-81847422D01*
X108893571Y-82046400D01*
X109254248Y-82214587D01*
X109254262Y-82214593D01*
X109628234Y-82350708D01*
X110012628Y-82453706D01*
X110012633Y-82453707D01*
X110404558Y-82522814D01*
X110801015Y-82557499D01*
X110801020Y-82557500D01*
X111198980Y-82557500D01*
X111198984Y-82557499D01*
X111595441Y-82522814D01*
X111987366Y-82453707D01*
X111987371Y-82453706D01*
X112371765Y-82350708D01*
X112745737Y-82214593D01*
X112745751Y-82214587D01*
X113106428Y-82046400D01*
X113451071Y-81847422D01*
X113451080Y-81847416D01*
X113777066Y-81619158D01*
X113777071Y-81619154D01*
X114042706Y-81396259D01*
X112728131Y-80081685D01*
X112805307Y-80020140D01*
X113020140Y-79805307D01*
X113081685Y-79728132D01*
X114396259Y-81042706D01*
X114619154Y-80777071D01*
X114619158Y-80777066D01*
X114847053Y-80451599D01*
X114847056Y-80451597D01*
X114847058Y-80451591D01*
X114847423Y-80451068D01*
X115046400Y-80106428D01*
X115214587Y-79745751D01*
X115214593Y-79745737D01*
X115350708Y-79371766D01*
X115355960Y-79352165D01*
X117400000Y-79352165D01*
X117400000Y-80000000D01*
X118316988Y-80000000D01*
X118284075Y-80057007D01*
X118250000Y-80184174D01*
X118250000Y-80315826D01*
X118284075Y-80442993D01*
X118316988Y-80500000D01*
X117400000Y-80500000D01*
X117400000Y-81147834D01*
X117406401Y-81207372D01*
X117406401Y-81207373D01*
X117456648Y-81342091D01*
X117542811Y-81457188D01*
X117657908Y-81543351D01*
X117792626Y-81593598D01*
X117852166Y-81600000D01*
X118500000Y-81600000D01*
X118500000Y-80683012D01*
X118557007Y-80715925D01*
X118684174Y-80750000D01*
X118815826Y-80750000D01*
X118942993Y-80715925D01*
X119000000Y-80683012D01*
X119000000Y-81600000D01*
X119647834Y-81600000D01*
X119707372Y-81593598D01*
X119707373Y-81593598D01*
X119842091Y-81543351D01*
X119957188Y-81457188D01*
X120043351Y-81342091D01*
X120093598Y-81207373D01*
X120093598Y-81207372D01*
X120100000Y-81147834D01*
X120100000Y-80500000D01*
X119183012Y-80500000D01*
X119215925Y-80442993D01*
X119250000Y-80315826D01*
X119250000Y-80184174D01*
X119215925Y-80057007D01*
X119183012Y-80000000D01*
X120100000Y-80000000D01*
X120100000Y-79352165D01*
X120093598Y-79292627D01*
X120093598Y-79292626D01*
X120043351Y-79157908D01*
X119957188Y-79042811D01*
X119842091Y-78956648D01*
X119707373Y-78906401D01*
X119647834Y-78900000D01*
X119000000Y-78900000D01*
X119000000Y-79816988D01*
X118942993Y-79784075D01*
X118815826Y-79750000D01*
X118684174Y-79750000D01*
X118557007Y-79784075D01*
X118500000Y-79816988D01*
X118500000Y-78900000D01*
X117852166Y-78900000D01*
X117792627Y-78906401D01*
X117792626Y-78906401D01*
X117657908Y-78956648D01*
X117542811Y-79042811D01*
X117456648Y-79157908D01*
X117406401Y-79292626D01*
X117406401Y-79292627D01*
X117400000Y-79352165D01*
X115355960Y-79352165D01*
X115359708Y-79338178D01*
X115453706Y-78987371D01*
X115453707Y-78987366D01*
X115522814Y-78595441D01*
X115557499Y-78198984D01*
X115557500Y-78198979D01*
X115557500Y-77801020D01*
X115557499Y-77801015D01*
X115522814Y-77404558D01*
X115453707Y-77012633D01*
X115453706Y-77012628D01*
X115350708Y-76628234D01*
X115214593Y-76254262D01*
X115214587Y-76254248D01*
X115046400Y-75893571D01*
X114847422Y-75548928D01*
X114847416Y-75548919D01*
X114619158Y-75222933D01*
X114619154Y-75222928D01*
X114396259Y-74957292D01*
X113081684Y-76271867D01*
X113020140Y-76194693D01*
X112805307Y-75979860D01*
X112728130Y-75918314D01*
X114042706Y-74603739D01*
X113777071Y-74380845D01*
X113777066Y-74380841D01*
X113451080Y-74152583D01*
X113451071Y-74152577D01*
X113106428Y-73953599D01*
X112745751Y-73785412D01*
X112745737Y-73785406D01*
X112371765Y-73649291D01*
X111987371Y-73546293D01*
X111987366Y-73546292D01*
X111595441Y-73477185D01*
X111198984Y-73442500D01*
X110801015Y-73442500D01*
X110404558Y-73477185D01*
X110012633Y-73546292D01*
X110012628Y-73546293D01*
X109628234Y-73649291D01*
X109254262Y-73785406D01*
X109254248Y-73785412D01*
X108893571Y-73953599D01*
X108548928Y-74152577D01*
X108548919Y-74152583D01*
X108222946Y-74380833D01*
X108222917Y-74380855D01*
X107957292Y-74603739D01*
X109271867Y-75918314D01*
X109194693Y-75979860D01*
X108979860Y-76194693D01*
X108918314Y-76271867D01*
X107603739Y-74957292D01*
X107380855Y-75222917D01*
X107380833Y-75222946D01*
X107152583Y-75548919D01*
X107152577Y-75548928D01*
X106953599Y-75893571D01*
X106785412Y-76254248D01*
X106785406Y-76254262D01*
X106649291Y-76628234D01*
X106546293Y-77012628D01*
X106546292Y-77012633D01*
X106477185Y-77404558D01*
X106442500Y-77801015D01*
X102859054Y-77801015D01*
X103082274Y-77613711D01*
X103363711Y-77332274D01*
X103619549Y-77027378D01*
X103847840Y-76701345D01*
X104046847Y-76356655D01*
X104215054Y-75995933D01*
X104351183Y-75621923D01*
X104370744Y-75548919D01*
X104454194Y-75237480D01*
X104454195Y-75237475D01*
X104456757Y-75222946D01*
X104523311Y-74845505D01*
X104558000Y-74449007D01*
X104558000Y-74050993D01*
X104523311Y-73654495D01*
X104454196Y-73262528D01*
X104446417Y-73233498D01*
X104351185Y-72878083D01*
X104310576Y-72766512D01*
X104215054Y-72504067D01*
X104046847Y-72143345D01*
X104018808Y-72094780D01*
X103847843Y-71798659D01*
X103847837Y-71798650D01*
X103619554Y-71472628D01*
X103619550Y-71472623D01*
X103363719Y-71167736D01*
X103363711Y-71167726D01*
X103082274Y-70886289D01*
X102777378Y-70630451D01*
X102777376Y-70630449D01*
X102777371Y-70630445D01*
X102451349Y-70402162D01*
X102451340Y-70402156D01*
X102106659Y-70203155D01*
X101745943Y-70034950D01*
X101745929Y-70034944D01*
X101371916Y-69898814D01*
X100987480Y-69795805D01*
X100987475Y-69795804D01*
X100595506Y-69726689D01*
X100397256Y-69709344D01*
X100199007Y-69692000D01*
X99800993Y-69692000D01*
X99404493Y-69726689D01*
X99012524Y-69795804D01*
X99012519Y-69795805D01*
X98628083Y-69898814D01*
X98254070Y-70034944D01*
X98254056Y-70034950D01*
X97893340Y-70203155D01*
X97548659Y-70402156D01*
X97548650Y-70402162D01*
X97222628Y-70630445D01*
X97222623Y-70630449D01*
X96917736Y-70886280D01*
X96917718Y-70886296D01*
X96636296Y-71167718D01*
X96636280Y-71167736D01*
X96380449Y-71472623D01*
X96380445Y-71472628D01*
X96152162Y-71798650D01*
X96152156Y-71798659D01*
X95953155Y-72143340D01*
X95784950Y-72504056D01*
X95784944Y-72504070D01*
X95648814Y-72878083D01*
X95545805Y-73262519D01*
X95545804Y-73262524D01*
X95476689Y-73654493D01*
X95442000Y-74050993D01*
X66000500Y-74050993D01*
X66000500Y-56921152D01*
X86699500Y-56921152D01*
X86699500Y-57078847D01*
X86730260Y-57233487D01*
X86730263Y-57233498D01*
X86787144Y-57370821D01*
X86790606Y-57379179D01*
X86878211Y-57510289D01*
X86989711Y-57621789D01*
X87120821Y-57709394D01*
X87266503Y-57769737D01*
X87266509Y-57769738D01*
X87266512Y-57769739D01*
X87421152Y-57800499D01*
X87421158Y-57800500D01*
X87430969Y-57800500D01*
X87465617Y-57814852D01*
X88385148Y-58734383D01*
X88399500Y-58769031D01*
X88399500Y-68417929D01*
X88399499Y-68417947D01*
X88399499Y-68579059D01*
X88440421Y-68731781D01*
X88440422Y-68731783D01*
X88440423Y-68731785D01*
X88469360Y-68781904D01*
X88469361Y-68781905D01*
X88519477Y-68868712D01*
X88519482Y-68868718D01*
X88634074Y-68983310D01*
X88634080Y-68983315D01*
X92685148Y-73034383D01*
X92699500Y-73069031D01*
X92699500Y-73078847D01*
X92730260Y-73233487D01*
X92730263Y-73233497D01*
X92790606Y-73379179D01*
X92878211Y-73510289D01*
X92989711Y-73621789D01*
X93120821Y-73709394D01*
X93266503Y-73769737D01*
X93266509Y-73769738D01*
X93266512Y-73769739D01*
X93421152Y-73800499D01*
X93421158Y-73800500D01*
X93578842Y-73800500D01*
X93733497Y-73769737D01*
X93879179Y-73709394D01*
X94010289Y-73621789D01*
X94121789Y-73510289D01*
X94209394Y-73379179D01*
X94269737Y-73233497D01*
X94300500Y-73078842D01*
X94300500Y-72921158D01*
X94269737Y-72766503D01*
X94209394Y-72620821D01*
X94121789Y-72489711D01*
X94010289Y-72378211D01*
X93879179Y-72290606D01*
X93879176Y-72290604D01*
X93879175Y-72290604D01*
X93733498Y-72230263D01*
X93733487Y-72230260D01*
X93578847Y-72199500D01*
X93578842Y-72199500D01*
X93569031Y-72199500D01*
X93534383Y-72185148D01*
X89614852Y-68265617D01*
X89600500Y-68230969D01*
X89600500Y-65631908D01*
X113499500Y-65631908D01*
X113499500Y-65868091D01*
X113536446Y-66101365D01*
X113536447Y-66101368D01*
X113609432Y-66325993D01*
X113716653Y-66536428D01*
X113716656Y-66536432D01*
X113716657Y-66536434D01*
X113855483Y-66727510D01*
X113855485Y-66727512D01*
X113855488Y-66727516D01*
X117272483Y-70144511D01*
X117272486Y-70144513D01*
X117272490Y-70144517D01*
X117463566Y-70283343D01*
X117463568Y-70283344D01*
X117463571Y-70283346D01*
X117674006Y-70390567D01*
X117674008Y-70390568D01*
X117898632Y-70463553D01*
X118131908Y-70500500D01*
X118131909Y-70500500D01*
X129118091Y-70500500D01*
X129118092Y-70500500D01*
X129351368Y-70463553D01*
X129575992Y-70390568D01*
X129786434Y-70283343D01*
X129977510Y-70144517D01*
X144394517Y-55727510D01*
X144533343Y-55536434D01*
X144640568Y-55325992D01*
X144713552Y-55101369D01*
X144750499Y-54868092D01*
X144750499Y-54631908D01*
X144713552Y-54398632D01*
X144640568Y-54174008D01*
X144637471Y-54167929D01*
X144533346Y-53963572D01*
X144533344Y-53963569D01*
X144533343Y-53963567D01*
X144394517Y-53772490D01*
X144394513Y-53772486D01*
X144394511Y-53772483D01*
X144227516Y-53605488D01*
X144227517Y-53605488D01*
X144121142Y-53528202D01*
X144036433Y-53466657D01*
X144036431Y-53466656D01*
X144036427Y-53466653D01*
X143825993Y-53359432D01*
X143601368Y-53286448D01*
X143601365Y-53286447D01*
X143398575Y-53254329D01*
X143368092Y-53249501D01*
X143131908Y-53249501D01*
X143101482Y-53254320D01*
X142898633Y-53286447D01*
X142898630Y-53286448D01*
X142674006Y-53359432D01*
X142463571Y-53466653D01*
X142272483Y-53605488D01*
X128392825Y-67485148D01*
X128358177Y-67499500D01*
X118891823Y-67499500D01*
X118857175Y-67485148D01*
X115977516Y-64605488D01*
X115977512Y-64605485D01*
X115977510Y-64605483D01*
X115786434Y-64466657D01*
X115786432Y-64466656D01*
X115786428Y-64466653D01*
X115575993Y-64359432D01*
X115351368Y-64286447D01*
X115351365Y-64286446D01*
X115172167Y-64258064D01*
X115118092Y-64249500D01*
X114881908Y-64249500D01*
X114838009Y-64256452D01*
X114648634Y-64286446D01*
X114648631Y-64286447D01*
X114424006Y-64359432D01*
X114213571Y-64466653D01*
X114022483Y-64605488D01*
X113855488Y-64772483D01*
X113716653Y-64963571D01*
X113609432Y-65174006D01*
X113536447Y-65398631D01*
X113536446Y-65398634D01*
X113499500Y-65631908D01*
X89600500Y-65631908D01*
X89600500Y-58420942D01*
X89597713Y-58410542D01*
X89592139Y-58389741D01*
X89581357Y-58349500D01*
X89559577Y-58268216D01*
X89559576Y-58268213D01*
X89480524Y-58131290D01*
X89480521Y-58131287D01*
X89480520Y-58131284D01*
X89368716Y-58019480D01*
X89367010Y-58017774D01*
X89366999Y-58017764D01*
X88314852Y-56965617D01*
X88300500Y-56930969D01*
X88300500Y-56921158D01*
X88300499Y-56921152D01*
X88269739Y-56766512D01*
X88269736Y-56766501D01*
X88209395Y-56620824D01*
X88209394Y-56620821D01*
X88121789Y-56489711D01*
X88010289Y-56378211D01*
X87879179Y-56290606D01*
X87879176Y-56290604D01*
X87879175Y-56290604D01*
X87733498Y-56230263D01*
X87733487Y-56230260D01*
X87578847Y-56199500D01*
X87578842Y-56199500D01*
X87421158Y-56199500D01*
X87421152Y-56199500D01*
X87266512Y-56230260D01*
X87266501Y-56230263D01*
X87120824Y-56290604D01*
X86989711Y-56378210D01*
X86878210Y-56489711D01*
X86790604Y-56620824D01*
X86730263Y-56766501D01*
X86730260Y-56766512D01*
X86699500Y-56921152D01*
X66000500Y-56921152D01*
X66000500Y-54674980D01*
X84775001Y-54674980D01*
X84785493Y-54777693D01*
X84840642Y-54944122D01*
X84932682Y-55093343D01*
X85056656Y-55217317D01*
X85205877Y-55309357D01*
X85372306Y-55364506D01*
X85475018Y-55374999D01*
X85749999Y-55374999D01*
X86250000Y-55374999D01*
X86524980Y-55374999D01*
X86627693Y-55364506D01*
X86794122Y-55309357D01*
X86943343Y-55217317D01*
X86965352Y-55195309D01*
X87000000Y-55180957D01*
X87034648Y-55195309D01*
X87056656Y-55217317D01*
X87205877Y-55309357D01*
X87372306Y-55364506D01*
X87475018Y-55374999D01*
X87749999Y-55374999D01*
X88250000Y-55374999D01*
X88524980Y-55374999D01*
X88627693Y-55364506D01*
X88794122Y-55309357D01*
X88943343Y-55217317D01*
X89067317Y-55093343D01*
X89159357Y-54944122D01*
X89214506Y-54777693D01*
X89225000Y-54674981D01*
X89225000Y-54537500D01*
X88250000Y-54537500D01*
X88250000Y-55374999D01*
X87749999Y-55374999D01*
X87750000Y-55374998D01*
X87750000Y-54537500D01*
X86250000Y-54537500D01*
X86250000Y-55374999D01*
X85749999Y-55374999D01*
X85750000Y-55374998D01*
X85750000Y-54537500D01*
X84775001Y-54537500D01*
X84775001Y-54674980D01*
X66000500Y-54674980D01*
X66000500Y-54119768D01*
X66014852Y-54085120D01*
X66049500Y-54070768D01*
X66068247Y-54074496D01*
X66093285Y-54084868D01*
X66250000Y-54105500D01*
X66250004Y-54105500D01*
X81249995Y-54105500D01*
X81250000Y-54105500D01*
X81394156Y-54088090D01*
X81400243Y-54085720D01*
X81406715Y-54084868D01*
X81473765Y-54057094D01*
X81541453Y-54030741D01*
X81546720Y-54026875D01*
X81552750Y-54024378D01*
X81610335Y-53980190D01*
X81668888Y-53937222D01*
X83571826Y-52114083D01*
X84749500Y-52114083D01*
X84749500Y-52310917D01*
X84770497Y-52443492D01*
X84773897Y-52464959D01*
X84774500Y-52472624D01*
X84774500Y-52600010D01*
X84785000Y-52702794D01*
X84840186Y-52869334D01*
X84932287Y-53018655D01*
X85056347Y-53142715D01*
X85163146Y-53208588D01*
X85185102Y-53238992D01*
X85179128Y-53276016D01*
X85163147Y-53291998D01*
X85056656Y-53357682D01*
X84932682Y-53481656D01*
X84840642Y-53630877D01*
X84785493Y-53797306D01*
X84775000Y-53900018D01*
X84775000Y-54037500D01*
X89224999Y-54037500D01*
X89224999Y-53900019D01*
X89214506Y-53797306D01*
X89159357Y-53630877D01*
X89067317Y-53481656D01*
X88943343Y-53357682D01*
X88836852Y-53291998D01*
X88814897Y-53261593D01*
X88820871Y-53224569D01*
X88836853Y-53208588D01*
X88943652Y-53142715D01*
X88943653Y-53142713D01*
X88943656Y-53142712D01*
X89024368Y-53062000D01*
X89059017Y-53027352D01*
X89093665Y-53013000D01*
X89171253Y-53013000D01*
X89205901Y-53027352D01*
X89220253Y-53062000D01*
X89219311Y-53071559D01*
X89199500Y-53171152D01*
X89199500Y-53328847D01*
X89230260Y-53483487D01*
X89230263Y-53483498D01*
X89280791Y-53605483D01*
X89290606Y-53629179D01*
X89318656Y-53671158D01*
X89378210Y-53760288D01*
X89385148Y-53767226D01*
X89399500Y-53801874D01*
X89399500Y-54167929D01*
X89399499Y-54167947D01*
X89399499Y-54329059D01*
X89440421Y-54481781D01*
X89440423Y-54481787D01*
X89462187Y-54519481D01*
X89519480Y-54618716D01*
X89634074Y-54733310D01*
X89634079Y-54733314D01*
X90631284Y-55730520D01*
X90631287Y-55730521D01*
X90631290Y-55730524D01*
X90768214Y-55809576D01*
X90768216Y-55809577D01*
X90839093Y-55828568D01*
X90920941Y-55850501D01*
X90920943Y-55850501D01*
X91082055Y-55850501D01*
X91082071Y-55850500D01*
X95417931Y-55850500D01*
X95420939Y-55850500D01*
X95420943Y-55850501D01*
X95500501Y-55850501D01*
X95535149Y-55864853D01*
X95545296Y-55889353D01*
X95549500Y-55899501D01*
X95549500Y-56164356D01*
X95549501Y-56164358D01*
X95564955Y-56281761D01*
X95625461Y-56427836D01*
X95625464Y-56427841D01*
X95639374Y-56445969D01*
X95649500Y-56475798D01*
X95649500Y-57350497D01*
X95635148Y-57385145D01*
X95600500Y-57399497D01*
X95338368Y-57399497D01*
X95183728Y-57430257D01*
X95183717Y-57430260D01*
X95141050Y-57447934D01*
X95038041Y-57490601D01*
X94909538Y-57576463D01*
X94909537Y-57576465D01*
X94908232Y-57577337D01*
X94906925Y-57578210D01*
X90878210Y-61606925D01*
X90790604Y-61738038D01*
X90730263Y-61883715D01*
X90730260Y-61883726D01*
X90699500Y-62038366D01*
X90699500Y-62328847D01*
X90730260Y-62483487D01*
X90730263Y-62483498D01*
X90783586Y-62612231D01*
X90790606Y-62629179D01*
X90878211Y-62760289D01*
X90989711Y-62871789D01*
X91120821Y-62959394D01*
X91266503Y-63019737D01*
X91266509Y-63019738D01*
X91266512Y-63019739D01*
X91421152Y-63050499D01*
X91421158Y-63050500D01*
X91578842Y-63050500D01*
X91733497Y-63019737D01*
X91879179Y-62959394D01*
X92010289Y-62871789D01*
X92121789Y-62760289D01*
X92209394Y-62629179D01*
X92268796Y-62485768D01*
X92279414Y-62469876D01*
X94765306Y-59983985D01*
X94799953Y-59969634D01*
X94834601Y-59983986D01*
X94848953Y-60018634D01*
X94840695Y-60045857D01*
X94790604Y-60120824D01*
X94730263Y-60266501D01*
X94730260Y-60266512D01*
X94699500Y-60421152D01*
X94699500Y-60578847D01*
X94730260Y-60733487D01*
X94730263Y-60733497D01*
X94790606Y-60879179D01*
X94878211Y-61010289D01*
X94989711Y-61121789D01*
X95120821Y-61209394D01*
X95266503Y-61269737D01*
X95266509Y-61269738D01*
X95266512Y-61269739D01*
X95421152Y-61300499D01*
X95421158Y-61300500D01*
X95430969Y-61300500D01*
X95465617Y-61314852D01*
X97017764Y-62866999D01*
X97017769Y-62867005D01*
X97019480Y-62868716D01*
X97131284Y-62980520D01*
X97131287Y-62980521D01*
X97131290Y-62980524D01*
X97218090Y-63030637D01*
X97218093Y-63030638D01*
X97218095Y-63030639D01*
X97268215Y-63059577D01*
X97388667Y-63091851D01*
X97420939Y-63100499D01*
X97420940Y-63100500D01*
X97420943Y-63100500D01*
X97579057Y-63100500D01*
X113698126Y-63100500D01*
X113732774Y-63114852D01*
X113739711Y-63121789D01*
X113870821Y-63209394D01*
X114016503Y-63269737D01*
X114016509Y-63269738D01*
X114016512Y-63269739D01*
X114171152Y-63300499D01*
X114171158Y-63300500D01*
X114328842Y-63300500D01*
X114483497Y-63269737D01*
X114629179Y-63209394D01*
X114760289Y-63121789D01*
X114871789Y-63010289D01*
X114959394Y-62879179D01*
X115019737Y-62733497D01*
X115038868Y-62637318D01*
X115059703Y-62606137D01*
X115096485Y-62598820D01*
X115121574Y-62612231D01*
X118466629Y-65957286D01*
X118479426Y-65981228D01*
X118479562Y-65981187D01*
X118479768Y-65981866D01*
X118480039Y-65982374D01*
X118480263Y-65983497D01*
X118540606Y-66129179D01*
X118628211Y-66260289D01*
X118739711Y-66371789D01*
X118870821Y-66459394D01*
X119016503Y-66519737D01*
X119016509Y-66519738D01*
X119016512Y-66519739D01*
X119171152Y-66550499D01*
X119171158Y-66550500D01*
X119328842Y-66550500D01*
X119483497Y-66519737D01*
X119629179Y-66459394D01*
X119760289Y-66371789D01*
X119871789Y-66260289D01*
X119959394Y-66129179D01*
X120019737Y-65983497D01*
X120020197Y-65981187D01*
X120050499Y-65828847D01*
X120050500Y-65828842D01*
X120050500Y-65671158D01*
X120050499Y-65671152D01*
X120019739Y-65516512D01*
X120019736Y-65516501D01*
X119970914Y-65398634D01*
X119959394Y-65370821D01*
X119871789Y-65239711D01*
X119760289Y-65128211D01*
X119629179Y-65040606D01*
X119629176Y-65040604D01*
X119629175Y-65040604D01*
X119563168Y-65013263D01*
X119483497Y-64980263D01*
X119482374Y-64980039D01*
X119481866Y-64979768D01*
X119481187Y-64979562D01*
X119481228Y-64979426D01*
X119457286Y-64966629D01*
X116342822Y-61852165D01*
X124650000Y-61852165D01*
X124650000Y-62500000D01*
X125566988Y-62500000D01*
X125534075Y-62557007D01*
X125500000Y-62684174D01*
X125500000Y-62815826D01*
X125534075Y-62942993D01*
X125566988Y-63000000D01*
X124650000Y-63000000D01*
X124650000Y-63647834D01*
X124656401Y-63707372D01*
X124656401Y-63707373D01*
X124706648Y-63842091D01*
X124792811Y-63957188D01*
X124907908Y-64043351D01*
X125042626Y-64093598D01*
X125102166Y-64100000D01*
X125750000Y-64100000D01*
X125750000Y-63183012D01*
X125807007Y-63215925D01*
X125934174Y-63250000D01*
X126065826Y-63250000D01*
X126192993Y-63215925D01*
X126250000Y-63183012D01*
X126250000Y-64100000D01*
X126897834Y-64100000D01*
X126957372Y-64093598D01*
X126957373Y-64093598D01*
X127092091Y-64043351D01*
X127207188Y-63957188D01*
X127293351Y-63842091D01*
X127343598Y-63707373D01*
X127343598Y-63707372D01*
X127350000Y-63647834D01*
X127350000Y-63000000D01*
X126433012Y-63000000D01*
X126465925Y-62942993D01*
X126500000Y-62815826D01*
X126500000Y-62684174D01*
X126465925Y-62557007D01*
X126433012Y-62500000D01*
X127350000Y-62500000D01*
X127350000Y-61852165D01*
X127343598Y-61792627D01*
X127343598Y-61792626D01*
X127293351Y-61657908D01*
X127207188Y-61542811D01*
X127092091Y-61456648D01*
X126957373Y-61406401D01*
X126897834Y-61400000D01*
X126250000Y-61400000D01*
X126250000Y-62316988D01*
X126192993Y-62284075D01*
X126065826Y-62250000D01*
X125934174Y-62250000D01*
X125807007Y-62284075D01*
X125750000Y-62316988D01*
X125750000Y-61400000D01*
X125102166Y-61400000D01*
X125042627Y-61406401D01*
X125042626Y-61406401D01*
X124907908Y-61456648D01*
X124792811Y-61542811D01*
X124706648Y-61657908D01*
X124656401Y-61792626D01*
X124656401Y-61792627D01*
X124650000Y-61852165D01*
X116342822Y-61852165D01*
X112946542Y-58455885D01*
X112847549Y-58389741D01*
X112831811Y-58379225D01*
X112831808Y-58379223D01*
X112831807Y-58379223D01*
X112704329Y-58326420D01*
X112704320Y-58326418D01*
X112568997Y-58299500D01*
X112568994Y-58299500D01*
X112568993Y-58299500D01*
X97187261Y-58299500D01*
X97152613Y-58285148D01*
X97138261Y-58250500D01*
X97146518Y-58223278D01*
X97209394Y-58129179D01*
X97269737Y-57983497D01*
X97300500Y-57828842D01*
X97300500Y-57671158D01*
X97290680Y-57621789D01*
X97269739Y-57516512D01*
X97269736Y-57516501D01*
X97209395Y-57370824D01*
X97209394Y-57370821D01*
X97121789Y-57239711D01*
X97010289Y-57128211D01*
X96936403Y-57078842D01*
X96879175Y-57040603D01*
X96877053Y-57039469D01*
X96877711Y-57038236D01*
X96854213Y-57014696D01*
X96850500Y-56995985D01*
X96850500Y-56475798D01*
X96860625Y-56445969D01*
X96874536Y-56427841D01*
X96935044Y-56281762D01*
X96950500Y-56164361D01*
X96950499Y-55650640D01*
X96935044Y-55533238D01*
X96929044Y-55518753D01*
X96929042Y-55481251D01*
X96935044Y-55466762D01*
X96950500Y-55349361D01*
X96950499Y-55049499D01*
X96964851Y-55014852D01*
X96999499Y-55000500D01*
X132598541Y-55000500D01*
X132698991Y-54980519D01*
X132791836Y-54962051D01*
X132845689Y-54939744D01*
X132973914Y-54886632D01*
X133137782Y-54777139D01*
X133277139Y-54637782D01*
X133277139Y-54637780D01*
X133281168Y-54633752D01*
X133281171Y-54633747D01*
X140777140Y-47137781D01*
X140886631Y-46973914D01*
X140962052Y-46791835D01*
X141000500Y-46598540D01*
X141000500Y-46401460D01*
X140962052Y-46208164D01*
X140934192Y-46140906D01*
X140886632Y-46026087D01*
X140886630Y-46026085D01*
X140777143Y-45862222D01*
X140777140Y-45862218D01*
X140637781Y-45722859D01*
X140637777Y-45722856D01*
X140473914Y-45613369D01*
X140473912Y-45613367D01*
X140291839Y-45537949D01*
X140291833Y-45537947D01*
X140213881Y-45522442D01*
X140098540Y-45499500D01*
X139901460Y-45499500D01*
X139805254Y-45518635D01*
X139708167Y-45537947D01*
X139708161Y-45537949D01*
X139526089Y-45613367D01*
X139362219Y-45722859D01*
X132099932Y-52985148D01*
X132065284Y-52999500D01*
X95401455Y-52999500D01*
X95208172Y-53037947D01*
X95208163Y-53037949D01*
X95026089Y-53113366D01*
X94862218Y-53222860D01*
X94722860Y-53362218D01*
X94613369Y-53526082D01*
X94612237Y-53528202D01*
X94611708Y-53527919D01*
X94603478Y-53540214D01*
X94308546Y-53835148D01*
X94273898Y-53849500D01*
X94099500Y-53849500D01*
X94064852Y-53835148D01*
X94050500Y-53800500D01*
X94050500Y-53671158D01*
X94050499Y-53671152D01*
X94019739Y-53516512D01*
X94019736Y-53516501D01*
X94006066Y-53483498D01*
X93959394Y-53370821D01*
X93871789Y-53239711D01*
X93760289Y-53128211D01*
X93314852Y-52682774D01*
X93300500Y-52648126D01*
X93300500Y-51399870D01*
X93310273Y-51370506D01*
X93368796Y-51292331D01*
X93419091Y-51157483D01*
X93419091Y-51157481D01*
X93419092Y-51157479D01*
X93425499Y-51097879D01*
X93425500Y-51097873D01*
X93425499Y-50976872D01*
X93439848Y-50942228D01*
X94817226Y-49564852D01*
X94851874Y-49550500D01*
X95078842Y-49550500D01*
X95233497Y-49519737D01*
X95379179Y-49459394D01*
X95510289Y-49371789D01*
X95621789Y-49260289D01*
X95709394Y-49129179D01*
X95769737Y-48983497D01*
X95800500Y-48828842D01*
X95800500Y-48671158D01*
X95769737Y-48516503D01*
X95709394Y-48370821D01*
X95621789Y-48239711D01*
X95510289Y-48128211D01*
X95510286Y-48128209D01*
X95466978Y-48099271D01*
X95379179Y-48040606D01*
X95379176Y-48040604D01*
X95379175Y-48040604D01*
X95233498Y-47980263D01*
X95233487Y-47980260D01*
X95078847Y-47949500D01*
X95078842Y-47949500D01*
X94421158Y-47949500D01*
X94421152Y-47949500D01*
X94266512Y-47980260D01*
X94266501Y-47980263D01*
X94120824Y-48040604D01*
X93999322Y-48121789D01*
X93989713Y-48128209D01*
X93989709Y-48128212D01*
X92182772Y-49935148D01*
X92148124Y-49949500D01*
X92027120Y-49949500D01*
X91967521Y-49955907D01*
X91832666Y-50006205D01*
X91717454Y-50092454D01*
X91631205Y-50207666D01*
X91580907Y-50342520D01*
X91574500Y-50402120D01*
X91574500Y-51097879D01*
X91580907Y-51157478D01*
X91580909Y-51157483D01*
X91631204Y-51292331D01*
X91689726Y-51370506D01*
X91699500Y-51399870D01*
X91699500Y-53078847D01*
X91730260Y-53233487D01*
X91730263Y-53233498D01*
X91787144Y-53370821D01*
X91790606Y-53379179D01*
X91836237Y-53447470D01*
X91878210Y-53510288D01*
X92101205Y-53733283D01*
X92115557Y-53767931D01*
X92101205Y-53802579D01*
X92093780Y-53808673D01*
X91989711Y-53878210D01*
X91878210Y-53989711D01*
X91790604Y-54120824D01*
X91730263Y-54266501D01*
X91730260Y-54266512D01*
X91699500Y-54421152D01*
X91699500Y-54421158D01*
X91699500Y-54578842D01*
X91701907Y-54590941D01*
X91694590Y-54627723D01*
X91663407Y-54648559D01*
X91653848Y-54649500D01*
X91269032Y-54649500D01*
X91234384Y-54635148D01*
X90614852Y-54015616D01*
X90600500Y-53980968D01*
X90600500Y-53801874D01*
X90614852Y-53767226D01*
X90621789Y-53760289D01*
X90709394Y-53629179D01*
X90769737Y-53483497D01*
X90775002Y-53457025D01*
X90782315Y-53439368D01*
X90820775Y-53381811D01*
X90873580Y-53254328D01*
X90900500Y-53118994D01*
X90900500Y-52981006D01*
X90900500Y-52443492D01*
X90914852Y-52408844D01*
X90920123Y-52404275D01*
X90982546Y-52357546D01*
X91068796Y-52242331D01*
X91119091Y-52107483D01*
X91119091Y-52107481D01*
X91119092Y-52107479D01*
X91125499Y-52047879D01*
X91125500Y-52047873D01*
X91125499Y-51352128D01*
X91125499Y-51352120D01*
X91119092Y-51292521D01*
X91119091Y-51292517D01*
X91068796Y-51157669D01*
X90982546Y-51042454D01*
X90894941Y-50976873D01*
X90867333Y-50956205D01*
X90867331Y-50956204D01*
X90822381Y-50939439D01*
X90732479Y-50905907D01*
X90672879Y-50899500D01*
X90672873Y-50899500D01*
X90128844Y-50899500D01*
X90128842Y-50899500D01*
X89971157Y-50899500D01*
X89971153Y-50899500D01*
X89727120Y-50899500D01*
X89667521Y-50905907D01*
X89532666Y-50956205D01*
X89417454Y-51042454D01*
X89331205Y-51157666D01*
X89280909Y-51292516D01*
X89277396Y-51325187D01*
X89263326Y-51354594D01*
X89220272Y-51397648D01*
X89185627Y-51412000D01*
X89093665Y-51412000D01*
X89059017Y-51397648D01*
X88943655Y-51282287D01*
X88794334Y-51190186D01*
X88664940Y-51147308D01*
X88657191Y-51143711D01*
X88657121Y-51143850D01*
X88480026Y-51053616D01*
X88292826Y-50992791D01*
X88292823Y-50992790D01*
X88143482Y-50969137D01*
X88098417Y-50962000D01*
X85901583Y-50962000D01*
X85864998Y-50967794D01*
X85707176Y-50992790D01*
X85707173Y-50992791D01*
X85519973Y-51053616D01*
X85342881Y-51143849D01*
X85342811Y-51143711D01*
X85335061Y-51147307D01*
X85205666Y-51190186D01*
X85205665Y-51190186D01*
X85056344Y-51282287D01*
X84932287Y-51406344D01*
X84840186Y-51555665D01*
X84785000Y-51722205D01*
X84774500Y-51824988D01*
X84774500Y-51952378D01*
X84773896Y-51960043D01*
X84749500Y-52114083D01*
X83571826Y-52114083D01*
X86350304Y-49452120D01*
X89274500Y-49452120D01*
X89274500Y-50147879D01*
X89280907Y-50207478D01*
X89280909Y-50207483D01*
X89331204Y-50342331D01*
X89417454Y-50457546D01*
X89532669Y-50543796D01*
X89667517Y-50594091D01*
X89667520Y-50594092D01*
X89711177Y-50598785D01*
X89727127Y-50600500D01*
X90672872Y-50600499D01*
X90672878Y-50600499D01*
X90732478Y-50594092D01*
X90732479Y-50594091D01*
X90732483Y-50594091D01*
X90867331Y-50543796D01*
X90982546Y-50457546D01*
X91068796Y-50342331D01*
X91119091Y-50207483D01*
X91119091Y-50207481D01*
X91119092Y-50207479D01*
X91125499Y-50147879D01*
X91125500Y-50147873D01*
X91125499Y-49452128D01*
X91125499Y-49452127D01*
X91125499Y-49452120D01*
X91119092Y-49392521D01*
X91119091Y-49392517D01*
X91068796Y-49257669D01*
X90982546Y-49142454D01*
X90913314Y-49090627D01*
X90867333Y-49056205D01*
X90867331Y-49056204D01*
X90822381Y-49039439D01*
X90732479Y-49005907D01*
X90672879Y-48999500D01*
X89727120Y-48999500D01*
X89667521Y-49005907D01*
X89532666Y-49056205D01*
X89417454Y-49142454D01*
X89331205Y-49257666D01*
X89280907Y-49392520D01*
X89274500Y-49452120D01*
X86350304Y-49452120D01*
X88398736Y-47489588D01*
X88432336Y-47475972D01*
X108316263Y-47356613D01*
X108342238Y-47363881D01*
X114682677Y-51265691D01*
X114694843Y-51272943D01*
X114697250Y-51274378D01*
X114843285Y-51334868D01*
X115000000Y-51355500D01*
X115000004Y-51355500D01*
X120250003Y-51355500D01*
X120268913Y-51355205D01*
X120347359Y-51342373D01*
X120424907Y-51329688D01*
X120566710Y-51265691D01*
X120568977Y-51264668D01*
X120568977Y-51264667D01*
X120568981Y-51264666D01*
X120691318Y-51164571D01*
X120745107Y-51089742D01*
X120783575Y-51036229D01*
X120783578Y-51036224D01*
X120783577Y-51036224D01*
X120783579Y-51036223D01*
X120839478Y-50888370D01*
X120855205Y-50731087D01*
X120605205Y-42731087D01*
X120584868Y-42593285D01*
X120524378Y-42447250D01*
X120428153Y-42321847D01*
X120302750Y-42225622D01*
X120302745Y-42225619D01*
X120156714Y-42165131D01*
X120048992Y-42150950D01*
X120000000Y-42144500D01*
X81250000Y-42144500D01*
X66250000Y-42144500D01*
X66205630Y-42150341D01*
X66093285Y-42165131D01*
X66068251Y-42175501D01*
X66030748Y-42175501D01*
X66004230Y-42148982D01*
X66000500Y-42130231D01*
X66000500Y-41799500D01*
X66014852Y-41764852D01*
X66049500Y-41750500D01*
X151200500Y-41750500D01*
X151235148Y-41764852D01*
G37*
%TD.AperFunction*%
%TD*%
M02*
